<svg width="130" height="33" viewBox="0 0 130 33" fill="none" xmlns="http://www.w3.org/2000/svg">
<path d="M0.230707 5.02945C0.000528336 5.58506 0.000518799 6.28939 0.00053978 7.69788C0.000551224 9.10609 0.000551224 9.81071 0.230633 10.3662C0.537455 11.1069 1.12602 11.6955 1.86675 12.0023C2.4223 12.2324 3.12658 12.2324 4.53514 12.2324C5.9429 12.2324 6.64809 12.2324 7.20345 12.0024C7.94421 11.6955 8.5328 11.1069 8.83956 10.3663C9.06974 9.81066 9.06966 9.10645 9.06973 7.69783C9.06969 6.28932 9.06865 5.58607 8.83859 5.03045C8.53168 4.28983 7.94311 3.70126 7.20247 3.39434C6.64686 3.16429 5.94368 3.1633 4.53516 3.16326C3.12655 3.16334 2.42234 3.16325 1.86673 3.39343C1.12606 3.70019 0.537464 4.28878 0.230707 5.02945Z" fill="#E2FD70"/>
<path d="M0.230169 15.2581C5.53131e-05 15.8136 5.72205e-05 16.5179 5.72205e-05 17.9265C5.72205e-05 19.3347 0.000108719 20.0394 0.230095 20.5947C0.536961 21.3355 1.12555 21.9241 1.86622 22.2309C2.42183 22.4611 3.12615 22.4611 4.53466 22.461C5.94246 22.4611 6.64754 22.461 7.20293 22.2309C7.94368 21.9241 8.53225 21.3355 8.83905 20.5948C9.06921 20.0393 9.06918 19.335 9.06922 17.9265C9.06927 16.518 9.0682 15.8147 8.83802 15.2591C8.53126 14.5184 7.94267 13.9298 7.20189 13.6229C6.64639 13.3929 5.94322 13.3919 4.53464 13.3919C3.12609 13.3919 2.42181 13.3919 1.86625 13.622C1.12553 13.9288 0.536991 14.5174 0.230169 15.2581Z" fill="#E2FD70"/>
<path d="M10.2292 7.6973C10.2292 9.10551 10.2292 9.81007 10.4592 10.3656C10.7661 11.1064 11.3547 11.695 12.0953 12.0018C12.651 12.2319 13.3552 12.2318 14.7638 12.2319C16.1714 12.2319 16.8767 12.2318 17.4321 12.0018C18.1728 11.695 18.7614 11.1064 19.0682 10.3656C19.2983 9.81017 19.2983 9.10583 19.2983 7.69736C19.2984 6.28878 19.2974 5.58551 19.0672 5.02994C18.7604 4.28926 18.1718 3.70067 17.431 3.39381C16.8756 3.1637 16.1724 3.16274 14.7638 3.16278C13.3553 3.16275 12.6509 3.16277 12.0954 3.39284C11.3547 3.6997 10.7662 4.28819 10.4593 5.02897C10.2292 5.58447 10.2292 6.28879 10.2292 7.6973Z" fill="#E2FD70"/>
<path d="M10.4593 15.258C10.2292 15.8137 10.2292 16.518 10.2292 17.9265C10.2292 19.3347 10.2292 20.0393 10.4593 20.5948C10.7661 21.3356 11.3546 21.9241 12.0954 22.2309C12.6509 22.461 13.3552 22.461 14.7637 22.461C16.1715 22.461 16.8767 22.461 17.4321 22.231C18.1729 21.9242 18.7614 21.3356 19.0682 20.5949C19.2984 20.0393 19.2983 19.3351 19.2983 17.9264C19.2983 16.5179 19.2972 15.8147 19.0672 15.2591C18.7603 14.5184 18.1718 13.9299 17.4311 13.623C16.8755 13.393 16.1723 13.3919 14.7638 13.3919C13.3552 13.392 12.651 13.3919 12.0953 13.622C11.3547 13.9289 10.7661 14.5175 10.4593 15.258Z" fill="#E2FD70"/>
<path d="M0.230103 25.6141C-1.14441e-05 26.1696 -9.53674e-06 26.8739 -9.53674e-06 28.2825C-9.53674e-06 29.6906 4.19617e-05 30.3954 0.230028 30.9507C0.536892 31.6915 1.12549 32.2801 1.86616 32.5869C2.42177 32.817 3.12609 32.8171 4.53459 32.817C5.94239 32.8171 6.64747 32.817 7.20286 32.5869C7.94361 32.2801 8.53218 31.6915 8.83898 30.9508C9.06915 30.3953 9.06912 29.691 9.06916 28.2825C9.0692 26.8739 9.06813 26.1707 8.83795 25.6151C8.5312 24.8744 7.9426 24.2858 7.20183 23.9789C6.64633 23.7489 5.94316 23.7479 4.53458 23.7479C3.12602 23.7479 2.42174 23.7479 1.86619 23.978C1.12546 24.2848 0.536924 24.8734 0.230103 25.6141Z" fill="#E2FD70"/>
<path d="M31.404 8.58263H28.616V21.1012H25.4727V8.58263H23.696V6.04064H25.4727V4.97464C25.4727 3.24354 25.9283 1.98621 26.8394 1.20266C27.7687 0.400887 29.2174 0 31.1853 0V2.59666C30.2378 2.59666 29.5727 2.77888 29.19 3.14332C28.8074 3.48954 28.616 4.09998 28.616 4.97464V6.04064H31.404V8.58263Z" fill="white"/>
<path d="M35.9465 8.2273C36.4021 7.46197 37.0034 6.86975 37.7505 6.45064C38.5158 6.01331 39.4178 5.79464 40.4565 5.79464V9.01996H39.6638C38.443 9.01996 37.5136 9.32974 36.8758 9.94929C36.2563 10.5688 35.9465 11.6439 35.9465 13.1746V21.1012H32.8305V6.04064H35.9465V8.2273Z" fill="white"/>
<path d="M40.9471 13.5026C40.9471 11.9902 41.2569 10.6508 41.8764 9.48462C42.5142 8.31841 43.3706 7.41641 44.4457 6.77864C45.5391 6.12264 46.7417 5.79464 48.0537 5.79464C49.2381 5.79464 50.2677 6.03153 51.1424 6.5053C52.0352 6.96086 52.7459 7.53486 53.2744 8.2273V6.04064H56.4177V21.1012H53.2744V18.8599C52.7459 19.5706 52.0261 20.1628 51.115 20.6366C50.2039 21.1104 49.1653 21.3472 47.999 21.3472C46.7053 21.3472 45.5208 21.0192 44.4457 20.3632C43.3706 19.689 42.5142 18.7597 41.8764 17.5753C41.2569 16.3726 40.9471 15.015 40.9471 13.5026ZM53.2744 13.5573C53.2744 12.5186 53.0557 11.6166 52.6184 10.8513C52.1992 10.086 51.6435 9.50285 50.951 9.10196C50.2586 8.70107 49.5115 8.50063 48.7097 8.50063C47.9079 8.50063 47.1608 8.70107 46.4684 9.10196C45.7759 9.48462 45.2111 10.0586 44.7737 10.824C44.3546 11.5711 44.1451 12.4639 44.1451 13.5026C44.1451 14.5413 44.3546 15.4524 44.7737 16.2359C45.2111 17.0195 45.7759 17.6208 46.4684 18.0399C47.179 18.4408 47.9262 18.6413 48.7097 18.6413C49.5115 18.6413 50.2586 18.4408 50.951 18.0399C51.6435 17.639 52.1992 17.0559 52.6184 16.2906C53.0557 15.507 53.2744 14.5959 53.2744 13.5573Z" fill="white"/>
<path d="M66.774 5.79464C67.9585 5.79464 69.0154 6.04064 69.9447 6.53264C70.8922 7.02463 71.6302 7.75352 72.1587 8.7193C72.6871 9.68507 72.9513 10.8513 72.9513 12.2179V21.1012H69.8627V12.6826C69.8627 11.3342 69.5256 10.3046 68.8514 9.59396C68.1771 8.86507 67.2569 8.50063 66.0907 8.50063C64.9245 8.50063 63.9952 8.86507 63.3027 9.59396C62.6285 10.3046 62.2914 11.3342 62.2914 12.6826V21.1012H59.1754V6.04064H62.2914V7.76263C62.8016 7.14308 63.4485 6.66019 64.2321 6.31397C65.0338 5.96775 65.8812 5.79464 66.774 5.79464Z" fill="white"/>
<path d="M81.5496 13.5846L88.4923 21.1012H84.283L78.707 14.6233V21.1012H75.591V0.874663H78.707V12.6279L84.1736 6.04064H88.4923L81.5496 13.5846Z" fill="white"/>
<path d="M95.7047 8.58263H92.9167V21.1012H89.7734V8.58263H87.9967V6.04064H89.7734V4.97464C89.7734 3.24354 90.2289 1.98621 91.14 1.20266C92.0694 0.400887 93.518 0 95.486 0V2.59666C94.5385 2.59666 93.8734 2.77888 93.4907 3.14332C93.108 3.48954 92.9167 4.09998 92.9167 4.97464V6.04064H95.7047V8.58263Z" fill="white"/>
<path d="M110.77 6.04064V21.1012H107.654V19.3246C107.162 19.9441 106.516 20.4361 105.714 20.8006C104.93 21.1468 104.092 21.3199 103.199 21.3199C102.015 21.3199 100.949 21.0739 100.001 20.5819C99.0719 20.0899 98.3339 19.361 97.7872 18.3953C97.2588 17.4295 96.9945 16.2633 96.9945 14.8966V6.04064H100.083V14.4319C100.083 15.7804 100.42 16.819 101.095 17.5479C101.769 18.2586 102.689 18.6139 103.855 18.6139C105.021 18.6139 105.942 18.2586 106.616 17.5479C107.308 16.819 107.654 15.7804 107.654 14.4319V6.04064H110.77Z" fill="white"/>
<path d="M116.663 8.2273C117.118 7.46197 117.72 6.86975 118.467 6.45064C119.232 6.01331 120.134 5.79464 121.173 5.79464V9.01996H120.38C119.159 9.01996 118.23 9.32974 117.592 9.94929C116.973 10.5688 116.663 11.6439 116.663 13.1746V21.1012H113.547V6.04064H116.663V8.2273Z" fill="white"/>
<path d="M126.337 8.58263V16.9193C126.337 17.4841 126.465 17.8941 126.72 18.1493C126.993 18.3861 127.449 18.5046 128.087 18.5046H130V21.1012H127.54C126.137 21.1012 125.062 20.7732 124.315 20.1172C123.568 19.4612 123.194 18.3953 123.194 16.9193V8.58263H121.417V6.04064H123.194V2.29599H126.337V6.04064H130V8.58263H126.337Z" fill="white"/>
</svg>
