<svg width="189" height="190" viewBox="0 0 189 190" fill="none" xmlns="http://www.w3.org/2000/svg">
<path d="M165.174 105.491L167.534 105.655L168.138 96.9706L182.076 97.9401L182.259 95.3129L165.961 94.1793L165.174 105.491Z" fill="white"/>
<path d="M176.231 117.64L178.809 118.381L179.536 115.85L176.951 115.133L176.231 117.64ZM163.1 113.893L174.818 117.26L175.545 114.728L163.827 111.361L163.1 113.893Z" fill="white"/>
<path d="M158.427 126.058C158.07 126.807 157.802 127.597 157.691 128.112L159.628 129.035L160.268 127.693C160.972 126.218 161.4 125.828 162.545 126.374L168.026 128.987L166.452 132.288L168.433 133.233L170.007 129.931L172.715 131.222L173.585 129.395L171.119 127.598L172.011 125.727L170.03 124.782L169.159 126.609L163.568 123.944C161.103 122.769 159.592 123.615 158.427 126.058Z" fill="white"/>
<path d="M151.172 137.312C149.202 139.919 149.178 142.621 151.162 144.12L151.337 144.253L152.91 142.171L152.755 142.053C151.879 141.392 151.805 140.358 153.025 138.743C154.554 136.72 155.934 136.754 157.764 138.014L152.456 145.037C152.704 145.316 153.185 145.771 153.691 146.153C156.337 148.153 159.275 147.5 161.245 144.893C163.421 142.014 162.75 138.695 159.754 136.431C156.739 134.152 153.584 134.121 151.172 137.312ZM159.504 143.517C158.254 145.17 156.878 145.536 155.283 144.208L159.15 139.092C160.559 140.341 160.886 141.688 159.504 143.517Z" fill="white"/>
<path d="M130.192 156.21C129.481 156.636 128.821 157.147 128.445 157.515L129.55 159.355L130.825 158.589C132.225 157.747 132.798 157.659 133.451 158.746L136.578 163.951L133.442 165.835L134.573 167.716L137.708 165.833L139.253 168.404L140.988 167.361L139.924 164.501L141.701 163.434L140.57 161.553L138.836 162.595L135.646 157.286C134.24 154.944 132.512 154.816 130.192 156.21Z" fill="white"/>
<path d="M120.597 160.896L122.9 167.48C123.656 169.643 123.009 170.748 120.984 171.456C118.889 172.189 117.947 171.562 117.23 169.514L114.912 162.885L112.426 163.754L114.945 170.959C115.823 173.468 117.773 174.981 120.765 173.935C122.837 173.21 123.671 171.679 123.838 170.458L123.93 170.426L125.991 176.318L128.477 175.449L123.083 160.027L120.597 160.896Z" fill="white"/>
<path d="M101.411 165.189C98.1583 165.503 96.153 167.314 96.3924 169.79L96.4135 170.008L99.0106 169.757L98.9918 169.563C98.8862 168.471 99.5972 167.716 101.612 167.521C104.136 167.277 105.045 168.316 105.356 170.515L96.5935 171.363C96.5559 171.734 96.5464 172.396 96.6075 173.027C96.9267 176.328 99.396 178.049 102.648 177.735C106.241 177.387 108.229 174.647 107.868 170.909C107.504 167.147 105.391 164.804 101.411 165.189ZM102.483 175.521C100.42 175.721 99.2192 174.955 99.1168 172.883L105.5 172.265C105.535 174.148 104.765 175.301 102.483 175.521Z" fill="white"/>
<path d="M71.9978 161.894C68.022 160.636 65.6154 162.1 64.8434 164.542C64.1008 166.89 64.9164 168.759 67.6548 170.29L70.1288 171.686C72.1208 172.827 72.6236 173.421 72.1751 174.84C71.7413 176.211 70.6055 176.568 68.3037 175.84C65.5137 174.958 64.9928 173.694 65.5957 171.787L65.6766 171.531L63.212 170.752L63.1238 171.031C62.2489 173.798 63.2048 176.76 67.5061 178.12C71.5284 179.392 73.995 177.819 74.7229 175.517C75.5022 173.053 74.4724 171.295 71.9604 169.938L69.479 168.565C67.2386 167.32 66.9353 166.661 67.3838 165.243C67.8397 163.801 68.8752 163.438 71.1769 164.166C74.432 165.195 74.9369 166.429 74.3267 168.359L74.2458 168.615L76.7104 169.394L76.8353 168.999C77.7838 165.999 76.4851 163.313 71.9978 161.894Z" fill="white"/>
<path d="M61.7136 153.058L58.5169 158.249L58.4547 158.21C58.586 156.974 57.9683 155.419 56.1203 154.281C53.3173 152.555 50.4685 153.693 48.461 156.953C46.4407 160.234 46.7481 163.315 49.655 165.105C51.4406 166.205 53.0589 166.228 54.2781 165.318L54.3819 165.382L53.3334 167.084L55.3682 168.337L63.9353 154.426L61.7136 153.058ZM56.893 160.885L55.755 162.733C54.6937 164.457 53.1984 164.653 51.3712 163.528C49.3779 162.3 49.1307 160.888 50.7035 158.334C52.2635 155.801 53.6566 155.399 55.6292 156.613C57.4564 157.739 57.9543 159.162 56.893 160.885Z" fill="white"/>
<path d="M45.374 145.811C43.759 144.184 42.0703 143.902 40.7587 144.208L40.6728 144.121L42.0226 142.781L40.3046 141.051L35.0784 146.239C32.9845 148.318 32.7334 150.972 35.1215 153.378C37.4064 155.679 40.2855 155.81 42.2064 153.904L42.3794 153.732L40.5927 151.932L40.3331 152.19C39.191 153.324 38.2258 153.217 36.8685 151.849C35.5285 150.5 35.3251 149.533 36.6057 148.262L37.0729 147.798L40.5122 150.363C42.5928 151.939 44.3678 152.239 45.7868 150.83C47.2924 149.335 46.903 147.351 45.374 145.811ZM43.8445 149.15C43.2042 149.786 42.6356 149.663 41.5179 148.814L38.3881 146.492L38.5439 146.338C40.2744 144.62 42.0818 145.471 43.2844 146.683C44.3667 147.773 44.5194 148.48 43.8445 149.15Z" fill="white"/>
<path d="M35.1576 134.018L28.4609 138.21C27.0967 139.064 26.2694 138.892 25.4284 137.548C24.6133 136.246 24.8635 135.543 26.2276 134.689L26.641 134.43L25.2436 132.198L24.5615 132.625C22.6393 133.828 21.586 135.638 22.9317 137.788C23.8762 139.296 25.2982 139.73 26.5077 139.548L26.5724 139.651L24.9395 140.673L26.2205 142.72L36.555 136.25L35.1576 134.018Z" fill="white"/>
<path d="M28.0245 120.342L23.3519 121.976L22.555 119.697L26.1811 115.071L25.1669 112.171L20.5046 118.193L13.7028 116.102L14.7251 119.026L20.3303 120.501L21.1191 122.757L12.6025 125.735L13.4719 128.221L28.8939 122.828L28.0245 120.342Z" fill="white"/>
<path d="M18.106 92.1873C18.1764 90.5307 17.0883 89.1421 15.2367 89.0634C13.3851 88.9848 12.1831 90.2761 12.1128 91.9328C12.0434 93.5651 13.1305 94.9781 14.9821 95.0567C16.8337 95.1353 18.0367 93.8197 18.106 92.1873Z" fill="white"/>
<path d="M29.3799 66.1204C31.0043 62.28 29.7723 59.7467 27.4141 58.7493C25.1458 57.7898 23.2085 58.4266 21.4276 61.0094L19.8057 63.3417C18.4826 65.2179 17.8444 65.6628 16.4744 65.0834C15.1493 64.5229 14.9004 63.3586 15.8409 61.1352C16.9808 58.4402 18.2885 58.0401 20.1301 58.8191L20.3771 58.9235L21.384 56.5429L21.1145 56.4289C18.442 55.2985 15.4033 55.9726 13.646 60.1274C12.0026 64.0127 13.3374 66.616 15.5608 67.5564C17.9414 68.5633 19.788 67.7028 21.3745 65.3291L22.974 62.9873C24.424 60.8735 25.1081 60.6333 26.4781 61.2128C27.8705 61.8017 28.1349 62.8667 27.1945 65.0901C25.8646 68.2343 24.5889 68.6214 22.7248 67.833L22.4778 67.7285L21.4708 70.1091L21.8526 70.2706C24.7498 71.496 27.5465 70.4549 29.3799 66.1204Z" fill="white"/>
<path d="M37.7148 51.9011C39.6753 49.287 39.4071 46.312 37.1051 44.5856L36.9296 44.4539L35.3641 46.5413L35.4811 46.6291C36.9052 47.6971 36.9735 48.9066 35.7591 50.5258C34.3546 52.3986 32.7793 52.3449 30.6724 50.7648C28.5656 49.1847 28.0535 47.6728 29.458 45.8C30.6724 44.1809 31.8721 43.9224 33.2962 44.9904L33.4133 45.0782L34.9788 42.9908L34.8032 42.8592C32.4817 41.1181 29.5848 41.6887 27.6682 44.2443C25.3857 47.2875 26.0832 50.5844 29.1069 52.8521C32.1112 55.1053 35.447 54.9248 37.7148 51.9011Z" fill="white"/>
<path d="M46.6861 41.6196L41.5855 35.5859C40.5465 34.3568 40.5998 33.5135 41.8103 32.4902C42.9835 31.4984 43.7152 31.6462 44.7542 32.8753L45.069 33.2478L47.0802 31.5476L46.5607 30.933C45.0967 29.2011 43.1553 28.4155 41.2186 30.0528C39.8592 31.202 39.6322 32.671 39.9839 33.8425L39.8908 33.9212L38.6472 32.4501L36.8035 34.0086L44.6748 43.3198L46.6861 41.6196Z" fill="white"/>
<path d="M61.7383 31.4809C65.029 29.7752 65.8536 26.4913 64.1142 23.1356C62.386 19.8016 59.2272 18.5825 55.9365 20.2882C52.6242 22.0052 51.7346 25.3228 53.4628 28.6568C55.2021 32.0125 58.4259 33.1979 61.7383 31.4809ZM60.661 29.4026C58.3878 30.5809 57.0144 29.892 55.7576 27.4673C54.5119 25.0642 54.7407 23.5449 57.0138 22.3666C59.2654 21.1995 60.6171 21.8996 61.8627 24.3027C63.1195 26.7274 62.9125 28.2355 60.661 29.4026Z" fill="white"/>
<path d="M75.2666 25.8668L70.9933 10.0976L68.4514 10.7865L72.7247 26.5556L75.2666 25.8668Z" fill="white"/>
<path d="M85.5238 23.8029L83.6388 7.57408L81.0229 7.87793L82.9078 24.1067L85.5238 23.8029Z" fill="white"/>
<path d="M110.709 25.0924C115.619 26.264 119.475 23.9751 120.646 19.0652C121.818 14.1554 119.411 10.3723 114.502 9.20069L108.856 7.85363L105.064 23.7454L110.709 25.0924ZM113.953 11.5014C117.748 12.407 118.892 14.3347 117.919 18.4144C116.945 22.494 115.053 23.6972 111.258 22.7917L108.175 22.0559L110.869 10.7656L113.953 11.5014Z" fill="white"/>
<path d="M127.95 31.8396C131.215 33.5938 134.391 32.4216 136.18 29.092C137.958 25.784 137.182 22.4882 133.916 20.734C130.63 18.9682 127.389 20.1058 125.612 23.4139C123.823 26.7434 124.663 30.0738 127.95 31.8396ZM129.058 29.7774C126.802 28.5656 126.596 27.0431 127.889 24.6372C129.17 22.2528 130.553 21.5843 132.809 22.7961C135.043 23.9964 135.227 25.5074 133.946 27.8918C132.654 30.2977 131.292 30.9777 129.058 29.7774Z" fill="white"/>
<path d="M141.612 41.0045L147.819 37.5524L150.466 35.8515L150.608 35.9843L149.122 38.7645L146.112 45.189L148.612 47.5137L159.061 40.6808L157.061 38.821L151.426 42.8045L148.91 44.7939L148.767 44.6611L150.372 41.8248L153.4 35.417L150.9 33.0923L144.764 36.5764L141.999 38.3678L141.856 38.235L143.674 35.5635L147.239 29.6883L145.15 27.7455L139.094 38.6632L141.612 41.0045Z" fill="white"/>
<path d="M154.161 55.4085L160.16 51.8047C162.104 50.6369 163.317 51.0461 164.422 52.8856C165.565 54.7878 165.143 55.8377 163.283 56.9552L157.263 60.5716L158.619 62.8292L165.141 58.9114C167.503 57.4925 168.488 55.2505 166.869 52.5539C165.651 50.5263 163.94 50.0463 162.543 50.231L162.493 50.1474L164.437 48.9796L163.194 46.9102L152.805 53.151L154.161 55.4085Z" fill="white"/>
<path d="M166.693 69.3031C167.216 70.8764 168.727 71.7869 170.486 71.2016C172.244 70.6162 172.908 68.9817 172.384 67.4084C171.868 65.8583 170.349 64.9246 168.591 65.51C166.833 66.0953 166.177 67.753 166.693 69.3031Z" fill="white"/>
</svg>
