<svg width="29" height="29" viewBox="0 0 29 29" fill="none" xmlns="http://www.w3.org/2000/svg">
<path d="M26.8752 0H2.31019C1.14557 0 0.185059 0.924491 0.185059 2.0651V26.7502C0.185059 27.8908 1.14557 28.8153 2.31019 28.8153H26.8752C28.0519 28.8153 29.0004 27.8908 29.0004 26.7502V2.0651C29.0004 0.924491 28.0398 0 26.8752 0ZM8.91369 24.1328H4.56739V11.0939H8.91369V24.1328ZM6.75254 9.31695H6.71653C5.25175 9.31695 4.31525 8.32042 4.31525 7.07175C4.31525 5.79908 5.27576 4.82656 6.77656 4.82656C8.26535 4.82656 9.17783 5.78707 9.20185 7.07175C9.20185 8.32042 8.26535 9.31695 6.74054 9.31695H6.75254ZM24.606 24.1328H20.2477V17.1691C20.2477 15.4282 19.6234 14.2276 18.0505 14.2276C16.8499 14.2276 16.1295 15.032 15.8054 15.8124C15.6853 16.0885 15.6733 16.4727 15.6733 16.869V24.1328H11.327C11.327 24.1328 11.387 12.3426 11.327 11.1179H15.6853V12.9669C16.0787 12.2841 16.6513 11.7218 17.3412 11.3409C18.031 10.96 18.8119 10.7749 19.5994 10.8057C22.4689 10.8057 24.618 12.6787 24.618 16.6769V24.1328H24.606Z" fill="#1A1A1A"/>
</svg>
