<svg width="48" height="43" viewBox="0 0 48 43" fill="none" xmlns="http://www.w3.org/2000/svg">
<path d="M13.7161 12.195C12.4859 10.9648 10.4915 10.9648 9.26131 12.195C8.03116 13.4251 8.03116 15.4196 9.26131 16.6497L13.5039 20.8924M13.7161 12.195L11.5948 10.0737C10.3646 8.84351 10.3647 6.84897 11.5948 5.61889C12.825 4.38866 14.8194 4.38873 16.0495 5.61889L18.1708 7.74021M13.7161 12.195L22.2014 20.4681M13.5039 20.8924C12.2738 19.6622 10.2793 19.6622 9.04917 20.8924C7.81901 22.1225 7.81901 24.117 9.04917 25.3472L20.6104 36.9084C25.8824 42.1804 34.4302 42.1804 39.7022 36.9084L42.556 34.0546C44.5251 32.0855 45.6313 29.4149 45.6313 26.63V21.7309C45.6313 18.946 44.5251 16.2754 42.556 14.3063L39.6981 11.4397C39.4555 11.1927 39.3111 10.8631 39.3111 10.4937C39.3111 8.75392 37.9008 7.34366 36.1611 7.34366C34.4214 7.34352 33.011 8.75391 33.011 10.4937C33.011 12.5918 33.86 14.4977 35.2257 15.8767M13.5039 20.8924L19.7618 27.1503M18.1708 7.74021L27.6107 17.1801M18.1708 7.74021C16.9407 6.51005 16.9408 4.51552 18.1708 3.28544C19.4011 2.05521 21.3955 2.05528 22.6256 3.28543L37.3688 18.0286M37.3688 18.0286C36.4641 18.9341 35.7514 20.0313 35.2968 21.2543C34.9339 22.2307 34.7355 23.2869 34.7355 24.3897M37.3688 18.0286L37.3715 18.0259M11.7558 41.5258C9.30421 41.3668 6.98566 40.3518 5.20329 38.6573C3.42091 36.9627 2.28746 34.6959 2 32.2508M12.6498 35.7288C11.4723 35.5608 10.3761 35.0298 9.51327 34.2095C8.6504 33.3892 8.0636 32.3201 7.83423 31.1506" stroke="black" stroke-width="3" stroke-linecap="round" stroke-linejoin="round"/>
</svg>
