<svg width="398" height="375" viewBox="0 0 398 375" fill="none" xmlns="http://www.w3.org/2000/svg">
<rect width="398" height="374" fill="#FF4444"/>
<path fill-rule="evenodd" clip-rule="evenodd" d="M269.395 238.523C267.11 237.712 264.908 236.776 262.901 235.399C257.117 231.117 253.345 224.671 249.781 218.565C244.761 209.683 241.185 200.219 238.713 190.346C237.65 186.105 237.289 181.187 234.876 177.426C229.405 169.552 213.362 170.572 204.843 171.954C199.138 172.958 197.959 179.308 196.663 184.007C195.584 187.912 194.878 191.86 194.285 195.862C192.875 196.784 191.283 197.533 189.765 198.186C173.224 203.231 170.317 212.584 164 227.031C153.329 248.03 124.375 256.252 120.001 281.104C117.184 297.511 125.197 312.947 133.458 326.586C141.153 341.485 151.894 348.635 169 345.116C185.045 341.536 200.465 335.547 216.227 330.919C223.861 329.052 231.484 324.196 239.514 325.889C256.062 329.585 273.063 331.323 290.021 330.844C313.831 331.801 313.827 309.071 311.383 291.468C309.672 264.074 295.781 246.484 269.395 238.523Z" fill="white"/>
<path fill-rule="evenodd" clip-rule="evenodd" d="M270.727 278.454C272.711 279.767 274.379 281.757 275.719 283.851C270.127 283.269 264.544 282.598 258.974 281.834C259.703 281.368 260.439 280.912 261.192 280.481C263.939 278.933 267.66 276.426 270.727 278.454ZM177.818 294.991C176.794 294.59 176.397 293.027 175.998 292.131C174.746 289.321 173.603 286.464 172.414 283.627C176.928 282.34 181.318 280.912 185.994 280.226C191.023 279.489 196.125 279.31 201.2 279.476C211.478 279.811 221.662 281.492 231.768 283.294C241.861 285.094 251.955 286.823 262.119 288.18C272.078 289.51 282.068 290.483 292.076 291.337C294.021 291.503 297.263 292.202 298.827 290.672C300.065 289.459 300.105 287.223 298.556 286.237C297.591 285.623 296.193 285.614 295.09 285.472C293.701 285.293 292.307 285.174 290.91 285.082C290.341 285.044 289.772 285.01 289.203 284.975C293.773 283.251 298.546 282.311 303.5 282.573C303.781 284.276 305.043 286.028 305.734 287.432C306.94 289.884 307.881 292.365 308.498 295.031C309.788 300.603 309.845 306.386 309.48 312.07C309.145 316.808 308.426 322.05 304.711 325.406C301.898 327.947 297.929 328.887 294.247 329.183C289.967 329.527 285.621 329.16 281.378 328.586C275.426 327.781 269.446 326.716 263.611 325.289C252.309 322.526 241.477 318.129 231.483 312.167C226.609 309.26 221.958 305.989 217.018 303.192C211.983 300.342 206.626 298.131 201.001 296.759C194.706 295.222 188.125 294.566 181.655 294.945C180.533 295.011 178.91 295.419 177.818 294.991ZM170.524 292.138C171.185 294.286 171.691 296.737 173.103 298.542C174.502 300.33 176.612 300.961 178.797 301.12C181.433 301.311 184.099 301.189 186.74 301.287C192.157 301.488 197.5 302.368 202.679 303.983C207.505 305.488 211.984 307.835 216.3 310.439C220.29 312.847 224.163 315.432 228.155 317.833C227.093 318.32 226.042 318.847 224.986 319.306C222.771 320.269 220.543 321.197 218.304 322.102C213.889 323.887 209.456 325.629 204.977 327.247C195.946 330.509 186.767 333.36 177.477 335.788C173.046 336.946 168.552 338.299 163.949 338.491C159.868 338.662 156.087 337.508 152.795 335.08C145.967 330.044 140.535 322.776 136.143 315.606C133.534 311.347 131.258 306.871 129.375 302.244C128.422 299.904 127.558 297.528 126.781 295.124C126.416 293.995 126.07 292.86 125.743 291.72C125.599 291.219 125.461 290.716 125.324 290.212C132.306 288.081 139.371 286.157 146.601 285.089C150.462 284.518 154.374 284.229 158.277 284.271C160.214 284.292 162.15 284.397 164.077 284.597C165.114 284.705 166.147 284.843 167.176 285.015C167.601 285.085 168.038 285.19 168.476 285.267C169.145 287.561 169.82 289.854 170.524 292.138ZM314.849 283.015C315.225 282.254 315.384 281.505 315.518 280.676C315.621 280.043 315.894 279.153 315.655 278.332C315.387 277.413 314.658 276.59 314.135 275.806C313.557 274.939 312.979 274.072 312.403 273.204C311.249 271.469 310.098 269.732 308.948 267.994C304.255 260.896 299.594 253.777 294.925 246.663C290.782 240.35 286.709 233.98 282.439 227.752C278.789 222.426 274.809 217.188 269.813 213.045C263.494 207.808 255.971 205.341 248.113 203.416C247.255 202.525 246.108 202.038 244.883 202.137C243.152 200.173 241.776 198.801 241.152 196.303C240.853 195.106 240.947 191.744 239.782 191.037C238.398 190.196 237.676 191.309 237.294 192.563C236.018 196.76 237.483 202.403 240.855 206.608C239.434 211.519 237.551 218.5 234.191 222.434C230.593 226.648 225.617 227.959 220.249 228.045C210.011 228.21 199.784 224.404 191.975 217.807C189.601 215.802 187.397 213.563 185.402 211.181C183.907 209.394 182.137 206.637 180.967 204.553C180.967 203.74 180.008 202.891 189.767 202.235C199.526 201.578 200.266 188.211 200.483 186.391C200.66 184.914 201.41 182.621 200.369 181.416C199.927 180.905 199.021 180.822 198.461 181.17C197.405 181.826 197.059 183.503 196.727 184.642C196.262 186.238 194.742 196.141 191.861 197.287C190.513 197.824 188.966 197.834 187.54 197.933C185.779 198.056 184.014 198.146 182.259 198.351C181.612 198.427 180.906 198.636 180.268 198.643C179.853 198.646 179.424 198.445 179.023 198.303C177.668 197.824 176.314 198.183 174.918 198.371C162.576 200.03 149.868 203.817 139.341 210.631C130.063 216.637 123.526 225.274 119.212 235.373C114.811 245.679 112.289 256.823 110.175 267.794C109.466 271.47 108.848 275.163 108.317 278.869C107.803 282.45 107.161 286.11 107.007 289.727C106.946 291.158 107.288 292.488 107.814 293.795C108.407 295.266 109.807 295.846 111.15 296.533C114.099 298.042 117.209 299.212 120.414 300.041C122.371 303.604 124.019 307.306 125.343 311.148C124.852 312.122 124.841 313.575 124.747 314.522C124.513 316.878 124.412 319.247 124.391 321.614C124.349 326.359 124.634 331.098 124.858 335.836C125.085 340.64 125.838 359.597 125.961 361.912C126.056 363.71 125.928 366.226 126.875 367.822C128.33 370.276 131.922 370.194 133.585 368.204C174.918 377.093 252.612 374.416 283.903 369.943C287.974 369.361 286.695 370.007 287.731 368.978C288.508 368.205 289.169 366.882 289.384 365.818C289.671 364.399 289.208 363.114 288.395 361.966C287.541 360.758 287.386 358.803 287.068 357.367C286.318 353.972 285.945 339.066 285.595 337.414C285.486 336.899 285.38 336.355 285.252 335.81C290.992 336.354 296.973 336.354 302.433 334.434C305.53 333.345 308.418 331.634 310.641 329.192C313.332 326.234 314.83 322.511 315.6 318.625C316.593 313.614 316.804 308.423 316.609 303.329C316.338 297.308 315.34 291.203 312.862 285.675C313.678 284.918 314.361 284.004 314.849 283.015Z" fill="black"/>
<path fill-rule="evenodd" clip-rule="evenodd" d="M186.572 67.9691C203.092 67.0652 217.728 62.4125 229.356 72.8254C229.356 72.8254 248.168 58.7434 251.306 64.1067C253.41 67.7005 250.493 72.5249 251.275 76.9596C256.374 85.6738 256.086 100.423 256.374 103.88C257.101 112.592 261.678 145.377 261.678 153.162C261.678 157.136 258.41 167.543 256.374 173.335C251.844 186.226 243.195 192.796 229.012 192.796C214.829 192.796 191.68 180.914 184.256 170.364C183.605 169.439 179.397 172.137 174.996 167.458C170.229 162.388 167.584 152.72 167.584 146.957C167.584 139.643 162.868 134.571 163.417 125.21C164.642 104.303 168.895 68.9364 186.572 67.9691Z" fill="white"/>
<path fill-rule="evenodd" clip-rule="evenodd" d="M184.726 43.662C184.941 43.6489 185.159 43.6594 185.377 43.6807C185.615 43.6912 185.854 43.7146 186.092 43.7622C187.306 43.9958 188.389 44.6396 189.228 45.5462C189.251 45.5699 189.27 45.5964 189.291 45.6198C189.684 45.9167 190.048 46.2534 190.376 46.6105C190.434 46.5553 190.489 46.5004 190.549 46.4452C190.722 46.2925 190.903 46.148 191.092 46.0116C191.881 45.3327 192.808 44.8391 193.805 44.5583L193.941 44.5213C193.967 44.5135 193.994 44.5082 194.02 44.503C194.728 44.2667 195.472 44.1458 196.222 44.1482C197.119 44.1193 198.018 44.2667 198.857 44.6133C199.85 45.0262 200.715 45.6776 201.442 46.461C201.919 46.8499 202.335 47.278 202.776 47.7486C203.686 48.7233 204.404 49.8638 204.857 51.1202C204.92 51.2963 204.975 51.4773 205.025 51.6586C206.134 51.5301 207.248 51.4382 208.362 51.3932C209.613 51.3173 210.863 51.2907 212.117 51.333C215.569 51.4458 218.946 52.0557 222.215 53.1725C222.87 53.3667 223.507 53.6138 224.121 53.9186C225.083 54.3023 225.992 54.791 226.85 55.3823L227.58 55.8164C227.947 56.035 228.314 56.2563 228.669 56.4834C229.516 57.0276 230.318 57.637 231.078 58.294C231.881 58.9433 232.638 59.6502 233.359 60.391C233.555 60.5915 233.744 60.7947 233.93 60.9991C235.592 61.8981 237.068 63.0491 238.445 64.4219C239.537 63.7923 240.668 63.2215 241.835 62.7141C243.038 62.1911 244.566 61.6524 245.827 61.2979C246.96 60.9799 248.079 60.7618 249.214 60.6013C249.731 60.5119 250.25 60.441 250.772 60.3805L250.751 60.3887C251.118 60.349 251.482 60.3148 251.852 60.2833L251.841 60.2807C251.998 60.2678 252.158 60.2544 252.316 60.2439L252.698 60.2126C252.814 60.2021 252.981 60.4725 252.992 60.5671L253.005 60.6643C253.092 60.7618 253.17 60.8696 253.225 60.9353C253.293 60.9297 253.362 60.9248 253.43 60.9219C253.634 60.9037 253.87 61.2687 253.991 61.408L254.1 61.5364C254.224 61.6861 254.348 61.8586 254.368 62.0466C254.502 63.1374 254.628 64.2303 254.743 65.3235C254.788 66.1513 254.743 66.9712 254.607 67.7832C254.505 68.5716 254.4 69.3599 254.295 70.1457C254.127 70.6978 253.962 71.2496 253.797 71.8012C253.731 72.0117 253.658 72.2191 253.587 72.4267C253.168 73.8131 252.676 75.1628 252.091 76.4707C252.518 76.9442 252.916 77.4351 253.287 77.942C253.375 78.0332 253.464 78.1239 253.548 78.2185C253.571 78.1819 253.605 78.1478 253.642 78.1291C253.768 78.0739 253.86 78.1396 253.938 78.2476C254.764 79.0384 255.364 79.961 255.737 81.0145L255.969 81.564C256.007 81.6558 256.045 81.7478 256.083 81.8397C256.379 82.6388 256.607 83.4587 256.796 84.2888C256.965 84.9421 257.086 85.6044 257.164 86.2737C257.73 88.1797 258.178 90.1295 258.6 92.0531C258.667 92.3559 258.635 92.626 258.539 92.8562L258.786 93.0975L259.208 93.5186C259.916 94.2271 260.64 94.9718 261.166 95.8147C261.711 96.6897 262.112 97.6253 262.558 98.5532L262.654 98.7503L262.85 99.1455C263.063 99.577 263.164 99.8155 263.352 100.337C263.664 101.207 263.832 102.082 263.911 103.005C264.026 104.347 264.01 105.811 263.423 107.059C263.421 107.07 263.415 107.078 263.41 107.086C263.143 108.292 262.482 109.411 261.478 110.126C261.263 110.329 261.032 110.51 260.786 110.654C260.194 111.002 259.651 111.033 259.006 110.872L258.925 110.851C258.843 110.83 258.77 110.812 258.699 110.796C258.804 110.883 258.856 110.986 258.699 111.059C258.547 111.132 258.411 111.175 258.282 111.19C258.337 111.261 258.343 111.337 258.227 111.401C257.976 111.535 257.771 111.577 257.561 111.54L257.605 111.905C257.949 114.67 258.257 115.216 258.526 118.186C258.704 121.226 258.987 124.259 259.378 127.278L259.513 128.376C259.944 131.853 260.429 135.356 261.171 138.778C261.546 140.273 261.869 141.779 262.141 143.295C262.527 144.449 262.797 145.628 262.946 146.832C263.164 148.057 263.313 149.292 263.4 150.537C263.701 151.334 263.848 152.143 263.84 152.968C263.879 154.077 263.843 155.184 263.725 156.285C263.659 157.43 263.502 158.565 263.253 159.69C263.03 161.233 262.624 162.723 262.042 164.168C261.575 165.782 261.003 167.364 260.353 168.911C259.344 171.308 258.125 173.534 256.738 175.728C255.438 177.786 254.043 179.767 252.449 181.609C250.389 183.99 248.04 186.171 245.465 188.011C243.997 189.099 242.448 190.076 240.828 190.912C238.846 191.937 236.833 192.859 234.686 193.482C233.346 193.871 231.983 194.139 230.604 194.344C227.896 194.746 225.091 194.685 222.367 194.215C220.61 193.979 218.883 193.569 217.25 192.983C215.907 192.499 214.628 191.945 213.349 191.319C212.691 191.001 212.056 190.633 211.448 190.221C210.426 189.556 209.469 188.805 208.577 187.974C208.286 187.724 208.003 187.469 207.725 187.201C207.592 187.083 207.665 186.907 207.82 186.865L207.867 186.86C207.807 186.805 207.744 186.749 207.683 186.692C207.67 186.681 207.66 186.668 207.649 186.655C207.621 186.628 207.589 186.602 207.563 186.576C207.461 186.487 207.563 186.287 207.652 186.24C207.686 186.221 207.731 186.219 207.78 186.224C207.77 186.213 207.762 186.205 207.752 186.198C207.741 186.19 207.739 186.169 207.741 186.148L207.702 186.116C207.568 185.998 207.636 185.825 207.794 185.78C207.87 185.756 207.997 185.768 208.129 185.797L208.179 185.809L208.09 185.724C207.933 185.588 207.982 185.435 208.176 185.388C208.321 185.397 208.464 185.417 208.605 185.451L208.711 185.48C208.764 185.493 208.813 185.509 208.866 185.525C208.777 185.443 208.688 185.365 208.601 185.283C208.515 185.207 208.606 184.989 208.685 184.944C208.792 184.884 209.002 184.968 209.099 185.039C209.338 185.065 209.652 185.17 209.768 185.27C210.085 185.575 210.413 185.866 210.745 186.15C210.947 186.213 211.139 186.297 211.285 186.423C211.663 186.786 212.056 187.128 212.457 187.459L212.762 187.669C212.813 187.704 212.865 187.738 212.916 187.772C213.493 188.111 214.07 188.447 214.644 188.786C216.749 189.501 218.854 190.216 220.956 190.928L221.234 191.012L223.277 191.264C224.619 191.406 225.964 191.398 227.306 191.243C228.313 191.256 229.311 191.156 230.294 190.951C231.964 190.667 233.603 190.25 235.197 189.666C237.032 188.996 238.78 188.113 240.487 187.162C241.101 186.818 241.704 186.452 242.296 186.066C242.487 185.93 242.679 185.79 242.87 185.648C244.131 184.7 245.337 183.688 246.498 182.618C247.044 182.116 247.568 181.594 248.074 181.052C248.147 180.973 248.218 180.897 248.289 180.818C248.774 180.287 249.243 179.738 249.691 179.171L250.119 178.687C251.844 176.535 253.377 174.22 254.756 171.836C256.125 169.474 257.252 166.988 258.149 164.415C258.437 163.498 258.689 162.568 258.898 161.627C259.286 160.497 259.541 159.338 259.659 158.156C259.698 157.924 259.729 157.693 259.761 157.462L259.779 157.097C259.782 157.036 259.784 156.976 259.784 156.915C259.837 156.548 259.881 156.179 259.916 155.811C259.937 155.441 259.95 155.07 259.952 154.7L259.923 152.427C259.916 152.356 259.908 152.283 259.902 152.209L259.845 151.707C259.719 150.671 259.622 149.633 259.496 148.598C259.496 148.593 259.496 148.585 259.493 148.577C259.446 148.191 259.396 147.802 259.339 147.413C259.31 147.182 259.273 146.95 259.239 146.719L259.174 146.315C259.052 145.611 258.904 144.913 258.725 144.222L258.647 143.926L258.191 141.626L257.677 139.364C257.344 137.847 257.066 136.321 256.846 134.781C256.447 132.326 256.106 129.869 255.81 127.402C255.794 127.283 255.779 127.162 255.766 127.044C255.464 124.756 255.247 122.459 255.105 120.154C254.914 117.884 254.803 115.608 254.775 113.33C254.772 113.227 254.84 113.143 254.921 113.096L254.914 112.658C254.904 112.27 254.898 112.735 254.894 112.293L254.889 111.078C254.89 110.977 254.89 110.906 254.893 110.901C253.492 110.998 252.55 110.919 251.197 110.847L250.968 110.836C249.728 110.778 248.496 110.641 247.272 110.436C247.266 110.499 247.225 110.544 247.154 110.557C247.028 110.562 246.91 110.562 246.789 110.565L246.834 110.736C246.837 110.823 246.797 110.878 246.713 110.901L246.364 110.917C245.897 110.937 245.428 110.946 244.965 110.883C244.548 110.828 244.142 110.73 243.738 110.615C243.489 110.573 243.235 110.515 242.975 110.441C242.309 110.25 241.648 109.992 240.98 109.787C240.298 109.643 239.606 109.595 238.883 109.769C238.117 109.95 237.47 110.278 236.667 110.079C236.508 110.04 236.353 109.979 236.198 109.916L236.055 109.906C236.031 109.904 236.006 109.901 235.981 109.897C235.144 109.777 234.4 109.246 233.603 108.962C233.325 108.894 233.049 108.911 232.779 109.024L232.712 109.054L232.447 109.251C232.34 109.377 232.235 109.504 232.13 109.632L231.975 109.824C231.689 110.179 231.385 110.497 231.015 110.728C230.57 111.14 230.04 111.382 229.408 111.398C229.049 111.408 228.693 111.332 228.347 111.222C227.041 111.627 225.644 111.708 224.341 111.314C223.824 111.235 223.318 111.096 222.833 110.878C222.605 110.775 222.377 110.654 222.157 110.52C221.237 110.909 220.367 111.427 219.478 111.874L219.278 111.975C218.37 112.428 217.365 112.87 216.337 112.804C215.042 112.72 213.771 112.547 212.502 112.328C212.491 112.328 212.478 112.326 212.468 112.323L212.293 112.294L211.658 112.182L211.147 112.087L210.885 112.187C208.784 112.984 206.481 113.606 204.37 113.048C203.45 112.935 202.587 112.625 201.809 112.097C201.782 112.079 201.756 112.06 201.73 112.039C201.607 111.976 201.491 111.905 201.389 111.829L201.367 111.812L201.347 111.795L201.337 111.789C200.186 111.259 199.525 110.129 199.641 108.862C199.57 108.46 199.572 108.066 199.651 107.646C199.276 108.089 198.893 108.529 198.505 108.965C197.086 110.677 195.696 112.425 194.409 114.244L194.114 114.665C193.406 115.666 192.748 116.701 192.14 117.768C191.524 118.822 190.892 119.865 190.24 120.895C189.391 121.836 188.57 122.798 187.779 123.785L187.442 124.209L186.305 125.709C185.5 126.666 184.831 127.712 184.304 128.847C183.872 129.654 183.473 130.476 183.114 131.32C182.999 131.575 182.889 131.832 182.781 132.09C182.412 133.096 182.1 134.121 181.856 135.18C181.66 135.946 181.519 136.723 181.436 137.511L181.41 137.774C181.379 138.084 181.355 138.394 181.342 138.704C181.418 138.749 181.481 138.793 181.528 138.838L181.719 138.907L181.874 138.953C182.115 139.028 182.532 139.183 182.433 139.374L181.927 140.341C181.979 140.397 182.003 140.454 181.969 140.518C181.63 141.166 181.29 141.815 180.949 142.465C180.938 142.488 180.92 142.507 180.902 142.52C181.193 142.654 181.476 142.801 181.746 142.961C182.273 143.277 182.661 143.642 183.02 144.068C183.397 144.294 183.754 144.541 184.089 144.824C184.504 145.261 184.865 145.739 185.172 146.257C185.455 146.745 185.686 147.255 185.864 147.789C185.943 148.07 185.98 148.361 185.977 148.658C185.66 150.903 183.098 149.365 183.049 149.168C182.697 147.812 182.294 146.956 181.387 145.947L181.363 145.931C180.839 145.699 180.32 145.471 179.777 145.292C179.696 145.308 179.612 145.319 179.528 145.332C179.622 145.466 179.575 145.597 179.384 145.621C178.558 145.784 177.724 145.828 176.885 145.757L175.611 145.576C175.083 145.779 174.578 146.04 174.102 146.351L173.944 146.456L173.915 146.477C172.686 147.468 171.737 148.785 171.086 150.219C171.029 150.347 170.973 150.476 170.92 150.607L170.843 150.803L170.837 150.813C169.988 154.159 170.746 157.832 172.298 160.867C173.144 162.226 174.028 163.558 174.951 164.864L175.847 166.039C176.377 166.539 176.896 167.051 177.402 167.576C177.48 167.656 177.564 167.734 177.648 167.81C177.916 167.986 178.188 168.142 178.466 168.273C178.574 168.31 178.684 168.344 178.794 168.373C179.329 168.63 179.89 168.767 180.479 168.783C181.259 168.835 182.015 168.743 182.746 168.51L182.891 168.462L182.999 168.423C183.397 168.168 183.767 167.85 184.118 167.477C184.197 167.395 184.344 167.395 184.511 167.44C184.603 167.345 184.695 167.245 184.781 167.138C184.842 167.072 184.936 167.07 185.01 167.119C185.259 167.091 185.932 167.474 185.757 167.676C185.728 167.724 185.691 167.766 185.66 167.81C185.778 167.871 185.896 167.939 186.001 168.01C186.551 168.163 187.364 168.714 187.298 168.88L187.29 168.893C187.163 169.134 186.997 169.337 186.793 169.498L186.724 169.55L186.569 169.658C186.787 169.795 186.97 169.952 186.879 170.062C186.837 170.144 186.792 170.223 186.74 170.294C187.185 170.846 187.629 171.403 188.069 171.96C188.509 172.917 189.055 173.81 189.705 174.638C190.247 175.536 190.9 176.343 191.663 177.063C191.726 177.126 191.792 177.187 191.854 177.247C192.416 177.663 193.005 178.053 193.617 178.428L193.881 178.587C194.02 178.671 194.253 178.776 194.143 178.979C194.13 179.005 194.114 179.026 194.096 179.042C194.481 179.294 194.88 179.533 195.291 179.754L195.33 179.778C195.486 179.878 195.697 180.058 195.475 180.206C195.286 180.332 194.785 179.99 194.549 179.833C194.505 179.833 194.452 179.82 194.4 179.804C194.479 179.846 194.556 179.892 194.635 179.936L194.754 180.001C194.846 180.056 195.297 180.356 194.982 180.482C194.827 180.495 194.686 180.456 194.555 180.366C194.4 180.29 194.248 180.209 194.099 180.124C194.151 180.206 194.151 180.287 194.02 180.34C193.975 180.343 193.931 180.34 193.886 180.335C194.196 180.532 194.513 180.716 194.84 180.889L194.893 180.922C195.032 181.012 195.253 181.184 195.092 181.331C194.911 181.494 194.413 181.147 194.285 181.068L193.902 180.839C193.873 180.852 193.842 180.858 193.808 180.861C193.923 180.932 194.03 181.008 194.148 181.076L194.309 181.163C194.51 181.275 194.794 181.458 194.691 181.641C194.588 181.822 194.282 181.673 194.085 181.555L193.872 181.424C193.863 181.418 193.854 181.412 193.844 181.407L193.836 181.438C193.834 181.444 193.832 181.449 193.829 181.454C193.73 181.626 193.483 181.513 193.312 181.414L193.176 181.331C192.943 181.191 192.713 181.052 192.485 180.911L192.143 180.7H192.138C190.955 179.988 189.862 179.279 188.832 178.364C188.216 177.817 187.642 177.239 187.096 176.622C186.001 175.384 185.185 173.968 184.399 172.522C184.386 172.498 184.404 172.438 184.435 172.372C184.349 172.194 184.265 172.012 184.181 171.826C183.374 172.052 182.472 172.118 181.641 172.062C181.195 172.033 180.755 171.954 180.317 171.836C178.92 171.642 177.572 171.003 176.408 170.238C176.335 170.191 176.269 170.139 176.201 170.092C175.721 169.821 175.265 169.506 174.833 169.145C173.989 168.446 173.184 167.668 172.452 166.856C171.923 166.226 171.422 165.571 170.953 164.893C170.476 164.223 169.993 163.553 169.511 162.883C168.171 160.781 167.314 158.361 166.981 155.888C166.819 154.976 166.735 154.053 166.753 153.134C166.766 152.469 166.839 151.796 166.968 151.126C166.892 151.052 166.816 150.979 166.74 150.903C166.698 150.976 166.656 151.029 166.63 151.002L166.029 150.399C165.603 149.969 165.317 149.652 164.826 148.955C164.045 147.844 163.463 146.622 163.03 145.334C162.718 144.415 162.511 143.369 162.43 142.357C162.404 142.189 162.378 142.018 162.357 141.844C162.189 140.475 162.344 139.164 162.551 137.813C162.564 137.724 162.608 137.669 162.669 137.64C162.684 137.533 162.702 137.423 162.72 137.313C160.983 135.471 159.733 133.25 159.835 130.568C159.867 129.723 160.04 128.89 160.371 128.112L160.411 128.024C158.961 127.801 157.812 126.78 156.948 125.515C156.871 125.454 156.797 125.393 156.726 125.332C155.181 124.01 154.11 122.137 153.377 120.16C152.852 119.011 152.504 117.784 152.356 116.511C152.346 116.42 152.34 116.33 152.331 116.24C151.973 114.227 151.882 112.194 152.047 110.191C151.687 108.952 151.395 107.691 151.194 106.4C151.1 105.785 151.034 105.17 150.984 104.555L150.979 104.521L150.971 104.41L150.949 104.135C150.946 104.089 150.942 104.043 150.94 103.998C150.497 98.3689 151.752 92.8294 153.829 87.6157C154.01 87.1468 154.196 86.6792 154.389 86.2152L154.593 85.7305C156.678 82.3616 159.807 79.6367 162.458 76.759C163.372 75.7662 161.893 74.2756 160.975 75.2724C159.214 77.1844 157.325 79.0158 155.619 80.9811C155.317 81.0032 155.016 81.0114 154.715 80.9964C154.19 80.9698 153.682 80.886 153.189 80.7517C151.959 80.5704 150.84 80.0737 149.823 79.3432C148.462 78.7075 147.301 77.509 147.186 75.9454C147.173 75.7877 147.175 75.6327 147.186 75.4779C147.06 74.7129 147.173 73.9117 147.492 73.173C147.547 72.9706 147.618 72.7709 147.707 72.5738C147.967 71.9878 148.394 71.4257 148.916 71.0444C148.929 71.0365 148.939 71.0315 148.95 71.0234C149.005 70.9658 149.057 70.9078 149.118 70.8555C149.207 70.7737 149.301 70.6978 149.401 70.6268C149.047 70.0432 148.727 69.4443 148.454 68.8055C148.158 68.1117 148.006 67.4077 147.922 66.6637C147.888 66.3694 147.875 66.0777 147.87 65.7863C147.854 65.652 147.844 65.5154 147.833 65.3787C147.768 64.3381 147.888 63.2583 148.276 62.2857C148.305 62.2124 148.342 62.1386 148.376 62.0624C148.449 61.8416 148.53 61.6211 148.63 61.4054C149.018 60.5776 149.569 59.876 150.248 59.3005C150.615 58.9299 151.026 58.6015 151.475 58.3229C151.739 58.1573 152.041 58.0102 152.358 57.8893C152.924 57.5897 153.65 57.3164 154.24 57.2957C154.311 57.2928 154.374 57.3009 154.442 57.3009C154.497 55.7923 154.691 54.1499 155.286 52.7834C155.632 51.7929 156.151 50.9126 156.933 50.279C157.386 49.805 157.944 49.42 158.641 49.1684L158.765 49.1254L158.812 49.1122C159.439 48.8074 160.115 48.6865 160.81 48.6894C161.62 48.6471 162.446 48.7998 163.151 49.1727C163.298 49.2515 163.455 49.3487 163.604 49.4539C163.717 49.2279 163.843 48.9992 163.987 48.7709C164.493 47.9586 165.104 47.2517 165.812 46.6079C165.896 46.5317 165.987 46.4633 166.077 46.39C166.42 46.0773 166.784 45.7882 167.162 45.5255C167.977 44.9576 168.871 44.5348 169.81 44.2612C170.893 43.8598 172.037 43.6735 173.18 43.7127L173.417 43.7227C173.469 43.7277 173.522 43.7304 173.572 43.733C174.707 43.8068 175.826 44.0854 176.896 44.5056C178.005 44.9447 178.943 45.6093 179.816 46.3714C180.021 46.0878 180.254 45.8195 180.54 45.5672C180.621 45.4966 180.708 45.4332 180.789 45.3675C180.852 45.3045 180.917 45.244 180.985 45.1836C181.297 44.9076 181.628 44.6685 181.99 44.4557C182.396 44.2168 182.834 44.0512 183.287 43.9487C183.749 43.7908 184.234 43.6936 184.726 43.662ZM179.339 151.996C179.386 151.993 181.814 152.906 183.023 153.496L183.083 153.525C184.477 154.219 185.149 154.718 186.402 155.609C186.486 155.67 186.572 155.762 186.572 155.851C186.572 157.148 186.258 158.735 185.17 158.032C185.012 157.93 184.854 157.831 184.694 157.733L184.454 157.588L184.446 157.591C184.449 157.591 184.451 157.588 184.454 157.585C182.084 156.137 179.58 155.002 176.938 154.19C176.757 154.124 178.096 152.096 178.466 152.209C178.254 152.125 179.304 151.998 179.339 151.996ZM204.24 94.686C202.664 94.855 201.088 95.0213 199.512 95.184C198.508 95.2996 197.501 95.4021 196.495 95.4888C194.982 95.6021 193.469 95.6202 191.962 95.4126C191.427 95.3393 190.903 95.2339 190.384 95.1051C190.03 95.3653 189.663 95.6097 189.288 95.8438L185.125 99.0364C182.333 101.236 179.601 103.567 177.142 106.14C172.848 110.634 169.35 115.893 167.15 121.717C166.951 121.835 166.797 122.041 166.745 122.357C166.357 124.744 165.221 126.922 164.81 129.299C164.406 131.641 164.944 133.632 166.411 135.488C166.724 135.885 167.366 135.864 167.76 135.596C167.851 135.776 168.248 135.769 168.387 134.972C169.04 134.264 169.598 133.522 169.976 132.603C170.254 131.926 169.786 131.456 169.218 131.364C169.454 130.513 169.72 129.669 170.019 128.834C170.906 126.353 172.033 123.983 173.451 121.76C174.699 119.804 176.143 118.102 177.695 116.393C177.714 116.37 177.745 116.362 177.779 116.357L178.102 115.999C178.146 115.949 178.238 115.955 178.34 115.981C178.437 115.878 178.532 115.773 178.631 115.671C178.728 115.566 178.836 115.597 178.896 115.681C179.061 115.645 179.363 115.823 179.454 115.881C179.612 115.986 179.662 116.104 179.528 116.254C179.504 116.281 179.481 116.307 179.457 116.33C179.638 116.407 179.816 116.509 179.955 116.609C180.44 116.717 181.122 117.169 181.004 117.303C180.755 117.563 180.514 117.829 180.275 118.099C180.485 118.246 180.621 118.391 180.566 118.454C179.544 119.534 178.6 120.677 177.735 121.888C177.077 122.792 176.482 123.733 175.949 124.713C175.158 126.101 174.487 127.528 173.892 128.994C173.808 129.218 173.726 129.441 173.648 129.664C172.777 132.105 172.127 134.639 171.852 137.219L171.84 137.393C171.789 138.323 171.769 140.812 171.674 141.406C172.253 141.692 172.856 141.936 173.483 142.136C173.601 142.17 173.721 142.202 173.842 142.231C173.91 142.202 173.981 142.178 174.051 142.157C174.628 141.923 175.231 141.755 175.847 141.674C176.262 141.619 176.676 141.599 177.088 141.611L177.265 141.618C177.449 141.624 177.63 141.637 177.813 141.655C177.803 141.55 177.798 141.448 177.79 141.342C177.737 141.308 177.698 141.261 177.695 141.198C177.572 140.015 177.57 138.833 177.688 137.65C177.766 137.033 177.858 136.418 177.958 135.803C178.06 135.298 178.178 134.802 178.306 134.305C178.647 132.913 179.101 131.554 179.651 130.224C181.219 126.432 183.465 123.013 185.725 119.613C187.374 117.13 188.934 114.591 190.641 112.149C192.093 110.071 193.619 108.024 195.247 106.079C196.872 104.137 198.589 102.269 200.443 100.54C200.742 100.264 201.043 99.9956 201.35 99.7304C203.106 98.1537 205.015 96.8579 207.002 95.5863C207.078 95.5364 207.214 95.5916 207.327 95.6859L207.648 95.4883C207.701 95.4555 207.755 95.4231 207.809 95.3916C207.859 95.3603 207.914 95.4126 207.943 95.4573C208.079 95.3863 208.216 95.3183 208.352 95.2497C208.451 95.1693 208.554 95.0931 208.654 95.0137C207.18 94.9393 205.709 94.829 204.24 94.686ZM222.721 77.1673C221.531 76.9285 220.335 76.894 219.134 77.0727C218.631 77.1466 218.131 77.2354 217.634 77.3429C218.762 78.3283 219.668 79.5894 220.257 81.0408C220.893 82.6096 218.356 83.2858 217.729 81.7396C217.124 80.248 215.979 79.1038 214.597 78.4179C214.298 78.5853 214.008 78.7666 213.731 78.9674C213.37 79.2617 213.029 79.5797 212.709 79.9292C212.012 80.6889 211.372 81.703 210.953 82.7069C210.79 83.2535 210.669 83.8158 210.593 84.394C210.578 84.5254 210.562 84.6594 210.549 84.7934C210.29 87.513 211.066 90.159 212.401 92.5004L212.453 92.5012C213.644 91.8537 214.891 91.3081 216.175 90.8638C217.202 90.1703 218.269 89.5288 219.368 88.9481C221.703 87.7132 224.169 86.7612 226.711 86.1102L227.004 86.0364C227.603 85.8831 228.207 85.748 228.814 85.6299L229.178 85.561H229.183L229.144 85.1692C228.939 83.6319 228.339 82.2049 227.563 80.886C226.981 79.8901 226.103 78.8704 225.127 78.0558L225.122 78.0529C224.679 77.8006 224.214 77.592 223.735 77.4195L223.554 77.3565L222.721 77.1673ZM190.764 74.8314C188.289 74.5973 185.814 74.6209 183.34 74.8233C181.722 74.9838 180.115 75.2069 178.516 75.4908C177.433 75.6773 176.372 75.9401 175.328 76.2662L175.925 77.476C176.922 79.4908 177.944 81.4924 179.148 83.3954C179.769 84.3756 180.443 85.3087 181.177 86.2046C181.672 86.8458 182.218 87.4399 182.815 87.9863C182.973 88.1784 183.14 88.3597 183.311 88.5355C183.856 89.0032 184.443 89.4132 185.086 89.7522C185.601 90.1283 186.138 90.4568 186.699 90.7448L186.91 90.8509L188.876 91.6075C188.981 91.6372 189.087 91.667 189.194 91.6953L189.353 91.7365L189.652 91.7993L189.877 91.6772C189.914 91.6571 189.952 91.6372 189.991 91.618C190.053 91.5841 190.098 91.6498 190.111 91.6968C190.116 91.7155 190.109 91.7415 190.095 91.7678L190.382 91.6124C190.875 91.813 191.397 91.9733 191.958 92.0789C192.212 92.1265 192.466 92.163 192.721 92.1943L192.755 92.2171C192.76 92.2211 192.766 92.2254 192.772 92.2305H193.05C195.01 92.42 196.998 92.1696 198.955 91.8172C201.724 91.5381 204.492 91.2304 207.259 90.9426C207.311 90.9376 207.332 90.961 207.332 90.9981L207.503 90.9823C207.749 90.9557 208.037 91.3683 207.851 91.5184C208.001 91.6075 208.145 91.7365 208.252 91.8363L208.315 91.8308C207.935 91.0845 207.642 90.304 207.432 89.4923L207.164 88.1308C207.091 87.6236 207.049 87.0825 207.041 86.5488C207.023 86.3044 207.01 86.0761 207.01 85.8761C207.01 85.6869 207.012 85.4977 207.02 85.3087C206.499 85.093 205.969 84.904 205.429 84.7435C203.895 84.5545 202.364 84.3651 200.831 84.1785C199.911 84.2126 198.99 84.2783 198.073 84.3808C197.032 84.4728 195.994 84.5911 194.958 84.733C194.861 84.7435 194.688 84.6121 194.584 84.4597L194.14 84.5204C193.91 84.5493 193.669 84.0865 193.973 83.9919C194.083 83.9481 194.193 83.9066 194.303 83.8667L194.468 83.8079L194.374 83.8185C194.342 83.8214 194.303 83.8132 194.258 83.7977C194.015 83.829 193.771 83.8605 193.53 83.8894C193.224 83.9277 193.293 83.5234 193.508 83.4283L193.611 83.3901C193.43 83.2768 193.27 82.9669 193.494 82.8656L193.524 82.854C193.629 82.8122 193.732 82.7778 193.836 82.7384C193.829 82.7045 193.829 82.6727 193.839 82.6441L193.406 82.699C193.367 82.7042 193.555 82.4275 193.645 82.3728L193.661 82.3652L193.868 82.3022C193.899 82.2128 194.067 82.0157 194.125 81.9976C194.885 81.7582 195.593 81.543 196.332 81.3772C196.369 81.3325 196.411 81.2983 196.458 81.2878C196.919 81.1775 197.386 81.0907 197.853 81.0174C197.884 80.9699 197.916 80.936 197.952 80.9331C199.108 80.7859 200.267 80.7517 201.431 80.8308C201.654 80.8516 201.877 80.8755 202.1 80.9042C202.527 80.9517 202.954 81.0122 203.379 81.0936C204.443 81.2766 205.482 81.5548 206.494 81.9301L206.727 82.0184C206.981 82.1132 207.233 82.2128 207.482 82.3208C207.607 81.8715 207.765 81.4297 207.951 80.9964C207.98 80.912 208.011 80.8308 208.045 80.7494L207.791 80.5967C207.736 80.7018 207.623 80.7833 207.55 80.7389C205.728 79.5064 203.801 78.4786 201.769 77.6587C200.631 77.1542 199.467 76.7261 198.275 76.3685C197.68 76.1769 197.079 76.0034 196.476 75.8379C196.175 75.7746 195.873 75.7115 195.567 75.6589C193.991 75.2332 192.389 74.9576 190.764 74.8314ZM250.801 79.0026C250.58 79.3858 250.35 79.7652 250.106 80.1394C248.92 81.9577 247.5 83.6639 245.888 85.1516C246.309 85.1505 246.728 85.1666 247.142 85.2054C247.856 85.273 248.555 85.3918 249.236 85.5581C249.292 85.5137 249.354 85.4914 249.403 85.5266L249.581 85.6498C251.043 86.0453 252.415 86.6671 253.659 87.5001L253.637 87.3356C253.633 87.3082 253.629 87.2808 253.624 87.2533C253.645 86.9301 253.65 86.6066 253.639 86.286C253.383 84.3913 252.74 82.6464 252.006 80.8808C251.992 80.8466 252.002 80.8022 252.024 80.757C251.653 80.1505 251.248 79.5639 250.801 79.0026ZM251.139 64.1068C250.591 64.2067 250.048 64.3355 249.508 64.4958C248.493 64.6484 247.51 64.9165 246.561 65.2973C245.253 65.7624 243.984 66.3037 242.721 66.8769C240.267 67.9908 237.965 69.3996 235.871 71.0972C235.737 71.1994 235.608 71.3048 235.48 71.4099C235.011 71.817 234.555 72.2427 234.122 72.6921C233.668 73.1861 233.212 73.6804 232.759 74.1768C232.203 74.7605 231.563 75.2884 231.06 75.9191C230.958 76.0479 230.869 76.1898 230.787 76.3319L231.084 76.4342C231.333 76.5182 231.291 76.986 231.044 76.9177C230.96 76.894 230.882 76.8651 230.803 76.8339C230.837 76.8785 230.861 76.9232 230.866 76.9624C230.882 77.0885 230.785 77.2622 230.63 77.2175C230.559 77.1989 230.488 77.1726 230.418 77.1437C230.397 77.2251 230.381 77.3066 230.381 77.3854C230.394 77.3907 230.407 77.396 230.423 77.3988C230.596 77.4593 230.921 77.7297 230.968 77.9139C231.005 78.0558 230.884 78.208 230.73 78.1659C230.614 78.1344 230.502 78.0871 230.391 78.0345C230.465 78.1057 230.523 78.1819 230.528 78.2476C230.538 78.3685 230.433 78.5391 230.289 78.4999C230.022 78.4261 229.807 78.3133 229.629 78.1714C229.581 78.2342 229.513 78.2842 229.458 78.2687L229.356 78.2371C229.384 78.2632 229.41 78.2907 229.434 78.3178L229.471 78.3577C230.195 79.1409 230.827 80.008 231.333 80.9412C231.356 80.9147 231.385 80.891 231.422 80.8621C231.658 80.6624 231.901 80.4679 232.145 80.279L232.219 80.2144L232.295 80.15L231.747 80.3313L231.759 80.3171C231.798 80.2674 231.918 80.1017 231.974 80.0465L231.988 80.0343C232.74 79.3592 233.561 78.7861 234.447 78.3186C235.021 77.9452 235.624 77.6298 236.256 77.3697C237.763 76.668 239.3 76.1348 240.878 75.6408C241.114 75.5646 241.35 75.4831 241.586 75.4093C241.654 75.3856 241.667 75.4145 241.656 75.4618L241.78 75.4251C242 75.3541 242.375 75.743 242.225 75.9243C242.315 75.9979 242.404 76.0799 242.481 76.1569L242.537 76.2134L242.6 76.195C242.787 76.1371 243.103 76.4298 243.304 76.6371L243.452 76.7942C243.565 76.9151 243.785 77.1647 243.515 77.2622L243.177 77.3776C243.187 77.4459 243.158 77.5037 243.054 77.5431C242.936 77.5825 242.82 77.6246 242.705 77.6669C242.775 77.728 242.844 77.7916 242.911 77.856L243.012 77.9531C243.13 78.0745 243.412 78.3422 243.163 78.4604L243.132 78.4734L242.81 78.589C242.852 78.6836 242.841 78.7732 242.7 78.8255C240.817 79.4667 238.98 80.2185 237.184 81.0726C235.839 81.8186 234.418 82.376 232.921 82.741C232.798 82.7807 232.531 82.5941 232.421 82.4076L232.197 82.4735C232.16 82.4844 232.123 82.4949 232.085 82.5045L232.048 82.5127C232.329 83.2616 232.536 84.0734 232.651 84.8591C232.664 84.93 232.675 85.0039 232.683 85.0748C232.976 85.0509 233.267 85.0299 233.561 85.0144C235.593 84.9064 237.648 84.9721 239.685 85.2139C240.508 84.7224 241.3 84.1837 242.057 83.6006C242.288 83.4216 242.516 83.2377 242.742 83.0511C244.094 81.8738 245.319 80.5523 246.404 79.1251C247.408 77.8033 248.281 76.3842 249.015 74.8971C249.665 73.5015 250.203 72.0509 250.609 70.553C250.981 69.1839 251.11 67.8515 251.204 66.4351C251.236 66.2039 251.256 65.9729 251.275 65.7414L251.273 65.6423L251.27 65.5942C251.243 65.0978 251.194 64.6009 251.139 64.1068ZM231.93 81.7057C231.87 81.7267 231.807 81.7477 231.744 81.7661C231.781 81.8476 231.815 81.9267 231.849 82.0079L231.853 82.0062L232.101 81.8108C232.048 81.7871 231.988 81.7506 231.93 81.7057ZM250.771 60.3806C251.243 60.2045 251.6 60.1704 251.841 60.2807C251.485 60.307 251.128 60.3412 250.771 60.3806Z" fill="black"/>
<path fill-rule="evenodd" clip-rule="evenodd" d="M234.548 173.315C232.781 172.594 231.203 171.392 230.05 169.857C229.649 169.323 229.545 168.759 229.629 168.243C229.724 167.664 230.067 167.138 230.535 166.786C231.005 166.432 231.592 166.258 232.16 166.347C232.654 166.424 233.145 166.694 233.533 167.254L233.615 167.366C234.3 168.293 235.194 169.053 236.212 169.543C237.193 170.016 238.29 170.236 239.425 170.108C241.588 169.864 243.079 168.695 244.663 167.108C244.86 166.907 245.056 166.701 245.253 166.491C245.378 166.3 245.551 166.178 245.743 166.114C245.957 166.043 246.198 166.047 246.419 166.124C246.632 166.198 246.823 166.339 246.951 166.526C247.072 166.705 247.141 166.925 247.119 167.178C246.974 168.823 246.113 170.291 244.891 171.444C243.533 172.724 241.734 173.61 240.039 173.92C238.173 174.262 236.271 174.017 234.548 173.315ZM240.92 147.939C242.906 149.146 245.931 151.958 243.795 154.949C241.281 157.586 237.66 154.562 235.876 153.195C234.222 152.135 232.363 154.861 233.898 156.098C246.79 165.637 252.022 148.255 241.924 146.521C240.812 146.33 240.4 147.566 240.92 147.939ZM217.817 136.844C218.037 134.122 222.184 133.504 222.597 136.197C222.966 138.61 222.531 140.826 221.444 142.998C220.405 145.073 217.794 144.105 217.596 142.216C217.331 139.683 217.681 138.537 217.817 136.844ZM249.391 135.639C249.969 134.882 250.804 134.365 251.805 134.657C254.93 135.57 254.009 140.004 252.911 142.163C252.315 143.335 250.387 143.632 249.516 142.6C248.096 140.917 247.415 137.556 249.221 135.898C249.27 135.813 249.324 135.726 249.391 135.639ZM221.4 124.935L221.894 124.849C223.421 124.585 225.32 124.331 226.401 125.558C226.974 126.209 227.171 127.418 226.401 128.041C225.046 129.137 223.548 128.712 221.924 128.805C220.586 128.882 219.3 129.103 218.011 129.471C215.184 130.279 212.88 131.753 210.465 133.372C210.148 133.584 209.825 133.179 209.976 132.883C211.37 130.154 214.071 127.913 216.777 126.547C218.222 125.817 219.802 125.212 221.4 124.935ZM246.542 123.713L246.92 123.79C251.032 124.649 256.375 126.365 258.322 130.401C258.396 130.972 258.318 131.094 258.254 131.174L258.233 131.201C258.18 131.269 258.138 131.363 257.891 131.441C257.822 131.424 257.753 131.407 257.683 131.389C256.79 131.155 256.084 130.833 255.4 130.499L254.659 130.134C253.799 129.712 252.931 129.306 252.011 129.007C250.049 128.367 248.031 127.916 245.981 127.676C245.537 127.624 245.109 127.474 244.771 127.217C244.451 126.973 244.206 126.636 244.095 126.187C243.95 125.607 243.992 125.167 244.303 124.643C244.538 124.25 244.873 123.977 245.258 123.821C245.651 123.661 246.098 123.624 246.542 123.713Z" fill="black"/>
</svg>
