<svg width="378" height="378" viewBox="0 0 378 378" fill="none" xmlns="http://www.w3.org/2000/svg">
<rect width="378" height="374" fill="#FF4444"/>
<path fill-rule="evenodd" clip-rule="evenodd" d="M111.097 371.871C112.58 374.122 115.496 373.776 116.748 372.032C131.005 375.352 145.621 374.044 160.077 373.23C200.811 371.573 241.775 376.766 282.345 371.334C286.649 370.474 291.658 370.885 295.179 367.901C300.812 361.304 299.599 351.289 298.701 343.254C291.51 297.961 281.285 252.252 276.185 206.668C275.9 202.326 277.691 196.931 279.296 192.849C279.692 192.09 282.198 191.346 283.498 190.47C287.488 187.607 286.841 182.477 283.382 179.467C272.182 171.577 256.592 174.334 244.712 177.245C242.435 168.698 239.876 163.076 235.541 162.52C227.29 161.46 207.275 158.222 201.11 162.52C198.16 164.575 196.267 171.82 194.144 175.349C178.661 175.074 147.236 154.369 140.775 177.685C135.526 178.047 130.328 182.627 131.332 188.124C124.524 194.136 129.893 203.152 129.799 210.635C128.904 226.514 120.308 240.714 116.732 256.052C108.557 285.801 99.3051 339.915 109.444 368.953C109.226 368.839 108.749 369.01 109.058 369.252C110.206 369.576 110.355 371.021 111.097 371.871Z" fill="white"/>
<path fill-rule="evenodd" clip-rule="evenodd" d="M289.109 364.306C287.207 349.047 285.885 330.627 285.869 315.241C285.868 313.792 288.117 313.795 288.119 315.241C288.134 330.627 289.456 349.047 291.358 364.306C291.537 365.74 289.285 365.722 289.109 364.306M275.022 269.696C272.083 271.492 268.225 270.246 265.317 269.057C263.993 268.515 264.576 266.341 265.915 266.889C268.128 267.794 271.363 269.127 273.698 267.864C276.029 266.604 276.135 263.138 276.152 260.851C276.163 259.402 278.412 259.403 278.401 260.851C278.378 263.962 277.961 267.898 275.022 269.696M269.583 339.522C266.619 338.003 264.089 335.927 262.053 333.291C261.169 332.145 263.124 331.027 263.996 332.156C265.787 334.476 268.122 336.25 270.718 337.581C272.008 338.242 270.869 340.181 269.583 339.522M255.334 261.056C250.248 281.428 246.834 302.166 245.161 323.097C244.821 327.347 244.582 331.59 244.447 335.837C244.312 336.944 244.183 338.054 244.062 339.164C243.604 343.363 243.252 347.629 243.283 351.856C243.297 353.753 243.356 355.641 243.486 357.533C243.261 356.9 243.053 356.265 242.85 355.633C242.437 354.337 242.164 352.994 241.742 351.707C241.394 350.642 240.944 349.622 240.525 348.59V348.587C240.651 344.363 240.365 340.1 240.218 335.896C240.03 330.449 239.797 325.008 239.676 319.559C239.434 308.661 239.555 297.754 239.948 286.861C240.738 264.912 242.735 243.067 244.748 221.208C245.308 215.129 245.909 209.053 246.325 202.962C246.744 196.808 246.913 190.642 246.961 184.471C246.964 184.026 246.289 183.909 246.165 184.338C246.055 182.874 245.861 181.413 245.538 179.999C250.388 183.09 255.503 185.763 260.516 188.574C263.156 190.055 265.785 191.561 268.507 192.887C270.003 193.618 271.513 194.29 273.054 194.925C274.651 195.583 276.178 196.488 277.935 196.029C278.087 195.99 278.23 195.934 278.368 195.861C278.168 196.24 277.969 196.617 277.777 196.999C277.114 198.317 276.481 199.641 275.868 200.976C275.705 201.097 275.562 201.263 275.449 201.479C275.151 202.06 274.862 202.648 274.581 203.243C274.524 203.19 274.468 203.137 274.412 203.083C274.176 202.861 273.849 203.196 274.058 203.438C274.153 203.547 274.246 203.654 274.339 203.764C272.505 207.707 271.015 211.852 269.48 215.899C267.593 220.873 265.805 225.884 264.121 230.929C260.8 240.852 257.87 250.905 255.334 261.056M182.614 334.989C173.24 340.007 164.479 346.004 156.054 352.472C154.905 353.354 153.786 351.4 154.918 350.531C163.344 344.063 172.105 338.066 181.479 333.048C182.756 332.365 183.891 334.306 182.614 334.989M150.951 276.22C150.464 276.183 149.991 275.901 149.867 275.395C149.107 272.287 148.513 268.901 149.219 265.732C149.534 264.318 151.702 264.919 151.388 266.329C150.831 268.829 151.274 271.531 151.852 274.023C160.028 274.381 168.095 271.448 175.917 269.479C177.324 269.125 177.918 271.294 176.515 271.647C168.217 273.736 159.634 276.862 150.951 276.22M313.723 359.115C313.731 359.095 313.74 359.073 313.745 359.053C314.226 357.598 314.237 355.906 314.291 354.38C314.383 351.665 314.285 348.944 314.04 346.238C313.523 340.541 312.41 334.938 311.08 329.381C308.445 318.376 304.722 307.669 302.701 296.514C298.733 274.619 299.675 251.821 291.89 230.701C288.653 221.921 284.031 213.482 277.749 206.506C278.208 205.113 278.655 203.716 279.091 202.313C279.853 199.874 280.631 197.356 281.101 194.843C281.112 194.776 281.126 194.706 281.135 194.635C283.809 193.483 286.241 191.311 286.657 188.422C286.837 187.174 286.629 185.791 286.089 184.586C287.191 183.568 287.9 182.247 287.731 180.477C287.416 177.144 283.522 176.286 280.811 175.635C277.73 174.895 274.533 174.69 271.381 175.039C269.789 175.213 268.215 175.505 266.677 175.944C265.341 176.323 263.888 176.714 262.816 177.63C262.69 177.737 262.794 177.945 262.946 177.945C265.113 177.937 267.273 177.141 269.463 177.037C271.758 176.93 274.046 177.118 276.296 177.591C278.494 178.051 280.688 178.726 282.687 179.769C283.249 180.064 284.073 180.263 283.412 180.859C282.929 181.295 281.978 181.331 281.357 181.396C279.982 181.539 278.795 182.343 278.621 183.81C278.466 185.106 279.24 186.573 280.617 186.865C280.693 186.882 280.764 186.901 280.825 186.927C280.862 186.997 280.918 187.056 280.913 186.96C280.913 186.96 280.915 186.958 280.915 186.96C280.949 187.166 280.96 187.247 280.96 187.261C280.952 187.244 280.938 187.174 280.927 187.118C280.935 187.168 280.952 187.25 280.974 187.371C280.944 187.239 280.969 187.562 280.943 187.612C280.212 188.961 278.05 189.341 276.791 189.922C276.546 190.035 276.335 190.167 276.155 190.316C275.857 190.212 275.553 190.108 275.247 189.993C273.737 189.428 272.23 188.88 270.7 188.371C267.748 187.385 264.759 186.505 261.807 185.516C256.217 183.644 250.813 181.281 245.327 179.139C245.153 178.493 244.95 177.86 244.711 177.245C244.664 177.116 244.433 177.073 244.408 177.245C244.323 177.79 244.256 178.338 244.2 178.889C244.177 178.94 244.172 178.996 244.183 179.049C243.865 182.253 243.949 185.533 243.786 188.734C243.584 192.724 243.019 196.687 242.859 200.681V200.754C242.268 204.163 241.734 207.583 241.25 211.014C240.708 210.846 240.086 210.879 239.451 211.219C234.958 213.617 229.908 214.952 224.827 215.25C222.268 215.398 219.735 215.314 217.19 215.019C215.517 214.828 213.87 214.479 212.219 214.148C213.088 210.508 214.021 206.886 215.076 203.3C215.945 200.352 216.912 197.418 218.107 194.582C219.313 191.718 220.815 188.984 222.212 186.207C222.856 184.923 222.097 182.958 220.424 183.093C219.929 183.133 219.434 183.164 218.936 183.186C214.094 183.417 209.059 182.877 204.279 182.396C198.838 181.845 193.324 181.275 187.931 180.378C187.532 180.314 187.369 180.856 187.763 180.988C190.321 181.848 192.849 182.82 195.472 183.464C198.172 184.13 200.888 184.737 203.626 185.212C206.25 185.665 208.884 186.044 211.527 186.365C213.251 186.575 214.994 186.682 216.729 186.823C214.393 190.555 212.781 194.764 211.378 198.91C209.576 204.233 208.252 209.71 206.955 215.176C204.183 226.893 201.897 238.727 200.109 250.635C198.827 259.173 197.789 267.744 197.01 276.339C196.78 273.728 196.499 271.125 196.181 268.526C195.118 259.895 193.566 251.321 191.491 242.875C191.677 242.549 191.764 242.159 191.702 241.779C191.328 239.458 190.344 237.437 189.481 235.285C188.623 232.278 187.698 229.29 186.703 226.325C185.572 222.287 184.304 218.31 182.682 214.426C181.442 211.467 180.027 208.583 178.453 205.787C176.572 201.878 174.505 198.053 172.236 194.397C172.118 194.057 171.927 193.739 171.654 193.472C171.241 192.82 170.822 192.176 170.394 191.538C170.116 191.123 169.318 191.375 169.528 191.904C169.627 192.151 169.725 192.398 169.827 192.643C160.584 190.333 151.522 193.865 142.719 196.473C140.497 197.134 138.254 197.73 135.976 198.16C134.185 198.497 132.099 198.907 130.313 198.536C129.118 198.289 128.59 197.747 129.172 196.471C129.773 195.15 131.415 194.281 132.841 193.697C133.378 193.582 133.907 193.376 134.416 193.067C135.602 192.348 136.122 190.847 135.563 189.568C135.054 188.413 133.569 187.418 132.256 187.947C132.068 188.023 131.882 188.096 131.697 188.169C131.677 188.141 131.654 188.101 131.635 188.045C131.446 187.531 131.365 188.147 131.446 187.41C131.581 186.207 132.855 185.114 133.727 184.425C135.894 182.708 139.027 181.438 141.824 182.087C142.035 182.135 142.246 182.194 142.454 182.267C145.336 183.265 146.739 179.117 144.437 177.571C144.296 177.478 144.119 177.36 143.925 177.222C142.966 176.556 141.563 175.435 141.945 174.424C142.418 173.167 145.204 172.445 146.259 172.018C150.071 170.472 154.19 169.595 158.301 169.415C162.437 169.235 166.627 169.691 170.617 170.806C172.574 171.352 174.584 172.181 176.434 173.018C178.096 173.768 181.712 174.761 181.942 176.863C181.993 177.327 182.654 177.484 182.797 176.978C183.93 172.942 179.533 170.337 176.631 168.67C174.727 167.574 172.568 166.892 170.479 166.22C168.477 165.573 166.433 165.099 164.346 164.812C159.867 164.199 155.335 164.278 150.892 165.138C146.846 165.922 142.345 167.26 139.075 169.862C137.067 171.458 136.159 173.999 136.966 176.478C136.994 176.559 137.022 176.644 137.05 176.725C133.437 177.371 130.018 179.44 127.732 182.323C125.854 184.692 124.87 187.989 126.551 190.746C126.481 190.797 126.41 190.85 126.343 190.906C124.74 192.188 123.548 194.048 123.194 196.083C122.499 200.096 124.926 202.904 128.32 203.977C127.479 204.798 126.672 205.669 125.882 206.54C124.113 208.493 122.423 210.621 120.933 212.79C117.913 217.186 115.332 221.972 113.074 226.795C108.432 236.698 105.505 247.358 103.953 258.167C103.171 263.613 102.649 269.088 102.449 274.585C102.218 280.852 102.452 287.122 102.331 293.392C102.213 299.417 101.546 305.297 100.199 311.171C98.9089 316.788 97.1881 322.294 95.6304 327.839C93.8731 334.083 91.9386 340.3 91.0107 346.738C90.5412 350.015 90.2038 353.3 90.4653 356.614C90.7296 359.989 91.9555 362.875 93.0858 366.015C93.3726 366.816 94.247 367.139 94.9472 366.967C95.1046 368.471 95.6726 369.938 96.5189 371.208C98.3156 373.9 101.082 375.618 104.251 376.241C107.822 376.941 111.503 376.775 115.119 376.646C119.041 376.506 122.966 376.379 126.888 376.216C130.995 376.047 135.101 375.872 139.208 375.697C139.072 371.491 138.91 367.285 138.727 363.08C137.737 340.349 136.178 317.604 136.137 294.843C136.057 294.796 135.979 294.741 135.904 294.668C134.055 292.882 131.786 291.709 129.653 290.311C128.446 289.52 129.575 287.574 130.789 288.37C132.586 289.549 134.46 290.596 136.145 291.916C136.155 289.547 136.175 287.178 136.222 284.808C136.251 283.361 138.5 283.361 138.472 284.808C138.331 291.95 138.378 299.093 138.539 306.233C139.063 329.373 140.708 352.47 141.457 375.601C152.479 375.131 163.501 374.656 174.525 374.254C183.492 373.929 192.458 373.603 201.425 373.277C203.306 373.209 204.363 371.865 204.594 370.109C205.015 366.877 204.222 363.536 202.429 360.818C202.243 360.537 202.024 360.287 201.779 360.073C201.821 358.137 201.9 356.198 201.79 354.262C201.627 351.305 201.383 348.349 201.169 345.395C200.736 339.479 200.401 333.552 200.269 327.622C199.999 315.762 200.196 303.891 200.868 292.048C202.215 268.388 205.35 244.879 210.481 221.736C210.855 220.05 211.232 218.363 211.623 216.68C215.613 218.751 220.466 219.496 224.827 219.524C230.293 219.558 235.638 218.301 240.575 216.017C240.542 216.273 240.508 216.525 240.477 216.781C239.099 227.742 237.938 238.724 236.926 249.722C234.907 271.645 233.67 293.659 233.841 315.681C233.889 321.782 234.122 327.864 234.412 333.957C234.707 340.154 235.16 346.702 236.886 352.679C237.078 353.34 237.502 353.719 237.991 353.857C238.017 354.728 238.073 355.602 238.135 356.462C238.334 359.258 238.905 365.067 240.126 367.602C241.315 370.076 243.297 372.037 245.825 373.117C249.036 374.485 252.508 374.092 255.899 373.872C270.644 372.911 285.378 371.624 300.114 370.494C302.166 370.337 304.219 370.182 306.269 370.022C308.094 369.882 309.98 369.758 311.6 368.811C313.442 367.735 314.878 362.448 314.243 360.262C314.128 359.863 313.953 359.469 313.723 359.115" fill="black"/>
<path fill-rule="evenodd" clip-rule="evenodd" d="M267.698 122.414C267.586 116.132 267.463 109.724 266.526 103.503C265.611 97.4212 263.092 91.9238 258.764 87.5074C249.571 78.1264 236.246 75.8351 223.843 73.7353L202.636 70.145C196.166 69.05 189.264 67.2996 182.727 68.8526C179.506 69.6178 176.771 71.3957 174.271 73.4992C171.861 75.5266 169.27 77.7038 167.638 80.4315C166.002 83.1631 165.439 86.3563 164.908 89.4457C164.308 92.9289 163.842 96.4392 163.511 99.9579C162.848 107.008 162.757 114.111 163.238 121.175C163.471 124.602 163.842 128.018 164.316 131.42C164.55 133.106 164.816 134.789 165.116 136.466C165.204 136.96 165.271 137.507 165.362 138.06C164.693 139.958 164.313 141.923 164.343 143.879C164.433 149.642 169.311 153.271 174.229 155.219C177.08 156.349 180.061 157.116 182.862 158.378C185.809 159.705 187.815 161.857 189.83 164.311C193.673 168.993 198.01 173.2 202.962 176.711C213.46 184.153 226.758 187.674 239.497 185.002C242.553 184.361 245.637 183.365 248.384 181.865C251.285 180.282 253.466 177.987 255.298 175.274C258.699 170.237 261.138 164.566 262.983 158.794C264.865 152.907 266.201 147.009 266.929 140.87C267.655 134.751 267.808 128.57 267.698 122.414V122.414Z" fill="white"/>
<path fill-rule="evenodd" clip-rule="evenodd" d="M200.026 48.2617C208.801 47.0578 220.914 50.9706 225.284 58.86C246.15 53.9543 272.467 53.7936 289.664 70.1246C307.609 89.4968 285.069 115.039 270.124 120.798C271.212 126.072 269.515 159.859 257.51 174.929C247.982 187.699 225.795 193.592 215.528 178.34L215.448 178.214C214.348 176.453 215.295 176.509 216.425 177.82C226.478 186.637 240.147 186.787 250.681 177.482C270.422 160.474 268.386 118.773 258.993 94.6476C232.244 91.7178 203.604 99.8032 185.129 119.884L186.378 127.385C186.591 128.663 186.833 129.939 187.017 131.222C187.135 132.043 187.149 132.861 186.578 133.526C184.693 135.722 181.516 132.422 178.903 131.11C178.131 131.001 177.358 130.96 176.6 131.013C164.043 132.626 166.517 156.919 180.318 152.661C181.478 151.94 182.474 152.16 182.924 153.206C186.214 156.211 188.383 161.57 193.848 166.732C195.776 168.668 197.531 170.288 199.7 171.842C200.974 173.127 204.819 174.437 203.6 176.636C201.295 181.639 187.706 165.923 185.303 161.576C177.775 164.541 169.432 163.534 161.631 162.809C120.474 160.675 125.968 117.409 159.703 90.0924C166.054 85.4301 173.06 81.6267 180.343 78.7C181.337 78.3004 180.903 76.6722 179.894 77.0774C175.075 79.0143 170.378 81.3197 165.899 83.9879L165.893 82.3927C165.886 79.7059 165.928 76.9087 166.396 74.4538C166.63 72.7527 167.024 70.9359 167.629 69.5691C168.378 65.3787 180.108 50.9953 200.026 48.2617ZM176.051 136.59C176.686 135.988 177.873 136.706 178.438 136.688C179.885 136.885 181.26 137.495 182.331 138.247C183.039 138.642 183.535 139.014 183.95 139.355L183.961 139.352C183.958 139.352 183.954 139.355 183.95 139.356L183.99 139.382C184.593 139.81 186.802 142.218 185.406 141.571C185.302 141.436 185.196 141.306 185.088 141.179C185.077 141.197 185.061 141.214 185.042 141.23L185.12 141.346C186.306 143.126 184.258 141.251 183.943 140.753C183.928 140.765 183.911 140.773 183.895 140.782L184.305 141.28C184.363 141.351 184.408 141.407 184.445 141.455L184.532 141.538C185.903 142.883 185.946 144.093 184.353 142.105C184.415 142.199 184.466 142.298 184.473 142.386L184.567 142.506C185.818 144.114 184.801 143.543 184.179 142.856L184.127 142.797L184.137 142.813C184.716 143.702 183.568 143.078 183.365 142.603L183.357 142.581C183.136 142.402 183 142.2 182.953 142.149L182.945 142.14C181.869 141.041 180.309 140.111 178.985 139.688C178.793 139.652 178.598 139.623 178.402 139.602C177.606 139.425 176.8 139.303 175.987 139.238C175.887 139.226 175.786 139.153 175.711 139.059C174.48 139.017 174.86 138.514 175.371 138.421L175.379 138.419L175.278 138.411C174.489 138.334 173.949 138.051 174.748 137.878L174.849 137.858C174.836 137.839 174.826 137.819 174.815 137.8C174.131 137.725 174.577 137.062 174.957 137.223C174.797 136.702 175.527 136.962 175.618 136.884C175.688 136.807 175.774 136.74 175.824 136.736C176.044 136.581 175.937 136.595 176.051 136.59ZM180.235 128.159L180.075 128.252C179.945 128.328 179.812 128.378 179.678 128.408C179.867 128.488 180.054 128.574 180.238 128.667C180.235 128.554 180.233 128.441 180.233 128.328L180.235 128.159Z" fill="black"/>
<path fill-rule="evenodd" clip-rule="evenodd" d="M236.085 162.427C234.201 161.659 232.519 160.379 231.29 158.743C230.863 158.175 230.752 157.575 230.842 157.025C230.943 156.408 231.309 155.848 231.807 155.473C232.308 155.097 232.934 154.911 233.539 155.006C234.065 155.088 234.588 155.375 235.003 155.972L235.089 156.091C235.82 157.078 236.772 157.888 237.857 158.41C238.903 158.913 240.072 159.148 241.282 159.011C243.587 158.751 245.176 157.507 246.865 155.816C247.074 155.603 247.283 155.383 247.494 155.159C247.627 154.956 247.811 154.826 248.016 154.758C248.243 154.682 248.501 154.686 248.736 154.768C248.963 154.847 249.167 154.997 249.303 155.197C249.432 155.387 249.506 155.621 249.482 155.891C249.327 157.643 248.41 159.206 247.107 160.434C245.66 161.797 243.742 162.74 241.937 163.071C239.947 163.435 237.92 163.174 236.085 162.427V162.427ZM242.875 135.403C244.992 136.688 248.216 139.683 245.94 142.868C243.26 145.676 239.401 142.456 237.499 141C235.736 139.872 233.755 142.774 235.391 144.092C249.131 154.249 254.707 135.739 243.946 133.893C242.761 133.689 242.321 135.006 242.875 135.403ZM218.252 123.587C218.486 120.689 222.907 120.031 223.347 122.899C223.741 125.468 223.277 127.828 222.118 130.141C221.011 132.351 218.227 131.32 218.017 129.308C217.735 126.61 218.107 125.39 218.252 123.587ZM251.904 122.304C252.52 121.498 253.41 120.948 254.476 121.259C257.807 122.231 256.825 126.953 255.655 129.251C255.02 130.499 252.965 130.816 252.036 129.717C250.523 127.925 249.798 124.346 251.722 122.58C251.774 122.489 251.832 122.397 251.904 122.304ZM222.071 110.905L222.597 110.813C224.225 110.532 226.249 110.262 227.401 111.568C228.011 112.261 228.222 113.549 227.401 114.212C225.957 115.38 224.36 114.927 222.63 115.026C221.204 115.108 219.833 115.343 218.46 115.736C215.446 116.596 212.99 118.166 210.417 119.89C210.079 120.116 209.734 119.684 209.895 119.369C211.381 116.463 214.26 114.076 217.144 112.621C218.684 111.845 220.368 111.2 222.071 110.905ZM248.867 109.603L249.27 109.685C253.653 110.6 259.347 112.427 261.422 116.726C261.501 117.334 261.418 117.464 261.35 117.549L261.327 117.578C261.271 117.65 261.226 117.75 260.963 117.833C260.889 117.816 260.815 117.797 260.741 117.778C259.789 117.529 259.037 117.186 258.308 116.83L257.518 116.441C256.601 115.993 255.676 115.56 254.696 115.241C252.605 114.56 250.454 114.08 248.269 113.824C247.796 113.768 247.34 113.608 246.98 113.335C246.639 113.075 246.378 112.716 246.259 112.238C246.105 111.62 246.149 111.152 246.481 110.594C246.731 110.175 247.088 109.885 247.499 109.718C247.917 109.548 248.394 109.508 248.867 109.603Z" fill="black"/>
<path fill-rule="evenodd" clip-rule="evenodd" d="M271.129 141.675C270.194 140.418 268.513 138.768 266.813 138.856C266.596 138.868 266.514 139.104 266.645 139.263C267.201 139.944 267.961 140.427 268.518 141.122C269.177 141.944 269.653 142.935 269.963 143.937C270.413 145.393 270.537 147.042 270.136 148.523C269.429 151.133 267.196 153.046 264.758 154.023C262.346 154.99 259.443 155.32 257.162 153.903C253.795 151.812 250.938 148.796 246.706 148.736C245.716 148.723 245.018 149.177 244.603 149.825C244.185 149.2 243.496 148.758 242.531 148.747C237.786 148.693 234.245 151.965 230.262 154.005C227.571 155.383 224.088 154.955 221.312 154.044C218.693 153.186 215.849 151.461 214.861 148.737C214.316 147.233 214.438 145.477 214.998 143.995C215.366 143.02 215.935 142.078 216.638 141.311C217.368 140.517 218.326 140.017 219.074 139.264C219.226 139.11 219.106 138.87 218.905 138.856C215.732 138.641 212.867 142.436 212.268 145.189C211.678 147.9 212.558 150.604 214.338 152.673C217.959 156.88 224.663 158.267 229.881 157.031C234.105 156.031 238.116 153.727 242.531 154.058C243.499 154.13 244.193 153.726 244.613 153.113C245.032 153.744 245.732 154.156 246.706 154.062C250.821 153.663 254.493 156.581 258.487 157.294C261.668 157.861 265.103 157.096 267.828 155.38C270.676 153.587 272.681 150.709 272.813 147.279C272.889 145.306 272.31 143.264 271.129 141.675" fill="black"/>
</svg>
