<svg width="398" height="384" viewBox="0 0 398 384" fill="none" xmlns="http://www.w3.org/2000/svg">
<rect width="398" height="374" fill="#FF4444"/>
<path fill-rule="evenodd" clip-rule="evenodd" d="M299.603 377.793C296.105 378.009 292.607 378.18 289.11 378.31C243.376 380.013 197.678 374.803 151.972 373.663C136.055 373.245 120.22 373.454 104.344 374.731C102.788 374.856 101.01 373.183 101.201 371.59C104.134 346.291 107.803 321.06 109.705 295.657C109.707 294.313 109.533 292.972 109.071 291.706C108.984 291.607 108.532 290.494 108.13 290.425C108.261 290.522 107.667 290.351 108.046 290.381C105.75 290.005 103.499 287.529 105.165 285.16C122.325 258.88 145.75 234.893 153.286 203.678C155.067 195.239 161.498 194.717 168.349 191.236C170.487 189.966 175.714 186.446 176.565 184C178.597 175.182 175.019 166.543 185.474 162.976C192.375 161.064 204.574 159.446 211.558 161.462C220.076 164.295 219.439 173.887 224.379 180.486C226.935 184.303 231.291 189.529 235.314 190.114C237.264 190.397 238.7 186.456 240.646 186.728C270.99 194.091 312.331 244.326 325.373 272.135C328.312 280.886 318.833 278.246 319.416 287.042C320.134 303.731 321.704 325.094 320.772 341.802C319.9 351.5 320.546 361.661 317.529 370.993C318.341 371.979 317.174 372.974 316.222 373.402C315.023 375.44 303.221 377.511 299.603 377.793Z" fill="white"/>
<path fill-rule="evenodd" clip-rule="evenodd" d="M220.605 169.975C219.816 166.429 214.168 167.95 215.135 171.482C216.634 176.945 219.743 182.106 224.131 185.729C227.521 188.526 232.14 191.022 236.721 191.483C236.292 191.901 235.88 192.348 235.447 192.774C234.472 193.743 233.434 194.642 232.365 195.507C230.168 197.282 227.883 198.879 225.388 200.216C215.422 205.559 204.164 206.791 193.032 205.547C187.75 204.957 182.388 203.956 177.421 202.026C175.119 201.133 172.881 199.959 170.905 198.476L170.389 198.088C169.35 197.305 167.964 196.199 167.315 194.99C169.29 195.434 171.788 193.331 173.158 192.109C174.657 190.766 175.92 189.034 176.852 187.259C178.678 183.776 179.645 179.283 178.113 175.549C178.012 175.301 177.684 175.342 177.655 175.61C177.202 179.963 176.028 184.045 172.901 187.268C171.513 188.696 169.851 189.893 168.037 190.724L167.781 190.842C167.008 191.199 166.194 191.618 165.869 192.383C165.743 192.368 165.617 192.38 165.498 192.412C165.39 192.441 165.29 192.473 165.194 192.508C165.41 192.085 165.524 191.586 165.503 190.996C165.427 188.71 162.286 188.64 161.851 190.675C161.93 190.406 162.035 190.666 161.837 190.748C161.84 190.724 161.845 190.698 161.851 190.675L161.845 190.696L161.834 190.748L161.837 190.748C161.829 190.785 161.822 190.823 161.818 190.862L161.814 190.913L161.816 190.87C161.819 190.839 161.823 190.81 161.827 190.785L161.834 190.748C161.805 190.762 161.764 190.771 161.717 190.771L161.698 190.779C161.624 190.811 161.366 190.931 161.29 190.961C160.767 191.154 160.183 191.215 159.648 191.381C158.488 191.738 157.465 192.327 156.758 193.331C156.25 194.053 155.967 194.879 155.85 195.737C150.716 198.204 145.858 201.41 141.787 205.378C132.703 214.229 126.369 225.309 121.172 236.777C118.526 242.615 116.169 248.577 113.863 254.556L113.499 255.5C111.027 261.925 108.841 268.421 108.304 275.329C108.254 275.948 108.459 276.529 108.813 277.011C108.687 277.53 108.622 278.05 108.64 278.558C108.643 278.637 108.649 278.716 108.655 278.795C107.825 278.78 107.013 279.127 106.241 280.103C105.929 280.003 105.59 279.991 105.257 280.099C103.226 280.747 102.899 282.975 102.516 284.841C102.121 286.768 101.949 288.741 101.946 290.706C101.946 291.41 102.35 292.297 103.033 292.598C104.319 293.164 105.703 293.535 107.033 294.049C108.032 294.434 109.035 294.799 110.046 295.141C109.485 296.119 109.303 297.479 109 298.51C108.523 300.119 108.141 301.733 107.819 303.38C105.639 314.576 104.129 325.892 102.09 337.112C101.07 342.732 99.8833 348.314 98.674 353.896C98.078 356.64 97.444 359.379 96.7632 362.105C96.4006 363.559 96.024 365.014 95.6354 366.458C95.5224 366.881 95.4081 367.302 95.2926 367.722L95.089 368.459C94.6449 368.704 94.2651 369.075 94.0021 369.582C93.0406 371.439 93.5931 373.533 95.4367 374.578C97.441 375.716 99.8337 374.642 100.938 372.794C101.716 371.489 101.97 369.761 102.353 368.309C102.785 366.681 103.197 365.043 103.594 363.405C106.294 352.278 108.101 340.956 109.464 329.591L109.561 328.779C110.253 322.929 110.922 317.063 111.354 311.187C111.568 308.299 111.737 305.412 111.842 302.518C111.895 301.03 111.81 299.532 111.726 298.046C111.688 297.395 111.632 296.74 111.612 296.09L111.605 295.997C111.6 295.931 111.592 295.844 111.586 295.753L111.579 295.643C113.595 296.274 115.641 296.799 117.706 297.243C122.101 298.191 126.597 298.72 131.082 298.452C130.457 305.873 129.642 313.277 128.502 320.631C127.404 327.714 126.136 334.782 124.704 341.806C123.988 345.336 123.214 348.857 122.399 352.366C121.96 354.241 121.461 356.103 121.066 357.986C120.833 359.107 120.76 360.044 121.23 361.093C120.712 362.502 120.252 363.918 119.8 365.252L119.664 365.65C118.863 367.986 117.344 370.373 118.931 372.668C119.751 373.853 121.089 374.531 122.437 374.572C122.46 374.586 122.486 374.604 122.513 374.618C123.237 375.007 124.073 375.083 124.868 374.916C126.074 375.153 127.284 375.381 128.496 375.588C131.491 376.105 134.501 376.531 137.516 376.89C143.257 377.573 149.036 377.947 154.812 378.154C175.96 378.916 197.132 377.579 218.288 377.964C229.066 378.16 239.845 378.644 250.606 379.287C255.976 379.608 261.349 379.953 266.722 380.218L268.385 380.299C273.19 380.529 277.999 380.706 282.8 380.355C282.894 380.349 282.967 380.311 283.017 380.259C284.673 380.072 286.338 378.548 286.172 376.788C285.456 369.29 284.741 361.793 284.022 354.293C282.745 340.93 281.456 327.568 280.153 314.208L279.965 312.279C279.527 307.778 279.109 303.265 278.897 298.746C279.966 298.671 281.032 298.574 282.099 298.457C293.656 297.193 304.736 293.7 315.374 289.112L315.805 288.925C316.763 288.507 317.812 288.09 318.887 287.644C318.869 289.684 318.937 291.728 318.946 293.748C318.96 297.103 318.934 300.457 318.925 303.809C318.905 310.716 318.642 317.627 318.297 324.523C317.692 336.703 316.982 348.865 315.907 361.016C315.635 364.073 315.267 367.124 315.007 370.181C314.852 371.982 315.223 373.483 316.874 374.429C317.686 374.896 318.314 374.7 319.121 374.324C321.09 373.401 321.146 371.22 321.333 369.323C321.476 367.892 321.607 366.462 321.736 365.028C322.01 361.971 322.247 358.914 322.44 355.852C323.202 343.683 323.425 331.527 322.899 319.344C322.655 313.645 322.302 307.934 321.834 302.245L321.724 300.933C321.338 296.387 321.09 291.617 320.292 287.042C323.509 285.617 326.697 283.804 328.175 280.791C330.092 276.879 327.985 273.534 324.985 271.23C325.014 270.842 324.985 270.456 324.903 270.106C324.041 266.378 322.598 262.693 321.204 259.138C319.799 255.564 318.247 252.046 316.541 248.604C309.692 234.815 300.337 222.214 289.185 211.599C283.645 206.327 277.582 201.454 271.11 197.366C267.902 195.343 264.612 193.475 261.206 191.811L260.702 191.566C258.33 190.416 255.671 189.193 253.033 188.553C252.759 188.348 252.481 188.155 252.201 187.972C251.164 187.282 249.755 187.782 249.142 188.765C248.843 188.535 248.499 188.331 248.105 188.146L247.715 187.969C245.348 186.904 242.507 185.908 239.938 186.608C238.343 187.043 237.087 188.217 236.522 189.712C235.228 189.028 233.957 188.325 232.716 187.464C230.72 186.086 228.911 184.374 227.287 182.579C224.029 178.968 221.663 174.737 220.605 169.975ZM107.565 283.836C107.787 283.901 108.021 283.924 108.263 283.895C107.825 283.946 108.703 284.205 108.943 284.329L108.962 284.339C109.4 284.589 109.841 284.832 110.288 285.066C111.331 285.614 112.397 286.108 113.482 286.572C115.617 287.48 117.823 288.178 120.088 288.689C122.302 289.188 124.625 289.48 126.895 289.526C128.415 289.556 130.217 289.486 131.789 289.039C131.608 291.792 131.407 294.542 131.182 297.289L128.077 296.578C124.973 295.866 121.871 295.137 118.808 294.25C116.508 293.585 114.241 292.805 112 291.964C110.826 291.523 109.66 291.056 108.509 290.554C107.936 290.304 107.399 290.007 106.868 289.706L106.414 289.448C106.519 288.219 106.712 287.013 106.992 285.798C107.138 285.156 107.387 284.496 107.565 283.836ZM320.146 270.871C320.541 272.15 321.146 273.344 322.525 273.633C323.013 273.735 323.421 273.68 323.761 273.513L323.842 273.677C324.976 276.003 325.309 278.457 322.7 280.248C321.522 281.057 320.24 281.758 318.913 282.385C316.541 283.513 314.015 284.42 311.633 285.342L311.159 285.527C306.899 287.197 302.572 288.718 298.178 289.991C293.719 291.278 289.182 292.312 284.588 292.968C282.651 293.243 280.7 293.436 278.745 293.561C278.713 290.934 278.728 288.303 278.736 285.676C279.432 285.588 280.121 285.495 280.787 285.416C282.815 285.18 284.837 284.89 286.847 284.531C291.046 283.781 295.2 282.745 299.253 281.419C306.762 278.958 313.748 275.44 320.146 270.871ZM237.82 190.386C239.526 188.582 242.79 189.233 244.849 190.109C245.472 190.374 246.1 190.643 246.696 190.967L246.812 191.032C247.506 191.431 247.502 191.668 247.163 192.464C246.723 193.513 246.109 194.526 245.525 195.498C243.023 199.67 239.731 203.302 235.97 206.37C222.653 217.231 203.521 221.061 186.867 217.424C178.875 215.68 171.165 212.159 165.281 206.386L164.745 205.853C162.373 203.481 159.116 200.047 159.344 196.532C159.452 194.841 160.834 194.745 162.246 194.418C162.824 194.284 163.376 194.093 163.856 193.825C163.47 195.486 165.524 197.956 166.585 198.993C168.808 201.167 171.484 202.867 174.315 204.137C179.703 206.557 185.564 207.702 191.399 208.425C198.02 209.249 204.784 209.176 211.355 207.959C217.073 206.899 222.709 204.893 227.629 201.769C229.884 200.338 232.108 198.706 233.99 196.806L234.389 196.402C235.748 195.027 237.329 193.364 238.141 191.56C238.451 191.563 238.758 191.554 239.065 191.533C239.281 191.522 239.397 191.215 239.181 191.101C238.939 190.973 238.696 190.844 238.454 190.719C238.495 190.584 238.53 190.453 238.559 190.319C238.583 190.205 238.463 190.1 238.358 190.164C238.211 190.251 238.071 190.345 237.934 190.444C237.896 190.427 237.858 190.406 237.82 190.386Z" fill="black"/>
<path fill-rule="evenodd" clip-rule="evenodd" d="M191.062 66.606C147.149 67.9926 144.5 88.7971 144.5 123.687C144.5 158.577 167.28 180.563 175.668 184.402C184.056 188.241 206.143 204.731 226.075 197.132C246.007 189.533 240.235 157.428 240.235 143.634C240.235 129.84 234.974 65.2193 191.062 66.606Z" fill="white"/>
<path fill-rule="evenodd" clip-rule="evenodd" d="M173.247 172.943C181.311 177.434 190.545 177.608 199.219 174.782C204.421 173.092 209.191 170.478 213.655 167.353C217.538 164.632 221.004 161.614 224.438 158.41C227.265 152.192 229.783 145.985 230.962 139.219C232.018 133.145 232.158 126.839 230.933 120.778C221.87 113.342 212.864 105.846 203.869 98.3269C199.289 94.497 194.697 90.688 190.049 86.9396C187.689 85.0364 185.351 83.1041 183 81.1922C182.612 80.8779 182.227 80.5637 181.839 80.2494C176.984 83.7938 171.779 86.8322 166.959 90.4346C164.436 92.3232 161.982 94.334 159.645 96.4493C158.42 97.5584 157.223 98.702 156.056 99.8748C154.989 100.946 153.959 102.482 152.444 102.887C152.237 102.942 152.042 102.954 151.858 102.927C149.833 120.609 148.395 139.702 157.069 155.759C160.853 162.764 166.218 169.026 173.247 172.943ZM225.707 179.442C226.817 178.427 225.163 176.785 224.057 177.795C217.111 184.141 208.031 187.505 198.86 189.062C197.38 189.313 198.011 191.556 199.48 191.306C209.056 189.681 218.467 186.056 225.707 179.442ZM234.041 189.178C235.367 188.468 234.187 186.46 232.863 187.168C227.452 190.062 221.517 191.566 215.497 192.582C214.016 192.831 214.648 195.074 216.117 194.827C222.342 193.777 228.45 192.169 234.041 189.178ZM212.018 91.1013C207.528 87.0822 202.702 83.2581 197.605 80.0311C192.447 76.766 186.813 74.8134 180.724 74.7668C181.15 75.1073 181.556 75.4856 181.967 75.8374C183.117 76.8184 184.263 77.8049 185.41 78.7885C187.703 80.7586 190.002 82.7255 192.266 84.7279C196.724 88.674 201.197 92.5996 205.646 96.5544C214.197 104.155 222.565 111.922 230.752 119.913C230.708 119.718 230.661 119.523 230.615 119.329C227.904 108.037 220.531 98.7224 212.018 91.1013ZM176.821 75.2586C176.792 75.1713 176.771 75.0866 176.759 75.0055C165.074 76.5245 155.315 85.1001 152.089 96.3914C152.369 96.7814 152.523 97.2441 152.465 97.7356C152.436 97.9832 152.407 98.2335 152.378 98.4809C152.777 98.0854 153.189 97.7155 153.538 97.3634C154.703 96.1877 155.896 95.0438 157.122 93.9292C159.628 91.651 162.23 89.5208 164.973 87.5332C169.743 84.0761 174.907 80.8983 180.593 79.2396C180.22 78.934 179.846 78.6285 179.47 78.3258C178.347 77.4147 177.305 76.6642 176.821 75.2586ZM155.873 63.1848C163.047 55.3655 172.981 49.6385 183.443 47.6481C193.433 45.7449 203.776 46.9991 213.214 50.6978C232.963 58.4385 248.546 75.4597 255.843 95.1838C260.096 106.676 261.491 119.273 260.213 131.437C258.941 143.546 255.285 156.05 248.633 166.352C248.024 167.295 247.355 168.2 246.655 169.076C246.967 172.632 248.158 176.118 250.031 179.15C250.131 179.313 250.238 179.472 250.343 179.632C252.261 181.065 254.25 182.409 256.192 183.797C257.876 184.999 259.541 186.233 261.124 187.565C262.618 188.822 264.353 190.223 265.365 191.92C266.194 193.31 266.532 195.2 265.401 196.526C264.037 198.123 261.727 197.56 259.88 197.56C259.722 197.56 259.564 197.563 259.407 197.565C258.852 197.913 258.281 198.227 257.727 198.519C252.134 201.476 246.521 204.401 240.902 207.311C229.71 213.111 218.565 219.144 207.143 224.483C201.85 226.96 196.184 229.124 190.256 229.116C184.695 229.107 179.668 226.904 175.327 223.555C170.379 219.74 166.241 214.895 162.227 210.146C160.623 208.245 159.05 206.322 157.507 204.372C154.542 203.385 151.602 203.097 148.958 205C146.837 206.528 144.042 204.45 143.993 202.157C143.975 201.343 144.01 200.539 144.098 199.748C144.628 194.859 147.027 190.436 149.728 186.333C151.204 184.089 152.759 181.886 154.324 179.703C154.691 179.188 155.053 178.673 155.403 178.149C149.122 168.925 144.138 158.696 141.075 148.007C137.857 136.76 136.763 125.096 137.48 113.441C138.583 95.5795 143.496 76.6758 155.873 63.1848Z" fill="black"/>
<path fill-rule="evenodd" clip-rule="evenodd" d="M177.886 160.715C179.863 159.911 181.627 158.568 182.917 156.853C183.366 156.256 183.482 155.627 183.388 155.051C183.282 154.403 182.898 153.816 182.375 153.423C181.849 153.028 181.193 152.833 180.557 152.932C180.006 153.019 179.456 153.32 179.021 153.946L178.931 154.071C178.164 155.106 177.165 155.955 176.026 156.503C174.929 157.03 173.702 157.277 172.432 157.134C170.013 156.861 168.346 155.555 166.574 153.783C166.354 153.559 166.134 153.328 165.913 153.093C165.774 152.881 165.58 152.744 165.366 152.673C165.127 152.593 164.857 152.597 164.61 152.684C164.371 152.767 164.158 152.924 164.015 153.133C163.879 153.332 163.802 153.578 163.827 153.861C163.99 155.698 164.952 157.338 166.319 158.625C167.838 160.055 169.85 161.044 171.745 161.391C173.833 161.773 175.96 161.5 177.886 160.715ZM170.76 132.374C168.539 133.721 165.155 136.863 167.545 140.203C170.357 143.148 174.406 139.771 176.402 138.244C178.252 137.06 180.331 140.104 178.614 141.486C164.195 152.139 158.344 132.726 169.637 130.79C170.88 130.576 171.342 131.957 170.76 132.374ZM196.599 119.981C196.354 116.942 191.714 116.251 191.253 119.259C190.84 121.954 191.326 124.429 192.542 126.855C193.704 129.172 196.625 128.091 196.846 125.981C197.142 123.152 196.752 121.872 196.599 119.981ZM161.286 118.636C160.639 117.79 159.705 117.213 158.587 117.539C155.091 118.559 156.121 123.511 157.349 125.922C158.016 127.231 160.172 127.563 161.147 126.41C162.735 124.531 163.495 120.777 161.476 118.925C161.422 118.83 161.361 118.733 161.286 118.636ZM192.592 106.68L192.039 106.584C190.331 106.289 188.207 106.006 186.999 107.376C186.358 108.103 186.138 109.454 186.999 110.149C188.514 111.373 190.19 110.899 192.005 111.003C193.502 111.088 194.94 111.336 196.382 111.747C199.544 112.649 202.121 114.295 204.822 116.103C205.176 116.341 205.538 115.888 205.369 115.558C203.81 112.51 200.788 110.007 197.762 108.481C196.146 107.666 194.379 106.99 192.592 106.68ZM164.473 105.315L164.05 105.402C159.451 106.361 153.475 108.277 151.297 112.786C151.214 113.423 151.302 113.56 151.373 113.649L151.397 113.679C151.456 113.755 151.503 113.86 151.78 113.947C151.856 113.929 151.934 113.909 152.012 113.889C153.011 113.628 153.801 113.268 154.565 112.895L155.394 112.487C156.356 112.016 157.327 111.563 158.355 111.228C160.55 110.514 162.807 110.01 165.1 109.742C165.597 109.683 166.075 109.516 166.453 109.229C166.811 108.957 167.085 108.58 167.21 108.079C167.371 107.431 167.325 106.94 166.976 106.355C166.714 105.916 166.339 105.611 165.908 105.436C165.469 105.258 164.969 105.216 164.473 105.315Z" fill="black"/>
<path fill-rule="evenodd" clip-rule="evenodd" d="M144.776 133.669C148.338 137.305 154.284 138.349 159.023 136.399C171.19 131.376 165.235 115.709 155.851 111.502C154.679 111.213 153.113 110.528 151.685 110.373C151.556 110.31 151.275 110.491 150.934 110.32C140.587 111.461 138.231 127.332 144.776 133.669ZM184.022 134.6C188.017 139.835 195.444 141.45 201.512 139.016C213.5 134.352 209.248 120.459 201.046 115.013C183.721 108.581 176.566 124.947 184.022 134.6ZM210.009 123C210.02 122.995 210.031 122.992 210.043 122.987C209.979 122.96 209.916 122.932 209.853 122.904C209.873 122.957 209.896 123.01 209.915 123.063C209.947 123.041 209.974 123.017 210.009 123ZM136.529 117.341C137.507 117.343 138.92 117.502 139.73 118.173C141.726 111.52 149.096 105.362 155.506 109.852C160.553 111.456 164.299 115.013 166.427 119.741C170.265 117.486 176.301 118.449 179.629 121.432C181.809 114.316 187.173 111.824 193.558 111.456C200.527 110.328 207.474 117.015 209.641 122.38C211.443 122.177 214.136 121.611 215.832 122.71C226.835 119.859 246.072 118.287 248.309 119.871C249.904 120.475 250.778 124.193 248.552 124.393C246.611 124.121 248.778 121.669 246.822 121.402C236.401 120.763 226.284 122.837 215.973 123.707C215.053 124.931 212.078 125.34 210.491 124.848C212.991 133.949 207.596 140.14 199.512 141.994C186.995 144.835 176.105 133.772 179.378 122.265C175.586 120.401 171.224 120.481 167.094 121.463C173.996 146.561 133.084 145.435 139.474 119.033C135.222 121.123 134.298 117.763 136.529 117.341Z" fill="black"/>
</svg>
