<svg width="398" height="375" viewBox="0 0 398 375" fill="none" xmlns="http://www.w3.org/2000/svg">
<rect width="398" height="374" fill="#FF4444"/>
<path fill-rule="evenodd" clip-rule="evenodd" d="M98.0717 369.482C136.882 375.384 176.396 375.681 215.529 373.538C231.016 372.377 246.551 372.168 262.025 373.652C271.169 374.333 311.262 377.401 314.537 369.201C312.476 325.54 308.3 281.508 295.491 239.517C290.223 224.607 285.698 212.232 275.417 199.893C272.176 196.525 265.188 189.459 261.184 187.155C257.715 185.159 256.265 185.871 254.273 182.5C252.294 178.775 250.834 172.555 248.023 169.927C245.161 167.252 240.92 168.209 235.664 169.071C236.63 156.006 230.606 152.678 222.307 150.193C207.719 144.62 193.313 147.42 189.641 165.198C182.834 165.198 179.01 168.131 174.876 170.949C173.186 172.101 174.361 175.036 172.343 175.941C168.608 177.273 162.009 176.947 158.413 178.585C142.061 186.035 127.498 196.838 117.933 212.616C96.4909 246.303 81.7617 317.263 84.3106 357.189C83.1938 358.942 84.7381 361.456 85.1306 363.341C85.6261 364.981 87.2305 366.072 88.905 365.886C91.2417 368.401 94.8559 368.961 98.0717 369.482Z" fill="white"/>
<path fill-rule="evenodd" clip-rule="evenodd" d="M258.713 186.167C258.474 186.035 258.684 185.694 258.924 185.806C270.433 191.212 279.263 200.696 285.476 211.654C291.909 223.001 295.576 235.883 298.737 248.474L298.851 248.929C302.222 262.399 305.088 276.008 307.668 289.65C310.281 303.465 312.379 317.365 314.066 331.323C314.901 338.225 315.645 345.138 316.226 352.066C316.516 355.528 316.779 358.992 317.016 362.458C317.111 363.844 317.2 365.23 317.276 366.618L317.331 367.659C317.378 368.603 317.49 369.549 317.257 370.48C317.056 371.283 316.632 372.01 316.258 372.747C315.52 374.203 313.495 373.963 312.699 372.747L312.468 372.392C311.94 371.576 311.502 370.817 311.336 369.8C311.176 368.816 311.17 367.785 311.098 366.791C310.966 364.963 310.854 363.132 310.725 361.303C310.456 357.452 310.153 353.603 309.818 349.758C309.155 342.166 308.444 334.581 307.571 327.011C306.02 313.556 304.073 300.137 301.779 286.789C299.536 273.75 296.702 260.843 293.745 247.953L293.438 246.619C288.261 224.113 280.281 198.195 258.713 186.167ZM136.117 274.296C136.202 274.071 136.566 274.019 136.628 274.296C137.403 277.791 137.48 281.39 137.598 284.969C137.715 288.498 137.71 292.044 137.659 295.576C137.469 308.555 137.113 321.524 136.806 334.502C136.652 340.993 136.507 347.486 136.396 353.978C136.355 356.413 136.319 358.848 136.29 361.283L136.254 364.495C136.236 365.915 136.199 367.318 136.026 368.736C135.912 369.669 135.669 370.559 135.155 371.359C134.79 371.926 134.269 372.215 133.762 372.6L133.667 372.674C133.02 373.186 132.339 373.189 131.698 372.674L131.512 372.526C130.9 372.047 130.371 371.673 129.98 370.915C129.436 369.861 129.349 368.717 129.257 367.555C129.117 365.795 129.21 364.008 129.228 362.243C129.264 358.7 129.313 355.159 129.375 351.617C129.603 338.629 130.053 325.638 130.874 312.674C131.261 306.567 131.785 300.44 132.488 294.358L132.622 293.218C132.836 291.429 133.03 289.607 133.249 287.78C129.977 285.475 127.1 282.679 124.647 279.507C124.466 279.273 124.763 278.946 124.981 279.172C127.488 281.771 130.362 283.842 133.544 285.471C134.065 281.646 134.782 277.841 136.117 274.296ZM190.793 158.519C190.838 158.485 190.908 158.469 190.951 158.519C191.654 159.34 191.511 160.596 191.534 161.636L191.537 161.733C191.587 163.254 191.597 164.771 191.592 166.293L191.576 171.138C191.574 171.804 191.52 172.498 191.554 173.168L191.572 173.427C191.941 173.806 192.113 174.354 191.988 174.904C191.965 175.609 191.597 176.198 191.059 176.568L192.211 178.203L193.364 179.838C195.74 183.213 198.143 186.557 200.646 189.838C203.199 193.183 205.923 196.403 208.773 199.498C210.165 201.011 211.581 202.502 213.03 203.961C213.619 204.553 214.223 205.131 214.82 205.716L215.413 206.303C215.764 206.654 216.206 207.002 216.439 207.447C216.576 207.709 216.607 208.357 216.656 208.464C217.095 209.431 216.345 210.974 215.099 210.491L215.155 210.453C215.382 210.295 215.237 210.293 214.719 210.447C214.392 210.446 214.086 210.37 213.8 210.221L213.714 210.174C213.311 209.969 212.951 209.572 212.624 209.255L212.543 209.177C211.794 208.475 211.08 207.73 210.362 206.996C208.864 205.464 207.4 203.899 205.982 202.292C203.154 199.087 200.473 195.752 197.934 192.313C195.348 188.81 192.944 185.128 190.877 181.294C190.092 179.839 189.373 178.356 188.683 176.856C187.341 176.425 187.03 174.996 187.123 173.386C186.628 172.231 186.182 171.053 185.918 169.849C185.882 169.684 186.094 169.528 186.221 169.673C186.65 170.161 187.048 170.681 187.43 171.214C187.66 170.086 187.952 169.047 188.089 168.384L188.684 165.461C185.331 165.287 181.657 166.666 179.346 169.08C179.221 169.709 178.738 170.159 178.267 170.746C177.729 171.418 177.259 172.172 176.909 172.961C176.132 174.708 176.57 177.283 175.063 178.566C174.906 178.699 174.73 178.792 174.549 178.849C175.264 182.361 174.94 186.231 174.924 189.793L174.923 190.107C174.927 194.094 174.794 198.085 174.64 202.069L174.483 206.012C174.281 211.271 174.149 216.532 174.659 221.762C176.99 219.695 179.4 217.723 181.892 215.844C183.531 214.609 185.203 213.417 186.905 212.27L188.289 211.345C189.946 210.232 191.644 209.087 193.458 208.291C195.832 207.249 198.089 207.607 200.38 208.675C202.663 209.74 204.877 210.976 207.115 212.13C209.392 213.303 211.673 214.466 213.953 215.632C215.463 216.405 217.677 217.102 218.784 218.524C218.855 218.21 218.937 217.896 219.034 217.583C218.924 217.107 218.966 216.592 219.233 216.1C222.955 209.253 226.399 202.242 229.819 195.24C231.55 191.697 233.196 188.111 234.93 184.57L236.616 181.12C236.898 180.546 237.18 179.972 237.464 179.398C237.89 178.54 238.333 177.69 238.763 176.834C238.945 176.472 239.173 176.113 239.35 175.747L239.433 175.564C239.437 175.555 239.846 174.269 239.53 174.391L239.503 174.404C239.342 174.496 239.213 174.293 239.318 174.164C239.764 173.611 240.385 174.101 240.64 174.612C241.341 176.019 240.056 178.227 239.561 179.575L239.534 179.65C238 183.998 236.263 188.264 234.483 192.515C231.07 200.667 227.403 208.692 223.745 216.732L223.702 216.87C224.482 216.272 225.315 215.728 226.028 215.2C227.827 213.865 229.679 212.596 231.528 211.332C234.919 209.013 238.402 206.846 241.942 204.766L242.651 204.35C244.419 203.319 246.171 202.483 248.27 202.792C250.22 203.08 252.033 204.129 253.795 204.981L253.977 205.068L259.421 207.659C258.839 205.336 258.209 203.024 257.551 200.72C256.269 196.227 254.858 191.772 253.328 187.357C251.899 183.232 250.355 179.151 248.721 175.103L248.229 173.889C247.563 172.222 246.9 170.404 244.997 169.891C243.094 169.378 240.911 170.139 239.172 169.053C239.014 168.954 239.034 168.694 239.225 168.645L240.298 168.375C242.313 167.873 244.675 167.368 246.58 167.856C248.654 168.388 250.369 170.13 251.375 171.941C252.493 173.955 253.282 176.21 254.13 178.358L254.265 178.696C255.239 181.127 256.176 183.573 257.073 186.034C258.865 190.953 260.497 195.931 261.974 200.954C262.686 203.375 263.361 205.808 264.01 208.246C264.196 208.948 264.504 209.798 264.757 210.685C265.046 210.967 265.32 211.282 265.577 211.642C266.003 212.239 265.697 212.938 265.167 213.295C265.147 213.906 265.011 214.48 264.688 214.972C263.424 216.892 260.082 216.398 260.218 213.815C260.238 213.42 260.392 213.043 260.625 212.724L260.618 212.672L260.592 212.577C260.012 212.299 259.429 211.989 258.815 211.685L253.102 208.859C251.447 208.04 249.613 206.775 247.773 206.463C246.058 206.172 244.248 207.452 242.774 208.224L242.678 208.274C239.115 210.102 235.578 211.991 232.055 213.896C230.335 214.826 228.638 215.794 226.925 216.735C225.492 217.522 223.946 218.652 222.336 219.096C221.649 219.631 220.832 219.56 220.175 219.155C220.475 221.015 220.457 222.924 220.549 224.826C220.673 227.369 220.692 229.918 220.732 232.465L220.749 233.419C220.857 239.048 220.915 244.678 220.937 250.308C221.013 270.356 220.791 290.409 220.74 310.457C220.713 320.53 220.514 330.611 220.253 340.68C220.142 344.946 219.91 349.208 219.66 353.468L219.522 355.791C219.231 360.694 219.059 365.651 218.152 370.488C218.034 371.118 216.967 371.134 216.863 370.488C216.029 365.305 215.982 360.008 215.822 354.765L215.788 353.717C215.595 348.087 215.504 342.461 215.523 336.828C215.594 316.772 216.115 296.729 216.541 276.679C216.755 266.605 216.899 256.527 217.232 246.456C217.398 241.417 217.587 236.382 217.81 231.345C217.91 229.096 218.006 226.849 218.155 224.604L218.223 223.641C218.269 223.013 218.306 222.393 218.352 221.779C216.325 222.52 214.471 221.148 212.648 220.209C210.546 219.127 208.446 218.043 206.343 216.962L204.239 215.884L200.029 213.733C198.133 212.764 196.672 211.801 194.65 212.937C187.365 217.028 180.671 222.473 174.604 228.186C173.441 229.281 170.983 228.987 170.688 227.151C169.429 219.306 170.195 211.349 170.837 203.48L171.074 200.559C171.361 197.07 171.674 193.581 172.091 190.107C172.277 188.552 172.462 186.999 172.668 185.448L172.826 184.284C173.082 182.446 173.25 180.618 173.797 178.854C173.625 178.798 173.459 178.706 173.31 178.566C171.665 177.003 172.458 174.291 173.209 172.433C173.95 170.598 175.08 168.997 176.496 167.619C176.804 167.318 177.24 167.124 177.677 167.114C181.109 164.837 184.874 163.701 188.793 164.944C188.903 164.417 189.015 163.891 189.133 163.366L189.253 162.842C189.558 161.54 189.671 159.39 190.793 158.519ZM225.967 364.093C227.032 363.8 228.198 364.109 228.979 364.89C229.759 365.672 230.068 366.839 229.774 367.905C229.627 368.43 229.362 368.885 228.979 369.272C228.62 369.629 228.202 369.883 227.724 370.036L227.613 370.069L227.439 370.142C226.905 370.285 226.371 370.285 225.837 370.142C225.327 369.998 224.884 369.74 224.508 369.366C224.134 368.99 223.876 368.546 223.733 368.035C223.59 367.501 223.59 366.966 223.733 366.432L223.806 366.257C223.953 365.733 224.218 365.277 224.601 364.89C224.988 364.506 225.443 364.24 225.967 364.093ZM289.204 257.848C289.378 257.647 289.662 257.904 289.553 258.118C287.895 261.374 286.046 264.606 284.229 267.779C284.374 268.659 284.518 269.531 284.685 270.381C285.392 274.006 286.26 277.564 286.825 281.223C288.857 294.374 289.912 307.668 290.817 320.937C291.725 334.254 291.841 347.577 291.977 360.919C291.989 362.076 291.101 363.42 289.91 363.638C289.365 363.737 288.957 363.718 288.413 363.638C287.174 363.455 286.399 362.034 286.346 360.919C285.99 353.462 285.512 346.015 284.959 338.569C283.977 325.369 283.377 312.134 282.585 298.92L282.305 294.302C282.006 289.298 281.732 284.29 281.642 279.279C281.583 275.958 281.76 272.639 281.651 269.323C281.55 266.261 281.24 262.932 281.915 259.923C281.94 259.811 282.118 259.782 282.169 259.89C282.87 261.367 283.314 262.973 283.656 264.613C285.463 262.325 287.303 260.032 289.204 257.848ZM170.853 176.969C171.107 176.95 171.097 177.332 170.853 177.36C167.308 177.772 163.882 179.216 160.534 180.444L160.248 180.549C156.865 181.777 153.567 183.206 150.394 184.909C144.189 188.239 138.491 192.532 133.454 197.447C113.341 217.068 104.175 245.361 97.4585 271.95C93.7268 286.723 91.0731 301.745 89.3531 316.883C88.5026 324.369 87.9013 331.884 87.5508 339.41C87.3713 343.268 87.2581 347.129 87.2109 350.99C87.1866 352.968 87.1794 354.946 87.1818 356.924C87.183 357.83 87.3446 358.971 87.1025 359.851C86.8779 360.667 86.2446 361.385 85.7761 362.064C85.2209 362.87 84.223 362.827 83.6601 362.064L83.4525 361.786C82.8521 360.989 82.2647 360.226 82.1789 359.184C82.0871 358.067 82.1519 356.916 82.1477 355.794C82.1382 353.533 82.1661 351.272 82.2113 349.012C82.2983 344.68 82.4688 340.35 82.7222 336.024C83.2368 327.246 84.0837 318.486 85.2963 309.777C87.4518 294.297 90.6827 278.965 94.9147 263.921C98.9073 249.729 103.637 235.579 110.375 222.433C116.631 210.227 124.839 198.872 135.669 190.342C140.705 186.375 146.187 183.069 152.098 180.58C155.079 179.324 158.209 178.299 161.393 177.714C164.541 177.136 167.676 177.217 170.853 176.969ZM226.578 339.008C227.14 339.004 227.767 339.128 228.249 339.439L228.894 339.938C229.069 340.162 229.243 340.388 229.416 340.614C229.819 341.14 229.872 341.99 229.788 342.617C229.769 343.035 229.645 343.425 229.416 343.785L228.925 344.421C228.453 344.807 228.06 345.081 227.489 345.267C227.19 345.363 226.903 345.384 226.616 345.369L226.52 345.363L226.578 345.37L226.477 345.359C226.384 345.351 226.29 345.341 226.196 345.328C226.133 345.32 226.068 345.315 226.005 345.307C225.943 345.301 225.884 345.299 225.822 345.305C225.096 345.373 224.366 344.961 223.85 344.487C223.386 344.061 222.969 343.156 223.034 342.514L223.062 342.246C223.11 341.794 223.151 341.616 223.342 341.162C223.528 340.72 223.788 340.33 224.142 340C224.819 339.369 225.648 339.015 226.578 339.008ZM224.33 305.911C225.294 304.86 226.949 304.783 228.144 305.419C228.435 305.574 228.702 305.823 228.959 306.03C229.606 306.554 229.86 307.498 229.895 308.294C229.931 309.08 229.516 310.015 228.959 310.558L228.824 310.689C228.491 311.013 228.014 311.295 227.548 311.381C226.797 311.519 226.166 311.515 225.466 311.219C224.865 310.965 224.347 310.557 223.995 310.003L223.938 309.91C223.913 309.871 223.891 309.831 223.869 309.791L223.838 309.73C223.168 308.441 223.348 306.982 224.33 305.911ZM224.829 272.641C225.264 272.504 225.698 272.485 226.133 272.582C226.428 272.583 226.703 272.658 226.958 272.805C227.235 272.883 227.475 273.023 227.679 273.227C227.924 273.372 228.12 273.567 228.266 273.813C228.555 274.129 228.749 274.5 228.851 274.926L228.967 275.796L228.851 276.666L228.521 277.448C228.43 277.567 228.339 277.685 228.247 277.803C228.102 278.049 227.905 278.246 227.659 278.392C227.499 278.551 227.316 278.67 227.11 278.753C226.382 279.275 225.413 279.446 224.55 279.208C224.038 279.064 223.594 278.805 223.217 278.43C222.842 278.052 222.583 277.607 222.439 277.094L222.38 276.685C222.304 276.136 222.292 275.832 222.447 275.134C222.516 274.827 222.713 274.394 222.816 274.212C223.258 273.434 223.981 272.901 224.829 272.641ZM262.566 248.705C263.814 248.696 265.062 248.698 266.31 248.712L267.246 248.725C268.813 248.749 270.155 248.587 271.387 249.676C272.281 250.466 271.887 251.791 271.038 252.386C269.752 253.287 268.139 252.834 266.661 252.735C265.102 252.63 263.542 252.543 261.981 252.473C258.959 252.338 255.936 252.251 252.911 252.238C249.892 252.225 246.869 252.254 243.851 252.303C240.78 252.353 237.583 252.639 234.529 252.321C234.109 252.277 234.015 251.725 234.429 251.581C237.307 250.585 240.544 250.262 243.56 249.881C246.67 249.487 249.781 249.209 252.911 249.028C256.126 248.843 259.346 248.727 262.566 248.705ZM224.824 238.916L224.927 238.918C225.476 238.919 225.99 239.049 226.469 239.306L226.571 239.363L227.231 239.873C227.635 240.28 227.914 240.76 228.069 241.312L228.185 242.18C228.202 242.629 228.108 243.048 227.905 243.437C227.773 243.841 227.549 244.191 227.231 244.486C226.936 244.804 226.586 245.029 226.182 245.161C225.824 245.349 225.44 245.444 225.03 245.444L224.927 245.442C224.339 245.44 223.79 245.291 223.282 244.996L222.623 244.486C222.219 244.079 221.939 243.6 221.785 243.047L221.668 242.18C221.651 241.731 221.745 241.311 221.949 240.923C222.08 240.518 222.305 240.168 222.623 239.873C222.918 239.555 223.267 239.33 223.672 239.199C224.03 239.01 224.414 238.916 224.824 238.916ZM234.484 162.283C235.186 161.264 236.458 162.17 236.276 162.988C236.324 165.287 236.442 167.518 236.964 169.769C237.203 170.8 237.517 171.832 238 172.777L238.203 173.174C238.829 174.412 239.314 175.579 238.472 176.936C238.074 177.576 237.357 178.057 236.579 178.023C233.128 177.874 232.654 173.066 232.445 170.382C232.228 167.617 232.901 164.579 234.484 162.283Z" fill="black"/>
<path fill-rule="evenodd" clip-rule="evenodd" d="M214.672 37.6594C227.894 37.6594 243.757 44.143 245.106 44.2727L245.143 44.2747C245.852 44.2747 248.625 46.4115 253.461 50.6851L248.223 61.0191L248.647 61.4285C250.675 63.3957 252.407 65.1887 253.774 66.6021C264.934 78.143 266.94 123.456 264.31 139.258C261.68 155.06 256.808 170.523 234.129 170.523C211.449 170.523 186.217 156.728 182.33 152.433C179.739 149.569 176.828 148.197 173.598 148.317C173.466 148.147 173.334 147.978 173.203 147.81L172.728 147.742C168.258 147.087 165.055 146.206 163.119 145.098C159.338 142.934 155.182 131.559 155.182 129.053C155.182 126.573 148.977 108.526 148.853 106.616L148.851 106.563C148.851 104.967 140.744 97.6282 140.744 95.2975C140.744 92.9668 139.11 93.1082 140.744 84.8953L141.219 82.4826C142.958 73.7382 146.361 59.2589 159.338 52.9671C173.598 46.0531 201.317 37.6594 214.672 37.6594Z" fill="white"/>
<path fill-rule="evenodd" clip-rule="evenodd" d="M156.714 53.1903C163.866 45.5963 204.468 33.8502 225.009 36.3401L225.625 36.4199C227.265 36.6279 228.88 36.9428 230.475 37.3706C235.628 38.5747 240.952 40.3979 245.21 43.4433C248.765 45.9346 259.979 50.0032 256.674 56.5206C257.9 58.8435 258.357 61.7134 257.529 64.0012C257.425 64.7915 257.181 65.5193 256.87 66.2739C259.488 70.1393 261.561 74.5106 263.239 78.6683C266.172 89.1319 267.997 100.021 268.264 110.697C269.153 130.98 266.93 155.207 249.272 168.323C238.604 176.634 221.894 176.913 209.907 166.608C209.226 165.803 206.027 163.629 207.095 163.248C207.412 163.584 207.739 163.911 208.072 164.232C208.057 164.196 208.054 164.16 208.06 164.122L207.747 163.838C207.158 163.293 206.395 162.502 207.264 162.657C207.302 162.702 207.344 162.74 207.385 162.785C207.57 162.895 207.709 162.991 207.817 163.075L207.872 163.12L207.855 163.102C207.355 162.568 207.054 162.023 207.803 162.371L207.902 162.419C208.235 162.77 208.573 163.106 208.918 163.432C208.912 163.394 208.918 163.355 208.939 163.314L208.618 163.003C208.304 162.696 208.352 162.695 208.505 162.446C207.839 161.512 209.083 162.067 209.17 162.431C209.949 162.247 210.632 163.709 211.133 163.887C233.108 180.788 264.999 165.792 264.483 118.696L264.475 117.775C264.324 102.716 263.057 87.2379 256.831 73.606C256.225 72.2929 255.548 71.0154 254.803 69.7795C254.289 68.8526 253.739 67.9495 253.148 67.0701C251.494 66.9364 249.861 66.6334 248.251 66.164C247.699 66.0244 247.152 65.8699 246.606 65.6887C238.624 66.1242 230.819 66.598 222.814 67.0472L220.314 67.203C213.533 67.6391 206.52 68.3377 201.048 72.5335C195.679 76.3534 195.655 83.886 191.058 88.0799C184.504 92.5299 184.456 96.5427 183.194 103.101C183.288 108.044 186.714 115.227 180.427 117.307C181.487 118.82 180.009 118.093 179.892 117.563C179.881 117.566 179.869 117.569 179.86 117.569C180.805 119.326 179.415 118.219 179.293 117.655C179.218 117.634 179.144 117.58 179.07 117.506C180.022 119.046 178.483 117.968 178.574 117.687C176.734 114.858 172.946 114.418 170.276 115.168C170.244 115.269 170.125 115.278 170.051 115.225C158.699 117.686 161.628 141.196 173.261 138.923C173.759 138.821 173.747 139.06 173.846 139.083C173.577 138.377 174.335 138.665 174.327 138.813L174.373 138.811C174.41 138.808 174.395 138.804 174.422 138.813C174.162 137.369 175.624 139.461 175.509 139.547C175.554 139.52 175.604 139.505 175.649 139.499L175.598 139.362C175.356 138.715 175.377 138.984 175.378 138.614C175.196 138.156 175.182 138.356 175.225 138.058C175.866 137.561 176.055 139.068 176.269 139.178C175.903 138.667 176.194 138.25 176.54 138.528C179.16 144.041 182.544 149.221 186.918 153.302C187.397 153.679 187.881 154.05 188.382 154.401C190.243 156.022 193.097 157.065 194.839 158.501C194.839 158.525 194.827 158.554 194.809 158.584L194.849 158.62L194.889 158.658L195.495 158.949C195.673 159.101 195.834 159.27 195.976 159.457C196.128 159.633 196.261 159.826 196.374 160.031C196.431 160.28 196.306 160.384 196.068 160.277C195.964 160.242 195.86 160.2 195.756 160.162C195.762 160.17 195.765 160.176 195.771 160.182C195.805 160.234 196.036 160.769 195.77 160.682L195.739 160.67C195.593 160.616 195.448 160.557 195.305 160.5C195.474 160.711 195.628 160.94 195.765 161.133C195.911 161.284 196 161.463 196.036 161.665C196.029 161.778 195.967 161.825 195.854 161.81C195.682 161.754 195.513 161.694 195.343 161.632L195.392 161.724C195.511 161.96 195.682 162.355 195.379 162.223C195.121 162.143 194.871 162.051 194.622 161.95C194.601 161.992 194.56 162.006 194.476 161.968C193.684 161.686 192.917 161.341 192.184 160.934C191.539 160.465 190.889 160.004 190.242 159.538C189.633 159.172 189.045 158.765 188.484 158.308C184.728 155.881 181.44 152.799 178.832 149.365C174.47 153.145 165.748 149.534 160.353 146.576C155.581 143.932 153.706 139.043 153.221 133.772C152.213 126.676 146.416 124.247 146.819 108.677C146.81 108.68 146.801 108.68 146.789 108.68C146.578 108.617 146.374 108.534 146.181 108.427C145.982 108.332 145.795 108.219 145.619 108.083L145.402 107.783C145.29 107.72 145.189 107.655 145.111 107.589L145.071 107.641C144.945 107.794 145.03 107.564 145.037 107.518L144.661 107.006C143.768 105.786 142.788 104.418 141.99 103.323L141.965 103.368C141.947 103.401 141.937 103.426 141.946 103.436C140.047 100.707 138.261 97.4096 137.764 94.2177C137.179 91.759 137.408 89.2255 137.919 86.948C140.11 78.9728 147.288 60.9255 156.714 53.1903ZM208.252 163.484L208.133 163.378L208.237 163.509C208.292 163.577 208.348 163.638 208.44 163.7C208.434 163.679 208.434 163.658 208.437 163.634C208.376 163.588 208.314 163.537 208.252 163.484ZM224.919 40.3474C210.988 39.1493 197.287 42.2193 183.994 45.9356L183.077 46.1992C175.519 48.3568 167.526 50.2983 161.139 54.9164C152.215 61.7544 147.606 72.6324 143.585 82.676C140.073 90.1381 141.868 98.5525 147.16 103.763C147.711 98.5851 148.65 93.5588 150.117 88.5728C150.423 87.7938 150.191 87.5387 150.851 87.4371C151.848 100.874 146.939 110.801 156.653 126.725C160.868 134.239 155.989 139.737 167.891 143.691L168.213 143.814C170.693 144.75 173.401 145.489 175.83 144.966L175.612 144.612C175.39 144.247 175.323 144.07 175.646 143.914C175.637 143.896 175.625 143.878 175.613 143.858C175.352 143.364 175.099 142.865 174.859 142.36C174.761 142.393 174.663 142.417 174.562 142.443C174.627 142.565 174.636 142.687 174.452 142.729C173.798 142.953 173.126 143.043 172.438 143.001L172.29 142.99C171.513 142.943 171.023 142.801 170.585 142.669C170.44 142.645 170.294 142.622 170.152 142.592C168.743 142.279 167.251 141.484 166.285 140.697C155.28 134.444 156.418 113.158 169.983 111.146C170.261 97.7435 176.633 75.133 187.208 62.3622C196.767 50.6152 222.863 45.5238 241.018 47.3191C241.283 47.4067 241.547 47.4952 241.812 47.5847C244.613 47.8336 247.282 49.082 250.085 49.6619C248.073 48.153 245.79 47.148 243.438 46.2938C238.752 43.4267 233.381 41.8753 228.191 40.7811C227.116 40.5167 226.026 40.3712 224.919 40.3474ZM169.362 121.912C170.091 121.516 170.008 121.898 170.175 121.787C175.422 121.359 181.079 125.954 184.011 129.785C183.78 130.025 183.153 129.312 183.043 129.199C183.028 129.214 183.01 129.226 182.993 129.232L183.074 129.347C184.263 131.054 181.907 129.046 181.686 128.632C181.647 128.653 181.609 128.665 181.564 128.656C181.751 128.839 182.321 129.317 182.419 129.657L182.571 129.783C183.997 131.005 183.879 131.924 182.259 130.189C182.298 130.269 182.313 130.343 182.286 130.403L182.342 130.44C183.138 130.996 183.793 132.548 182.128 130.955C182.302 132.119 180.479 129.87 180.421 129.886C177.268 127.41 172.625 125.001 168.67 124.678L168.534 124.662C167.808 124.569 167.465 124.353 167.72 123.879C166.826 123.666 167.035 123.226 167.458 123.24C166.828 122.825 167.395 122.429 167.761 122.583C167.51 121.887 168.518 122.351 168.61 122.254C169.134 121.446 169.275 122.12 169.362 121.912ZM158.365 78.7307C160.885 77.8074 168.328 80.5715 167.732 84.2321C167.378 85.0726 166.209 85.5542 165.388 85.0797L164.317 84.3597C162.451 83.1101 160.769 82.0145 158.767 80.9247C157.677 80.3837 157.208 79.2352 158.365 78.7307ZM172.701 73.2906L171.728 72.657C166.476 69.2187 159.052 64.0088 172.218 69.3991C173.719 70.0428 175.713 70.4237 176.532 71.8533C177.818 74.4881 174.433 74.6652 172.701 73.2906ZM173.291 57.8634C172.87 56.2636 178.113 58.1409 179.64 58.6359L179.872 58.7237C181.357 59.2772 183.059 59.7907 183.947 61.0725C184.988 62.8438 182.882 63.2107 181.577 62.4106C178.902 60.662 175.97 59.3426 173.291 57.8634ZM186.625 50.4112C183.674 47.1868 191.572 50.2756 192.756 51.133L192.789 51.1583C193.672 51.7801 193.493 53.1194 192.664 53.5127C190.304 53.5576 188.567 51.5897 186.625 50.4112ZM200.056 46.8786C195.364 43.5052 201.545 45.1097 203.692 46.4317C205.155 47.7226 203.648 49.9017 200.056 46.8786Z" fill="black"/>
<path fill-rule="evenodd" clip-rule="evenodd" d="M216.778 131.007C221.879 130.382 226.824 131.958 231.81 132.752C234.443 133.172 237.08 133.485 239.744 133.601C240.28 133.625 240.816 133.639 241.352 133.65C241.402 133.173 241.667 132.736 242.239 132.474C243.413 131.937 244.352 131.695 245.64 131.746C246.82 131.793 248.003 131.916 249.165 132.13C251.273 132.52 253.392 133.406 254.934 134.944C258.505 138.504 257.961 144.223 255.203 148.1C249.503 156.113 239.101 156.484 230.193 156.38L229.37 156.369C221.259 156.252 209.653 157.473 205.968 148.158C204.613 144.733 204.801 140.762 206.46 137.477C208.439 133.559 212.605 131.518 216.778 131.007ZM242.116 144.347L242.043 144.35C238.304 144.496 234.564 144.598 230.822 144.665C230.934 145.635 231.048 146.605 231.179 147.573C231.282 148.334 231.391 149.095 231.506 149.855C231.554 150.177 231.732 150.676 231.681 150.995L231.663 151.121C231.856 151.208 232.03 151.35 232.16 151.555C232.205 151.626 232.237 151.697 232.27 151.768C235.175 151.791 238.302 151.734 241.263 151.201L241.269 151.137C241.323 150.755 241.48 150.498 241.69 150.321C241.898 149.104 241.879 147.806 241.959 146.598C242.009 145.847 242.064 145.097 242.116 144.347ZM227.964 144.716C225.268 144.762 222.572 144.798 219.877 144.765L218.653 144.746C218.911 146.145 219.193 147.539 219.426 148.947C219.67 150.415 218.39 151.348 217.282 151.311C217.406 151.331 217.531 151.353 217.655 151.37C221.116 151.864 224.711 151.733 228.223 151.729C228.034 150.616 228.111 149.36 228.083 148.431L228.077 148.287C228.024 147.096 227.986 145.906 227.964 144.716ZM209.654 144.459C209.747 145.187 209.929 145.899 210.202 146.562C211.352 149.362 213.99 150.669 216.781 151.219C216.297 151.051 215.913 150.645 215.815 149.951C215.573 148.224 215.486 146.468 215.48 144.714C213.535 144.696 211.576 144.654 209.654 144.459ZM252.261 143.862C250.876 144.191 249.266 144.04 247.907 144.102C246.634 144.161 245.361 144.212 244.088 144.264C244.148 145.141 244.206 146.018 244.27 146.894C244.352 148.027 244.36 149.225 244.575 150.353C247.137 149.47 249.432 148.055 251.154 145.792C251.583 145.228 251.968 144.567 252.261 143.862ZM216.193 135.601C213.887 136.152 211.705 137.316 210.533 139.445C209.837 140.709 209.53 142.206 209.589 143.682C211.538 143.453 213.52 143.366 215.492 143.294C215.499 142.936 215.507 142.578 215.518 142.22L215.548 141.305C215.602 139.558 215.629 137.364 216.193 135.601ZM228.125 135.814L227.11 135.699C224.292 135.375 221.474 135.035 218.655 135.23C218.247 135.258 217.833 135.303 217.418 135.365C217.916 137.179 217.874 139.311 218.082 141.107C218.163 141.802 218.264 142.491 218.377 143.177L218.866 143.154C221.891 142.988 224.919 142.887 227.946 142.765C227.946 142.192 227.949 141.618 227.958 141.043L227.969 140.469C228.004 139.002 227.91 137.35 228.125 135.814ZM242.281 135.582C239.329 136.063 236.277 136.165 233.377 136.168C232.219 136.17 231.061 136.098 229.904 135.995C229.979 136.616 230.018 137.245 230.075 137.859C230.189 139.098 230.32 140.335 230.462 141.571L230.588 142.653C234.309 142.483 238.03 142.298 241.75 142.108L242.275 142.079L242.422 140.001C242.522 138.615 242.633 137.229 242.788 135.849L242.671 135.807C242.534 135.75 242.404 135.671 242.281 135.582ZM243.563 136.098C243.726 138.057 243.816 140.025 243.936 141.988L246.388 141.856C246.797 141.834 247.205 141.811 247.614 141.787C249.203 141.695 251.245 141.209 252.816 141.662C252.936 140.22 252.528 138.816 251.239 137.848C248.976 136.147 246.095 136.752 243.563 136.098ZM235.184 118.578C238.836 116.467 247.999 114.309 248.579 120.942C248.846 123.995 246.598 126.524 243.972 127.652L243.874 127.694C241.411 128.716 237.047 129.87 234.916 127.654C233.142 125.81 235.494 122.504 237.698 124.014C238.831 124.79 241.215 124.219 242.479 123.849L242.558 123.826C243.921 123.421 245.74 122.127 245.176 120.432C244.677 118.933 242.553 118.659 241.223 118.61C239.238 118.538 237.306 119.003 235.339 119.155C235.028 119.179 234.932 118.724 235.184 118.578ZM250.312 107.912C255.268 107.677 258.351 113.139 257.212 117.615C257.015 118.387 256.159 119.145 255.333 119.058L255.125 119.039C255.019 119.029 254.913 119.015 254.815 118.988C254.031 118.769 253.327 117.945 253.384 117.092L253.4 116.843C253.515 114.729 253.288 112.293 250.799 111.781C248.687 111.347 247.509 113.398 247.484 115.286C247.479 115.621 247.106 115.855 246.812 115.675C245.286 114.737 245.022 112.872 245.605 111.266C246.343 109.232 248.193 108.012 250.312 107.912ZM213.53 109.083C217.137 107.869 221.029 109.809 222.775 113.027C223.388 113.206 224 113.683 223.914 114.413C223.792 115.463 223.606 116.125 222.885 116.921C221.757 118.167 219.644 117.53 219.175 115.997L219.155 115.927C218.622 113.945 216.461 112.638 214.492 113.331C212.191 114.142 212.258 116.594 210.645 118.022C210.455 118.19 210.228 118.217 210 118.106C208.287 117.27 208.595 114.754 209.205 113.315C210.007 111.425 211.564 109.745 213.53 109.083ZM208.618 98.0283C211.541 95.0183 219.162 92.1056 221.162 97.664C221.543 98.7227 220.732 100.15 219.64 100.37C217.851 100.729 216.264 99.9454 214.488 100.086C213.05 100.2 211.55 100.685 210.4 101.585C207.215 104.075 206.515 108.287 204.296 111.457C204.188 111.612 203.978 111.547 203.958 111.365C203.453 106.75 205.417 101.325 208.618 98.0283ZM246.736 95.0652C248.676 94.3738 250.872 94.433 252.822 95.0463C254.786 95.6644 256.589 96.8381 257.978 98.3717C258.608 99.0679 259.192 99.8361 259.659 100.654C259.908 101.087 260.169 101.983 260.452 102.516C261.979 103.406 262.633 105.435 261.265 106.878L261.203 106.942L261.02 107.125C260.285 107.859 259.176 108.178 258.172 107.884C255.926 107.228 255.653 105.443 254.876 103.548C254.362 102.296 253.482 101.188 252.415 100.375C249.894 98.4525 245.76 97.8401 242.724 98.7459C242.562 98.7942 242.373 98.5864 242.488 98.4356C243.063 97.6836 243.394 97.0664 244.165 96.4597C244.946 95.844 245.799 95.3992 246.736 95.0652Z" fill="black"/>
<path fill-rule="evenodd" clip-rule="evenodd" d="M213.897 150.558C216.297 144.868 221.535 140.686 227.566 139.157C231.994 138.037 236.642 138.073 241.157 138.517C243.522 138.748 246.059 138.938 248.288 139.827C250.192 140.586 251.743 142.022 252.909 143.707C254.298 145.704 255.242 147.989 255.905 150.332C255.999 150.665 256.088 151 256.171 151.338C255.882 153.105 255.27 154.609 253.652 155.72C252.074 156.805 250.191 157.249 248.313 157.407C248.129 157.318 247.951 157.226 247.788 157.131C244.862 155.436 242.803 151.431 239.11 151.973C235.815 152.457 233.645 156.653 231.686 159.114C225.395 159.856 219.109 157.943 213.991 154.302C213.731 153.056 213.716 151.8 213.897 150.558ZM260.446 146.241C259.943 144.812 259.309 143.428 258.558 142.124C256.074 137.812 252.261 134.376 247.735 132.412C237.027 127.772 223.173 131.042 214.525 138.652C211.572 141.254 208.585 145.076 207.682 149.188C207.412 149.243 207.157 149.385 206.948 149.585C200.7 145.604 194.267 141.774 189.232 136.256C185.576 132.246 183.033 127.502 181.476 122.288C181.349 121.859 180.665 121.921 180.686 122.396C180.692 122.507 180.698 122.618 180.703 122.729C180.638 122.525 180.33 122.63 180.307 122.828C179.469 129.162 178.421 135.877 179.386 142.244C179.963 146.043 181.669 148.824 183.948 151.828C186.39 155.047 189.155 158.041 191.982 160.912C193.776 162.735 195.65 164.837 197.847 166.174C200.402 167.726 203.3 168.907 206.026 170.105C208.8 171.327 211.615 172.456 214.484 173.435C220.218 175.4 226.145 176.757 232.175 177.352C237.003 177.826 242.522 178.343 247.149 176.505C250.695 175.096 253.558 172.55 255.828 169.486C258.3 166.15 260.254 162.349 261.335 158.341C262.457 154.178 260.683 146.913 260.446 146.241Z" fill="black"/>
<path fill-rule="evenodd" clip-rule="evenodd" d="M272.124 110.801C269.254 129.961 249.22 132.08 245.66 113.059C246.232 112.812 246.643 112.326 246.557 111.382C246.537 107.237 247.84 102.856 251.629 100.551C255.544 98.1724 260.126 97.9365 264.656 97.9965C273.302 97.7933 273.121 104.926 272.124 110.801ZM242.524 102.469C239.811 102.356 236.378 102.45 233.947 104.082C233.279 102.306 231.542 100.409 229.788 99.3953C236.309 99.5837 243.021 98.9502 249.59 98.4585C248.018 99.5165 246.555 101.106 245.604 102.944C244.722 102.479 243.458 102.523 242.524 102.469ZM230.564 112.833C223.04 138.394 204.259 127.253 202.211 123.977C198.518 118.556 197.823 105.378 201.04 101.855C205.645 98.6689 212.165 99.4889 217.605 99.4108C227.599 99.5439 234.697 102.495 230.564 112.833ZM281.008 101.076C278.964 100.812 276.779 100.759 274.879 101.647C274.293 99.1924 272.456 97.14 270.382 96.2368C270.131 95.926 270.168 95.7591 269.311 95.8057C264.045 94.2436 258.151 95.0701 253.091 96.6721C245.098 97.3364 236.712 97.8602 228.653 98.7755C221.102 95.429 198.317 94.9385 196.901 103.187C195.12 102.924 192.087 101.54 190.59 103.417C179.612 101.58 168.268 104.133 157.242 105.27C154.466 105.775 153.037 111.211 156.187 111.137C157.958 110.662 156.133 107.752 158.518 107.533C169.156 106.386 179.562 104.759 190.309 104.568C189.935 106.4 197.417 106.519 197.528 105.45C197.544 105.458 197.561 105.463 197.577 105.47C195.728 112.271 197.397 122.058 200.738 126.275C205.42 131.797 217.173 133.381 222.384 129.828C229.107 126.549 236.101 110.089 234.136 104.621C237.702 103.505 241.226 103.84 244.926 104.408C244.079 106.77 242.617 112.584 244.721 113.088C244.335 124.63 254.978 131.832 264.789 127.097C273.281 123.163 276.251 110.709 275.212 103.15C276.269 105.166 285.146 102.971 281.008 101.076Z" fill="black"/>
</svg>
