<svg width="398" height="378" viewBox="0 0 398 378" fill="none" xmlns="http://www.w3.org/2000/svg">
<rect width="398" height="374" fill="#FF4444"/>
<path fill-rule="evenodd" clip-rule="evenodd" d="M302.337 372.134C307.771 371.872 305.586 362.372 305.196 358.882C300.893 346.139 301.905 332.236 300.213 318.879C299.159 306.409 297.804 293.979 296.665 281.52C294.427 256.228 278.359 204.741 260.022 196.461C257.712 186.33 248.172 176.874 236.101 176.874C227.868 167.134 217.959 160.278 205.249 161.663C199.997 161.901 194.903 167.469 189.87 168.545C187.053 168.933 162.045 167.933 157.036 170.907C153.546 172.698 150.396 176.007 151.422 180.22C153.059 185.324 147.972 179.801 137.36 185.249C115.72 198.24 128.651 215.618 129.224 216.156C115.72 234.936 103.916 250.172 98.455 273.126C94.9155 290.168 95.314 307.76 92.3484 324.89C91.3013 330.829 89.695 336.565 87.9568 342.333C86.0729 349.881 85.1569 368.695 84.1185 368.863C82.2271 369.333 85.2117 373.214 87.2159 373.218C142.783 382.43 199.225 373.599 255.09 372.156C270.834 371.609 286.594 371.483 302.337 372.134Z" fill="white"/>
<path fill-rule="evenodd" clip-rule="evenodd" d="M218.118 217.814C218.144 217.56 218.487 217.56 218.513 217.814L218.906 221.599C219.383 226.222 219.842 230.837 220.176 235.481C220.591 241.273 220.869 247.064 221.003 252.868C221.469 273.085 221.562 293.313 221.601 313.535C224.338 313.346 227.074 313.163 229.812 312.987C231.669 312.867 233.527 312.752 235.385 312.639L240.122 312.351L242.072 312.232C243.39 312.15 244.887 311.819 245.808 312.986C246.177 313.453 246.362 314.06 246.018 314.614C245.225 315.893 244.007 315.848 242.629 315.904C241.329 315.956 240.028 316.008 238.728 316.058C235.942 316.166 233.156 316.268 230.369 316.346C227.445 316.428 224.521 316.495 221.598 316.545C221.568 325.081 221.215 333.608 220.832 342.135L220.66 345.973C220.192 356.35 219.689 366.737 218.974 377.101C218.916 377.949 217.715 377.947 217.657 377.101C216.852 365.43 216.321 353.733 215.795 342.046C215.413 333.573 215.191 325.097 215.085 316.62C214.698 316.623 214.312 316.628 213.926 316.629C202.952 316.677 191.982 316.725 181.008 316.622C181.027 316.644 181.045 316.665 181.057 316.694C181.851 318.568 181.926 320.959 181.907 322.97C181.885 325.276 181.574 327.554 181.043 329.797C179.139 337.831 174.228 345.027 168.635 350.976L168.452 351.17C167.133 352.563 165.619 353.963 164.809 355.738C163.982 357.55 163.695 359.67 163.286 361.617L163.239 361.841L161.642 369.211C161.135 371.552 160.991 374.966 159.137 376.656C157.407 378.232 155.115 377.408 154.301 375.379C153.666 373.796 154.299 372.056 154.675 370.474L157.625 358.08C158.11 356.059 158.64 354.024 159.686 352.209C160.757 350.349 162.328 349.001 163.931 347.622C166.966 345.01 169.753 342.019 172.109 338.782C174.465 335.545 176.478 331.978 177.89 328.227C178.597 326.349 179.176 324.398 179.576 322.431C179.955 320.565 179.952 318.632 180.358 316.785C180.386 316.658 180.494 316.57 180.617 316.532C180.588 316.449 180.633 316.338 180.748 316.331L189.722 315.754C197.7 315.24 205.677 314.712 213.647 314.11L215.055 314.008C214.946 302.698 215.039 291.385 215.243 280.07C215.431 269.695 215.435 259.316 215.743 248.942C215.897 243.793 216.228 238.657 216.596 233.518C216.973 228.264 217.576 223.053 218.118 217.814ZM133.853 277.974C133.757 277.398 134.482 277.041 134.816 277.568C138.638 283.589 140.48 290.128 141.257 297.173C141.943 303.391 141.741 309.699 141.399 315.933C141.035 322.582 140.61 329.23 140.18 335.876L139.519 346.067L137.862 371.616C137.743 373.443 137.328 375.105 135.754 375.955C135.554 376.121 135.347 376.27 135.105 376.4C134.254 376.854 133.126 376.624 132.634 375.752L132.831 375.882C133.003 375.99 132.81 375.839 132.253 375.429L131.779 374.817C131.436 374.301 131.216 373.793 131.128 373.179C130.99 372.225 131.168 371.178 131.231 370.219L132.317 353.466C133.162 340.442 134.149 327.422 134.892 314.391C135.239 308.318 135.481 302.238 135.317 296.155C135.154 290.104 134.845 283.952 133.853 277.974ZM166.911 165.825L167.123 165.789C174.714 164.529 182.967 164.765 189.904 168.422C189.961 168.452 189.935 168.548 189.871 168.545L187.638 168.456C180.57 168.179 173.523 168.015 166.573 169.675L165.861 169.846C163.359 170.457 160.745 171.204 158.734 172.856C156.813 174.435 155.856 176.872 154.936 179.115L154.813 179.41C153.88 181.626 152.698 183.727 150.652 185.112C148.002 186.906 144.815 186.686 141.776 186.93C136.426 187.359 132.052 191.235 129.876 195.977C128.558 198.849 127.996 202.068 127.884 205.209C127.827 206.808 127.819 208.469 128.032 210.057C128.1 210.565 128.728 212.415 129.049 212.37C129.76 212.272 130.411 212.643 130.633 213.211C132.391 211.514 134.199 209.865 136.066 208.276C140.719 204.315 145.731 200.726 151.009 197.641C155.038 195.286 159.287 192.954 163.687 191.19C163.338 191.183 162.994 191.252 162.662 191.425C162.516 191.501 162.371 191.319 162.486 191.198C163.872 189.74 165.532 189.533 167.206 189.922C167.563 189.808 167.92 189.698 168.279 189.594C168.457 189.542 168.546 189.788 168.401 189.883L167.99 190.145C169.815 190.756 171.608 191.958 173.027 192.906C177.103 195.629 180.691 198.958 184.329 202.224L184.99 202.817C188.191 205.674 191.475 208.45 195.112 210.743C197.016 211.942 199.016 213.052 201.114 213.878C202.913 214.586 205.843 215.032 206.685 216.933C207.435 217.842 207.122 219.003 206.244 219.615C204.765 221.242 201.805 220.191 200.042 219.513C197.917 218.696 195.858 217.714 193.894 216.562C190.082 214.325 186.566 211.543 183.292 208.585C179.872 205.494 176.646 202.212 173.32 199.024C171.879 197.643 170.471 196.23 169.027 194.851L168.302 194.165C167.566 193.474 166.516 192.398 165.394 191.746C163.28 193.007 161.133 194.215 159.038 195.508C156.113 197.313 153.275 199.248 150.48 201.247C145.1 205.094 140.002 209.404 135.269 214.023C126.589 222.494 119.193 232.167 112.733 242.41L112.242 243.19C108.571 249.053 105.099 255.105 102.637 261.583C99.9289 268.711 98.6116 276.207 97.896 283.774C97.1858 291.287 96.9462 298.838 96.1525 306.343C95.3385 314.041 93.7347 321.569 91.9104 329.083L91.4753 330.864C89.8247 337.593 88.121 344.323 87.2725 351.211C86.8195 354.89 86.547 358.62 86.6086 362.329C86.6705 366.06 87.257 369.708 87.7302 373.399C87.9116 374.813 86.5192 375.994 85.2733 376.181C83.8404 376.396 82.6095 375.483 82.1641 374.152C80.7757 370.005 80.5234 365.42 80.567 361.067C80.6109 356.648 81.1752 352.258 81.9692 347.915C83.5309 339.372 85.9408 331.005 87.9568 322.565C89.7336 315.125 90.926 307.673 91.5688 300.051C92.236 292.144 92.6356 284.21 93.8528 276.36C95.0542 268.61 97.3148 261.208 100.724 254.141C103.828 247.707 107.698 241.651 111.755 235.781C116.681 228.653 122.092 221.87 128.14 215.69C127.596 215.666 127.039 215.491 126.526 215.172C124.959 214.195 124.229 212.283 124.005 210.538C123.479 206.455 123.606 202.193 124.657 198.202C126.351 191.763 130.749 186.041 137.124 183.72C138.764 183.123 140.508 182.905 142.247 182.862C143.897 182.821 145.699 183.036 147.291 182.513C149.825 181.68 150.911 178.697 151.863 176.436L151.907 176.332C153.127 173.451 154.591 170.981 157.234 169.182C160.053 167.262 163.585 166.389 166.911 165.825ZM239.032 177.22C241.312 176.43 244.164 177.147 246.395 177.838C248.88 178.608 251.176 180.026 253.145 181.711C255.222 183.487 256.938 185.68 258.151 188.13L258.267 188.366C259.375 190.639 260.636 193.759 260.078 196.256C260.062 196.326 260.043 196.395 260.023 196.461C264.548 198.687 268.727 201.476 272.367 205.011C276.605 209.127 280.193 213.811 283.23 218.87C295.29 238.967 297.413 263.102 298.838 286.02L299.193 291.831C299.966 304.379 300.871 316.898 303.223 329.272L303.394 330.166C305.907 343.122 309.505 356.178 309.141 369.469C309.031 373.451 303.143 373.424 302.972 369.469C302.33 354.582 298.854 340.208 296.5 325.553C292.359 299.771 294.434 273.19 288.566 247.666C286.263 237.649 282.696 227.933 277.602 218.992C275.085 214.574 272.206 210.306 268.834 206.496C265.933 203.217 262.917 200.061 259.526 197.305C258.443 198.39 256.278 197.837 255.712 196.256C255.324 195.169 255.437 193.898 255.188 192.76C254.956 191.703 254.637 190.656 254.212 189.661C253.364 187.678 252.12 185.774 250.684 184.17C249.133 182.435 247.35 180.994 245.355 179.804C243.347 178.606 241.15 178.248 239.032 177.373C238.96 177.343 238.953 177.248 239.032 177.22ZM247.893 315.011C247.896 314.907 248.02 314.857 248.096 314.927C248.895 315.663 249.379 316.718 249.967 317.623C250.646 318.666 251.359 319.688 252.106 320.684C253.604 322.678 255.271 324.557 256.951 326.399C258.514 328.112 260.18 329.752 261.907 331.298C263.779 332.974 265.877 334.469 267.578 336.324C271.127 340.196 271.7 345.51 272.449 350.499L272.531 351.039C272.988 354 273.397 356.968 273.766 359.942C273.945 361.388 274.124 362.835 274.27 364.285L274.315 364.745C274.445 366.164 274.48 367.604 273.665 368.844C272.792 370.171 270.807 370.636 269.627 369.364C267.599 367.178 267.98 363.296 267.716 360.484C267.498 358.159 267.251 355.837 266.974 353.518L266.833 352.359C266.507 349.721 266.242 347.031 265.639 344.439C265.106 342.156 264.092 340.434 262.428 338.78C260.752 337.114 259.01 335.559 257.463 333.766C255.821 331.863 254.341 329.823 253.007 327.694C251.866 325.873 250.952 323.891 250.114 321.911L249.975 321.581C249.165 319.651 247.83 317.138 247.893 315.011ZM277.167 232.093C277.184 231.824 277.583 231.82 277.588 232.093C277.639 234.409 277.687 236.725 277.735 239.041C278.122 257.702 277.884 276.407 279.757 295.005C280.64 303.773 282.267 312.413 284.15 321.017C285.113 325.419 286.124 329.811 287.084 334.214C288.019 338.505 289.023 342.817 289.765 347.148C290.495 351.405 291.148 355.695 291.441 360.006L291.477 360.568C291.604 362.657 292.206 365.729 291.056 367.58C289.809 369.585 287.422 369.621 286.086 367.707C284.832 365.91 285.144 362.712 284.922 360.568C284.697 358.384 284.459 356.198 284.188 354.018C283.66 349.767 282.965 345.525 282.242 341.303C280.736 332.51 278.551 323.828 276.938 315.049C275.286 306.053 274.111 296.993 274.061 287.834C274.012 278.597 274.99 269.378 275.484 260.162C275.986 250.801 276.556 241.447 277.167 232.093ZM188.968 174.049C189.469 172.362 191.239 171.308 192.964 171.781C194.546 172.216 195.852 174.135 195.233 175.776C194.559 177.567 193.379 179.095 192.385 180.723C191.467 182.227 190.127 183.412 189.192 184.89L190.223 186C190.739 186.555 191.256 187.105 191.779 187.647L193.577 189.508C194.977 190.955 196.386 192.394 197.835 193.79C202.095 197.898 206.423 201.87 211.194 205.388C212.28 206.188 213.375 206.984 214.5 207.729L214.92 208.007C215.692 208.512 216.553 209.009 217.486 208.923C219.752 208.715 221.8 206.31 223.357 204.813L223.438 204.735C227.297 201.065 230.871 197.052 233.995 192.738C234.689 191.779 235.36 190.804 236.014 189.818C234.504 188.054 234.865 184.612 234.781 182.473C234.723 180.969 234.718 179.465 234.71 177.96L234.706 177.657C234.687 176.683 234.644 175.748 235.276 174.947C235.313 174.9 235.389 174.902 235.436 174.926C236.302 175.38 236.569 176.14 236.939 176.992L236.977 177.08C237.427 178.103 237.858 179.135 238.294 180.164C238.75 181.241 239.169 182.333 239.593 183.423C239.79 183.93 239.978 184.439 240.163 184.951C240.275 185.278 240.391 185.603 240.51 185.927L240.538 185.952C240.696 186.086 240.829 186.227 240.944 186.373C241.428 186.614 241.812 187.055 241.992 187.702C242.384 189.11 241.572 190.258 240.848 191.376C237.907 195.917 234.555 200.245 230.828 204.171C228.977 206.121 227.029 207.984 225.002 209.751L224.648 210.058C222.827 211.622 220.85 213.104 218.417 213.47C215.571 213.898 213.255 212.483 211.076 210.853L210.859 210.69C208.793 209.127 206.769 207.509 204.808 205.817C200.81 202.367 197.007 198.663 193.631 194.599C190.348 190.646 187.102 186.225 185.078 181.469C184.955 181.179 185.279 180.876 185.534 181.118C186.522 182.058 187.473 183.05 188.413 184.055C188.44 182.576 188.166 181.085 188.318 179.597C188.504 177.789 188.45 175.791 188.968 174.049Z" fill="black"/>
<path fill-rule="evenodd" clip-rule="evenodd" d="M253.826 100.647C254.133 97.8077 250.8 90.2331 250.88 91.7695C245.537 83.5534 235.11 80.3223 226.114 77.6101C207.015 71.3224 192.102 78.916 178.683 92.3744C170.761 99.7543 163.223 107.998 159.246 118.214C151.423 137.703 163.15 159.925 180.983 169.235C182.422 170.012 183.991 170.75 185.361 171.688C192.733 175.935 201.39 177.405 209.605 179.254C224.973 182.757 244.275 181.087 253.331 166.495C259.474 156.139 257.842 143.585 257.362 132.092C256.639 122.022 255.371 110.643 253.826 100.647Z" fill="white"/>
<path fill-rule="evenodd" clip-rule="evenodd" d="M171.679 71.9081C181.636 62.6255 196.352 58.1264 209.808 58.9133C217.095 59.3395 224.118 61.1606 230.704 64.2892C232.764 65.2676 234.771 66.4129 236.622 67.7614C237.87 68.3425 239.091 68.9712 240.273 69.6549C246.195 73.076 250.773 78.258 253.703 84.4049C255.101 87.3387 256.205 90.4325 256.83 93.6202L256.931 94.1449C257.25 95.7445 257.88 97.852 257.082 99.3489C256.554 100.341 255.446 100.967 254.397 100.883C254.625 101.803 254.898 102.722 255.072 103.648L255.547 106.172C255.626 106.592 255.704 107.013 255.781 107.433C256.239 109.94 256.661 112.444 256.998 114.971C257.704 120.232 258.342 125.504 258.905 130.784C259.308 134.561 259.685 138.341 260.052 142.12L260.271 144.388C260.648 148.291 260.943 152.228 260.687 156.149C260.301 162.029 258.488 167.395 254.968 171.76C255.303 172.564 255.416 173.47 255.669 174.47C256.018 175.854 256.473 177.21 256.958 178.553C257.185 179.081 257.412 179.609 257.636 180.139L258.227 181.541L258.688 182.461C259.188 183.461 259.671 184.476 259.978 185.511C261.967 186.57 263.591 188.298 263.671 190.666C263.741 192.806 262.627 195.071 260.746 196.162C258.89 197.24 256.979 196.815 255.202 195.993C253.652 196.442 251.994 196.499 250.459 196.019C249.277 197.086 247.753 197.822 246.063 198.021C243.516 198.323 241.097 197.612 238.76 196.676L238.597 196.611C238.524 196.583 238.451 196.552 238.381 196.521C235.693 196.392 233.016 195.332 231.109 193.453C230.488 192.845 229.951 192.149 229.518 191.37C227.946 188.534 227.702 185.054 229.248 182.242C228.916 182.256 228.582 182.27 228.25 182.278C223.826 182.404 219.393 182.179 214.98 181.889L213.94 181.819C211.084 181.614 206.873 181.131 206.793 177.601C206.781 177.15 207.248 176.81 207.676 176.931C209.298 177.388 210.892 178.106 212.574 178.364C214.773 178.703 217.05 178.74 219.272 178.863L219.911 178.898C224.39 179.143 229.031 179.292 233.438 178.406C236.727 177.747 240.155 176.546 243.17 175.06C246.063 173.63 248.692 171.76 250.812 169.317C255.483 163.944 256.101 156.365 255.873 149.567C255.598 141.449 254.642 133.342 254.102 125.235L253.858 121.593C253.656 118.556 253.472 115.514 253.396 112.476C253.34 110.257 253.376 108.034 253.387 105.815C253.393 104.708 253.379 103.594 253.405 102.487C253.419 101.864 253.492 101.256 253.545 100.647C253.298 100.518 253.067 100.339 252.859 100.1C252.696 99.9125 252.569 99.7134 252.482 99.5115C251.433 99.2056 250.947 98.799 250.267 97.8767C249.693 97.0999 249.043 96.382 248.349 95.709C246.87 94.2788 245.18 93.1095 243.394 92.0913C239.703 89.9856 235.659 88.5778 231.582 87.4225C225.339 85.6558 218.856 84.7472 212.52 83.328C210.774 85.7565 208.924 88.1123 206.99 90.3922C200.952 97.5037 194.03 103.844 186.612 109.497C185.102 110.65 183.572 111.786 182.02 112.887C179.976 115.996 177.91 119.09 175.813 122.164L174.912 123.479L174.898 123.505C174.774 123.692 174.656 123.88 174.538 124.068C174.288 124.466 174.007 124.851 173.709 125.224C173.515 125.506 173.318 125.79 173.118 126.073C173.501 126.278 173.849 126.508 174.122 126.763C174.679 127.287 174.586 128.12 174.122 128.653C172.626 130.375 170.259 128.132 168.538 127.534C166.673 128.1 165.118 130.313 164.345 132.004C163.232 134.441 162.785 137.38 163.288 140.018C163.749 142.43 164.992 144.514 167.059 145.821C167.132 145.865 167.21 145.913 167.286 145.955C167.289 145.961 167.289 145.961 167.292 145.958C167.362 146.003 167.435 146.045 167.509 146.084C168.479 146.617 169.544 146.931 170.649 147.007C171.282 147.052 171.943 147.018 172.575 147.094C173.225 147.169 173.759 147.467 174.383 147.624C175.072 147.8 175.517 148.723 175.083 149.342C174.87 149.648 174.667 149.94 174.451 150.201C175.162 151.037 175.781 151.959 176.341 152.837C177.105 154.04 177.783 155.316 178.402 156.617C178.972 157.366 179.518 158.128 180.047 158.908C183.041 163.333 185.333 168.263 186.742 173.414C188.136 178.509 189.008 184.233 187.717 189.435C186.528 194.219 183.055 198.181 177.915 198.436C176.842 198.489 175.787 198.37 174.795 198.098C172.616 199.44 169.916 200.116 167.499 200.194C165.544 200.258 163.403 199.848 161.806 198.669C159.912 199.491 157.857 199.957 156.07 200.064C154.071 200.183 151.978 199.639 150.348 198.563C148.797 199.888 147.124 201.006 145.222 201.773C141.952 203.091 138.06 202.929 135.066 200.957C132.065 198.983 130.538 195.439 131.455 191.922C132.299 188.681 134.95 186.303 137.442 184.255L137.934 183.853C140.398 181.847 142.887 179.906 144.468 177.079C146.147 174.082 146.76 170.599 146.926 167.206C147.286 159.735 145.762 152.332 145.298 144.901C144.82 137.226 145.087 129.528 146.136 121.909C148.174 107.108 153.539 92.5991 163.246 81.0622C164.65 79.3928 166.153 77.8017 167.737 76.2936C168.948 74.7143 170.257 73.2339 171.679 71.9081ZM300.792 156.415C300.846 156.418 300.896 156.421 300.944 156.44C300.976 156.454 301.003 156.475 301.028 156.499L301.265 156.735C301.349 156.819 301.343 156.948 301.265 157.032C301.196 157.108 301.071 157.111 300.99 157.051L300.967 157.032L300.722 156.787C300.695 156.759 300.672 156.727 300.66 156.687C300.649 156.648 300.649 156.603 300.646 156.561C300.643 156.485 300.716 156.415 300.792 156.415ZM168.867 133.504C171.122 132.823 173.827 134.444 175.171 136.154C175.846 137.013 176.037 138.188 175.171 139.032C174.434 139.749 172.994 139.881 172.283 139.032C171.476 138.064 170.818 136.723 169.665 136.104C168.414 135.431 166.738 135.599 166.443 137.239C166.392 137.517 165.993 137.424 165.976 137.175C165.866 135.515 167.326 133.967 168.867 133.504Z" fill="black"/>
<path fill-rule="evenodd" clip-rule="evenodd" d="M229.085 161.427C227.201 160.659 225.519 159.379 224.29 157.743C223.863 157.175 223.752 156.575 223.842 156.025C223.943 155.408 224.309 154.848 224.807 154.473C225.308 154.097 225.934 153.911 226.539 154.006C227.065 154.088 227.588 154.375 228.003 154.972L228.089 155.091C228.82 156.078 229.772 156.888 230.857 157.41C231.903 157.913 233.072 158.148 234.282 158.011C236.587 157.751 238.176 156.507 239.865 154.816C240.074 154.603 240.283 154.383 240.494 154.159C240.627 153.956 240.811 153.826 241.016 153.758C241.243 153.682 241.501 153.686 241.736 153.768C241.963 153.847 242.167 153.997 242.303 154.197C242.432 154.387 242.506 154.621 242.482 154.891C242.327 156.643 241.41 158.206 240.107 159.434C238.66 160.797 236.742 161.74 234.937 162.071C232.947 162.435 230.92 162.174 229.085 161.427ZM235.875 134.403C237.992 135.688 241.216 138.683 238.94 141.868C236.26 144.676 232.401 141.456 230.499 140C228.736 138.872 226.755 141.774 228.391 143.092C242.131 153.249 247.707 134.739 236.946 132.893C235.761 132.689 235.321 134.006 235.875 134.403ZM211.252 122.587C211.486 119.689 215.907 119.031 216.347 121.899C216.741 124.468 216.277 126.828 215.118 129.141C214.011 131.351 211.227 130.32 211.017 128.308C210.735 125.61 211.107 124.39 211.252 122.587ZM244.904 121.304C245.52 120.498 246.41 119.948 247.476 120.259C250.807 121.231 249.825 125.953 248.655 128.251C248.02 129.499 245.965 129.816 245.036 128.717C243.523 126.925 242.798 123.346 244.722 121.58C244.774 121.489 244.832 121.397 244.904 121.304ZM215.071 109.905L215.597 109.813C217.225 109.532 219.249 109.262 220.401 110.568C221.011 111.261 221.222 112.549 220.401 113.212C218.957 114.38 217.36 113.927 215.63 114.026C214.204 114.108 212.833 114.343 211.46 114.736C208.446 115.596 205.99 117.166 203.417 118.89C203.079 119.116 202.734 118.684 202.895 118.369C204.381 115.463 207.26 113.076 210.144 111.621C211.684 110.845 213.368 110.2 215.071 109.905ZM241.867 108.603L242.27 108.685C246.653 109.6 252.347 111.427 254.422 115.726C254.501 116.334 254.418 116.464 254.35 116.549L254.327 116.578C254.271 116.65 254.226 116.75 253.963 116.833C253.889 116.816 253.815 116.797 253.741 116.778C252.789 116.529 252.037 116.186 251.308 115.83L250.518 115.441C249.601 114.993 248.676 114.56 247.696 114.241C245.605 113.56 243.454 113.08 241.269 112.824C240.796 112.768 240.34 112.608 239.98 112.335C239.639 112.075 239.378 111.716 239.259 111.238C239.105 110.62 239.149 110.152 239.481 109.594C239.731 109.175 240.088 108.885 240.499 108.718C240.917 108.548 241.394 108.508 241.867 108.603Z" fill="black"/>
</svg>
