<svg width="398" height="375" viewBox="0 0 398 375" fill="none" xmlns="http://www.w3.org/2000/svg">
<rect width="398" height="374" fill="#FF4444"/>
<path fill-rule="evenodd" clip-rule="evenodd" d="M323.071 368.969C328.694 368.698 326.432 358.874 326.029 355.267C321.577 342.09 322.624 327.715 320.873 313.904C319.782 301.011 318.38 288.158 317.201 275.275C314.886 249.124 298.259 195.888 279.284 187.326C276.894 176.851 267.022 167.074 254.531 167.074C246.012 157.002 235.758 149.914 222.606 151.345C217.171 151.592 211.9 157.349 206.692 158.461C203.776 158.863 177.899 157.829 172.715 160.904C169.105 162.756 165.845 166.177 166.907 170.533C168.601 175.811 163.336 170.1 152.355 175.733C129.962 189.165 143.343 207.134 143.936 207.691C129.962 227.109 117.748 242.862 112.097 266.596C108.435 284.217 108.847 302.408 105.778 320.119C104.695 326.26 103.032 332.191 101.234 338.155C99.2844 345.96 98.3365 365.413 97.2621 365.587C95.3048 366.072 98.3932 370.086 100.467 370.089C157.967 379.615 216.372 370.484 274.18 368.992C290.472 368.426 306.781 368.296 323.071 368.969Z" fill="white"/>
<path fill-rule="evenodd" clip-rule="evenodd" d="M235.922 209.405C235.949 209.142 236.304 209.143 236.331 209.405L236.737 213.319C237.231 218.099 237.707 222.87 238.051 227.672C238.481 233.661 238.768 239.648 238.907 245.65C239.39 266.554 239.486 287.469 239.527 308.378C242.358 308.183 245.19 307.994 248.023 307.812C249.945 307.688 251.867 307.569 253.789 307.452L258.691 307.155L260.709 307.031C262.073 306.947 263.622 306.604 264.575 307.81C264.957 308.293 265.149 308.921 264.793 309.494C263.972 310.817 262.711 310.771 261.285 310.828C259.94 310.882 258.595 310.935 257.249 310.987C254.366 311.099 251.483 311.204 248.6 311.285C245.573 311.37 242.548 311.439 239.523 311.49C239.492 320.317 239.126 329.133 238.731 337.951L238.552 341.919C238.068 352.649 237.548 363.388 236.808 374.104C236.748 374.981 235.505 374.98 235.445 374.104C234.612 362.036 234.063 349.943 233.518 337.859C233.123 329.097 232.893 320.333 232.784 311.569C232.383 311.571 231.984 311.577 231.584 311.578C220.229 311.628 208.877 311.677 197.522 311.571C197.541 311.593 197.559 311.615 197.572 311.645C198.393 313.582 198.472 316.055 198.452 318.134C198.429 320.518 198.107 322.874 197.557 325.193C195.587 333.5 190.505 340.941 184.718 347.092L184.529 347.292C183.163 348.733 181.597 350.181 180.759 352.016C179.903 353.889 179.606 356.081 179.183 358.094L179.134 358.326L177.482 365.947C176.957 368.367 176.808 371.897 174.889 373.644C173.099 375.274 170.728 374.422 169.886 372.324C169.228 370.687 169.883 368.888 170.273 367.252L173.325 354.437C173.827 352.347 174.375 350.244 175.457 348.366C176.566 346.444 178.192 345.05 179.85 343.623C182.991 340.923 185.875 337.831 188.313 334.483C190.751 331.137 192.834 327.448 194.295 323.569C195.026 321.628 195.626 319.611 196.039 317.577C196.432 315.647 196.429 313.649 196.849 311.739C196.878 311.607 196.989 311.517 197.117 311.477C197.087 311.392 197.133 311.277 197.252 311.269L206.539 310.673C214.794 310.141 223.048 309.596 231.296 308.973L232.753 308.868C232.64 297.173 232.736 285.476 232.947 273.777C233.141 263.049 233.145 252.318 233.465 241.591C233.624 236.267 233.966 230.956 234.347 225.643C234.737 220.21 235.361 214.822 235.922 209.405ZM148.726 271.609C148.627 271.014 149.377 270.645 149.723 271.19C153.677 277.414 155.584 284.176 156.388 291.461C157.098 297.89 156.888 304.412 156.535 310.858C156.158 317.733 155.718 324.607 155.273 331.478L154.589 342.016L152.874 368.433C152.752 370.323 152.322 372.041 150.693 372.919C150.487 373.091 150.272 373.246 150.021 373.379C149.141 373.849 147.974 373.612 147.465 372.71L147.669 372.844C147.847 372.956 147.647 372.799 147.07 372.376L146.58 371.743C146.225 371.209 145.997 370.684 145.906 370.049C145.764 369.063 145.948 367.98 146.012 366.989L147.137 349.666C148.011 336.2 149.032 322.737 149.802 309.263C150.16 302.984 150.411 296.698 150.241 290.407C150.072 284.152 149.753 277.79 148.726 271.609ZM182.934 155.649L183.154 155.612C191.008 154.309 199.548 154.553 206.727 158.335C206.786 158.366 206.759 158.464 206.692 158.461L204.382 158.369C197.068 158.083 189.776 157.914 182.584 159.63L181.848 159.807C179.258 160.438 176.553 161.211 174.473 162.919C172.485 164.552 171.494 167.071 170.542 169.39L170.415 169.696C169.449 171.987 168.227 174.159 166.109 175.591C163.367 177.446 160.069 177.219 156.925 177.471C151.389 177.915 146.862 181.922 144.61 186.826C143.247 189.795 142.665 193.124 142.55 196.371C142.491 198.024 142.482 199.742 142.703 201.384C142.773 201.909 143.423 203.822 143.755 203.776C144.491 203.674 145.164 204.058 145.394 204.646C147.213 202.891 149.084 201.186 151.016 199.543C155.831 195.448 161.017 191.736 166.479 188.546C170.647 186.112 175.044 183.7 179.598 181.877C179.237 181.869 178.881 181.94 178.537 182.119C178.386 182.198 178.236 182.009 178.355 181.884C179.789 180.377 181.507 180.163 183.239 180.565C183.608 180.447 183.978 180.334 184.349 180.226C184.534 180.172 184.626 180.426 184.475 180.524L184.05 180.796C185.939 181.428 187.794 182.67 189.262 183.651C193.481 186.466 197.194 189.908 200.957 193.286L201.642 193.898C204.955 196.852 208.352 199.723 212.116 202.093C214.086 203.334 216.156 204.481 218.327 205.335C220.188 206.067 223.22 206.528 224.092 208.494C224.867 209.434 224.543 210.634 223.635 211.267C222.104 212.95 219.042 211.863 217.218 211.162C215.018 210.317 212.888 209.301 210.856 208.11C206.91 205.797 203.273 202.921 199.885 199.862C196.346 196.667 193.008 193.272 189.566 189.977C188.074 188.549 186.617 187.087 185.124 185.661L184.374 184.952C183.611 184.238 182.525 183.125 181.364 182.451C179.176 183.755 176.955 185.004 174.787 186.341C171.761 188.207 168.824 190.208 165.932 192.275C160.365 196.253 155.089 200.709 150.191 205.485C141.209 214.244 133.556 224.246 126.871 234.837L126.364 235.644C122.565 241.705 118.972 247.963 116.425 254.661C113.622 262.032 112.259 269.783 111.518 277.607C110.784 285.375 110.536 293.182 109.714 300.942C108.872 308.902 107.212 316.686 105.325 324.455L104.874 326.297C103.166 333.255 101.403 340.212 100.525 347.335C100.057 351.139 99.7747 354.995 99.8384 358.83C99.9024 362.688 100.509 366.46 100.999 370.277C101.187 371.739 99.7459 372.96 98.4567 373.153C96.974 373.376 95.7002 372.431 95.2393 371.055C93.8026 366.767 93.5416 362.027 93.5867 357.526C93.6321 352.957 94.216 348.417 95.0377 343.926C96.6537 335.093 99.1474 326.443 101.234 317.715C103.072 310.023 104.306 302.317 104.971 294.436C105.662 286.261 106.075 278.057 107.335 269.94C108.578 261.927 110.917 254.273 114.445 246.966C117.657 240.314 121.661 234.052 125.859 227.982C130.957 220.612 136.556 213.599 142.814 207.209C142.252 207.184 141.675 207.003 141.145 206.673C139.523 205.663 138.767 203.686 138.535 201.882C137.992 197.66 138.123 193.253 139.21 189.126C140.964 182.468 145.515 176.552 152.111 174.152C153.808 173.535 155.613 173.309 157.412 173.265C159.12 173.222 160.984 173.445 162.632 172.904C165.254 172.043 166.378 168.959 167.362 166.621L167.408 166.514C168.67 163.534 170.185 160.98 172.92 159.12C175.837 157.135 179.492 156.232 182.934 155.649ZM257.563 167.432C259.923 166.614 262.874 167.356 265.182 168.071C267.754 168.867 270.13 170.333 272.167 172.075C274.316 173.911 276.093 176.179 277.348 178.712L277.468 178.956C278.614 181.306 279.919 184.532 279.341 187.114C279.325 187.187 279.306 187.258 279.284 187.326C283.967 189.628 288.292 192.512 292.058 196.167C296.443 200.423 300.156 205.265 303.299 210.497C315.779 231.276 317.975 256.232 319.449 279.929L319.817 285.937C320.617 298.912 321.554 311.855 323.987 324.651L324.164 325.574C326.765 338.971 330.488 352.47 330.111 366.213C329.998 370.331 323.905 370.303 323.728 366.213C323.063 350.82 319.466 335.958 317.03 320.805C312.745 294.146 314.892 266.663 308.82 240.271C306.437 229.914 302.746 219.867 297.475 210.622C294.871 206.055 291.892 201.642 288.402 197.702C285.4 194.312 282.279 191.049 278.771 188.199C277.649 189.321 275.409 188.749 274.824 187.114C274.422 185.99 274.539 184.677 274.281 183.499C274.041 182.407 273.711 181.324 273.271 180.295C272.394 178.245 271.107 176.277 269.621 174.617C268.016 172.824 266.171 171.334 264.107 170.103C262.028 168.865 259.755 168.495 257.563 167.589C257.489 167.559 257.482 167.46 257.563 167.432ZM266.733 309.905C266.736 309.797 266.864 309.746 266.943 309.818C267.77 310.579 268.27 311.67 268.879 312.605C269.582 313.684 270.319 314.741 271.092 315.77C272.642 317.832 274.367 319.775 276.106 321.68C277.723 323.45 279.447 325.147 281.235 326.745C283.172 328.478 285.342 330.024 287.102 331.942C290.775 335.945 291.368 341.44 292.143 346.599L292.228 347.157C292.7 350.218 293.124 353.288 293.505 356.362C293.691 357.857 293.876 359.354 294.027 360.853L294.074 361.328C294.209 362.796 294.245 364.285 293.401 365.567C292.498 366.939 290.444 367.42 289.223 366.105C287.125 363.845 287.518 359.83 287.245 356.923C287.02 354.519 286.764 352.118 286.477 349.72L286.332 348.522C285.994 345.795 285.72 343.013 285.095 340.333C284.545 337.973 283.495 336.191 281.773 334.481C280.039 332.759 278.236 331.151 276.635 329.297C274.937 327.329 273.405 325.22 272.025 323.018C270.844 321.135 269.898 319.086 269.031 317.039L268.887 316.698C268.049 314.702 266.667 312.104 266.733 309.905ZM297.025 224.169C297.043 223.891 297.455 223.886 297.461 224.169C297.513 226.564 297.563 228.958 297.613 231.353C298.013 250.648 297.767 269.989 299.705 289.219C300.619 298.285 302.303 307.218 304.25 316.114C305.247 320.667 306.293 325.208 307.287 329.76C308.255 334.197 309.293 338.656 310.061 343.134C310.816 347.535 311.492 351.971 311.796 356.429L311.833 357.01C311.964 359.17 312.587 362.346 311.397 364.26C310.107 366.333 307.637 366.371 306.254 364.391C304.956 362.533 305.279 359.227 305.05 357.01C304.817 354.751 304.57 352.491 304.29 350.238C303.744 345.842 303.025 341.456 302.276 337.09C300.718 327.998 298.457 319.021 296.788 309.944C295.078 300.642 293.863 291.274 293.811 281.804C293.76 272.253 294.773 262.721 295.284 253.191C295.803 243.513 296.393 233.841 297.025 224.169ZM205.758 164.153C206.277 162.409 208.108 161.318 209.894 161.808C211.53 162.257 212.881 164.241 212.242 165.939C211.543 167.791 210.323 169.37 209.294 171.053C208.344 172.609 206.958 173.834 205.99 175.362L207.057 176.51C207.59 177.083 208.125 177.653 208.667 178.212L210.527 180.137C211.976 181.633 213.434 183.121 214.933 184.565C219.342 188.812 223.82 192.919 228.758 196.556C229.882 197.384 231.014 198.207 232.179 198.977L232.613 199.265C233.412 199.787 234.303 200.301 235.268 200.212C237.613 199.997 239.732 197.51 241.343 195.962L241.427 195.881C245.421 192.086 249.118 187.937 252.351 183.476C253.069 182.485 253.764 181.477 254.441 180.457C252.878 178.634 253.251 175.074 253.165 172.863C253.104 171.308 253.1 169.753 253.091 168.197L253.087 167.883C253.068 166.876 253.022 165.91 253.677 165.081C253.715 165.033 253.794 165.035 253.842 165.06C254.739 165.529 255.015 166.314 255.397 167.195L255.437 167.287C255.903 168.344 256.349 169.412 256.8 170.475C257.272 171.589 257.705 172.718 258.144 173.845C258.348 174.37 258.543 174.896 258.733 175.425C258.849 175.763 258.97 176.099 259.093 176.435L259.122 176.461C259.285 176.599 259.423 176.745 259.542 176.895C260.042 177.145 260.44 177.6 260.626 178.269C261.032 179.725 260.192 180.913 259.443 182.068C256.4 186.764 252.93 191.239 249.074 195.298C247.158 197.315 245.143 199.241 243.046 201.068L242.679 201.385C240.795 203.002 238.749 204.535 236.232 204.913C233.287 205.356 230.89 203.893 228.635 202.208L228.41 202.038C226.273 200.422 224.179 198.75 222.149 197C218.012 193.433 214.077 189.603 210.584 185.401C207.186 181.313 203.827 176.743 201.733 171.825C201.605 171.525 201.941 171.212 202.204 171.462C203.227 172.434 204.212 173.46 205.184 174.498C205.211 172.97 204.929 171.428 205.086 169.889C205.278 168.019 205.222 165.954 205.758 164.153Z" fill="black"/>
<path fill-rule="evenodd" clip-rule="evenodd" d="M275.305 92.2492C272.664 81.1464 266.891 70.8139 257.649 62.4634C229.836 35.0373 178.761 49.9237 178.992 91.2529C177.995 96.0801 177.59 101.043 177.92 105.966C178.057 108.067 178.968 110.998 177.743 112.889C174.981 116.425 173.376 119.032 174.316 123.736C175.102 127.844 177.904 130.754 181.687 132.301C183.955 132.95 186.107 134.364 186.947 136.52C191.997 145.74 195.737 153.41 203.697 159.693C205.751 161.311 226.817 171.014 233.759 171.014C254.08 171.014 279.692 163.672 280.117 141.031C280.19 136.059 279.315 131.028 278.766 126.095C277.431 114.836 277.902 103.17 275.305 92.2492Z" fill="white"/>
<path fill-rule="evenodd" clip-rule="evenodd" d="M274.848 86.6961C274.854 86.5587 275.051 86.5279 275.089 86.6635C275.845 89.3364 276.273 92.0593 276.864 94.7738C277.432 97.3885 277.97 100.011 278.417 102.648C279.26 107.626 279.971 112.617 280.632 117.622L280.796 118.873C281.945 127.678 283.843 136.851 282.183 145.707C280.768 153.264 276.02 159.355 269.903 163.82C264.11 168.048 257.086 170.762 250.113 172.304C242.628 173.96 233.756 174.455 227.667 168.98C225.229 166.788 228.552 162.439 231.197 164.417C237.407 169.061 245.307 167.692 252.315 165.844L252.527 165.788C258.678 164.154 264.869 161.677 269.752 157.499C275.15 152.879 277.819 146.468 278.128 139.436C278.301 135.485 277.931 131.539 277.533 127.612L277.489 127.175C277.032 122.684 276.552 118.194 276.109 113.701C275.706 109.604 275.357 105.483 275.173 101.368L275.087 99.292C274.908 95.1071 274.667 90.8609 274.848 86.6961ZM202.013 51.9233C212.119 46.6756 223.733 44.7974 234.98 46.5586C245.792 48.2517 255.714 53.8163 263.131 61.7954C266.752 65.691 269.966 70.1973 272.02 75.1202C273.04 77.5658 273.839 80.1171 274.264 82.7373C274.483 84.0843 274.698 85.48 274.739 86.8457C274.777 88.1101 274.405 89.2959 274.449 90.5813C274.456 90.7824 274.147 90.8211 274.1 90.6285C273.748 89.1953 272.902 88.1115 272.371 86.7502C271.974 85.7337 271.524 84.7414 271.066 83.752L270.672 82.9043C269.529 80.4404 268.162 78.0777 266.811 75.7235C264.089 70.9818 260.597 66.6726 256.507 63.0365C249.328 56.6524 240.117 52.5315 230.503 51.7894C220.525 51.0188 210.404 53.3911 201.882 58.6461C193.361 63.9008 186.918 72.0693 183.573 81.4743C181.885 86.2203 180.953 91.1654 180.736 96.1933C180.626 98.7385 180.729 101.305 180.908 103.845L180.996 105.056C181.101 106.509 181.172 107.956 180.954 109.374C182.491 108.895 184.102 108.697 185.719 108.934C188.122 109.285 189.557 110.268 190.635 112.409C190.691 112.521 190.578 112.633 190.467 112.577C189.069 111.881 186.809 112.248 185.329 112.612C183.789 112.992 182.402 113.652 181.094 114.544C178.673 116.194 176.775 118.75 176.31 121.683C175.86 124.516 177.026 127.385 178.985 129.416C179.993 130.462 181.198 131.366 182.548 131.929C184.185 132.613 185.806 132.592 187.255 133.721C188.151 134.42 187.934 135.614 187.327 136.389C190.383 139.732 193.094 143.39 196.151 146.746C197.567 148.302 198.973 149.859 200.33 151.465L200.837 152.069C202.193 153.701 204.349 155.425 204.969 157.477C205.354 158.753 203.983 160.423 202.598 159.841C200.472 158.949 198.955 156.627 197.519 154.845L197.426 154.73C195.92 152.884 194.582 150.936 193.36 148.894L192.958 148.221C190.747 144.513 188.556 140.667 187.146 136.593C187.053 136.689 186.955 136.776 186.851 136.849C184.82 138.29 181.868 137.182 179.84 136.247C177.926 135.364 176.171 134.036 174.803 132.435C171.827 128.954 170.456 124.446 171.449 119.928C172.291 116.101 174.951 112.379 178.437 110.443C176.828 108.595 176.161 106.104 175.718 103.669C175.152 100.56 175.039 97.374 175.193 94.2215C175.499 87.9425 177.119 81.7531 179.624 76.0034C184.105 65.7155 192.026 57.1099 202.013 51.9233ZM180.744 120.575C182.865 120.178 184.842 120.083 186.887 120.978C189.106 121.949 190.668 123.553 192.12 125.433C193.772 127.57 189.538 129.906 188.471 127.068L188.439 126.98C188.154 126.14 187.641 125.328 186.993 124.58C186.798 124.878 186.538 125.14 186.232 125.29C185.862 125.471 185.297 125.345 185.208 124.874C185.109 124.35 185.218 123.716 185.521 123.273L185.562 123.212C184.091 122.031 182.321 121.168 180.744 120.89C180.586 120.862 180.588 120.604 180.744 120.575Z" fill="black"/>
<path fill-rule="evenodd" clip-rule="evenodd" d="M247.606 150.893C245.653 150.098 243.909 148.771 242.635 147.076C242.191 146.486 242.077 145.864 242.17 145.295C242.274 144.655 242.653 144.075 243.171 143.686C243.69 143.295 244.339 143.103 244.967 143.201C245.512 143.286 246.055 143.584 246.484 144.202L246.574 144.326C247.332 145.349 248.319 146.189 249.444 146.73C250.529 147.251 251.742 147.495 252.997 147.353C255.387 147.084 257.035 145.793 258.786 144.041C259.003 143.82 259.22 143.592 259.438 143.36C259.576 143.15 259.767 143.015 259.98 142.944C260.215 142.865 260.482 142.87 260.727 142.955C260.962 143.037 261.173 143.192 261.314 143.399C261.448 143.596 261.524 143.839 261.5 144.119C261.339 145.935 260.388 147.555 259.037 148.828C257.537 150.241 255.548 151.218 253.675 151.561C251.612 151.939 249.51 151.668 247.606 150.893ZM254.648 122.881C256.843 124.213 260.188 127.318 257.826 130.619C255.047 133.53 251.045 130.192 249.074 128.683C247.245 127.513 245.191 130.522 246.887 131.888C261.136 142.417 266.919 123.229 255.759 121.316C254.53 121.105 254.073 122.469 254.648 122.881ZM229.114 110.633C229.356 107.629 233.941 106.946 234.397 109.919C234.805 112.582 234.324 115.029 233.123 117.427C231.974 119.717 229.088 118.649 228.87 116.563C228.577 113.767 228.963 112.502 229.114 110.633ZM264.011 109.303C264.65 108.467 265.573 107.897 266.679 108.219C270.133 109.227 269.115 114.122 267.902 116.504C267.243 117.798 265.112 118.126 264.149 116.987C262.579 115.129 261.828 111.419 263.823 109.589C263.877 109.495 263.937 109.399 264.011 109.303ZM233.074 97.4867L233.62 97.3914C235.308 97.1 237.407 96.82 238.601 98.1745C239.234 98.8928 239.452 100.228 238.601 100.915C237.103 102.125 235.448 101.656 233.653 101.759C232.174 101.843 230.753 102.088 229.329 102.494C226.203 103.386 223.657 105.013 220.988 106.8C220.638 107.035 220.28 106.588 220.447 106.261C221.988 103.248 224.974 100.774 227.965 99.2659C229.561 98.4609 231.308 97.7931 233.074 97.4867ZM260.862 96.1374L261.28 96.2227C265.825 97.171 271.73 99.0651 273.882 103.521C273.964 104.151 273.878 104.286 273.807 104.374L273.784 104.404C273.726 104.479 273.679 104.583 273.406 104.669C273.33 104.651 273.253 104.631 273.176 104.611C272.189 104.353 271.409 103.998 270.653 103.629L269.833 103.226C268.883 102.761 267.924 102.312 266.908 101.981C264.739 101.275 262.508 100.778 260.242 100.512C259.751 100.455 259.278 100.289 258.905 100.006C258.551 99.7368 258.281 99.3642 258.157 98.8691C257.998 98.2282 258.044 97.743 258.388 97.1649C258.647 96.7307 259.018 96.4298 259.443 96.2569C259.877 96.0808 260.371 96.0392 260.862 96.1374Z" fill="black"/>
<path fill-rule="evenodd" clip-rule="evenodd" d="M259.956 155.386C257.262 152.969 254.242 148.11 250.371 151.955C249.414 153.041 249.026 155.476 247.563 155.954C245.619 156.589 243.692 154.518 243.03 152.928C240.319 144.09 251.524 141.666 257.907 143.094C261.026 144.384 263.323 149.575 263.462 152.284C263.551 154.104 262.021 156.782 259.956 155.386ZM280.281 141.765C280.255 141.647 280.218 141.541 280.174 141.445C278.982 140.991 278.039 141.454 277.457 142.318C277.476 142.533 277.539 142.75 277.579 142.963C277.13 143.917 276.724 145.097 276.115 145.921C275.995 145.93 275.87 145.918 275.75 145.883C265.651 146.945 270.581 136.304 260.337 133.661C252.419 132.345 238.107 133.852 234.371 142.152C231.425 155.408 216.445 146.171 211.527 139.277C206.279 133.002 202.885 125.335 199.614 117.895C198.922 116.321 196.764 117.447 196.999 118.957C193.975 125.066 194.075 132.404 193.326 139.097C192.052 152.449 190.811 171.173 203.131 179.326C219.183 197.596 259.265 204.043 277.779 187.256C284.188 173.381 283.398 156.454 280.281 141.765Z" fill="black"/>
</svg>
