<svg width="166" height="28" viewBox="0 0 166 28" fill="none" xmlns="http://www.w3.org/2000/svg">
<path d="M151.333 1L155.556 9.55731L165 10.938L158.167 17.5952L159.779 27L151.333 22.5573L142.887 27L144.5 17.5952L137.667 10.938L147.11 9.55731L151.333 1Z" fill="#F9CC01" stroke="#F9CC01" stroke-width="2" stroke-linecap="round" stroke-linejoin="round"/>
<path d="M117.167 1L121.39 9.55731L130.833 10.938L124 17.5952L125.613 27L117.167 22.5573L108.721 27L110.333 17.5952L103.5 10.938L112.944 9.55731L117.167 1Z" fill="#F9CC01" stroke="#F9CC01" stroke-width="2" stroke-linecap="round" stroke-linejoin="round"/>
<path d="M82.9999 1L87.2229 9.55731L96.6666 10.938L89.8333 17.5952L91.4459 27L82.9999 22.5573L74.5539 27L76.1666 17.5952L69.3333 10.938L78.7769 9.55731L82.9999 1Z" fill="#F9CC01" stroke="#F9CC01" stroke-width="2" stroke-linecap="round" stroke-linejoin="round"/>
<path d="M48.8334 1L53.0564 9.55731L62.5001 10.938L55.6667 17.5952L57.2794 27L48.8334 22.5573L40.3874 27L42.0001 17.5952L35.1667 10.938L44.6104 9.55731L48.8334 1Z" fill="#F9CC01" stroke="#F9CC01" stroke-width="2" stroke-linecap="round" stroke-linejoin="round"/>
<path d="M14.6667 1L18.8897 9.55731L28.3333 10.938L21.5 17.5952L23.1127 27L14.6667 22.5573L6.22067 27L7.83333 17.5952L1 10.938L10.4437 9.55731L14.6667 1Z" fill="#F9CC01" stroke="#F9CC01" stroke-width="2" stroke-linecap="round" stroke-linejoin="round"/>
</svg>
