<svg width="29" height="25" viewBox="0 0 29 25" fill="none" xmlns="http://www.w3.org/2000/svg">
<path d="M28.8153 2.9972C27.7387 3.49756 26.5927 3.82652 25.4175 3.97248C26.6641 3.19225 27.5898 1.97944 28.0229 0.558983C26.8823 1.26607 25.6216 1.77809 24.2649 2.04629C23.7174 1.43503 23.05 0.946814 22.3056 0.612992C21.5612 0.27917 20.7563 0.107126 19.9426 0.107913C19.0373 0.117309 18.146 0.334888 17.3354 0.744302C16.5249 1.15372 15.8162 1.74432 15.2628 2.47174C14.7093 3.19916 14.3254 4.04448 14.1398 4.94419C13.9543 5.8439 13.972 6.7746 14.1915 7.66638C11.8262 7.53526 9.51569 6.89327 7.41419 5.78326C5.3127 4.67325 3.46861 3.12077 2.00506 1.22949C1.24157 2.58573 1.00667 4.18336 1.34677 5.70688C1.68687 7.23041 2.57724 8.56906 3.84204 9.45847C2.90031 9.42362 1.98122 9.15578 1.16462 8.67824V8.76358C1.16462 11.7382 3.2057 14.2252 5.90714 14.7982C5.03813 15.0401 4.12562 15.0735 3.24172 14.8957C3.99812 17.3461 6.18328 19.126 8.76465 19.1748C7.54781 20.1771 6.14464 20.9203 4.63882 21.3602C3.133 21.8 1.55537 21.9274 0 21.7349C2.69001 23.5363 5.84245 24.4944 9.06481 24.4901C19.9426 24.4901 25.8737 15.1029 25.8737 6.97149V6.17907C27.0263 5.3135 28.0229 4.2285 28.8153 2.9972Z" fill="#1A1A1A"/>
</svg>
