<svg width="30" height="29" viewBox="0 0 30 29" fill="none" xmlns="http://www.w3.org/2000/svg">
<path d="M20.8058 0.00493235C21.9302 -0.0338915 23.0508 0.156808 24.099 0.565395C25.1473 0.973981 26.1014 1.59188 26.9029 2.3814C27.6756 3.18292 28.2798 4.13121 28.6797 5.17021C29.0796 6.20921 29.2672 7.31785 29.2314 8.43058V20.3849C29.2314 22.8814 28.4152 25.0298 26.8549 26.5421C25.1997 28.0703 23.0093 28.8852 20.7578 28.8106H8.89952C6.6668 28.8797 4.49709 28.0645 2.86237 26.5421C2.05204 25.7305 1.41751 24.7607 0.998336 23.6931C0.579157 22.6255 0.384302 21.4831 0.425909 20.3369V8.43058C0.425909 3.36559 3.78655 0.00493235 8.85151 0.00493235H20.8058ZM20.8658 2.68146H8.89952C7.15919 2.68146 5.65891 3.19756 4.66272 4.18175C4.13041 4.74873 3.71788 5.41721 3.44979 6.14724C3.1817 6.87727 3.06356 7.65386 3.10242 8.43058V20.3369C3.10242 22.1373 3.61852 23.5776 4.66272 24.6338C5.82732 25.6638 7.34623 26.2017 8.89952 26.1341H20.7578C22.3111 26.2017 23.83 25.6638 24.9946 24.6338C25.5537 24.0806 25.9918 23.4173 26.281 22.6859C26.5703 21.9544 26.7044 21.1709 26.6749 20.3849V8.43058C26.7136 6.88548 26.1547 5.38501 25.1146 4.24176C24.5476 3.70945 23.8792 3.29692 23.1491 3.02883C22.4191 2.76074 21.6425 2.6426 20.8658 2.68146ZM14.8286 6.91829C18.8974 6.91829 22.2701 10.2789 22.2701 14.3597C22.2701 16.3333 21.4861 18.2261 20.0905 19.6217C18.695 21.0172 16.8022 21.8012 14.8286 21.8012C12.8551 21.8012 10.9623 21.0172 9.56677 19.6217C8.17124 18.2261 7.38723 16.3333 7.38723 14.3597C7.38723 12.3862 8.17124 10.4934 9.56677 9.09784C10.9623 7.7023 12.8551 6.91829 14.8286 6.91829ZM14.8286 9.58281C13.5669 9.58912 12.3586 10.0932 11.4663 10.9854C10.5741 11.8776 10.0701 13.086 10.0637 14.3477C10.0701 15.6095 10.5741 16.8179 11.4663 17.7101C12.3586 18.6023 13.5669 19.1064 14.8286 19.1127C16.0904 19.1064 17.2987 18.6023 18.191 17.7101C19.0832 16.8179 19.5872 15.6095 19.5936 14.3477C19.5872 13.086 19.0832 11.8776 18.191 10.9854C17.2987 10.0932 16.0904 9.58912 14.8286 9.58281ZM22.5581 5.05792C23.0038 5.05792 23.4312 5.23496 23.7463 5.55008C24.0614 5.8652 24.2384 6.2926 24.2384 6.73825C24.2384 7.1839 24.0614 7.6113 23.7463 7.92643C23.4312 8.24155 23.0038 8.41858 22.5581 8.41858C22.1125 8.41858 21.6851 8.24155 21.37 7.92643C21.0548 7.6113 20.8778 7.1839 20.8778 6.73825C20.8778 6.2926 21.0548 5.8652 21.37 5.55008C21.6851 5.23496 22.1125 5.05792 22.5581 5.05792Z" fill="#1A1A1A"/>
</svg>
