<svg width="48" height="48" viewBox="0 0 48 48" fill="none" xmlns="http://www.w3.org/2000/svg">
<g clip-path="url(#clip0_775_2355)">
<path d="M20.6808 31.6796C19.3031 31.5606 17.9086 31.5 16.5 31.5H15C10.0294 31.5 6 27.4706 6 22.5C6 17.5294 10.0294 13.5 15 13.5H16.5C17.9086 13.5 19.3031 13.4393 20.6808 13.3204M20.6808 31.6796C21.1866 33.603 21.8474 35.4634 22.6492 37.2468C23.1442 38.3476 22.7684 39.6656 21.7232 40.269L20.4106 41.0268C19.3078 41.6636 17.8912 41.2612 17.3568 40.1054C16.1036 37.3946 15.1308 34.5278 14.4757 31.542M20.6808 31.6796C19.9103 28.749 19.5 25.6724 19.5 22.5C19.5 19.3276 19.9104 16.251 20.6808 13.3204M20.6808 31.6796C27 32.2248 32.969 33.9944 38.3494 36.7498M20.6808 13.3204C27 12.7752 32.969 11.0057 38.3494 8.25018M38.3494 36.7498C38.114 37.5082 37.8604 38.2584 37.5888 39M38.3494 36.7498C39.4194 33.3034 40.1114 29.6908 40.3772 25.9602M38.3494 8.25018C38.114 7.4919 37.8604 6.74166 37.5888 6M38.3494 8.25018C39.4194 11.6965 40.1114 15.3092 40.3772 19.0398M40.3772 19.0398C41.3688 19.8653 42 21.109 42 22.5C42 23.891 41.3688 25.1348 40.3772 25.9602M40.3772 19.0398C40.4586 20.1826 40.5 21.3364 40.5 22.5C40.5 23.6636 40.4586 24.8174 40.3772 25.9602" stroke="black" stroke-width="3" stroke-linecap="round" stroke-linejoin="round"/>
</g>
<defs>
<clipPath id="clip0_775_2355">
<rect width="48" height="48" fill="white"/>
</clipPath>
</defs>
</svg>
