<svg width="261" height="342" viewBox="0 0 261 342" fill="none" xmlns="http://www.w3.org/2000/svg">
<path fill-rule="evenodd" clip-rule="evenodd" d="M6.37784 189.867C9.55492 190.181 12.732 190.494 15.9091 190.808C31.125 191.977 46.3349 194.418 61.4343 195.883C61.8103 195.268 62.5461 195.369 62.9929 195.797C64.4996 195.664 66.1882 194.506 67.5531 195.711C67.5974 195.705 67.6417 195.697 67.6865 195.693C70.1166 191.003 71.7963 186 73.4266 180.991C74.4671 177.911 75.8672 174.93 78.4543 172.862C82.8694 169.78 92.9858 163.53 98.1702 163.793C98.2562 162.86 98.6889 161.897 99.3994 161.276C97.8335 158.591 104.095 156.84 104.536 157.151C104.253 148.182 108.449 140.392 117.7 138.606C125.988 136.87 137.776 136.578 142.234 145.288C142.724 145.232 147.733 145.206 148.217 145.261C148.971 144.301 157.245 153.394 153.854 156.56C184.174 170.047 201.413 168.438 209.805 206.355C210.94 209.917 211.023 213.814 212.221 217.297C216.483 227.305 219.94 237.962 220.8 248.851C222.878 249.387 223.117 253.071 220.71 253.604C219.791 253.808 219.022 254.086 218.352 254.614C218.876 263.538 216.729 283.924 215.377 283.861C212.62 292.686 200.32 295.176 191.612 292.075C193.113 294.915 191.612 296.701 191.612 298.218C160.279 299.41 126.019 298.724 94.6947 300.358C90.6877 300.301 86.4732 301.348 82.5211 300.746C80.1108 300.164 80.1068 296.354 82.5516 295.882L71.8691 293.549C72.1078 293.459 67.4657 290.354 63.9572 284.551C60.6915 278.061 62.9141 270.226 61.4343 263.166C49.877 262.215 38.1286 261.809 26.6978 259.841C25.1392 264.53 18.3924 258.922 16.2478 256.666C16.2505 256.662 16.2532 256.659 16.2558 256.655C15.218 256.37 14.3857 255.392 14.3578 254.233C13.63 253.188 13.4772 251.714 14.1752 250.703C10.9761 232.14 6.09898 213.187 4.33617 194.449C3.713 194.31 3.12614 194.036 2.62859 193.612L2.6689 193.572C1.82591 192.627 1.66199 190.996 3.06734 190.193C4.20097 189.544 5.14754 189.745 6.37784 189.867Z" fill="white"/>
<path fill-rule="evenodd" clip-rule="evenodd" d="M141.656 143.265C140.712 140.879 137.521 141.807 137.877 144.313C138.09 145.814 138.908 147.4 139.642 148.716C140.24 149.787 140.922 150.832 141.847 151.635C140.201 153.179 138.492 154.668 136.739 156.081C134.827 157.623 132.817 159.044 130.738 160.35C128.916 161.496 127.011 162.51 125.293 163.818C123.696 165.033 122.241 166.494 121.5 168.402C120.712 170.434 121.054 172.532 121.635 174.562L121.702 174.791C122.295 176.803 123.323 179.227 121.898 181.123C121.173 182.087 120.119 182.771 119.209 183.542C118.4 184.227 117.64 184.973 116.944 185.774C115.425 187.519 114.19 189.483 113.411 191.672L113.341 191.871C112.673 193.808 112.185 196.182 113.088 198.084C113.347 198.629 114.182 198.452 114.327 197.921C114.655 196.718 114.638 195.459 114.913 194.239C115.199 192.97 115.675 191.766 116.297 190.627C117.5 188.423 119.13 186.54 121.055 184.948L121.631 184.477C123.133 183.238 124.513 181.923 124.818 179.872C125.144 177.677 124.269 175.586 123.707 173.509C123.315 172.062 123.187 170.674 123.611 169.366C124.128 170.215 124.834 171.021 125.392 171.74C126.504 173.172 127.626 174.595 128.746 176.021C129.893 177.484 131.013 178.969 132.079 180.493C132.555 181.175 133.027 181.86 133.497 182.547C133.851 183.063 134.344 183.578 134.729 184.105C134.635 184.386 134.643 184.71 134.812 184.941C136.856 187.717 139.763 181.924 140.522 180.46C142.066 177.479 143.215 174.313 144.764 171.332C146.369 168.243 148.197 165.236 150.235 162.416C151.467 160.71 152.848 159.107 153.976 157.347C156.632 159.769 160.127 161.392 163.337 162.864C166.864 164.482 170.528 165.803 174.144 167.206L175.213 167.623C181.443 170.068 187.827 172.755 193.006 177.098C199.092 182.203 202.692 189.317 205.372 196.683C208.458 205.164 211.01 213.874 213.39 222.578C214.608 227.031 215.763 231.505 216.849 235.993C217.807 239.947 218.6 243.94 219.708 247.853C217.461 247.773 214.898 248.648 212.979 248.901C204.236 250.052 195.609 251.886 187.354 255.063C186.335 255.455 186.04 256.479 186.262 257.309C185.674 257.142 185.086 256.973 184.498 256.807C185.142 255.815 184.835 254.04 184.784 252.94L184.781 252.864C184.729 251.398 184.571 249.93 184.468 248.467C184.273 245.677 184.019 242.907 183.68 240.134L183.594 239.44C183.211 236.422 182.928 233.387 182.51 230.374L182.46 230.029C182.661 229.259 182.894 228.497 183.139 227.739C183.792 225.72 184.713 223.819 185.521 221.864C185.616 221.633 185.29 221.501 185.137 221.639C183.77 222.876 182.684 224.446 181.811 226.087C181.796 226.01 181.783 225.932 181.767 225.854L181.667 225.362C181.422 224.16 181.123 222.895 180.39 221.92C180.312 221.817 180.157 221.795 180.083 221.92C179.382 223.114 179.303 224.627 179.195 225.985C179.073 227.522 179.058 229.079 179.079 230.62C179.121 233.633 179.332 236.653 179.501 239.66C179.666 242.616 179.99 245.533 180.407 248.459L180.487 249.008C180.691 250.401 180.858 251.811 181.127 253.194L181.203 253.571C181.347 254.257 181.436 255.224 181.723 256.028C174.35 253.96 166.965 251.939 159.567 249.954C154.22 248.518 148.867 247.105 143.516 245.682C143.234 245.171 142.882 244.693 142.444 244.266C140.998 242.858 139.082 242.23 137.325 243.313C137.183 243.402 137.171 243.627 137.325 243.712C137.662 243.897 137.999 244.087 138.331 244.285L135.118 243.41C132.716 242.755 130.286 241.937 127.828 241.481C123.301 239.235 118.432 237.609 113.663 236.001L113.101 235.81C110.66 234.973 108.134 234.036 105.611 233.572C103.764 233.232 101.596 233.642 100.854 235.545C99.9133 236.168 99.0287 236.9 98.1749 237.62C97.5577 238.141 96.9661 238.694 96.3645 239.233L96.2536 239.331C95.7618 239.76 95.3721 240.047 95.2514 240.73C95.1891 241.083 95.412 241.56 95.8448 241.513C97.1688 241.371 98.2455 239.828 99.1435 238.906C99.8372 238.194 100.536 237.457 101.17 236.674C101.539 236.876 102.045 236.84 102.28 236.393C103.498 234.073 106.836 235.68 108.682 236.23L111.328 237.018C112.651 237.412 113.973 237.808 115.293 238.211C118.92 239.319 122.53 240.559 126.19 241.576C125.863 241.938 125.908 242.582 126.53 242.827C129.395 243.958 132.539 244.542 135.515 245.318C137.395 245.808 139.273 246.301 141.151 246.797C141.473 247.322 141.704 247.915 141.802 248.606C142.16 251.145 141.469 254.075 140.796 256.532L140.694 256.898C140.141 258.873 139.327 261.294 137.633 262.541C137.219 262.845 136.692 263.056 136.162 263.104C132.845 261.387 129.528 259.671 126.21 257.958C125.595 257.64 125.027 258.07 124.889 258.581C123.719 258.388 122.552 258.084 121.488 257.721C119.702 257.11 118.307 255.947 116.632 255.142C113.391 253.585 110.081 255.498 107.18 256.951L106.511 257.282C105.21 257.917 102.503 259.136 101.878 257.4C101.274 255.72 103.184 253.925 104.417 253.169C105.886 252.267 107.598 251.785 109.259 251.383C110.207 251.154 111.167 250.966 112.133 250.83C113.229 250.675 114.36 250.698 115.415 250.341C115.94 250.163 116.02 249.326 115.415 249.188C113.792 248.816 111.854 249.222 110.159 249.636L109.273 249.855C107.566 250.277 105.843 250.805 104.288 251.646C103.157 252.257 101.963 253.185 101.184 254.322C100.507 253.69 99.6641 253.711 98.7863 253.946L98.3099 254.079C97.5232 254.298 96.8855 254.449 96.12 254.297C96.0177 253.737 95.914 253.177 95.8029 252.616C94.7121 247.109 93.5157 241.623 92.1956 236.167C89.9187 226.754 87.2839 217.446 84.3136 208.232L84.0154 207.311C83.3304 205.204 82.779 202.908 81.6746 200.972C80.63 199.141 78.9564 198.087 76.9679 197.528C74.7114 196.895 72.3403 196.563 70.0384 196.135C69.5249 196.04 69.01 195.949 68.496 195.855C68.9304 195.067 69.2546 194.171 69.5466 193.484L69.5978 193.365C70.2252 191.927 70.7888 190.463 71.333 188.991L71.7401 187.884C72.7227 185.219 73.737 182.598 75.1186 180.106C76.5728 177.483 78.502 175.338 80.907 173.563C85.8103 169.944 91.7204 168.098 96.4762 164.23C96.6711 164.072 96.4212 163.801 96.2235 163.901C93.0122 165.524 89.5455 166.627 86.2054 167.948L85.5466 168.209C82.9066 169.262 80.2255 170.407 77.9405 172.111C75.3929 174.011 73.3865 176.371 71.8784 179.176C70.3921 181.942 69.4414 185.038 68.3928 187.992L68.1124 188.78C67.6894 189.96 67.2525 191.137 66.7519 192.286C66.3546 193.197 65.613 194.239 65.2759 195.28C64.3537 195.119 63.4316 194.958 62.5085 194.803C42.5137 191.446 22.2954 189.474 2.03223 188.897C1.23947 188.874 0.829422 189.635 0.946228 190.33C2.89082 201.893 4.61894 213.496 6.51503 225.067C7.34271 230.118 8.18686 235.164 9.0508 240.209C9.48845 242.764 9.9944 245.31 10.4089 247.869C10.7435 249.936 10.9865 252.019 11.561 254.038C12.0763 255.848 12.867 257.594 14.1657 258.975C15.5656 260.464 17.5196 261.185 19.4864 261.525C24.4794 262.389 29.6008 262.742 34.6343 263.318L61.433 266.384C61.0414 269.963 61.0121 273.487 61.1918 277.108L61.2942 279.085C61.3779 280.675 61.478 282.267 61.7051 283.841C61.9899 285.815 62.8879 287.486 64.2106 288.961C65.4252 290.315 66.9008 291.47 68.3361 292.577C69.8259 293.727 71.3653 294.837 73.117 295.547L73.3444 295.638C74.8811 296.241 77.7639 297.176 79.8644 296.834C79.5898 298.218 79.0585 299.705 79.5295 301.074C79.748 301.71 80.5746 302.027 81.081 301.486C82.0842 300.414 82.1625 298.998 82.4001 297.6C82.6473 296.144 82.8605 294.684 83.0498 293.22C83.416 290.39 83.701 287.533 83.7881 284.679C83.8775 281.747 83.843 278.812 83.6859 275.884C83.6052 274.38 83.505 272.877 83.3152 271.383C83.2343 270.746 83.1515 270.108 83.0569 269.472C83.0224 269.241 82.9842 269.01 82.943 268.78L85.3484 269.053C89.0366 269.467 92.7265 269.841 96.4408 269.899C96.8807 269.905 97.2191 269.704 97.4403 269.411C97.6759 269.797 98.0862 270.073 98.6738 270.071C103.861 270.051 108.691 268.345 113.409 266.335C115.787 265.322 118.128 264.225 120.51 263.22C122.732 262.282 125.109 261.613 127.278 260.556L132.979 263.563C133.02 263.711 133.074 263.851 133.131 263.968C133.502 264.729 134.234 265.143 134.981 265.454C135.699 265.753 136.441 265.846 137.165 265.771C141.488 268.049 145.812 270.325 150.139 272.595L154.467 274.864C163.09 279.379 171.679 283.968 180.357 288.377L180.995 288.7C183.993 290.211 187.211 291.743 190.537 292.886C190.596 293.733 190.559 294.556 190.488 295.452L190.471 295.647C190.372 296.706 190.16 298.033 191.004 298.787C191.444 299.179 192.229 299.181 192.527 298.59C193.07 297.518 192.583 295.828 192.411 294.663C192.35 294.249 192.276 293.823 192.166 293.41C195.979 294.552 199.908 295.105 203.788 294.464C207.566 293.841 210.492 291.447 212.851 288.52C215.34 285.431 217.109 281.831 218.058 277.971C219.139 273.58 219.209 269.045 219.184 264.546C219.157 259.756 218.981 254.943 218.401 250.185C219.036 250.035 219.74 249.905 220.381 249.95C220.699 250.461 221.316 250.676 221.872 250.61C223.083 251.953 220.012 253.326 219.03 253.669C218.689 253.789 218.726 254.345 219.119 254.329L219.366 254.317C220.883 254.236 222.45 253.975 223.342 252.558C224.057 251.421 223.842 250.075 222.99 249.149C222.428 243.799 221.082 238.589 219.83 233.37C218.602 228.248 217.235 223.158 215.787 218.094L215.138 215.828C212.858 207.888 210.474 199.884 207.329 192.259C205.759 188.452 203.949 184.715 201.497 181.395C199.211 178.301 196.511 175.653 193.409 173.391C187.625 169.175 180.839 166.627 174.171 164.2L173.872 164.091C170.416 162.834 166.969 161.562 163.553 160.2C160.532 158.996 157.638 157.469 154.631 156.246C154.728 156.068 154.823 155.888 154.913 155.705L154.969 155.752C154.978 155.76 154.988 155.767 154.998 155.774C155.301 155.985 155.746 155.881 155.995 155.645C156.699 154.977 156.461 154.236 155.991 153.544L155.93 153.456C155.355 152.646 154.843 151.791 154.313 150.952L153.981 150.428C153.091 149.027 152.155 147.616 150.969 146.459C150.419 145.922 149.818 145.521 149.18 145.222C149.235 145.106 148.757 144.869 148.621 144.988C146.602 144.245 144.278 144.4 142.076 144.605M62.7297 266.532L65.5376 266.853C68.6266 267.206 71.7169 267.548 74.8076 267.886L81.5208 268.62C81.538 269.005 81.5845 269.381 81.5929 269.672C81.6367 271.17 81.6695 272.669 81.7004 274.168C81.7625 277.172 81.6944 280.18 81.4977 283.178C81.307 286.084 81.056 288.99 80.6658 291.875L80.5859 292.452L80.5396 292.756C80.2213 292.787 79.9084 292.939 79.6483 293.251C79.0805 293.933 77.0245 293.27 76.2215 292.983C74.901 292.511 73.6575 291.712 72.5101 290.912C71.3895 290.13 70.3806 289.219 69.411 288.258L68.6176 287.469C67.8285 286.681 67.0385 285.841 66.555 284.849C65.8993 283.504 65.8145 281.853 65.6223 280.388C65.3856 278.586 65.1037 276.784 64.8058 274.991M144.241 247.616L144.533 247.693C155.112 250.52 165.676 253.431 176.289 256.133C181.541 257.47 186.817 258.71 192.075 260.022L192.927 260.236C197.075 261.291 201.273 262.559 204.449 265.585C204.567 265.696 204.737 265.525 204.626 265.407C201.203 261.742 196.334 260.191 191.659 258.846C190.795 258.597 189.929 258.354 189.065 258.107C195.423 255.828 201.881 253.845 208.489 252.431C210.19 252.067 211.911 251.799 213.611 251.434C214.797 251.178 215.955 250.81 217.128 250.504L218.051 250.27L218.063 253.203C218.078 257.357 218.071 261.507 217.86 265.66L217.821 266.43C217.575 271.051 217.191 275.769 215.56 280.127C214.234 283.668 212.122 287.005 209.359 289.584C207.961 290.889 206.458 291.905 204.6 292.407C202.875 292.872 201.068 292.927 199.295 292.803C190.789 292.206 183.218 287.56 175.829 283.713C163.744 277.421 151.657 271.131 139.56 264.863C139.887 264.639 140.195 264.38 140.475 264.088C142.097 262.404 142.953 260.097 143.515 257.864C144.113 255.486 144.471 252.938 144.513 250.484M128.849 267.292C128.742 267.235 128.618 267.307 128.613 267.428C128.576 268.357 129.086 269.274 129.468 270.111L129.508 270.2C129.972 271.237 130.479 272.26 131.004 273.267C132.053 275.278 133.143 277.268 134.281 279.23C136.569 283.177 139.112 286.958 142.117 290.395C142.796 291.171 143.913 290.176 143.477 289.34C141.377 285.31 138.928 281.506 136.408 277.734C135.146 275.846 133.885 273.956 132.611 272.076C132.079 271.291 131.541 270.51 130.988 269.74L130.655 269.28M3.3721 191.204C13.9888 191.527 24.5931 192.223 35.1593 193.314C44.986 194.329 54.7766 195.68 64.5121 197.363C66.5455 197.715 68.5764 198.081 70.6048 198.462L71.8214 198.692C73.8501 199.078 76.3285 199.238 78.1347 200.328C80.039 201.477 80.5536 203.878 81.1873 205.858C81.9322 208.187 82.6582 210.522 83.3646 212.863C86.1698 222.158 88.7323 231.533 91.0182 240.97C92.1529 245.655 93.1597 250.365 94.2206 255.067C95.163 259.244 96.203 263.374 97.2894 267.509C97.1555 267.404 96.9913 267.325 96.793 267.282C91.398 266.128 85.8909 265.626 80.4153 264.989L79.8855 264.927C74.221 264.257 68.5566 263.592 62.8888 262.951L25.3632 258.707C23.15 258.457 20.7791 258.423 18.6254 257.826C14.9636 256.81 14.1053 252.693 13.491 249.415L13.4724 249.316C11.6202 239.41 10.1457 229.419 8.41826 219.488M96.4161 255.994C97.873 255.898 99.867 254.556 100.972 254.652C100.392 255.631 100.13 256.748 100.465 257.94C101.395 261.259 105.604 259.542 107.632 258.528C109.294 257.696 110.899 256.679 112.739 256.289C114.824 255.849 116.236 256.682 117.998 257.643C119.444 258.432 121.02 258.999 122.64 259.292C123.501 259.449 124.32 259.465 125.137 259.404C125.186 259.445 125.241 259.482 125.304 259.515L125.736 259.743C123.783 259.833 121.793 260.439 119.974 260.995C118.09 261.57 116.241 262.263 114.401 262.972L112.591 263.671C108.127 265.39 103.505 267.023 98.6738 267.008C98.3265 267.008 98.0419 267.104 97.8178 267.262M104.567 245.596C103.128 245.419 101.8 245.609 100.649 246.551C99.2624 247.687 98.3306 249.572 96.3366 249.695C95.7553 249.731 95.6202 250.553 96.198 250.725C97.6823 251.167 98.884 250.36 99.8952 249.311L100.575 248.597C101.574 247.556 102.496 246.752 104.192 246.814C106.008 246.881 107.827 247.303 109.631 247.517C111.675 247.76 113.718 247.967 115.769 248.146C115.864 248.154 115.88 248.004 115.791 247.982L113.494 247.407M105.957 239.679L105.719 239.655C103.629 239.451 101.718 239.443 99.8512 240.574L99.4932 240.792C97.8103 241.82 95.9785 243.032 94.9261 244.697C94.7539 244.97 95.0385 245.291 95.3266 245.221C97.3493 244.733 98.828 243.241 100.529 242.124C102.438 240.871 104.41 241.077 106.587 241.272C108.694 241.461 110.8 241.72 112.887 242.073C114.848 242.405 116.815 242.928 118.796 243.095L118.795 243.091C119.022 243.091 119.151 242.749 118.92 242.633C116.91 241.624 114.582 241.146 112.395 240.685M177.525 182.529C177.527 182.363 177.295 182.301 177.214 182.445C175.854 184.85 175.143 187.799 174.418 190.45C173.66 193.227 173.047 196.031 172.497 198.857C171.382 204.578 170.789 210.266 170.748 216.097C170.743 216.93 172.091 217.151 172.223 216.298C173.099 210.626 173.939 204.949 174.821 199.278C175.265 196.426 175.782 193.585 176.277 190.742M164.062 186.72C164.162 186.388 163.682 186.277 163.559 186.58C160.83 193.317 159.906 200.951 161.658 208.058C161.926 209.145 163.509 208.674 163.307 207.601M128.86 180.734C128.873 180.485 128.553 180.446 128.432 180.617C127.139 182.449 126.602 184.903 124.334 185.85C123.201 186.323 121.926 186.24 120.925 187.039C120.256 187.573 119.743 188.416 120.245 189.225C120.407 189.486 120.861 189.617 121.081 189.333C121.402 188.919 121.571 188.424 122.007 188.114C122.622 187.677 123.451 187.65 124.156 187.444C125.068 187.178 125.871 186.713 126.529 186.022M107.256 150.175C107.122 150.107 106.995 150.15 106.909 150.266C106.788 150.431 106.803 150.592 106.952 150.705C106.752 151.114 106.517 152.139 106.484 152.289C106.348 152.894 106.203 153.495 106.051 154.096C105.745 155.308 105.478 156.529 105.172 157.742C104.847 159.027 104.461 160.298 104.031 161.552C104.003 161.633 103.972 161.716 103.94 161.8L103.891 161.927L103.879 161.907C103.792 161.768 103.61 161.866 103.632 162.012C103.652 162.146 103.678 162.279 103.701 162.413L103.656 162.533C103.375 163.294 103.182 164.096 103.698 164.768C103.891 165.019 104.104 165.168 104.369 165.212C104.793 166.62 105.326 168.001 105.896 169.327L106.063 169.715C106.902 171.65 107.797 173.56 109.132 175.207C110.59 177.006 112.596 178.235 113.866 180.206C114.457 181.123 114.869 182.087 115.202 183.122L115.328 183.515C115.565 184.248 115.838 184.957 116.521 185.387C116.739 185.524 117.066 185.48 117.242 185.294C118.643 183.803 117.176 181.02 116.331 179.578C115.157 177.571 113.457 176.287 111.755 174.774C109.921 173.142 108.751 170.959 107.619 168.809C106.926 167.491 106.257 166.146 105.552 164.822C106.288 164.168 106.524 162.868 106.773 161.965L106.796 161.884C107.208 160.437 107.536 158.953 107.743 157.462C107.942 156.029 108.025 154.616 107.972 153.175L107.957 152.808M104.519 156.997C104.681 156.773 104.412 156.519 104.189 156.566C102.832 156.848 101.505 157.674 100.288 158.341L100.158 158.412C99.1856 158.939 98.2075 159.585 97.6971 160.609C97.142 161.722 97.1877 163.004 97.2634 164.214L97.2706 164.327C97.3634 165.777 97.3783 167.284 97.6835 168.709C97.8397 169.438 98.4963 169.643 99.0577 169.471C99.7256 171.592 101.602 173.154 102.972 174.828C104.72 176.961 104.391 179.842 104.208 182.412C104.135 183.452 105.421 183.748 106.084 183.193L107.612 181.917C107.866 181.704 108.12 181.49 108.373 181.276C108.59 181.093 108.806 180.908 109.019 180.72L109.337 180.438C109.479 180.31 110.102 179.61 110.284 179.581C110.725 179.511 111.774 180.68 112.133 181.047L112.178 181.093C112.854 181.759 113.464 182.476 114.033 183.236C114.137 183.375 114.342 183.26 114.267 183.098C113.758 182.001 113.165 180.952 112.462 179.97L112.32 179.775C111.852 179.14 111.224 178.021 110.398 177.834C109.389 177.605 108.383 178.622 107.649 179.187L107.602 179.222C107.253 179.485 106.908 179.753 106.564 180.023C106.6 178.11 106.359 176.177 105.377 174.528C104.685 173.365 103.647 172.504 102.759 171.505C101.77 170.392 101.254 169.025 100.359 167.866C100.244 167.717 100.085 167.637 99.9132 167.611C99.8788 166.68 99.7423 165.739 99.6369 164.817L99.6063 164.542C99.4998 163.54 99.2479 162.317 99.7354 161.38C100.196 160.494 101.252 159.869 102.035 159.268L102.674 158.77M148.553 146.41C148.962 146.648 149.344 146.943 149.69 147.313C150.781 148.476 151.56 149.923 152.319 151.316C152.727 152.066 153.121 152.824 153.533 153.572C153.712 153.898 153.896 154.22 154.083 154.541C154.169 154.689 154.425 154.984 154.551 155.165C154.41 155.364 154.265 155.559 154.116 155.753C154.059 155.827 150.148 160.111 148.784 161.788C146.696 164.357 144.83 167.07 143.235 169.975C141.672 172.819 140.483 175.83 139.036 178.729C138.311 180.18 137.502 181.621 136.471 182.877C136.431 182.926 136.389 182.972 136.348 183.021C135.955 181.952 134.946 180.807 134.451 180.149L134.405 180.087C133.281 178.565 132.095 177.088 130.883 175.636C129.776 174.31 128.64 173.013 127.478 171.737L127.04 171.26C126.23 170.38 125.201 169.063 124.015 168.435C124.142 168.207 124.289 167.982 124.458 167.759C125.57 166.299 127.14 165.239 128.69 164.283L129.695 163.669C133.484 161.347 137.213 158.918 140.502 155.901C142.243 154.305 143.959 152.633 145.421 150.771L145.939 150.113M142.232 145.261C144.006 145.41 145.922 145.375 147.561 145.956C146.104 147.342 144.718 148.838 143.295 150.247C143.169 149.294 142.91 148.353 142.69 147.423" fill="#1A1A1A"/>
<path fill-rule="evenodd" clip-rule="evenodd" d="M123.758 56.8569C111.034 56.8569 97.8721 66.715 93.2077 73.0057C89.2861 78.2946 87.1747 102.211 87.1747 118.374C87.1747 121.754 85.3083 128.126 85.8529 131.36C87.8488 143.208 96.5445 153.145 113.755 153.145C130.966 153.145 143.306 146.327 156.098 128.02C162.305 128.02 165.313 123.263 165.357 115.755C165.4 108.247 159.365 105.516 159.365 105.516C159.365 105.516 161.517 75.887 156.098 68.1731C150.679 60.4593 136.483 56.8569 123.758 56.8569Z" fill="white"/>
<path fill-rule="evenodd" clip-rule="evenodd" d="M129.113 52.6679C121.079 51.8549 113.206 52.538 105.289 53.9516C104.684 54.0611 104.341 54.4578 104.213 54.9347C100.484 55.1049 96.7506 55.3784 93.0263 55.5822C91.6747 55.6561 90.9085 56.9909 91.5248 58.1961C91.6478 58.4356 91.7758 58.6685 91.9057 58.9015L91.7424 58.8477C90.6221 58.4884 89.4118 58.3113 88.3201 58.8815C86.9307 59.6072 86.3859 61.2085 86.6929 62.6824C86.7716 63.0586 86.9036 63.4193 87.0537 63.7711C86.7489 63.751 86.4419 63.7577 86.1371 63.798C84.5147 64.0131 83.309 65.2562 83.2238 66.9114C83.0983 69.4109 84.7096 71.9466 86.6078 73.7361C86.3323 74.303 86.2268 74.9704 86.3413 75.6469C86.5699 76.9841 87.5555 77.7848 88.698 78.3072C88.2215 79.8193 87.9963 81.4002 88.1292 83.0158C88.1736 83.5551 88.6455 84.0007 89.1437 84.11C87.2868 89.22 86.3469 94.7063 85.671 100.052C85.1892 103.856 84.9517 107.681 84.9227 111.514C84.9086 113.244 84.9371 114.976 85.0098 116.706L85.0391 117.355C85.1287 119.226 85.1332 121.19 85.4693 123.04C84.3219 124.991 83.8603 127.412 83.6653 129.598C83.4233 132.304 83.8065 135.095 84.6605 137.669C87.8831 147.394 97.6089 153.531 107.378 155.126C116.42 156.602 126.883 154.615 132.168 146.406C132.251 146.276 132.073 146.169 131.97 146.254C128.19 149.327 123.804 150.698 119.04 151.365C110.802 152.517 101.542 150.563 94.9311 145.385C91.7578 142.899 89.4698 139.279 88.4633 135.384C87.9501 133.393 87.7731 131.316 87.975 129.267C88.1812 127.188 89.102 125.414 89.6824 123.45C89.8774 122.787 89.6712 122.171 89.2656 121.732C89.1515 120.137 88.8824 118.529 88.7795 116.939C88.6652 115.131 88.5955 113.323 88.5709 111.514C88.5238 107.76 88.6807 103.999 88.9967 100.261C89.5749 93.4155 91.11 86.7364 92.0108 79.9494C92.3445 80.2484 92.8226 80.3712 93.3237 80.11L93.3756 80.0816L93.649 79.925C93.6647 79.925 93.6826 79.9272 93.6986 79.9293C95.5696 80.1109 97.5103 79.8511 99.3031 79.2931C101.179 78.711 102.92 77.8151 104.476 76.6212C104.771 78.1195 104.895 79.6336 104.897 81.1612C104.899 82.1154 105.91 82.6106 106.712 82.2029C110.268 80.3974 113.666 78.3168 116.891 75.9784C117.267 77.9069 117.644 79.8352 118.023 81.7659C118.168 82.5098 119.116 82.8099 119.723 82.456C122.139 81.0514 124.225 79.2127 125.924 77.0264C126.263 77.6746 126.603 78.3227 126.946 78.9694L127.461 79.9382C127.97 80.8902 128.651 81.9431 129.765 82.2475C130.944 82.5701 131.928 81.8065 132.324 80.7401C132.445 80.4088 132.558 80.0681 132.661 79.7254C133.665 82.017 134.799 84.2569 136.08 86.3937C138.003 89.5987 140.312 92.4546 142.613 95.3843C143.312 96.2737 144.509 95.4246 144.605 94.5602C144.661 94.0518 144.708 93.5411 144.749 93.0324C146.09 95.7373 147.489 98.4168 149.014 101.019L148.795 101.874C148.166 104.4 147.644 106.944 147.076 109.483C146.893 110.303 147.329 111.474 148.286 111.614C149.431 111.78 150.513 112.365 151.685 111.963C152.963 111.524 153.216 110.42 153.819 109.374C153.94 109.165 154.08 108.974 154.23 108.792L154.268 108.841C154.363 108.965 154.587 108.83 154.531 108.689L154.465 108.526C154.983 107.976 155.604 107.518 156.174 107.024C157.529 106.796 159.054 107.046 159.988 107.596C162.115 108.85 163.091 111.435 163.112 113.812C163.136 116.594 162.274 119.721 160.817 122.099C160.176 123.145 159.297 124.09 158.137 124.554C156.985 125.015 155.736 124.872 154.564 125.307C153.789 125.596 153.312 126.456 153.78 127.235C153.811 127.289 153.847 127.338 153.881 127.39L153.532 127.852C153.293 128.173 153.043 128.516 152.81 128.872C152.213 129.558 151.586 130.219 150.979 130.893C149.856 132.136 148.767 133.413 147.662 134.674C146.62 135.863 145.517 136.981 144.381 138.08C143.308 139.122 141.968 139.998 140.982 141.109C140.023 142.193 139.762 144.086 141.34 144.713C143.086 145.409 144.631 143.778 145.806 142.691L145.856 142.645C148.01 140.664 149.955 138.4 151.5 135.907C153.03 136.948 155.243 137.048 156.767 136.007C157.569 135.459 158.184 134.539 158.483 133.538C158.765 133.601 159.046 133.638 159.321 133.634C159.462 133.716 159.604 133.795 159.748 133.87C160.884 134.461 162.28 134.197 162.8 132.94C163.273 131.799 162.786 130.503 162.359 129.404L162.271 129.177C162.029 128.55 161.762 127.867 161.431 127.224C162.354 126.53 163.143 125.667 163.811 124.686C166.054 121.383 167.174 116.551 166.679 112.609C166.381 110.23 165.263 107.766 163.432 106.162L163.499 105.988C164.012 104.687 164.479 103.381 164.781 102.006C165.135 100.397 165.308 98.7309 165.465 97.0935C165.796 93.6352 165.707 90.0984 165.265 86.6535C164.436 80.1692 162.334 73.8035 158.603 68.4077C159.661 67.1419 160.499 65.6524 160.062 63.9391C159.862 63.1527 159.407 62.4071 158.721 61.9566C158.343 61.7082 157.892 61.6702 157.513 61.4641L157.4 61.4014C157.233 61.3044 157.36 61.3147 157.46 60.8638C157.852 59.0627 157.527 57.3226 155.544 56.7245C153.677 56.1623 151.911 57.3562 150.806 58.7785C147.915 56.7288 144.105 55.6561 140.755 54.7445C136.945 53.7117 133.037 53.0669 129.113 52.6679ZM160.339 113.077C160.353 111.61 158.961 110.705 157.592 110.945C156.672 111.105 155.905 111.653 155.185 112.22L154.834 112.498C153.956 113.186 152.949 113.928 152.427 114.903C151.66 116.341 153.28 118.276 154.793 117.268C155.83 116.573 156.496 115.459 157.176 114.425L157.247 114.318C157.556 113.854 157.827 113.361 158.251 112.99L158.342 112.91C158.482 112.791 158.631 112.683 158.811 112.631C159.158 112.532 159.801 112.671 159.954 113.084L159.968 113.126C160.024 113.335 160.337 113.29 160.339 113.077Z" fill="#1A1A1A"/>
<path fill-rule="evenodd" clip-rule="evenodd" d="M106.03 131.106C105.69 130.514 104.908 129.966 104.192 130.05C100.986 130.426 100.991 134.321 102.229 136.594C103.327 138.61 105.599 139.793 107.873 139.621C110.262 139.439 112.297 138.032 113.193 135.793C113.785 134.313 114.059 131.579 112.483 130.584C112.454 130.565 112.406 130.57 112.382 130.597C111.627 131.477 111.597 132.799 110.936 133.779C110.32 134.691 109.365 135.444 108.245 135.56C107.409 135.647 106.563 135.345 106.236 134.593C106.059 134.186 106.079 133.965 106.146 133.686L106.206 133.442C106.415 132.59 106.509 131.941 106.03 131.106ZM105.173 114.027C103.5 115.045 100.952 117.42 102.751 119.944C104.869 122.17 107.918 119.618 109.42 118.464C110.813 117.569 112.379 119.87 111.086 120.914C100.23 128.966 95.8238 114.293 104.327 112.83C105.263 112.668 105.611 113.712 105.173 114.027ZM122.832 107.045C121.806 105.502 119.463 105.729 118.897 107.56C118.591 108.551 119.014 109.443 118.992 110.433C118.974 111.27 119.028 112.202 119.284 113.012C119.868 114.859 121.527 116.164 123.489 116.11C125.445 116.056 127.168 114.816 127.987 113.07C128.809 111.316 128.635 109.502 128.035 107.719C128.006 107.634 127.894 107.592 127.826 107.664C127.117 108.419 126.598 109.217 126.06 110.062L125.51 110.929C125.089 111.582 124.477 112.416 123.691 112.363L123.573 112.352C123.355 112.333 123.388 112.376 123.22 112.078C123.142 111.94 123.156 111.684 123.119 111.521L123.106 111.466L123.113 111.436C123.129 111.357 123.146 111.209 123.159 110.951L123.162 110.894C123.219 109.688 123.559 108.138 122.832 107.045ZM96.8131 108.072C96.9971 106.099 94.2281 105.66 93.3075 107.12C92.8273 107.882 92.6876 108.838 92.5814 109.744L92.5317 110.174C92.4228 111.105 92.3796 112.073 92.7829 112.941C93.418 114.308 94.7992 115.031 96.2891 114.917C97.712 114.807 99.0101 113.981 99.6944 112.726C100.305 111.607 100.911 109.421 100.17 108.254C100.125 108.183 100.036 108.174 99.9746 108.228C99.2743 108.851 99.1603 109.987 98.7439 110.798C98.3145 111.635 97.6632 112.45 96.6762 112.577C95.732 112.699 95.3712 112.182 95.6121 111.281C95.9228 110.116 96.6962 109.324 96.8131 108.072ZM122.084 95.3143L121.631 95.1405C120.08 94.5534 117.95 93.8747 116.688 95.1386C115.91 95.9179 115.762 97.0659 116.317 98.017C116.99 99.169 118.197 99.1974 119.363 99.3671C120.689 99.5601 122.037 99.927 123.272 100.45C124.662 101.04 125.953 101.774 127.217 102.595C128.419 103.375 129.616 104.649 131.054 104.889C131.113 104.899 131.18 104.874 131.195 104.809C131.522 103.401 130.614 102.014 129.804 100.915C128.824 99.5847 127.636 98.4926 126.309 97.5134C125.027 96.5681 123.564 95.8851 122.084 95.3143ZM93.9003 100.323L93.762 100.298C92.8211 100.142 91.9685 100.178 91.2595 100.924C90.7182 101.494 90.5096 102.232 90.7676 102.985C91.0057 103.679 91.5381 104.385 92.3107 104.53C94.9192 105.022 97.8085 104.941 100.43 104.569C101.63 104.398 102.84 104.19 104.008 103.861L104.545 103.705C105.521 103.426 106.637 103.134 107.346 102.416C107.601 102.157 107.454 101.788 107.149 101.668C105.913 101.183 104.218 101.441 102.9 101.403C101.367 101.359 99.8313 101.244 98.3052 101.086C96.814 100.93 95.371 100.593 93.9003 100.323Z" fill="#1A1A1A"/>
<path fill-rule="evenodd" clip-rule="evenodd" d="M37.2426 220.757L33 225L37.7574 229.757L41.4853 233.485L42 234L50.4853 225.515L46.2426 221.272L42 225.515L37.2426 220.757Z" fill="#FF4444"/>
</svg>
