<svg width="436" height="635" viewBox="0 0 436 635" fill="none" xmlns="http://www.w3.org/2000/svg">
<path fill-rule="evenodd" clip-rule="evenodd" d="M5.5639 345.523C7.52 344.962 9.96386 344.817 12.1039 344.715C19.6679 344.271 27.3806 347.871 34.7972 349.494C38.0438 350.295 41.4814 351.239 44.9556 351.942C48.04 352.36 51.2286 352.673 54.4344 352.873C57.0257 352.95 60.041 352.752 60.9257 355.472C66.1342 356.48 70.7449 356.899 75.7099 356.042C75.2449 354.463 74.98 352.812 75.4609 351.111C75.2182 350.708 74.8879 350.162 74.7113 349.795H75.3081C84.0229 346.312 93.4466 343.934 102.207 340.325C113.642 336.211 130.482 328.261 143.694 322.833C142.798 317.936 142.466 312.961 142.846 308.124L142.315 307.695C142.141 306.745 141.87 305.607 141.378 304.746C140.755 303.095 140.741 300.841 140.493 298.975C139.977 295.325 139.632 289.83 140.572 285.496C140.982 279.619 144.95 275.089 149.228 271.455C154.482 266.268 159.742 261.207 164.87 255.82C193.253 226.933 195.497 190.549 239.929 179.491L239.951 179.319C240.301 178.93 240.444 178.62 240.843 179.237C242.31 178.675 244.14 178.722 245.368 177.773C247.549 175.787 249.097 173.494 250.108 170.773C250.888 165.629 250.336 157.702 254.85 154.41C259.864 151.412 286.501 149.277 288.798 155.833C290.223 157.169 290.872 158.867 291.317 160.945C292.802 163.748 293.738 166.856 295.233 169.702C298.412 176.085 300.472 174.67 306.084 176.129C306.693 174.774 308.542 175.047 309.89 175.243C326.21 177.533 346.107 183.782 353.095 199.097L352.5 199.021C364.561 221.645 356.739 250.416 354.582 274.391C352.837 295.702 354.833 317.115 359.575 336.994C365.396 358.082 365.73 381.671 354.181 400.759C353.007 402.944 351.578 406.032 349.049 404.661C347.663 405.707 346.107 406.43 343.957 407.059C343.364 407.488 342.75 408.209 342.129 408.518C342.1 408.559 341.101 407.984 341.049 407.969C339.16 410.659 235.492 419.649 224.734 421.045C215.255 422.186 202.731 425.099 195.007 418.273C188.624 416.452 181.945 411.712 176.844 407.006C173.748 451.824 172.037 543.612 169.275 544.252C168.066 544.661 166.434 545.151 165.066 545.542C165.058 548.762 164.818 552.421 165.072 555.586C165.496 559.162 166.57 563.383 167.056 567.141C169.146 567.002 169.76 569.094 170.003 570.516C171.807 582.257 171.754 591.724 171.624 604.63C150.414 617.102 125.557 623.962 101.691 632.023C99.4049 633.738 94.4516 631.883 91.8121 631.419C82.6485 629.618 72.236 624.289 74.5491 614.52C76.2427 607.165 83.3535 602.932 89.3394 598.605C95.8881 593.868 102.792 589.135 108.814 583.495C113.646 578.951 117.254 575.426 121.284 570.297C123.071 567.913 124.977 563.994 127.381 562.236C124.841 559.228 129.973 562.048 131.916 562.221C133.059 556.85 134.474 551.693 136.171 546.541L134.522 546.615C129.106 541.566 126.069 517.323 125.692 510.131C122.977 463.247 123.042 409.21 133.933 369.726C125.66 374.811 116.589 379.059 108.362 384.089C103.174 387.124 97.9106 391.336 92.0955 392.808C91.7168 393.894 90.3303 394.316 89.5736 393.252C88.5327 393.38 87.1916 392.949 87.0771 392.476C86.0126 390.302 84.4702 387.96 84.6557 385.599C84.6559 385.599 86.084 382.291 86.084 382.291C82.8843 383.59 79.4054 386.322 75.9897 386.573C69.0905 409.573 55.4973 396.689 42.417 387.737C34.523 382.23 25.8879 376.149 17.5803 370.277C10.5318 364.68 -3.22889 359.368 3.51677 348.28" fill="white"/>
<path fill-rule="evenodd" clip-rule="evenodd" d="M302.075 174.724C295.412 173.107 294.274 157.158 290.25 159.429C287.925 161.449 291.729 165.259 292.402 167.538L292.698 168.117C294.063 170.772 295.606 173.418 298.297 174.949C300.026 176.767 305.194 174.982 304.434 177.877C301.781 186.603 287.696 192.644 279.395 195.361C266.493 200.2 245.621 198.563 242.589 182.342C249.666 181.048 254.899 168.297 250.537 162.989C250.388 168.146 248.977 173.467 244.924 176.961L244.7 177.166C243.987 177.816 243.063 178.592 242.142 178.447C241.244 177.199 239.501 177.909 238.988 179.227C198.695 186.182 189.718 229.577 164.343 255.119C159.274 260.448 153.975 265.55 148.745 270.716C143.403 274.949 139.623 280.849 139.359 287.777C138.882 291.63 139.118 295.486 139.629 299.346L139.664 299.694C139.901 302.086 140.042 304.655 141.182 306.778C141.379 307.498 141.299 308.407 141.922 308.915C141.65 313.318 141.909 317.801 142.655 322.19L140.711 323.057C119.318 332.571 97.6786 341.538 75.3721 348.67C73.4658 348.324 73.6213 350.537 74.5442 351.543C74.3008 352.727 74.2744 353.958 74.5601 355.128C70.4754 355.714 66.3264 355.227 62.2943 354.483C61.0188 351.678 57.6298 351.828 55.0095 351.749C51.7541 351.546 48.5044 351.228 45.2725 350.777C37.3095 349.001 29.4898 346.664 21.6034 344.61C16.326 343.127 10.6349 343.198 5.34082 344.562C4.44146 345.569 3.61088 346.644 2.90991 347.785C-1.92946 355.277 2.83899 362.143 9.59427 366.079C20.4321 373.749 31.2729 381.41 42.1592 389.01L42.9501 389.574C55.9021 398.83 70.4732 410.547 77.3904 388.018C79.7153 387.745 81.7526 386.187 83.9187 385.268C83.336 387.972 85.076 390.702 86.2756 393.02C86.7922 394.34 88.2042 394.776 89.508 394.763C90.6243 395.857 92.7193 395.426 93.4493 394.13C99.3703 392.437 104.262 388.486 109.503 385.416C116.955 380.897 124.772 377.044 132.331 372.716C119.773 424.629 122.845 478.704 126.186 531.547L126.21 532.025C126.624 539.739 128.396 543.389 134.805 548.118C133.688 551.519 132.69 554.933 131.928 558.43C131.659 559.242 130.421 558.478 130.411 559.592C128.135 559.06 123.507 559.63 125.122 562.774C120.551 566.605 117.456 571.793 113.449 576.16C106.392 584.606 97.1669 590.892 88.1219 597.086C67.3292 607.665 66.1375 625.998 90.465 632.261L90.7089 632.318C94.059 633.123 98.0936 634.963 101.341 633.413C106.199 632.48 111.021 630.589 115.774 629.149C134.913 622.825 153.632 615.421 171.769 606.911C172.427 606.602 172.799 605.895 172.816 605.189C172.614 599.35 174.202 567.353 168.138 566.664C166.784 560.128 166.571 553.379 166.817 546.708C168.784 546.09 170.773 545.494 172.81 545.108C174.789 544.486 177.882 544.347 179.206 542.747C179.682 542.575 180.032 542.15 179.96 541.479C178.889 531.452 178.077 521.399 177.484 511.333C175.455 477.575 176.144 443.712 178.455 409.991C183.217 414.103 188.644 417.703 194.686 419.618C198.021 422.955 203.368 423.67 207.92 424.074C213.774 424.436 219.524 423.269 225.301 422.542C235.111 421.309 244.853 422.401 254.591 423.61L257.919 424.025C281.761 426.636 307.528 427.175 329.749 417.001C333.933 417.372 339.127 412.857 341.737 409.84C342.89 410.551 344.022 409.163 344.94 408.432C346.456 407.973 348.175 407.312 349.551 406.348C353.041 407.488 354.923 402.965 356.248 400.505C377.286 364.535 353.857 328.729 355.619 290.584C354.552 260.679 368.214 229.523 355.01 200.841C352.339 188.704 336.717 180.315 324.958 177.231C321.169 176.606 306.824 171.427 305.244 175.782C304.496 174.802 303.22 174.729 302.075 174.724ZM127.566 564.175C129.537 564.387 131.46 564.508 133.408 564.865C140.521 566.03 147.306 568.779 153.418 572.6C155.398 573.832 157.165 575.385 159.436 576.072C164.104 577.764 168.692 573.562 168.35 569.019C169.651 580.436 169.428 592.184 168.753 603.659C150.494 611.906 131.826 619.259 112.819 625.647C108.539 627.438 103.471 628.012 99.5401 630.433C92.8371 630.011 86.0899 627.661 80.4599 623.987C71.1213 617.518 77.321 607.256 85.0625 602.741C102.104 595.063 116.61 579.524 127.566 564.175ZM164.904 547.291C165.26 550.676 162.685 555.948 163.048 562.693C163.328 564.799 163.985 567.006 163.757 569.12C162.708 576.964 154.202 566.996 150.686 565.904C145.696 563.164 140.273 561.298 134.7 560.278C134.734 558.469 135.933 557.746 136.091 555.959C136.317 553.326 136.306 550.796 136.425 548.137C143.673 551.428 157.215 549.101 164.904 547.291ZM125.847 563.664C125.974 563.748 126.107 563.819 126.244 563.883C125.236 565.102 124.364 566.453 123.169 567.501L123.678 566.712C124.358 565.66 125.054 564.612 125.847 563.664ZM350.982 283.026C351.348 284.508 352.013 285.902 353.009 287.087C347.863 328.746 374.339 363.474 349.997 402.207C349.689 402.35 349.409 402.528 349.138 402.751C348.995 402.656 348.852 402.556 348.712 402.456C337.302 382.298 321.061 364.91 308.12 345.62C305.637 340.778 301.548 335.904 299.982 330.31C325.988 320.057 336.376 305.098 350.982 283.026ZM8.7426 346.214C9.84526 346.608 11.0722 346.283 12.2489 346.262C16.4266 346.173 20.5094 347.261 24.5051 348.361C36.1267 351.535 47.8096 354.345 59.7163 356.224C59.9569 356.473 60.187 356.726 60.3959 356.993C60.1896 357.342 60.1579 357.779 60.4572 358.212C62.2535 361.638 60.8015 365.832 62.1064 369.499C63.9971 376.923 69.0262 385.297 76.5312 387.932C74.0279 390.313 72.2345 393.378 69.6561 395.676C63.3194 400.013 56.3406 393.549 51.1673 390.084C41.3179 383.137 31.4426 376.238 21.5404 369.367C17.1041 365.696 7.29036 361.069 5.16754 356.206C3.80759 352.477 6.2829 348.844 8.7426 346.214ZM76.621 355.68C80.8605 364.313 83.308 373.491 85.7563 382.76C83.2099 383.459 80.8642 384.555 78.3611 385.292C74.8356 386.084 69.8582 379.281 68.0905 376.581C66.2682 373.561 64.9924 370.243 64.4006 366.766C63.9011 363.362 64.4332 359.826 62.9499 356.672C67.5428 357.141 72.2019 357.239 76.621 355.68ZM328.666 337.868C324.684 336.754 333.741 345.747 334.263 346.706C340.152 353.649 345.547 360.981 350.901 368.336L352.524 370.568C352.68 370.794 353.755 372.38 352.978 372.179C352.907 372.16 352.874 372.253 352.93 372.292C357.882 373.167 331.053 338.479 328.666 337.868ZM231.607 333.623C231.285 332.654 232.814 332.24 233.136 333.203L234.151 336.255C237.981 347.785 241.787 359.331 246.365 370.592C246.748 371.536 245.216 371.948 244.836 371.014C239.857 358.759 235.789 346.167 231.607 333.623ZM187.088 329.586C188.484 336.201 192.012 342.165 194.15 348.488C190.134 347.604 187.04 343.867 184.699 340.653L184.629 340.546C183.524 338.848 182.24 336.197 179.732 337.395C175.925 339.603 178.652 347.435 178.723 351.147C179.206 356.236 180.863 360.996 181.993 365.94C179.09 363.959 178.256 360.054 176.841 357.011L171.397 343.969V343.969C167.394 338.493 169.253 354.891 169.46 356.439C169.785 359.838 171.22 363.257 170.657 366.68C168.399 364.255 166.977 361.207 165.783 358.115C164.125 353.814 162.613 349.458 161.036 345.129C160.491 343.742 158.424 344.229 158.723 345.757C158.825 350.67 158.906 355.583 158.984 360.496L159.043 364.181C159.054 364.88 159.4 366.92 158.191 366.356C151.844 359.705 150.217 346.404 151.043 337.468C163.519 337.769 176.249 336.153 187.088 329.586ZM76.0623 354.401C76.1135 354.563 76.1725 354.725 76.2314 354.888C76.1955 354.895 76.1571 354.903 76.1212 354.912C76.0981 354.74 76.0776 354.571 76.0623 354.401ZM352.967 354.401C354.35 353.38 331.089 323.559 332.596 332.168C339.086 339.834 346.654 346.553 352.967 354.401ZM147.537 288.504C169.291 283.401 188.448 302.463 210.294 299.583C210.041 306.411 209.69 313.284 209.828 320.115C180.816 322.504 184.117 334.833 150.72 333.592C146.404 330.705 144.632 313.017 144.997 307.677C144.718 301.363 150.159 298.529 155.579 297.421C157.538 298.602 161.052 295.079 158.143 293.84C154.315 292.69 150.734 290.883 147.537 288.504ZM308.024 176.604C315.763 177.366 323.428 179.472 330.541 182.727C356.835 190.306 360.627 221.039 357.465 244.329C356.155 262.04 351.096 279.362 340.462 293.764C312.149 336.878 265.254 330.051 220.835 324.349C219.234 323.236 216.521 324.026 214.978 322.557C215.139 322.501 215.284 322.425 215.409 322.33C214.667 321.752 214.094 320.739 213.922 319.662L213.602 319.693V319.693C213.289 313.007 213.54 306.451 213.438 299.817C228.034 295.82 243.687 293.778 258.479 289.797C260.16 290.968 262.099 289.62 263.741 288.984C267.999 287.176 272.294 285.458 276.621 283.822L277.704 283.415C280.525 282.36 283.343 281.277 286.138 280.148L287.184 279.723C288.785 279.069 292.827 276.65 294.573 278.16L294.432 278.464C293.397 280.72 289.83 289.066 294.215 287.416C297.775 284.919 299.622 267.51 303.148 267.356C304.361 270.597 305.23 273.961 305.428 277.426C305.5 278.206 306.526 278.863 307.143 278.135C311.326 272.634 305.007 266.643 304.839 260.838C304.44 254.087 307.431 247.77 308.922 241.309L309.013 240.863C309.887 236.671 311.247 231.589 310.886 227.829L310.018 231.093C309.147 234.359 308.256 237.625 307.233 240.844C304.693 248.886 300.109 257.171 302.656 265.775C297.545 265.945 296.681 274.001 294.761 277.68C291.655 273.655 269.797 283.306 264.81 284.854L263.848 283.764C248.226 266.076 236.95 254.106 212.738 268.097C216.921 254.624 217.325 240.314 218.038 226.323C217.794 223.661 219.334 216.64 217.162 215.188C216.785 215.243 216.418 215.356 216.072 215.508L216.072 216.887C216.062 219.558 215.937 223.988 214.815 224.994L214.301 230.284C212.952 244.038 211.423 257.782 207.31 271.037C197.437 276.549 188.427 283.451 179.952 290.897L178.986 290.545C168.514 286.717 155.914 281.809 145.207 286.588C145.386 283.89 146.428 281.308 147.883 279.026C150.308 278.425 151.896 275.871 153.632 274.17C159.135 268.266 164.785 262.498 170.162 256.475C193.106 231.827 202.867 191.354 238.897 181.794C241.278 201.711 266.794 204.889 282.171 198.073L282.754 197.85C292.313 194.166 303.114 188.606 306.471 178.476L306.611 178.183C306.956 177.468 307.367 176.74 308.024 176.604ZM302.353 289.944C302.325 289.914 302.27 289.955 302.294 289.989C306.774 295.603 310.419 303.26 305.967 309.966C305.144 311.475 307.068 312.926 308.299 311.775C314.478 304.767 307.622 295.269 302.353 289.944ZM146.495 291.213C148.958 292.969 151.599 294.428 154.398 295.579C154.389 295.9 154.546 296.245 154.688 296.497C151.004 296.79 147.169 297.74 144.583 300.422C144.457 299.441 144.334 298.457 144.24 297.473C144.002 294.942 144.436 292.677 146.495 291.213ZM315.889 266.396L315.86 266.261C315.84 266.108 315.607 266.097 315.614 266.261C315.699 268.268 317.161 269.695 318.4 271.124C320.238 273.244 322.076 275.364 323.914 277.483C326.988 281.176 331.516 284.889 330.498 290.239C330.479 292.14 332.864 292.547 333.831 291.149C337.679 283.821 325.566 277.586 321.483 272.857C319.566 270.811 316.545 269.305 315.889 266.396V266.396ZM258.213 288.399C258.156 288.49 258.115 288.589 258.093 288.69C257.448 288.758 256.805 288.832 256.163 288.91L258.213 288.399V288.399ZM354.564 271.258C354.449 272.024 354.341 272.792 354.238 273.56L354.136 274.328L354.121 274.261C354.068 274.062 353.969 273.889 353.839 273.75L353.795 273.705C354.062 272.894 354.318 272.078 354.564 271.258ZM177.716 263.332C176.173 263.167 183.167 268.189 183.553 268.811C184.117 269.3 184.776 268.43 184.174 268.006C182.001 266.475 179.86 264.904 177.716 263.332ZM191.323 248.559C190.249 248.12 189.52 249.906 190.538 250.404C194.249 252.216 198.173 253.499 201.592 255.884C201.742 255.988 201.93 255.744 201.787 255.632L201.377 255.308C198.227 252.81 195.082 250.096 191.323 248.559ZM353.282 225.978C352.245 230.855 346.634 232.457 342.28 233.756L340.919 234.273C337.074 235.743 333.09 237.396 330.324 240.502C329.239 244.005 336.976 237.903 338.056 237.594C343.34 234.322 352.887 233.766 353.282 225.978ZM238.738 180.441C238.709 180.689 238.694 180.943 238.687 181.196C238.362 181.196 238.039 181.198 237.713 181.209C238.092 180.987 238.439 180.734 238.738 180.441Z" fill="#1A1A1A"/>
<path fill-rule="evenodd" clip-rule="evenodd" d="M257.958 172.948C263.511 172.981 268.231 171.4 271.833 168.785C276.327 167.178 281.748 164.699 285.041 162.096C286.325 162.424 287.862 161.056 288.845 160.334C294.956 155.756 299.753 149.056 301.175 142.344C303.369 145.123 306.492 145.238 309.483 143.857C315.753 140.29 315.519 132.78 313.261 127.169C318.007 116.488 321.296 88.2926 314.052 76.9133C312.57 75.2107 310.395 74.1923 308.83 72.4462C307.437 70.9213 306.112 69.3615 304.491 68.1549C299.545 64.3792 291.027 62.369 285.693 61.4235C263.429 56.5953 246.323 65.2735 226.155 72.5936C227.316 75.5048 228.922 78.1599 230.762 80.6355C225.755 82.51 228.055 86.7245 231.939 88.8611L234.251 87.7337C230.647 100.67 222.351 132.84 225.93 143.171C228.785 159.289 241.312 173.065 257.958 172.948Z" fill="white"/>
<path fill-rule="evenodd" clip-rule="evenodd" d="M254.74 174.336C261.952 175.078 270.518 173.368 275.325 167.493C275.469 167.317 275.532 167.118 275.536 166.925C275.54 166.712 275.469 166.505 275.345 166.344C275.215 166.175 275.03 166.058 274.818 166.019C274.639 165.987 274.436 166.008 274.226 166.126L273.784 166.373C270.501 168.192 267.091 169.743 263.37 170.407C259.54 171.09 255.639 171.014 251.842 170.146C244.926 168.565 239.329 164.533 235.209 159.217C230.612 153.284 227.851 145.753 227.147 138.221C226.294 129.094 228.273 120.022 230.319 111.184C232.469 101.898 234.82 92.659 237.55 83.5273C237.633 83.2524 237.655 82.9951 237.631 82.7582C238.436 82.4417 239.294 82.5296 240.147 82.8185C241.705 83.3463 243.258 84.5367 244.553 85.5193C245.022 85.8752 245.459 86.2059 245.851 86.4751C247.457 87.5772 249.212 88.3703 251.175 88.495C253.216 88.6244 255.218 87.988 257.072 87.1916C258.014 86.7869 258.941 86.3672 259.864 85.9492C262.492 84.7588 265.09 83.5801 267.928 82.8141C271.731 81.7874 275.658 81.2817 279.597 81.3179C286.627 81.3824 293.678 83.1974 297.987 89.161C299.732 91.5767 300.87 94.3533 299.982 97.3347C299.5 98.9566 298.589 100.429 297.594 101.783L297.253 102.244C296.708 102.988 296.234 103.728 296.091 104.516C295.971 105.176 296.065 105.875 296.535 106.641C296.831 107.123 297.207 107.555 297.586 107.986C297.859 108.296 298.133 108.607 298.369 108.94C298.843 109.614 299.264 110.339 299.594 111.095C300.239 112.576 300.513 114.168 300.571 115.774C300.64 117.712 300.368 119.608 300.099 121.506C299.908 122.852 299.717 124.199 299.64 125.563C299.627 125.801 299.699 125.978 299.801 126.11C299.925 126.27 300.107 126.371 300.313 126.399C300.376 126.408 300.441 126.409 300.506 126.403C300.474 126.535 300.446 126.666 300.421 126.799C300.552 126.63 300.69 126.467 300.837 126.309C300.846 126.304 300.856 126.3 300.865 126.295C301.016 126.211 301.144 126.084 301.225 125.921C301.432 125.728 301.652 125.544 301.882 125.372C303.082 124.474 304.483 123.942 305.888 123.924C307.242 123.907 308.6 124.37 309.644 125.347C311.719 127.289 312.327 130.459 312.349 133.18C312.371 135.959 311.73 139.293 309.315 141.018C308.346 141.71 307.163 142.126 305.971 142.138C304.983 142.147 304.037 141.797 303.106 141.463C302.819 141.36 302.534 141.257 302.249 141.164C301.925 141.059 301.63 141.065 301.373 141.143C301.083 141.23 300.837 141.41 300.653 141.649C300.47 141.888 300.35 142.188 300.312 142.501C300.276 142.804 300.318 143.119 300.446 143.403C300.478 143.475 300.512 143.544 300.547 143.612L300.016 144.488C297.982 147.834 295.913 151.118 293.199 153.994C291.641 155.645 289.99 157.203 288.179 158.566L287.918 158.761C287.762 158.876 287.588 159.018 287.403 159.169C286.875 159.603 286.242 160.184 285.651 160.207C285.476 160.214 285.323 160.192 285.183 160.173C284.847 160.129 284.564 160.116 284.287 160.23C284.064 160.321 283.832 160.491 283.594 160.844C283.433 161.082 283.351 161.381 283.351 161.684C283.351 161.989 283.434 162.294 283.583 162.535C283.891 163.034 284.263 163.343 284.667 163.518C285.117 163.714 285.615 163.743 286.132 163.647C287.406 163.408 288.817 162.35 289.714 161.659L289.888 161.525C291.877 160.004 293.762 158.32 295.419 156.437C298.24 153.231 300.775 149.452 302.077 145.323C302.994 145.928 304.128 146.215 305.313 146.26C307.04 146.326 308.867 145.88 310.214 145.24C313.182 143.828 314.985 141.158 315.829 138.087C316.81 134.521 316.492 130.422 315.25 127.218C315.214 127.125 315.176 127.033 315.137 126.938C318.961 117.221 320.137 106.431 319.809 96.0618C319.656 91.2079 319.326 86.1153 318.185 81.3814C317.673 79.2596 316.784 77.239 315.365 75.5686C314.555 74.6161 313.562 73.8745 312.565 73.135C311.7 72.4945 310.833 71.8554 310.103 71.0556L309.758 70.6759C309.683 70.5933 309.609 70.5108 309.534 70.4285C308.274 69.0352 307.047 67.6832 305.518 66.5405C303.744 65.2156 301.787 64.1786 299.753 63.3173C295.371 61.4626 290.656 60.3505 285.991 59.4902C275.898 57.6292 265.538 57.5374 255.569 60.1533C250.934 61.3694 246.436 63.0339 241.946 64.6965C241.529 64.8509 241.112 65.0052 240.695 65.1592C237.206 66.448 233.714 67.7313 230.223 69.0146C228.6 69.611 226.977 70.2074 225.355 70.8044C225.003 70.9339 224.658 71.213 224.462 71.5598C224.27 71.8981 224.213 72.2927 224.368 72.6856C225.363 75.2157 226.62 77.5894 228.149 79.8061C227.617 80.1686 227.165 80.6507 226.823 81.2149C226.391 81.9286 226.134 82.7735 226.117 83.6698C226.059 86.6717 228.782 88.7067 231.042 90.1785C231.252 90.3158 231.461 90.3969 231.662 90.4341C229.473 98.8309 227.377 107.256 225.596 115.748L225.474 116.337C223.639 125.224 222.455 134.294 224.19 143.299C225.684 151.054 229.155 158.538 234.578 164.315C239.893 169.977 247.024 173.541 254.74 174.336ZM302.223 123.21C303.167 120.205 303.667 116.934 303.306 113.888C303.079 111.973 302.505 110.129 301.57 108.441C301.035 107.474 300.382 106.579 299.67 105.736L299.424 105.453C299.3 105.309 299.176 105.176 299.138 105.009C299.116 104.912 299.138 104.806 299.197 104.68C299.327 104.4 299.569 104.13 299.795 103.866C299.939 103.699 300.079 103.534 300.197 103.374C302.266 100.564 303.81 97.2193 303.308 93.6561C302.818 90.1797 300.547 86.9393 298.129 84.4972C292.804 79.1198 284.549 77.8842 277.318 78.1807C273.108 78.3533 268.905 79.0975 264.896 80.3974C262.919 81.0386 260.986 81.8194 259.108 82.7144L258.692 82.9147C258.467 83.0238 258.243 83.134 258.019 83.2444C256.551 83.9666 255.077 84.6959 253.483 85.0885C250.37 85.8551 248.259 84.2405 246.04 82.6121C245.279 82.054 244.507 81.4882 243.686 80.9917L243.517 80.8915C242.036 80.0305 240.265 79.4512 238.564 79.4771C237.086 79.4997 235.66 79.973 234.5 81.0915C234.261 81.3213 234.124 81.572 234.06 81.8216C233.931 82.0022 233.828 82.2175 233.76 82.4719C233.344 84.0369 232.93 85.6031 232.518 87.1697L232.18 86.9516C231.181 86.3006 230.095 85.5565 229.604 84.4673C229.415 84.0481 229.442 83.3496 229.68 82.8361C229.763 82.6567 229.873 82.4972 230.025 82.3976C230.136 82.3252 230.269 82.2912 230.424 82.3037C230.8 82.3523 231.146 82.2971 231.439 82.1728C231.778 82.0294 232.047 81.7935 232.222 81.5093C232.401 81.2182 232.483 80.876 232.439 80.5211C232.402 80.216 232.271 79.8973 232.012 79.5979C230.307 77.6269 228.871 75.4526 227.78 73.0926L234.998 70.4141C237.571 69.4595 240.145 68.5062 242.72 67.5565L244.13 67.0369C248.813 65.3142 253.522 63.6306 258.392 62.5215C268.069 60.3175 278.161 60.8355 287.812 62.9102L288.395 63.0365C292.444 63.9223 296.549 64.9939 300.266 66.8568C302.09 67.7711 303.825 68.8829 305.314 70.2875C305.972 70.9078 306.566 71.587 307.161 72.2653C307.995 73.2158 308.83 74.1637 309.821 74.9644L310.741 75.7034C312.11 76.8096 313.344 77.8875 314.116 79.6031C314.924 81.3968 315.309 83.3783 315.624 85.3089C316.417 90.1723 316.73 95.1137 316.7 100.04C316.65 108.312 315.397 116.415 313.814 124.489C312.544 122.666 310.76 121.253 308.471 120.952C306.978 120.755 305.498 121.034 304.215 121.696C303.473 122.079 302.798 122.59 302.223 123.21ZM304.621 133.032C306.293 132.382 308.049 132.169 309.818 132.48C310.003 132.513 310.18 132.474 310.328 132.387C310.479 132.299 310.598 132.161 310.662 132.007C310.736 131.83 310.74 131.638 310.675 131.468C310.617 131.32 310.509 131.177 310.309 131.081C308.394 130.164 306.265 129.76 304.152 130.047L303.943 130.077C302.863 130.238 301.343 130.576 300.204 131.242C299.309 131.765 298.654 132.486 298.491 133.428C298.406 133.918 298.528 134.431 298.81 134.802C299.082 135.161 299.499 135.401 300.039 135.385C300.991 135.358 301.554 134.955 302.232 134.432C302.315 134.369 302.399 134.304 302.487 134.238C303.142 133.746 303.858 133.329 304.621 133.032Z" fill="#1A1A1A"/>
<path fill-rule="evenodd" clip-rule="evenodd" d="M265.802 138.208C261.54 137.688 257.409 139 253.242 139.661C251.042 140.01 248.84 140.271 246.613 140.368C246.166 140.388 245.717 140.399 245.269 140.408C245.228 140.012 245.007 139.647 244.529 139.429C243.548 138.982 242.763 138.781 241.687 138.824C240.701 138.863 239.712 138.965 238.742 139.143C236.98 139.468 235.21 140.206 233.921 141.486C230.938 144.45 231.392 149.211 233.697 152.439C238.459 159.11 247.15 159.419 254.594 159.332L255.281 159.323C262.058 159.226 271.755 160.242 274.834 152.487C275.966 149.636 275.809 146.33 274.423 143.595C272.769 140.333 269.288 138.633 265.802 138.208ZM244.631 149.315L244.692 149.317C247.817 149.438 250.941 149.523 254.068 149.579C253.974 150.386 253.879 151.194 253.769 152C253.684 152.634 253.592 153.267 253.496 153.9C253.456 154.168 253.308 154.584 253.35 154.849L253.365 154.954C253.204 155.027 253.059 155.144 252.95 155.315C252.912 155.374 252.885 155.434 252.858 155.493C250.43 155.512 247.818 155.465 245.344 155.021L245.339 154.967C245.294 154.649 245.162 154.435 244.988 154.288C244.814 153.275 244.83 152.194 244.762 151.188C244.72 150.564 244.675 149.939 244.631 149.315ZM256.456 149.622C258.708 149.66 260.961 149.69 263.213 149.662L264.235 149.647C264.019 150.811 263.785 151.972 263.589 153.145C263.386 154.367 264.455 155.143 265.381 155.112C265.277 155.129 265.173 155.147 265.069 155.162C262.177 155.573 259.174 155.464 256.239 155.461C256.397 154.534 256.333 153.488 256.357 152.714L256.361 152.594C256.406 151.603 256.438 150.612 256.456 149.622ZM271.754 149.408C271.676 150.014 271.524 150.606 271.297 151.158C270.335 153.49 268.131 154.578 265.799 155.036C266.204 154.896 266.525 154.558 266.606 153.98C266.808 152.542 266.881 151.08 266.887 149.62C268.512 149.605 270.148 149.57 271.754 149.408ZM236.155 148.91C237.313 149.185 238.657 149.059 239.793 149.111C240.856 149.159 241.92 149.202 242.984 149.245C242.934 149.975 242.885 150.705 242.832 151.435C242.763 152.378 242.757 153.375 242.577 154.314C240.437 153.58 238.519 152.402 237.08 150.517C236.721 150.048 236.4 149.497 236.155 148.91ZM266.291 142.033C268.217 142.492 270.04 143.461 271.02 145.234C271.602 146.285 271.857 147.532 271.808 148.761C270.18 148.57 268.524 148.498 266.876 148.438C266.871 148.14 266.864 147.841 266.855 147.544L266.829 146.781C266.784 145.327 266.762 143.501 266.291 142.033ZM256.321 142.211L257.169 142.115C259.524 141.845 261.878 141.562 264.234 141.724C264.574 141.748 264.921 141.785 265.267 141.836C264.851 143.347 264.886 145.121 264.712 146.617C264.645 147.195 264.56 147.769 264.466 148.34L264.057 148.321C261.53 148.183 259 148.099 256.471 147.998C256.471 147.52 256.468 147.042 256.461 146.564L256.451 146.086C256.423 144.865 256.501 143.489 256.321 142.211ZM244.493 142.017C246.96 142.417 249.51 142.502 251.933 142.505C252.901 142.507 253.868 142.447 254.835 142.361C254.772 142.878 254.739 143.402 254.692 143.913C254.596 144.944 254.487 145.974 254.369 147.003L254.263 147.904C251.154 147.762 248.045 147.609 244.937 147.45L244.498 147.427L244.376 145.696C244.292 144.542 244.2 143.388 244.07 142.24L244.167 142.204C244.282 142.157 244.391 142.092 244.493 142.017ZM243.422 142.446C243.286 144.078 243.211 145.716 243.111 147.351L241.062 147.241C240.721 147.222 240.379 147.203 240.038 147.183C238.71 147.106 237.004 146.702 235.691 147.079C235.591 145.879 235.932 144.71 237.009 143.903C238.9 142.487 241.307 142.992 243.422 142.446ZM250.423 127.86C247.372 126.103 239.716 124.307 239.231 129.829C239.008 132.37 240.887 134.476 243.08 135.415L243.163 135.45C245.22 136.301 248.867 137.262 250.647 135.417C252.129 133.882 250.164 131.129 248.323 132.387C247.376 133.033 245.384 132.557 244.328 132.249L244.262 132.23C243.123 131.893 241.604 130.815 242.075 129.404C242.492 128.156 244.266 127.928 245.377 127.887C247.036 127.827 248.65 128.215 250.293 128.341C250.554 128.361 250.634 127.982 250.423 127.86Z" fill="#1A1A1A"/>
<path fill-rule="evenodd" clip-rule="evenodd" d="M272.965 110.768C270.503 108.26 264.083 105.834 262.399 110.464C262.078 111.346 262.761 112.536 263.681 112.719C265.188 113.018 266.524 112.365 268.02 112.482C269.232 112.578 270.495 112.982 271.464 113.731C274.146 115.806 274.736 119.315 276.605 121.956C276.696 122.085 276.873 122.031 276.89 121.879C277.315 118.034 275.661 113.514 272.965 110.768Z" fill="#FDB241"/>
<path fill-rule="evenodd" clip-rule="evenodd" d="M272.965 110.768C270.503 108.26 264.083 105.834 262.399 110.464C262.078 111.346 262.761 112.536 263.681 112.719C265.188 113.018 266.524 112.365 268.02 112.482C269.232 112.578 270.495 112.982 271.464 113.731C274.146 115.806 274.736 119.315 276.605 121.956C276.696 122.085 276.873 122.031 276.89 121.879C277.315 118.034 275.661 113.514 272.965 110.768Z" fill="#FDB241"/>
<path fill-rule="evenodd" clip-rule="evenodd" d="M232.419 109.999C234.881 107.492 241.3 105.065 242.985 109.696C243.305 110.578 242.622 111.767 241.703 111.95C240.196 112.249 238.86 111.597 237.363 111.714C236.152 111.809 234.888 112.213 233.92 112.962C231.238 115.037 230.648 118.547 228.778 121.187C228.687 121.316 228.511 121.262 228.494 121.11C228.068 117.266 229.723 112.746 232.419 109.999Z" fill="#FDB241"/>
<path d="M190.523 453.978C220.588 448.314 251.492 446.015 281.863 442.55C312.065 439.104 342.197 434.845 372.611 434.169" stroke="#1A1A1A" stroke-width="4.22677" stroke-linecap="round"/>
<path d="M361.945 444.836C332.846 442.967 303.056 446.56 274.075 448.814C240.218 451.448 206.368 453.745 173 460.073" stroke="#1A1A1A" stroke-width="4.22677" stroke-linecap="round"/>
<path d="M219.204 479.12C238.122 468.548 258.498 463.011 279.392 457.787" stroke="white" stroke-width="4.22677" stroke-linecap="round"/>
<path fill-rule="evenodd" clip-rule="evenodd" d="M269.646 116.514C266.608 115.502 263.33 117.118 261.859 119.8C261.343 119.949 260.828 120.346 260.899 120.954C261.003 121.829 261.159 122.38 261.766 123.044C262.717 124.081 264.496 123.551 264.891 122.273L264.908 122.216C265.357 120.565 267.177 119.475 268.836 120.053C270.774 120.728 270.717 122.771 272.076 123.961C272.236 124.101 272.428 124.123 272.619 124.031C274.062 123.335 273.803 121.239 273.288 120.039C272.613 118.465 271.302 117.065 269.646 116.514Z" fill="#1A1A1A"/>
<path fill-rule="evenodd" clip-rule="evenodd" d="M238.666 115.538C234.491 115.343 231.894 119.893 232.854 123.622C233.02 124.265 233.741 124.897 234.437 124.824L234.612 124.808C234.701 124.8 234.79 124.788 234.873 124.766C235.533 124.583 236.126 123.897 236.077 123.186L236.065 122.979C235.967 121.217 236.159 119.188 238.255 118.761C240.034 118.4 241.026 120.108 241.048 121.681C241.052 121.96 241.366 122.155 241.613 122.005C242.899 121.224 243.121 119.671 242.63 118.333C242.008 116.637 240.451 115.621 238.666 115.538Z" fill="#1A1A1A"/>
</svg>
