<svg width="221" height="322" viewBox="0 0 221 322" fill="none" xmlns="http://www.w3.org/2000/svg">
<path fill-rule="evenodd" clip-rule="evenodd" d="M197.846 316.028C196.422 318.192 193.619 317.859 192.416 316.183C178.717 319.374 164.673 318.116 150.783 317.334C111.642 315.742 72.2811 320.733 33.2989 315.512C29.1637 314.685 24.3506 315.08 20.967 312.212C15.5552 305.871 16.7207 296.244 17.5828 288.521C24.493 244.986 34.3172 201.051 39.2178 157.236C39.4915 153.063 37.7713 147.877 36.2292 143.953C35.8483 143.224 33.4408 142.508 32.1915 141.666C28.3575 138.915 28.9792 133.984 32.3028 131.09C43.064 123.506 58.0444 126.156 69.46 128.954C71.6476 120.739 74.1068 115.336 78.2721 114.801C86.2001 113.782 105.432 110.67 111.356 114.801C114.19 116.777 116.009 123.74 118.049 127.132C132.926 126.868 163.121 106.966 169.329 129.377C174.373 129.725 179.368 134.128 178.403 139.411C184.944 145.19 179.785 153.856 179.876 161.049C180.736 176.311 188.995 189.96 192.432 204.704C200.286 233.298 209.177 285.312 199.434 313.223C199.644 313.114 200.102 313.278 199.805 313.51C198.702 313.822 198.559 315.211 197.846 316.028Z" fill="#1A1A1A"/>
<path fill-rule="evenodd" clip-rule="evenodd" d="M26.7999 308.756C28.6271 294.09 29.8977 276.384 29.9123 261.596C29.9137 260.203 27.7523 260.205 27.7509 261.596C27.7364 276.384 26.4657 294.09 24.6386 308.756C24.4667 310.135 26.6303 310.118 26.7999 308.756ZM40.3358 217.818C43.1591 219.544 46.8666 218.347 49.6607 217.204C50.933 216.683 50.3726 214.593 49.0863 215.12C46.9598 215.99 43.8518 217.271 41.6075 216.057C39.3675 214.846 39.2664 211.514 39.2497 209.316C39.2391 207.924 37.078 207.925 37.0883 209.316C37.111 212.307 37.5111 216.09 40.3358 217.818ZM45.5614 284.934C48.4099 283.474 50.8403 281.478 52.7964 278.945C53.6466 277.844 51.7681 276.769 50.93 277.854C49.2085 280.084 46.9655 281.789 44.4705 283.068C43.231 283.703 44.326 285.567 45.5614 284.934ZM59.2527 209.513C64.1401 229.095 67.4199 249.028 69.0275 269.147C69.3544 273.231 69.584 277.31 69.7137 281.392C69.8434 282.456 69.9677 283.523 70.0838 284.59C70.5242 288.626 70.8619 292.727 70.8322 296.789C70.8187 298.613 70.762 300.428 70.6377 302.246C70.8538 301.638 71.0537 301.028 71.2483 300.42C71.6454 299.175 71.9075 297.883 72.3127 296.646C72.6478 295.622 73.08 294.642 73.4826 293.651V293.648C73.361 289.588 73.6366 285.49 73.7771 281.449C73.9581 276.214 74.1823 270.984 74.2985 265.746C74.5308 255.27 74.4147 244.787 74.0364 234.317C73.2773 213.219 71.359 192.222 69.4246 171.211C68.887 165.368 68.3088 159.528 67.909 153.674C67.5064 147.758 67.3443 141.832 67.2984 135.9C67.2957 135.473 67.9441 135.36 68.0629 135.773C68.1683 134.365 68.3547 132.961 68.6654 131.602C64.005 134.573 59.0906 137.142 54.2734 139.844C51.7365 141.267 49.2104 142.715 46.5952 143.99C45.1578 144.692 43.707 145.338 42.2265 145.948C40.6919 146.581 39.2249 147.45 37.5363 147.01C37.3904 146.972 37.2526 146.918 37.1203 146.848C37.3121 147.212 37.5039 147.575 37.6876 147.942C38.3252 149.209 38.9331 150.481 39.5221 151.764C39.6788 151.881 39.8166 152.04 39.9246 152.248C40.211 152.807 40.4893 153.372 40.7595 153.944C40.8135 153.893 40.8675 153.842 40.9216 153.79C41.1485 153.577 41.4619 153.898 41.262 154.131C41.1701 154.236 41.081 154.339 40.9918 154.444C42.7533 158.234 44.1852 162.218 45.6604 166.109C47.4732 170.89 49.1915 175.706 50.8098 180.555C54.0005 190.093 56.8157 199.756 59.2527 209.513ZM129.127 280.578C138.135 285.401 146.552 291.165 154.648 297.382C155.752 298.229 156.827 296.351 155.739 295.516C147.643 289.299 139.226 283.535 130.218 278.711C128.991 278.055 127.9 279.921 129.127 280.578ZM159.551 224.088C160.019 224.054 160.474 223.782 160.593 223.295C161.323 220.308 161.894 217.054 161.216 214.007C160.913 212.648 158.83 213.227 159.132 214.582C159.667 216.984 159.242 219.581 158.686 221.977C150.83 222.321 143.079 219.502 135.562 217.609C134.21 217.269 133.64 219.354 134.987 219.693C142.961 221.701 151.208 224.706 159.551 224.088ZM3.14908 303.767C3.14098 303.748 3.13287 303.726 3.12746 303.707C2.66547 302.308 2.65466 300.682 2.60333 299.215C2.51418 296.606 2.60873 293.991 2.84378 291.39C3.3409 285.914 4.41078 280.528 5.68869 275.187C8.2202 264.609 11.7973 254.317 13.7398 243.595C17.5519 222.549 16.6468 200.636 24.1279 180.336C27.2375 171.897 31.6792 163.785 37.7148 157.081C37.2744 155.741 36.8448 154.398 36.4261 153.05C35.6939 150.705 34.9455 148.285 34.4943 145.87C34.4835 145.805 34.47 145.738 34.4619 145.67C31.8926 144.563 29.5556 142.475 29.1558 139.698C28.9828 138.498 29.1828 137.169 29.7015 136.01C28.6424 135.033 27.9616 133.763 28.1237 132.061C28.4263 128.857 32.1682 128.033 34.7726 127.407C37.7337 126.696 40.8055 126.499 43.8342 126.834C45.3633 127.002 46.8763 127.282 48.3541 127.704C49.6374 128.069 51.0342 128.444 52.0636 129.325C52.1852 129.427 52.0852 129.627 51.9393 129.627C49.8563 129.619 47.7814 128.855 45.6767 128.754C43.4721 128.652 41.2729 128.833 39.1116 129.287C36.9988 129.73 34.8915 130.378 32.9706 131.38C32.4302 131.664 31.6386 131.856 32.2735 132.428C32.7382 132.847 33.6514 132.883 34.2485 132.944C35.5696 133.082 36.7097 133.855 36.8772 135.265C37.0258 136.51 36.2829 137.92 34.959 138.201C34.8861 138.218 34.8185 138.236 34.7591 138.261C34.724 138.328 34.67 138.385 34.6754 138.293C34.6754 138.293 34.6727 138.29 34.6727 138.293C34.6402 138.49 34.6294 138.568 34.6294 138.582C34.6375 138.566 34.651 138.498 34.6618 138.444C34.6537 138.493 34.6375 138.571 34.6159 138.687C34.6456 138.56 34.6213 138.871 34.6456 138.92C35.3481 140.216 37.4257 140.581 38.6361 141.14C38.8711 141.248 39.0737 141.375 39.2466 141.518C39.533 141.418 39.8248 141.318 40.1193 141.208C41.5701 140.665 43.0182 140.138 44.488 139.649C47.3248 138.701 50.1967 137.855 53.0335 136.905C58.4045 135.105 63.5972 132.834 68.8682 130.775C69.0357 130.154 69.2303 129.546 69.4599 128.955C69.5058 128.831 69.7274 128.79 69.7517 128.955C69.8327 129.479 69.8976 130.005 69.9516 130.535C69.9732 130.583 69.9786 130.637 69.9678 130.689C70.2731 133.768 70.192 136.921 70.3488 139.998C70.5433 143.833 71.0863 147.642 71.2403 151.481V151.551C71.8077 154.828 72.321 158.115 72.7857 161.413C73.3071 161.251 73.9042 161.284 74.5148 161.611C78.8321 163.915 83.6844 165.198 88.5664 165.484C91.025 165.627 93.4592 165.547 95.9043 165.263C97.5118 165.079 99.095 164.744 100.681 164.425C99.846 160.927 98.9491 157.445 97.9359 153.999C97.1011 151.165 96.1717 148.345 95.0235 145.619C93.8645 142.866 92.4217 140.238 91.079 137.569C90.4603 136.335 91.1898 134.446 92.7973 134.576C93.2728 134.614 93.7483 134.644 94.2265 134.665C98.8788 134.887 103.718 134.368 108.311 133.906C113.538 133.377 118.836 132.828 124.018 131.967C124.402 131.904 124.559 132.426 124.18 132.553C121.722 133.379 119.293 134.314 116.772 134.933C114.179 135.573 111.569 136.156 108.937 136.613C106.417 137.048 103.885 137.412 101.345 137.72C99.6893 137.923 98.0143 138.026 96.3473 138.161C98.5924 141.748 100.141 145.794 101.489 149.779C103.22 154.895 104.493 160.16 105.738 165.414C108.402 176.676 110.599 188.051 112.317 199.496C113.549 207.703 114.546 215.942 115.294 224.203C115.516 221.693 115.786 219.192 116.091 216.693C117.113 208.397 118.604 200.156 120.598 192.038C120.42 191.725 120.336 191.349 120.395 190.985C120.755 188.753 121.7 186.811 122.53 184.742C123.354 181.852 124.243 178.98 125.199 176.13C126.285 172.248 127.503 168.426 129.062 164.693C130.254 161.848 131.613 159.077 133.126 156.389C134.933 152.632 136.919 148.955 139.099 145.441C139.213 145.114 139.396 144.809 139.658 144.552C140.056 143.925 140.458 143.307 140.869 142.693C141.136 142.294 141.904 142.537 141.701 143.045C141.606 143.283 141.512 143.52 141.415 143.755C150.295 141.535 159.003 144.93 167.462 147.437C169.596 148.072 171.752 148.644 173.94 149.058C175.661 149.382 177.666 149.776 179.382 149.419C180.53 149.182 181.038 148.661 180.479 147.434C179.9 146.165 178.323 145.33 176.953 144.768C176.437 144.657 175.929 144.46 175.44 144.163C174.3 143.471 173.8 142.029 174.338 140.8C174.827 139.69 176.253 138.733 177.515 139.241C177.696 139.314 177.874 139.384 178.052 139.455C178.071 139.428 178.093 139.39 178.112 139.336C178.293 138.841 178.371 139.433 178.293 138.725C178.163 137.569 176.939 136.518 176.102 135.856C174.019 134.206 171.009 132.985 168.321 133.609C168.118 133.655 167.916 133.712 167.716 133.782C164.946 134.741 163.598 130.754 165.811 129.268C165.946 129.179 166.116 129.065 166.303 128.933C167.224 128.293 168.572 127.215 168.205 126.243C167.751 125.035 165.073 124.341 164.06 123.93C160.397 122.444 156.439 121.602 152.489 121.429C148.515 121.256 144.489 121.693 140.655 122.766C138.775 123.29 136.843 124.087 135.066 124.892C133.469 125.613 129.994 126.567 129.773 128.587C129.724 129.033 129.089 129.184 128.952 128.698C127.863 124.819 132.088 122.315 134.876 120.713C136.705 119.659 138.78 119.003 140.788 118.357C142.711 117.736 144.676 117.28 146.68 117.004C150.984 116.415 155.339 116.491 159.608 117.317C163.496 118.071 167.821 119.357 170.963 121.858C172.892 123.393 173.765 125.835 172.989 128.217C172.962 128.295 172.935 128.376 172.908 128.455C176.38 129.076 179.665 131.064 181.862 133.836C183.667 136.113 184.612 139.282 182.997 141.932C183.064 141.98 183.132 142.032 183.197 142.086C184.737 143.317 185.882 145.106 186.222 147.061C186.89 150.919 184.558 153.617 181.297 154.649C182.105 155.438 182.88 156.276 183.64 157.113C185.339 158.99 186.963 161.035 188.395 163.121C191.296 167.346 193.776 171.946 195.946 176.581C200.406 186.101 203.219 196.347 204.71 206.736C205.461 211.971 205.964 217.233 206.156 222.517C206.377 228.541 206.153 234.568 206.269 240.594C206.383 246.386 207.023 252.037 208.317 257.683C209.557 263.083 211.211 268.374 212.707 273.704C214.396 279.706 216.255 285.682 217.146 291.87C217.597 295.02 217.922 298.178 217.67 301.363C217.416 304.607 216.238 307.381 215.152 310.399C214.877 311.169 214.037 311.479 213.364 311.314C213.213 312.76 212.667 314.17 211.854 315.391C210.127 317.979 207.469 319.629 204.424 320.229C200.993 320.901 197.456 320.742 193.982 320.618C190.213 320.483 186.441 320.361 182.672 320.204C178.727 320.041 174.781 319.874 170.835 319.706C170.966 315.662 171.121 311.62 171.297 307.578C172.248 285.729 173.747 263.867 173.786 241.989C173.863 241.944 173.938 241.891 174.01 241.821C175.786 240.104 177.967 238.977 180.016 237.633C181.175 236.873 180.091 235.002 178.925 235.767C177.197 236.9 175.397 237.907 173.778 239.176C173.769 236.899 173.749 234.621 173.704 232.344C173.676 230.953 171.515 230.953 171.542 232.344C171.678 239.208 171.633 246.074 171.477 252.937C170.975 275.179 169.394 297.38 168.674 319.613C158.084 319.161 147.492 318.705 136.9 318.319C128.284 318.006 119.668 317.692 111.053 317.379C109.245 317.314 108.229 316.022 108.008 314.334C107.603 311.228 108.365 308.016 110.088 305.404C110.267 305.134 110.477 304.893 110.712 304.688C110.672 302.827 110.596 300.963 110.702 299.102C110.858 296.26 111.093 293.418 111.299 290.579C111.715 284.893 112.036 279.196 112.163 273.496C112.423 262.097 112.233 250.686 111.588 239.303C110.294 216.561 107.281 193.964 102.351 171.719C101.991 170.098 101.629 168.477 101.254 166.859C97.4199 168.85 92.7568 169.566 88.5664 169.593C83.3143 169.625 78.1783 168.418 73.4341 166.222C73.4665 166.468 73.4989 166.711 73.5287 166.957C74.8525 177.492 75.9683 188.048 76.9409 198.619C78.8808 219.691 80.0695 240.851 79.9047 262.018C79.8588 267.883 79.6345 273.728 79.3563 279.585C79.0726 285.541 78.6376 291.835 76.9788 297.581C76.795 298.215 76.3871 298.58 75.917 298.713C75.8927 299.55 75.8386 300.39 75.7792 301.217C75.5874 303.905 75.0389 309.488 73.8664 311.925C72.7236 314.302 70.8188 316.188 68.39 317.225C65.3047 318.54 61.968 318.162 58.7098 317.951C44.542 317.028 30.385 315.79 16.2254 314.704C14.2531 314.553 12.2809 314.405 10.3113 314.251C8.55791 314.116 6.74506 313.996 5.18887 313.086C3.41925 312.052 2.03868 306.971 2.64928 304.869C2.76004 304.485 2.92754 304.107 3.14908 303.767Z" fill="white"/>
<path fill-rule="evenodd" clip-rule="evenodd" d="M43.4401 38.89C43.5308 35.657 48.2283 34.3147 49.5854 37.5166C49.6697 37.6023 49.7612 37.6847 49.8471 37.7586C49.4223 37.3938 50.3105 37.9973 50.455 38.0719C50.5787 38.1357 50.7051 38.1933 50.8313 38.2528C51.7041 30.0625 54.6674 21.233 62.3246 17.1219C73.0044 11.9374 85.345 10.9255 97.0617 11.4405C102.997 11.7931 109.851 12.7431 115.124 9.73724C116.767 8.80071 118.085 7.32643 119.941 6.74759C125.803 5.1603 128.461 11.1856 127.663 16.1405C130.163 16.1602 132.643 17.5458 133.722 19.8271C134.356 21.1773 134.345 22.6343 134.891 23.9893C136.567 27.4256 138.966 29.8956 137.61 34.0619C139.995 36.7788 138.635 40.8918 136.711 43.4929C135.76 44.8458 134.628 46.1446 133.932 47.6589C133.256 49.1089 134.276 50.8284 134.844 52.2029C139.041 62.1654 138.801 73.1369 136.543 83.5285C141.075 85.497 142.435 91.6505 139.48 95.525C138.463 96.8947 137.222 97.4029 135.816 98.2457C134.035 99.2265 135.489 103.155 134.919 105.053C134.145 109.685 129.931 112.537 125.766 109.529C123.122 109.129 120.99 116.829 119.07 118.761C117.887 120.318 116.574 121.717 115.147 123.007C110.893 133.964 89.0963 139.52 78.3198 138.885C67.0347 137.702 59.4215 128.108 53.0823 119.594C49.8271 115.057 47.71 109.979 46.94 104.44C46.1665 98.8742 46.5049 93.298 47.0278 87.7251C48.1262 75.8844 49.859 58.8256 50.9779 46.857C46.9343 46.5237 43.3175 43.0774 43.4401 38.89Z" fill="#1A1A1A"/>
<path fill-rule="evenodd" clip-rule="evenodd" d="M131.59 31.771C131.593 31.7878 131.588 31.8005 131.584 31.8183C131.583 31.8132 131.582 31.8105 131.581 31.8042C131.584 31.7907 131.587 31.7818 131.59 31.771Z" fill="#1A1A1A"/>
<path fill-rule="evenodd" clip-rule="evenodd" d="M131.591 31.9431C131.606 31.9274 131.627 31.9158 131.648 31.9002C131.648 31.9007 131.648 31.9012 131.649 31.9018C131.629 31.9147 131.61 31.9296 131.591 31.9431Z" fill="#1A1A1A"/>
<path fill-rule="evenodd" clip-rule="evenodd" d="M44.0835 40.4201C42.7552 39.3154 40.6629 40.3325 41.1129 42.1513C41.6025 44.1319 43.7232 45.4854 45.4738 46.2991C47.2757 47.1365 49.031 47.2979 50.9968 47.2065L51.0212 47.2011C50.4753 49.3918 50.1658 51.6691 49.7483 53.873C49.2184 56.6691 48.6972 59.4665 48.1837 62.2653C47.6871 64.9706 47.0592 67.6793 46.6775 70.3981C46.2927 73.1425 45.9232 75.8888 45.5451 78.6341C44.9141 83.2192 44.4048 87.8252 43.8677 92.4235L43.6118 94.6C43.0739 99.2069 42.6409 103.819 43.6602 108.404C44.6155 112.7 46.7675 116.708 49.2635 120.295C51.708 123.807 54.4387 127.184 57.4363 130.238C63.2183 136.13 70.3483 140.848 78.7087 141.724C82.3086 142.101 86.1534 141.681 89.5377 140.371L89.7624 140.283C93.1882 138.929 97.3835 136.611 98.2752 132.807C98.8226 130.473 96.4203 128.651 94.314 129.758C93.3381 130.272 92.6043 130.858 91.8032 131.593L91.661 131.724C91.0064 132.333 90.7544 132.52 89.999 132.996C88.4496 133.972 87.2882 134.434 85.5284 134.877C82.2837 135.694 78.7819 135.565 75.4881 134.599C68.4948 132.547 63.0695 127.194 58.4218 121.826C55.8982 118.912 53.5029 115.854 51.6556 112.457C49.7172 108.893 48.8225 105.151 48.8762 101.095C48.937 96.5195 49.5687 91.9258 49.9833 87.3716C50.4057 82.7287 50.7962 78.0874 51.1403 73.438C51.4626 69.0779 51.4937 64.6981 51.6064 60.3244L51.6286 59.5044C51.6947 57.1825 51.7406 54.8599 51.7933 52.5375C51.8454 50.2218 52.0285 47.8767 51.7903 45.5708C51.7733 45.4029 51.5473 45.3605 51.4922 45.5302C51.3517 45.9623 51.2288 46.4011 51.1127 46.8423C51.0949 46.8288 51.0749 46.8166 51.0506 46.8082C49.5101 46.2783 48.0914 45.2204 46.9355 44.0795C45.8325 42.9907 45.2564 41.3959 44.0835 40.4201ZM128.368 7.97756C127.4 3.99892 123.045 3.11025 119.825 5.0263C118.276 5.94769 117.036 7.27651 115.589 8.33254C114.151 9.38263 112.561 10.2259 110.884 10.8215C107.551 12.0046 104.036 12.4347 100.514 12.4501C91.9417 12.4877 83.5448 10.0761 74.9599 10.3451C68.3171 10.5533 61.2666 12.5185 56.4481 17.3256C53.8524 19.9151 52.1799 23.2443 51.2827 26.7787C50.8634 28.4306 50.5508 30.1226 50.3043 31.8106L50.244 32.2325C50.106 33.219 49.8845 34.2634 49.864 35.2605C49.8453 36.156 50.0717 37.093 50.1943 37.9793C50.4527 39.8475 53.3434 39.6347 53.7587 37.9793C54.7045 34.2102 54.3086 30.3202 55.4645 26.5641C56.4895 23.2332 58.4759 20.3209 61.3541 18.3291C73.4964 9.92632 89.0676 16.963 102.446 16.3093C105.716 16.1495 109.034 15.6437 112.118 14.5165C113.708 13.9352 115.274 13.2264 116.716 12.3347C118.037 11.5183 119.182 10.4925 120.405 9.54861L120.945 9.13811C121.783 8.50666 123.21 7.51943 124.056 8.35471C124.424 8.7183 124.446 9.5404 124.44 10.1682L124.436 10.4519C124.397 13.1171 123.855 15.7775 124.851 18.3524C125.305 19.5269 126.569 20.2674 127.77 19.6023L127.832 19.5666C130.373 18.0533 133.712 21.0941 131.76 23.6108L131.699 23.6869C130.601 25.0231 131.186 27.376 133.152 27.3702L133.223 27.3689C136.725 27.2595 138.279 31.6412 135.26 33.5557L135.167 33.6129C132.716 35.0813 134.866 38.6114 137.378 37.3993C137.165 37.5021 137.535 37.5007 137.747 37.7852C137.95 38.0582 137.966 38.2945 137.917 38.6395C137.771 39.6847 136.852 40.5655 136.109 41.2268C134.419 42.7292 132.324 43.7666 130.166 44.3982C121.521 46.9282 112.652 43.8334 104.229 41.9644C95.4473 40.0159 85.5291 39.231 77.8708 44.7602C77.7798 44.8256 77.8595 44.9719 77.9602 44.9135C83.4562 41.7184 90.1876 42.002 96.1954 43.3119C104.074 45.0298 111.883 48.2273 119.951 49.0698C117.686 53.0727 116.738 57.8005 117.343 62.3791C117.76 65.5309 119.013 68.2648 120.493 71.0352L120.775 71.5632C122.095 74.05 123.117 76.3993 123.133 79.2802C123.149 82.1425 127.4 82.7459 128.12 79.9561C129.756 73.6202 123.797 68.6296 121.365 63.4049C119.287 58.9385 119.223 53.7311 120.905 49.1579C122.802 49.3106 124.715 49.3266 126.646 49.1541C128.305 49.0057 130.012 48.7064 131.676 48.2327L132.341 51.0336C133.223 54.7644 134.04 58.4927 134.288 62.3677C134.47 65.2152 134.46 68.0767 134.183 70.9171C133.943 73.3704 133.437 75.7363 132.922 78.1314C132.48 78.7149 132.254 79.6079 132.378 80.3192C129.51 81.146 127.254 83.4116 126.43 86.4123C126.38 86.5951 126.635 86.6978 126.731 86.5394C128.687 83.2913 133.722 82.096 136.908 84.2419C139.95 86.2907 141.15 90.4272 139.428 93.7018C138.522 95.4236 137.179 96.6335 135.448 97.4667L135.1 97.6304C134.192 98.0603 133.359 98.5287 132.776 99.3921C132.018 100.512 131.993 101.696 132.065 102.975L132.095 103.494C132.143 104.352 132.154 105.235 131.899 106.06L131.841 106.243C131.774 106.449 131.703 106.63 131.58 106.827C131.543 106.885 131.199 107.224 131.086 107.346L130.945 107.389L130.786 107.396C130.611 107.398 130.38 107.322 130.456 107.375L130.435 107.363C130.369 107.322 130.307 107.278 130.256 107.239L130.158 107.162C129.928 106.83 129.641 106.556 129.289 106.347L128.952 106.197C128.077 105.272 126.578 105.758 125.951 106.679C125.5 107.342 125.257 108.015 125.237 108.68C125.166 108.566 125.01 108.504 124.91 108.631L124.315 109.39C122.041 112.299 119.805 115.227 117.22 117.88C115.796 119.341 114.264 120.715 112.662 121.98C111.295 123.06 108.702 124.099 108.662 126.067C108.65 126.705 109.103 127.158 109.657 127.374C111.461 128.08 113.69 125.681 114.992 124.513L115.099 124.419C116.693 123.021 118.148 121.486 119.491 119.845C122.099 116.657 124.28 112.988 125.241 108.952C125.287 109.656 125.589 110.347 126.176 110.998C126.959 111.865 128.029 112.472 129.173 112.723C131.765 113.29 134.295 112.356 135.837 110.195C137.14 108.367 137.523 105.954 137.355 103.747L137.335 103.482C137.311 103.128 137.281 102.478 137.189 102.201L138.005 101.753C139.006 101.22 139.933 100.521 140.765 99.7536C144.109 96.6671 145.787 91.6511 144.258 87.2618C143.302 84.516 141.292 82.1268 138.719 80.8851C139.149 79.89 139.293 78.7083 139.455 77.6628L139.483 77.4899C139.758 75.7747 139.988 74.0379 140.076 72.3022C140.24 69.0605 140.041 65.7886 139.532 62.5846C138.705 57.3804 136.994 51.8612 133.858 47.4954C136.251 46.5443 138.453 45.1674 140.153 43.2554C141.929 41.2574 143.062 38.397 141.688 35.8596C141.338 35.2129 140.882 34.6692 140.358 34.2375C141.267 32.5191 141.561 30.4881 141 28.5469C140.33 26.2261 138.509 24.4161 136.311 23.5709C136.845 21.3721 136.408 19.0069 134.777 17.1744C133.158 15.3565 130.645 14.6944 128.32 15.11C128.193 12.7713 128.929 10.284 128.368 7.97756ZM134.891 90.0861C132.759 89.0415 130.231 89.2075 128.101 90.1975L127.957 90.2661C125.631 91.395 122.551 94.0326 123.29 96.8379C123.723 98.4784 125.544 99.0386 126.956 98.3305C128.135 97.7387 128.404 96.6808 128.996 95.618C129.414 94.8664 129.932 94.2789 130.539 93.6746C131.819 92.4015 133.258 91.4558 134.891 90.699C135.127 90.5898 135.119 90.1978 134.891 90.0861ZM81.1586 33.3835C81.3584 33.2922 81.2134 32.9788 81.0122 33.0361C75.6536 34.568 70.6575 38.0064 67.6721 42.7791C67.4901 43.0703 67.4622 43.5497 67.6721 43.8379L67.7687 43.9687C67.9056 44.1476 68.0407 44.2797 68.2981 44.3196C68.7821 44.3948 69.2026 44.2686 69.4813 43.8379C72.4224 39.2888 76.1905 35.6584 81.1586 33.3835ZM45.2856 34.2843C44.8316 33.5146 43.6279 33.6695 43.3883 34.5325L43.3537 34.6076C43.2243 34.9018 43.2831 34.9621 43.5244 34.7956C42.927 35.2882 42.6567 36.0219 42.8393 36.8109C43.8256 41.0718 48.6467 44.1144 52.8496 43.6956C53.2164 43.6591 53.2663 43.2079 52.9339 43.0732C51.3169 42.4179 49.8817 41.3535 48.7277 40.0474C47.6061 38.7777 47.1343 37.3251 46.5309 35.7919C46.3046 35.2163 45.9524 34.8018 45.4563 34.5755C45.3907 34.4847 45.3334 34.3879 45.2856 34.2843ZM69.1866 31.546L69.1575 31.5479C66.998 31.8272 65.1299 32.894 63.6134 34.4572C62.1528 35.9626 60.3096 38.4467 60.4676 40.6558C60.5721 42.1203 62.6522 42.9577 63.4284 41.4588C63.8916 40.5644 63.9966 39.5841 64.321 38.6384C64.6186 37.7716 65.0297 36.9486 65.5218 36.1767C66.5348 34.5865 67.9279 33.2393 69.3544 32.0237C69.5213 31.8815 69.405 31.5468 69.1866 31.546ZM124.575 30.8971C125.054 30.4407 124.556 29.6626 123.947 29.8167C120.735 30.6308 117.554 31.6209 114.214 31.7193C112.546 31.7682 110.888 31.6365 109.236 31.4205L108.399 31.3093C107.111 31.141 105.8 31.0088 104.526 31.2737C103.677 31.4503 103.511 32.5452 104.04 33.1165C106.539 35.8144 111.358 35.5565 114.672 35.1018C118.27 34.6075 121.901 33.4477 124.575 30.8971ZM66.5725 22.4876C66.7923 22.1824 66.4223 21.7006 66.0723 21.8361C62.8803 23.0711 59.5348 26.2865 58.6555 29.6506C58.4232 30.5393 59.5427 31.2103 60.2 30.5506C61.4251 29.3213 62.2899 27.8692 63.3253 26.4874C64.3573 25.1099 65.5648 23.8865 66.5725 22.4876ZM118.873 23.9901C119.129 23.734 118.872 23.2241 118.504 23.3544C116.425 24.0912 114.332 24.7287 112.148 25.0631C109.912 25.4054 107.655 25.1453 105.407 25.284C104.498 25.34 103.878 26.7561 104.889 27.1968C109.381 29.1545 115.482 27.3793 118.873 23.9901ZM113.135 19.5989C113.492 19.3345 113.289 18.6089 112.803 18.8114C110.824 19.6362 108.822 19.839 106.699 19.7541C105.914 19.7225 105.749 20.9567 106.514 21.1232C108.861 21.6345 111.216 21.0189 113.135 19.5989Z" fill="white"/>
<path fill-rule="evenodd" clip-rule="evenodd" d="M72.1309 114.173C74.1081 114.233 76.0821 113.955 77.9653 113.344C79.2415 112.931 80.4047 112.137 81.6275 111.585C77.5064 110.01 72.7187 109.666 68.4908 109.953C66.636 110.079 64.8378 110.508 63.1623 111.245C63.4233 111.434 63.6875 111.626 63.9642 111.793C64.8 112.301 65.6742 112.733 66.5858 113.076C68.3617 113.744 70.2354 114.113 72.1309 114.173ZM71.4683 88.8453C72.0018 88.4615 71.5784 87.19 70.4385 87.3865C60.0853 89.1698 65.4497 107.049 78.6683 97.2374C80.242 95.9647 78.3362 93.1614 76.64 94.2513L76.0377 94.7168C74.0796 96.2215 70.8407 98.4963 68.5202 96.0553C66.3298 92.9793 69.4322 90.0861 71.4683 88.8453ZM86.5968 63.5218C85.8092 64.5469 86.6502 66.222 87.8002 66.4869C89.2244 66.8154 90.6632 66.6156 92.0615 67.023C93.3428 67.3963 94.5702 68.1442 95.6684 68.8898C96.9209 69.7396 98.0744 70.6884 99.1343 71.7694C99.7647 72.4125 100.559 73.936 101.531 73.9644C102.498 73.9928 101.201 70.9623 101.093 70.7001C100.331 68.8335 99.2602 67.116 97.921 65.6114C95.2783 62.6425 89.6814 59.5098 86.5968 63.5218ZM57.0847 62.7013L56.425 62.885C54.7926 63.34 53.0499 63.899 51.6494 64.8799L51.5395 64.958L51.3699 65.0823C49.6117 66.3964 47.1249 69.0184 48.3701 71.3059C48.4561 71.4635 48.6384 71.4791 48.7851 71.4148C50.4417 70.6874 51.6699 69.2347 53.432 68.6271L53.757 68.5161C55.4636 67.9398 57.5748 67.3339 59.4117 67.389C60.7032 67.8099 62.4475 67.4613 62.7837 65.8852L62.7989 65.8079L62.828 65.6447C63.0216 64.5677 62.7336 63.1948 61.623 62.6758C60.1012 61.9648 58.6166 62.2812 57.0847 62.7013Z" fill="white"/>
<path fill-rule="evenodd" clip-rule="evenodd" d="M94.5629 85.5503L94.9172 85.9053L90.4055 90.4266L80.4797 80.4798L84.9914 75.9585L90.0512 81.029L96.1134 74.9539L100.625 79.4751L94.5629 85.5503Z" fill="#FF4444"/>
<path fill-rule="evenodd" clip-rule="evenodd" d="M62.6266 84.2728L62.9809 84.6278L58.4692 89.1491L48.5435 79.2023L53.0552 74.681L58.1149 79.7515L64.1771 73.6764L68.6888 78.1977L62.6266 84.2728Z" fill="#FF4444"/>
<path fill-rule="evenodd" clip-rule="evenodd" d="M94.7794 116.606C92.6001 111.444 87.8435 107.651 82.3671 106.264C78.3456 105.248 74.1251 105.28 70.0255 105.683C67.8777 105.893 65.5739 106.065 63.5496 106.871C61.8211 107.56 60.4125 108.863 59.3533 110.391C58.0926 112.203 57.235 114.276 56.6329 116.401C56.5474 116.703 56.467 117.008 56.392 117.314C56.6538 118.917 57.2098 120.282 58.6786 121.29C60.1119 122.274 61.8222 122.677 63.5271 122.82C63.6943 122.739 63.8558 122.655 64.0039 122.57C66.6607 121.032 68.5306 117.398 71.8839 117.89C74.8764 118.329 76.8463 122.136 78.6259 124.368C84.3384 125.041 90.0465 123.306 94.6945 120.003C94.9305 118.873 94.9442 117.733 94.7794 116.606ZM52.5093 112.691C52.9663 111.394 53.5419 110.138 54.2241 108.955C56.4795 105.043 59.942 101.926 64.0522 100.145C73.7755 95.9353 86.3563 98.9025 94.2086 105.806C96.8909 108.166 99.603 111.634 100.423 115.364C100.668 115.413 100.899 115.542 101.09 115.723C106.763 112.112 112.605 108.638 117.177 103.632C120.497 99.9947 122.806 95.6904 124.22 90.9604C124.335 90.5711 124.956 90.6281 124.938 91.0588C124.932 91.1596 124.927 91.2601 124.921 91.3609C124.981 91.1757 125.26 91.271 125.282 91.4508C126.042 97.1967 126.994 103.289 126.118 109.064C125.593 112.511 124.045 115.034 121.975 117.758C119.757 120.679 117.247 123.395 114.679 126C113.05 127.653 111.349 129.56 109.354 130.773C107.034 132.181 104.402 133.252 101.926 134.339C99.4076 135.448 96.8511 136.472 94.2462 137.361C89.0392 139.142 83.6574 140.374 78.1815 140.913C73.797 141.344 68.7862 141.813 64.5845 140.145C61.364 138.867 58.7645 136.557 56.7027 133.778C54.458 130.751 52.6835 127.303 51.7026 123.667C50.6832 119.891 52.2945 113.3 52.5093 112.691Z" fill="white"/>
</svg>
