<svg width="325" height="291" viewBox="0 0 325 291" fill="none" xmlns="http://www.w3.org/2000/svg">
<path d="M122.825 188.791C141.286 244.14 190.602 261.233 216.679 192.486C220.265 183.031 210.889 179.512 204.332 175.352C199.84 172.503 197.481 170.031 197.754 167.484C199.045 155.464 204.635 122.025 204.635 122.025L205.203 120.947C205.203 120.947 205.067 120.645 205.602 121.179C206.16 121.736 207.446 127.551 212.514 127.551C217.058 127.551 221.671 125.519 223.879 111.457C224.678 106.369 224.224 93.0278 218.595 90.6187C216.269 89.6234 214.123 89.2675 212.029 90.4622C209.936 91.6568 214.445 86.3785 191.16 66.9676C176.025 54.3502 152.118 52.501 142.471 54.6313C132.824 56.7616 123.177 61.4854 118.91 71.4886C113.733 83.6262 123.734 92.7917 121.537 120.435C121.937 130.422 121.364 152.341 148.838 159.688C154.056 161.083 152.438 168.709 144.611 170.573C132.125 174.488 122.815 184.045 122.815 188.816" fill="white"/>
<path fill-rule="evenodd" clip-rule="evenodd" d="M122.818 102.754L122.788 102.494C122.016 95.7073 121.269 89.1302 117.73 83.2228C116.527 84.047 116.667 85.0913 117.043 86.059C120.755 95.6041 120.414 105.52 120.073 115.432L120.073 115.433C120.044 116.301 120.014 117.168 119.987 118.036C119.599 130.419 122.686 141.676 130.941 151.137C133.806 154.42 137.598 156.678 141.47 158.651C145.446 160.677 146.282 162.396 145.042 166.77C144.996 166.93 144.941 167.09 144.885 167.251C144.631 167.982 144.373 168.723 145.079 169.446C145.921 170.309 146.842 170.062 147.838 169.796L147.951 169.766C157.332 167.263 165.725 162.772 173.485 157.038C174.588 156.223 175.495 155.112 176.372 154.036L176.429 153.966C176.891 153.4 176.973 152.517 176.327 152.018C175.721 151.55 175.245 151.934 174.716 152.36C174.648 152.414 174.579 152.469 174.51 152.524C170.322 155.774 165.711 157.909 160.307 158.446C157.809 158.694 155.335 158.602 152.864 158.511C151.474 158.459 150.085 158.408 148.691 158.417C146.783 158.429 145.216 157.544 143.723 156.701C143.546 156.601 143.37 156.501 143.194 156.404C138.005 153.524 133.078 150.296 129.733 145.096C126.735 140.435 124.919 135.359 123.85 130.017C122.501 123.273 122.623 116.456 122.747 109.544V109.543C122.787 107.291 122.828 105.028 122.818 102.754ZM216.602 88.7026C212.522 88.3745 210.25 90.7922 208.336 93.5922C205.983 97.0359 204.73 100.939 204.175 105.061C204.081 105.752 203.985 106.487 204.402 107.164C205.224 107.275 205.302 106.622 205.315 106.131C205.418 102.278 207.127 98.9158 208.845 95.662C210.071 93.3407 211.873 91.0918 214.69 90.5208C217.901 89.8696 220.855 92.7557 222.307 96.5356C224.997 103.537 224.551 110.427 222.049 117.213C220.954 120.182 219.59 123.207 216.859 125.278C214.094 127.376 210.764 127.006 208.734 124.22C208.618 124.061 208.495 123.903 208.372 123.745C208 123.267 207.625 122.786 207.425 122.244C207.032 121.181 206.432 120.171 205.333 120.319C204.061 120.49 203.82 121.867 203.701 122.943C202.621 132.717 201.121 142.429 199.62 152.141L199.62 152.142C199.248 154.551 198.876 156.961 198.51 159.372C198.025 162.562 197.464 167.143 197.84 169.091C197.867 169.23 197.882 169.366 197.897 169.496C197.954 170.006 198.002 170.426 198.67 170.527C199.578 170.664 199.989 170.137 200.1 169.321C200.533 166.15 200.652 164.934 200.838 160.084C201.018 155.384 201.901 150.75 202.784 146.118C203.105 144.437 203.425 142.757 203.712 141.073C204.688 135.339 205.644 129.524 205.73 122.995C205.86 123.187 205.987 123.376 206.112 123.563L206.112 123.563C207.519 125.664 208.667 127.379 210.676 128.047C214.012 129.156 216.931 128.335 219.269 125.698C221.934 122.693 223.665 119.272 224.638 115.3C226.188 108.978 226.475 102.785 224.465 96.5376C223.502 93.5402 220.048 88.215 216.602 88.7026ZM210.142 112.471C209.328 113.057 208.589 113.588 207.908 111.469C208.127 103.584 210.654 98.5511 214.591 98.3606C212.49 101.076 210.475 103.726 210.305 107.402C211.187 107 211.754 106.369 212.297 105.763C212.675 105.342 213.042 104.933 213.496 104.623C213.69 104.491 213.879 104.345 214.07 104.198C214.951 103.519 215.865 102.813 217.387 103.343C216.673 104.429 215.69 105.196 214.717 105.956C213.592 106.834 212.481 107.701 211.811 109.04C213.789 110.465 214.64 112.34 213.614 114.603C212.723 116.567 211.406 118.19 208.797 118.308C208.894 117.129 209.672 116.271 210.428 115.437C211.347 114.423 212.234 113.445 211.825 111.97C211.229 111.69 210.67 112.092 210.142 112.471Z" fill="black"/>
<path d="M49.32 288.826H257.911L290.699 288.381C290.699 288.381 285.898 244.246 283.865 238.359C278.993 224.254 274.072 207.139 261.424 198.77C255.908 195.119 251.492 191.882 251.134 189.912C250.953 188.915 232.905 171.324 229.639 169.541C214.075 161.044 198.938 166.116 198.938 166.116L198.77 169.615C198.77 169.615 198.412 173.847 197.487 175.106C193.249 180.878 178.597 184.502 168.754 185.294C156.414 186.286 142.944 180.697 142.541 176.593C142.226 173.379 146.526 167.547 140.338 165.106C135.577 163.227 121.419 164.421 116.471 166.34C110.107 168.809 98.0108 176.312 92.1925 183.752C89.9162 186.663 89.4514 194.848 81.6983 197.243C70.1444 200.812 61.2748 217.506 56.4837 238.359C54.0359 249.014 49.32 288.826 49.32 288.826Z" fill="white"/>
<path d="M112.752 288.763H134.198L133.291 253.587C133.291 253.587 132.836 204.133 134.198 187.25C134.634 181.857 137.97 174.299 140.145 176.475C152.883 189.218 170.641 186.514 172.252 186.665C176.594 187.073 183.741 185.24 191.982 181.424C194.295 180.353 199.578 174.01 199.578 174.01C199.578 174.01 207.353 185.326 207.833 196.731C208.622 215.469 206.935 246.763 206.352 259.762C205.81 271.844 205.507 288.763 205.507 288.763H226.949C226.949 288.763 223.509 229.184 226.949 195.63C228.417 181.322 249.8 193.931 249.094 189.031C247.787 179.962 229.272 166.95 219.754 164.386C215.995 163.373 199.31 165.484 199.31 165.484C199.31 165.484 198.341 175.036 194.005 178.681C192.137 180.253 183.348 184.38 174.463 185.368C164.142 186.516 153.311 184.216 147.1 181.121C138.859 177.013 150.316 172.17 142.9 167.115C135.523 162.087 131.33 164.002 125.599 164.183C107.827 164.746 86.6059 188.684 89.8466 189.784C94.5336 191.374 112.26 183.654 114.155 197.14C116.845 216.289 112.752 288.763 112.752 288.763Z" fill="black"/>
<path d="M50.4976 288.763C51.661 284.799 52.6394 275.097 53.2747 269.75C53.732 265.899 56.9357 238.715 60.4601 229.225C62.6172 223.416 64.6223 217.469 67.808 212.044C69.9895 208.329 73.2728 205.656 76.3926 202.937C80.243 199.581 84.4948 196.661 88.867 193.949C94.6285 190.374 100.694 189.646 107.062 191.764C109.14 192.457 110.535 193.917 111.137 196.303C113.643 206.242 112.845 216.356 112.965 226.419C113.121 239.431 112.387 252.423 111.991 265.424C111.666 276.093 112.016 277.866 112.111 288.763C113.041 288.763 113.788 288.763 114.81 288.763C114.98 282.766 114.885 285.903 114.919 279.907C114.97 271.041 115.072 262.175 115.223 253.309C115.333 246.255 115.279 239.186 115.74 232.153C116.225 224.764 116.249 217.398 115.61 210.044C115.152 204.785 115.588 199.418 113.502 194.325C111.75 190.047 108.232 188.392 104.209 188.087C100.038 187.77 95.6956 187.178 91.2058 189.811C92.0958 186.713 93.9944 185.203 95.4226 183.461C100.643 177.095 107.618 173.124 114.71 169.166C122.047 165.071 129.763 165.616 137.569 165.919C138.781 165.966 139.82 166.613 140.883 167.168C142.283 167.898 143.74 168.515 145.849 168.062C144.074 165.645 141.714 164.827 139.292 164.122C132.384 162.11 125.691 163.162 121.467 163.79C116.088 164.588 97.5257 173.541 88.7631 187.63C84.601 194.322 72.7753 194.416 61.993 217.002C59.1325 222.994 57.1255 229.373 55.5352 235.789C53.5022 243.991 48.173 282.869 48.173 288.763C48.9774 288.763 49.6362 288.763 50.4976 288.763Z" fill="black"/>
<path d="M288.985 288.763C288.609 287.479 288.484 286.918 288.307 285.835C287.441 280.535 287.288 275.097 286.653 269.75C286.196 265.899 286.036 262.029 285.515 258.176C284.19 248.37 282.625 238.624 279.468 229.225C277.483 223.315 275.305 217.469 272.12 212.044C269.938 208.329 266.655 205.656 263.535 202.937C259.685 199.581 255.433 196.661 251.061 193.949C245.299 190.374 239.234 189.646 232.866 191.764C230.788 192.457 229.392 193.917 228.791 196.303C226.285 206.242 227.083 216.356 226.963 226.419C226.807 239.431 227.541 252.423 227.937 265.424C228.262 276.093 227.831 288.732 227.831 288.732C227.831 288.732 226.143 288.762 225.121 288.762C224.952 282.765 225.043 285.903 225.009 279.907C224.958 271.041 224.856 262.175 224.705 253.309C224.594 246.255 224.649 239.186 224.188 232.153C223.703 224.764 223.679 217.398 224.318 210.044C224.776 204.785 224.34 199.418 226.426 194.325C228.178 190.047 231.696 188.392 235.719 188.087C239.89 187.77 244.232 187.178 248.722 189.811C247.832 186.713 245.934 185.203 244.505 183.461C239.285 177.095 232.31 173.124 225.218 169.166C217.881 165.071 210.165 165.616 202.359 165.919C201.147 165.966 200.108 166.613 199.045 167.168C197.645 167.898 198.609 169.3 197.843 167.284C196.778 164.48 198.214 164.828 200.636 164.122C207.544 162.111 214.453 163.382 221.342 164.225C222.715 164.393 224.09 165.04 225.332 165.711C234.916 170.89 246.969 180.105 251.165 187.631C253.405 191.649 256.896 193.739 260.017 196.515C271.153 206.422 274.076 208.57 277.936 217.002C280.699 223.04 282.803 229.374 284.394 235.79C286.426 243.991 287.961 252.304 288.649 260.792C289.14 266.846 290.014 272.888 290.565 278.957C290.951 283.209 291.222 286.367 291.222 288.763C290.522 288.763 289.847 288.763 288.985 288.763Z" fill="black"/>
<path d="M80.917 288.763C80.5444 284.342 82.3952 272.97 83.2395 267.188C83.8545 262.98 83.8032 258.636 85.3751 254.572C85.7648 253.566 85.6416 252.265 84.3837 252.056C83.1804 251.856 82.6577 252.704 82.3816 254.067C80.9336 261.214 80.2817 268.463 79.4148 275.683C78.7439 281.269 77.9454 286.888 77.825 288.749C78.9137 288.763 79.7342 288.763 80.917 288.763Z" fill="black"/>
<path d="M255.81 288.763C255.541 284.37 254.309 272.97 253.465 267.188C252.85 262.98 252.901 258.636 251.329 254.572C250.939 253.566 251.063 252.265 252.321 252.056C253.524 251.856 254.047 252.704 254.323 254.067C255.771 261.214 256.423 268.463 257.29 275.683C257.96 281.269 258.368 288.763 258.368 288.763C258.368 288.763 256.993 288.763 255.81 288.763Z" fill="black"/>
<path d="M134.597 288.826L204.943 288.763C204.943 288.763 207.461 207.802 207.461 191.146C207.461 177.362 200.652 162.297 197.777 166.791C192.472 175.082 183.519 177.056 170.009 177.656C148.574 178.609 147.353 170.584 144.432 168.926C138.564 165.597 134.597 179.447 134.597 193.741C134.597 213.356 134.597 288.826 134.597 288.826Z" fill="white"/>
<path d="M204.735 288.826C204.735 288.826 207.461 209.117 207.461 192.73C207.461 179.169 200.652 162.37 197.777 166.791C192.472 174.948 183.39 177.669 169.881 178.26C148.446 179.198 147.353 170.558 144.432 168.926C138.564 165.65 134.597 181.221 134.597 195.283C134.597 207.942 134.597 288.763 134.597 288.763" stroke="black" stroke-width="15"/>
<mask id="mask0_101_1036" style="mask-type:luminance" maskUnits="userSpaceOnUse" x="127" y="158" width="88" height="132">
<path d="M204.735 288.826C204.735 288.826 207.461 209.117 207.461 192.73C207.461 179.169 200.652 162.37 197.777 166.791C192.472 174.948 183.39 177.669 169.881 178.26C148.446 179.198 147.353 170.558 144.432 168.926C138.564 165.65 134.597 181.221 134.597 195.283C134.597 207.942 134.597 288.763 134.597 288.763" fill="white"/>
<path d="M204.735 288.826C204.735 288.826 207.461 209.117 207.461 192.73C207.461 179.169 200.652 162.37 197.777 166.791C192.472 174.948 183.39 177.669 169.881 178.26C148.446 179.198 147.353 170.558 144.432 168.926C138.564 165.65 134.597 181.221 134.597 195.283C134.597 207.942 134.597 288.763 134.597 288.763" stroke="white" stroke-width="15"/>
</mask>
<g mask="url(#mask0_101_1036)">
<path d="M159.36 255.898C159.389 255.903 159.417 255.911 159.444 255.92L159.409 255.914L159.36 255.898Z" fill="black"/>
<path d="M139.344 253.15C139.892 251.278 140.704 249.493 141.755 247.85C143.101 245.669 144.651 243.621 146.383 241.734C150.004 237.914 154.107 234.575 158.429 231.584C161.543 229.411 164.912 227.64 168.336 226.009C172.23 224.07 176.394 222.585 180.736 222.109C182.993 221.935 185.264 222.075 187.483 222.523C185.434 222.707 183.402 223.048 181.405 223.544C178.631 224.287 175.206 225.697 172.204 226.915C168.386 228.589 164.617 230.412 161.059 232.593C155.558 236.147 151.091 239.672 146.756 244.296C144.447 246.962 142.94 248.951 141.455 251.855C140.767 253.36 140.27 254.945 139.975 256.573C139.827 257.711 139.839 257.503 139.82 258.168C139.82 258.254 139.826 258.339 139.829 258.424C139.847 258.605 139.87 258.784 139.903 258.963L139.905 258.975C140.385 261.111 141.545 262.668 143.473 264.063C148.384 267.238 153.361 268.847 159.177 268.594C163.012 268.448 166.954 267.48 170.143 266.6C174.093 265.527 177.943 264.118 181.653 262.389C184.82 260.897 187.906 259.178 190.648 256.989C193.749 254.508 196.436 252.391 199.044 249.034C200.736 246.832 201.716 245.467 202.734 242.9C202.786 242.741 202.837 242.582 202.889 242.422C203.173 241.417 203.061 241.956 203.198 240.881C203.168 240.228 203.344 239.388 202.752 238.401C201.848 236.81 199.344 234.778 196.538 233.907C195.164 233.485 192.508 233.065 190.482 233.041C188.992 233.015 187.513 233.269 186.045 233.499C183.105 234.015 180.686 234.775 177.7 236.007C174.969 237.117 172.304 238.384 169.719 239.801C164.287 242.904 157.967 247.679 156.589 252.367C156.563 252.469 156.538 252.571 156.512 252.672C156.509 252.685 156.507 252.698 156.504 252.711C156.459 252.941 156.427 253.173 156.406 253.407C156.406 253.426 156.404 253.444 156.404 253.463C156.405 253.5 156.406 253.531 156.407 253.558C156.417 253.633 156.429 253.708 156.439 253.769C156.459 253.849 156.482 253.929 156.508 254.008C156.778 254.765 157.818 255.423 159.359 255.898C159.306 255.888 159.281 255.891 159.401 255.912L159.409 255.913C159.429 255.92 159.45 255.926 159.471 255.932C159.462 255.927 159.453 255.923 159.443 255.919C160.445 256.119 161.464 256.222 162.486 256.228C164.255 256.255 166.002 255.942 167.716 255.532C168.876 255.265 170.015 254.911 171.122 254.472C172.384 253.932 173.613 253.317 174.801 252.629C176.367 251.811 179.083 249.876 179.808 249.213C180.903 248.267 181.983 247.28 182.851 246.115C183.227 245.557 183.383 245.345 183.57 244.682C183.567 244.655 183.563 244.631 183.561 244.61C183.552 244.581 183.544 244.551 183.535 244.522C183.527 244.506 183.519 244.487 183.508 244.462L183.495 244.438C183.43 244.352 183.361 244.269 183.287 244.191C183.255 244.155 183.231 244.131 183.216 244.115C183.2 244.102 183.184 244.088 183.168 244.076C182.646 243.727 182.075 243.456 181.474 243.272C180.735 243.064 179.97 242.958 179.201 242.957C176.567 243.008 174.646 243.509 172.36 244.381C171.806 244.61 171.26 244.861 170.728 245.139C171.381 244.557 172.073 244.02 172.799 243.533C175.188 242.009 178.23 240.625 181.12 240.897C183.433 241.211 184.818 242.137 184.869 244.633C184.903 246.899 183.348 248.778 181.792 250.264C180.614 251.39 179.35 252.423 178.012 253.353C176.008 254.728 173.883 255.917 171.662 256.904C170.23 257.472 168.753 257.92 167.246 258.244C165.457 258.659 163.623 258.917 161.784 258.81C160.537 258.743 159.272 258.596 158.117 258.095C153.447 256.282 155.027 250.268 157.416 247.156C159.242 244.528 161.739 242.474 164.289 240.579C167.238 238.367 170.481 236.583 173.82 235.033C176.417 233.854 179.045 232.713 181.783 231.9C184.186 231.189 186.653 230.712 189.148 230.474C190.595 230.393 192.048 230.462 193.481 230.68C196.36 231.023 199.227 231.985 201.418 233.941C202.426 234.745 203.254 235.752 203.85 236.895C204.489 238.28 204.567 239.856 204.466 241.357C204.172 244.82 202.255 247.904 200.206 250.618C198.561 252.879 196.58 254.86 194.449 256.664C192.344 258.435 190.238 260.231 187.901 261.695C183.144 264.678 177.918 266.86 172.562 268.511C167.262 270.067 161.801 271.513 156.231 271.173C152.814 270.947 149.485 269.934 146.408 268.451C144.905 267.677 143.381 266.892 142.099 265.774C140.129 264.076 138.869 261.699 138.569 259.115C138.383 257.102 138.81 255.084 139.344 253.15Z" fill="black"/>
<path fill-rule="evenodd" clip-rule="evenodd" d="M117.327 262.338C116.964 262.898 116.593 263.47 116.432 264.126C116.233 265 116.198 266.172 116.98 266.772C117.467 267.028 118.028 267.081 118.573 267.133H118.573L118.573 267.133L118.573 267.133L118.573 267.133L118.573 267.133C118.665 267.142 118.756 267.151 118.846 267.16C119.828 267.233 120.813 267.255 121.797 267.226L121.87 267.223C122.394 268.205 122.906 269.193 123.382 270.199C123.123 269.256 122.795 268.242 122.428 267.201C122.931 267.18 123.434 267.149 123.937 267.108C123.853 267.331 123.768 267.552 123.68 267.767C123.562 268.057 123.437 268.344 123.311 268.631C123.34 268.588 123.369 268.545 123.398 268.501L123.398 268.501L123.398 268.501L123.398 268.501L123.398 268.501L123.398 268.501C123.438 268.443 123.477 268.385 123.516 268.327C123.784 267.921 124.037 267.505 124.274 267.081C125.769 266.959 127.25 266.695 128.695 266.292C128.828 266.246 128.968 266.202 129.11 266.157C130.034 265.864 131.089 265.53 131.379 264.537C131.63 263.607 131.432 262.489 130.602 261.913C129.534 261.059 128.402 260.29 127.216 259.612C127.364 259.03 127.477 258.44 127.554 257.844C127.686 256.474 127.875 253.657 125.885 253.705C125.07 253.875 124.418 254.43 123.791 254.961C123.694 255.044 123.597 255.127 123.5 255.207C123.185 255.486 122.877 255.771 122.575 256.064C122.331 256.3 122.094 256.541 121.858 256.783C121.152 256.482 120.427 256.226 119.689 256.017C119.118 255.857 118.498 255.747 117.92 255.93C117.215 256.289 117.197 257.256 117.267 257.95C117.369 258.461 117.543 258.955 117.785 259.416C117.995 259.862 118.209 260.306 118.428 260.748C118.061 261.235 117.713 261.735 117.384 262.249L117.327 262.338ZM118.96 258.446C119.281 258.507 119.597 258.59 119.907 258.694C119.933 258.702 119.959 258.711 119.984 258.72C120.009 258.729 120.034 258.738 120.059 258.746C119.838 259.005 119.619 259.265 119.402 259.527C119.247 259.151 119.099 258.79 118.96 258.446ZM125.896 256.287L125.887 256.291C125.636 256.398 125.395 256.528 125.167 256.678C124.694 256.991 124.251 257.347 123.843 257.741C124.631 258.146 125.41 258.573 126.181 259.01C126.374 257.908 126.465 256.942 126.407 256.445C126.406 256.435 126.405 256.425 126.403 256.416L126.403 256.416L126.403 256.416L126.403 256.416L126.403 256.416C126.402 256.408 126.401 256.4 126.4 256.393C126.397 256.387 126.394 256.381 126.39 256.375L126.39 256.375C126.388 256.37 126.385 256.365 126.383 256.36C126.329 256.334 126.274 256.311 126.218 256.291C126.216 256.291 126.214 256.29 126.212 256.29L126.209 256.289C126.105 256.272 126 256.271 125.896 256.287ZM126.511 261.91C127.392 262.422 128.26 262.957 129.092 263.543C127.952 263.917 126.778 264.181 125.587 264.33C125.766 263.897 125.938 263.462 126.103 263.025C126.243 262.655 126.379 262.283 126.511 261.91ZM124.827 264.423C125.122 263.422 125.392 262.405 125.639 261.416L125.64 261.412C125.467 261.314 125.294 261.216 125.121 261.119C124.105 260.568 123.085 260.015 122.033 259.533C121.412 260.185 120.813 260.857 120.235 261.55C120.64 262.538 121.061 263.577 121.469 264.625C122.598 264.604 123.731 264.542 124.827 264.423ZM119.382 262.615C119.735 263.289 120.096 263.958 120.46 264.626C119.658 264.626 118.857 264.575 118.061 264.473C118.121 264.377 118.177 264.288 118.221 264.22C118.591 263.673 118.979 263.139 119.382 262.615Z" fill="black"/>
<path d="M166.859 247.895C166.49 249.146 166.194 249.905 167.489 250.209C168.496 250.422 169.536 250.302 170.557 250.29C170.694 250.287 170.758 250.269 170.583 250.349C170.018 250.639 169.422 250.863 168.806 251.018C166.454 251.614 165.516 249.743 166.859 247.895Z" fill="black"/>
<path d="M138.871 272.525C139.752 272.996 140.711 273.293 141.656 273.606C143.172 274.072 144.016 274.295 145.608 274.65C149.186 275.362 152.832 275.669 156.479 275.565C160.696 275.381 164.876 274.696 168.931 273.525C172.274 272.589 177.445 271.331 182.397 269.371C182.756 269.23 183.115 269.087 183.472 268.942C180.029 270.884 176.549 272.772 172.97 274.452C169.719 276.014 166.227 276.984 162.669 277.531C159.183 278.126 155.639 278.313 152.109 278.089C150.176 277.962 148.227 277.79 146.351 277.289C143.79 276.575 141.284 275.535 139.076 274.045C137.462 272.863 136.272 271.23 135.088 269.643C136.312 270.696 137.432 271.734 138.871 272.525Z" fill="black"/>
<path d="M142.833 234.004C143.096 233.862 143.356 233.713 143.615 233.565C143.155 233.993 142.71 234.438 142.27 234.886C140.551 236.621 138.994 238.51 137.619 240.53C135.702 243.143 134.613 245.013 132.857 248.173C134.46 242.39 137.156 236.709 142.833 234.004Z" fill="black"/>
<path d="M212.325 234.879C211.353 233.318 208.809 230.245 206.912 229.025C205.312 227.924 203.618 226.878 201.743 226.324C200.761 226.029 199.043 225.896 197.796 225.87C199.231 225.518 200.703 225.175 202.19 225.331C204.103 225.553 205.944 226.291 207.612 227.235C210.155 228.728 212.081 231.079 213.574 233.587C215.001 236.115 215.647 239.073 215.61 241.964C215.463 245.625 214.139 249.151 212.198 252.23C210.183 255.25 207.661 257.895 205.106 260.46C204.183 261.373 203.248 262.275 202.302 263.165C203.315 261.986 204.299 260.783 205.253 259.556C207.223 257.027 209.059 254.398 210.754 251.678C213.458 247.303 214.691 243.542 214.198 240.023C213.879 238.124 213.632 237.029 212.325 234.879Z" fill="black"/>
<path fill-rule="evenodd" clip-rule="evenodd" d="M190.702 270.147C191.032 269.575 191.392 269.02 191.779 268.486C191.814 268.44 191.85 268.396 191.886 268.351L191.886 268.351C191.917 268.312 191.948 268.272 191.979 268.233C191.895 268.074 191.806 267.918 191.716 267.762C191.483 267.355 191.249 266.946 191.112 266.497C190.964 265.847 190.959 264.969 191.543 264.533C191.807 264.448 192.092 264.45 192.356 264.54C192.817 264.645 193.269 264.79 193.705 264.974C193.969 265.081 194.23 265.196 194.487 265.317C195.737 263.999 197.058 262.752 198.445 261.58C198.541 261.507 198.634 261.427 198.727 261.346L198.727 261.346C198.927 261.174 199.128 261.001 199.365 260.892C200.009 260.64 200.301 261.482 200.357 261.982C200.457 263.174 200.198 264.358 199.944 265.52C199.924 265.613 199.903 265.706 199.883 265.799C199.683 266.605 199.448 267.401 199.194 268.191C199.445 268.365 199.697 268.538 199.948 268.711L200.069 268.796L200.069 268.796C200.683 269.229 201.297 269.663 201.899 270.112C202.465 270.534 203.094 271.012 203.209 271.756C203.337 272.414 203.289 273.3 202.669 273.693C201.986 273.932 201.256 273.989 200.535 274.044L200.535 274.044C200.386 274.056 200.237 274.067 200.089 274.08C199.099 274.143 198.107 274.149 197.117 274.097C196.677 275.341 196.237 276.585 195.752 277.813C195.7 277.982 195.614 278.139 195.5 278.275C195.632 278.041 195.683 277.778 195.734 277.516C195.756 277.402 195.779 277.287 195.808 277.175C195.896 276.768 195.985 276.361 196.074 275.953L196.074 275.953L196.074 275.953L196.074 275.953C196.211 275.323 196.349 274.694 196.485 274.064C196.104 274.039 195.723 274.01 195.343 273.976C195.561 274.845 195.729 275.725 195.846 276.612C195.581 275.701 195.261 274.807 194.888 273.934C194.423 273.889 193.959 273.841 193.495 273.789C193.303 273.765 193.11 273.744 192.917 273.723L192.917 273.723L192.917 273.723L192.917 273.723C192.431 273.67 191.946 273.616 191.464 273.531C191.235 273.494 191.011 273.428 190.798 273.337C190.596 273.196 190.438 272.999 190.343 272.771C189.952 271.902 190.19 270.912 190.702 270.147ZM198.889 264.008C198.007 264.737 197.164 265.511 196.361 266.326C196.954 266.682 197.534 267.06 198.108 267.447C198.425 266.193 198.711 264.996 198.889 264.008ZM198.433 270.412C198.955 270.762 199.473 271.12 199.986 271.483V271.484C199.337 271.522 198.686 271.534 198.035 271.524C198.168 271.153 198.301 270.783 198.433 270.412ZM197.068 271.495C197.205 270.945 197.352 270.372 197.503 269.791C197.211 269.599 196.918 269.407 196.626 269.217C196.043 268.86 195.36 268.448 194.672 268.067C194.363 268.402 194.041 268.764 193.727 269.131C193.866 269.48 194.003 269.83 194.132 270.182C194.275 270.554 194.41 270.928 194.541 271.304C195.382 271.39 196.225 271.458 197.068 271.495V271.495ZM193.388 270.847C193.45 270.965 193.511 271.082 193.571 271.198V271.198C193.119 271.145 192.669 271.089 192.219 271.03C192.428 270.736 192.682 270.402 192.965 270.05C192.999 270.115 193.034 270.18 193.069 270.245C193.176 270.445 193.283 270.645 193.388 270.847Z" fill="black"/>
</g>
<path d="M202.946 44.6986C197.036 39.3429 190.559 35.4883 183.164 32.6719C176.636 30.1855 170.151 29.5839 163.386 29.61C155.834 29.6391 149.503 33.0793 142.451 35.5538C131.753 39.3081 109.625 59.0534 116.082 84.4479C116.936 87.8051 117.489 91.1256 118.467 94.2968C119.757 98.4842 119.066 102.364 118.754 106.451C118.047 115.715 110.166 127.687 109.144 136.875C108.429 143.31 107.996 149.665 109.014 156.037C109.842 161.225 113.05 169.258 114.581 174.199C115.61 177.519 121.939 174.955 124.714 177.432C125.698 177.047 125.926 176.569 126.047 175.741C126.532 172.435 125.461 169.541 124.12 166.625C123.011 164.216 122.721 161.516 121.919 158.953C123.651 162.123 125.383 165.293 127.115 168.462C127.306 168.81 127.507 169.154 127.724 169.485C129.572 172.298 130.34 172.558 133.342 171.196C136.136 169.928 138.725 168.251 141.612 167.148C142.424 166.838 143.164 166.497 144.051 166.407C146.523 166.156 147.523 164.106 148.669 162.336C149.068 161.72 148.417 161.275 147.897 160.826C144.756 158.11 141.053 156.2 137.448 154.346C131.853 151.469 129.115 146.597 126.675 141.337C124.23 136.065 123.1 130.397 122.206 124.711C121.27 118.753 122.083 112.76 122.413 106.796C122.636 102.764 123.319 98.7558 121.782 94.8221C121.594 94.3404 121.637 93.6979 121.761 93.1749C123.12 87.4782 124.232 81.7238 124.757 75.9014C125.27 70.2156 132.927 47.8267 146.436 56.7595C150.434 59.4031 152.041 62.5993 155.117 68.3672C158.46 74.635 163.332 79.3123 169.408 82.8567C172.682 84.7671 176.042 86.6754 179.7 87.4869C184.082 88.4593 188.426 89.7523 192.955 90.0651C196.082 90.281 198.705 91.8117 201.004 93.8147C205.563 97.7873 204.713 102.145 200.903 107.318C196.434 113.384 192.504 119.836 191.366 127.193C190.404 133.416 190.179 139.9 192.426 146.241C193.728 149.915 195.578 153.243 197.137 156.747C199.176 161.327 198.674 165.976 196.732 170.682C202.631 174.376 208.83 173.379 215.212 172.435C214.905 174.204 216.264 174.184 217.595 174.118C222.802 173.861 228.053 173.878 232.966 171.715C233.312 171.562 233.862 171.368 234.084 171.524C235.076 172.225 239.247 174.761 245.801 164.701C248.432 160.661 249.072 156.11 248.913 151.524C248.759 147.116 248.14 142.691 247.342 138.344C245.345 127.457 240.179 118.056 233.161 109.634C228.397 103.916 225.045 97.4758 224.023 90.1423C223.411 85.7545 223.066 81.3647 221.936 77.0385C219.672 68.3738 216.188 60.3941 210.587 53.3003C208.229 50.3107 205.921 47.3388 202.946 44.6986Z" fill="black"/>
<path d="M163.992 133.458C163.302 131.66 162.025 131.443 161.551 133.043C159.992 138.299 155.893 140.522 151.243 142.166C152.209 144.086 154.135 144.277 156.471 143.17C160.589 141.219 162.579 137.673 163.992 133.458Z" fill="black"/>
<path d="M143.779 121.365C142.834 118.444 144.893 116.463 145.714 114.184C147.309 109.758 148.734 105.346 148.507 100.568C148.467 99.7166 148.637 98.5735 147.391 98.6037C146.434 98.6271 145.919 99.5682 145.882 100.47C145.604 107.088 143.193 113.076 140.491 118.98C139.981 120.092 140.098 121.046 140.7 122.121C142.278 124.941 144.861 125.858 147.817 125.949C149.441 125.999 150.599 125.105 151.203 123.11C148.594 122.768 145.735 124.003 143.779 121.365Z" fill="black"/>
<path d="M161.76 92.484C158.506 94.5644 156.311 97.28 155.206 100.814C152.261 100.245 149.486 99.7346 146.574 101.225C145.689 98.8274 144.636 96.6309 142.869 94.763C139.985 91.7156 133.432 89.4629 128.67 91.0633C123.785 92.7047 120.312 95.946 118.859 100.601C117.527 104.868 118.173 109.272 120.961 113.248C127.633 122.761 141.52 120.239 145.64 110.648C146.3 109.12 146.696 107.49 146.81 105.829C146.927 103.873 147.803 102.894 149.607 102.611C151.82 102.265 153.547 102.949 154.345 105.191C154.952 106.897 154.935 108.748 155.715 110.449C158.199 115.87 162.774 119.29 169.09 119.237C174.402 119.192 180.542 115.897 181.967 110.128C183.526 103.809 188.568 102.435 193.582 100.705C197.831 99.2392 202.062 97.7225 206.296 96.2148C207.161 95.9066 207.655 95.2316 207.316 94.3588C206.91 93.3119 206.057 93.7296 205.306 94.0037C198.942 96.3248 192.562 98.6052 186.217 100.98C184.032 101.798 182.784 100.389 182.017 98.9952C177.664 91.0871 171.124 88.6471 162.8 92.0455C162.506 92.165 162.208 92.2735 161.76 92.484Z" fill="black"/>
<path d="M175.375 100.941C175.53 100.885 175.183 100.952 175.391 101.015C176.627 101.385 165.945 110.862 165.001 110.058C164.455 109.591 174.23 101.422 175.375 100.941Z" fill="white"/>
<path d="M171.582 96.5078C171.737 96.4519 171.39 96.5194 171.598 96.5824C172.834 96.9519 162.152 106.429 161.208 105.625C160.662 105.158 170.437 96.9892 171.582 96.5078Z" fill="white"/>
<path d="M138.978 100.941C139.132 100.885 138.786 100.952 138.993 101.015C140.229 101.385 129.547 110.862 128.604 110.058C128.057 109.591 137.832 101.422 138.978 100.941Z" fill="white"/>
<path d="M135.185 96.5078C135.339 96.4519 134.993 96.5194 135.2 96.5824C136.436 96.9519 125.754 106.429 124.811 105.625C124.264 105.158 134.039 96.9892 135.185 96.5078Z" fill="white"/>
<path d="M170.797 91.8229C168.853 90.9756 167.115 89.7196 165.7 88.1402C165.193 87.5722 164.568 87.0705 163.868 87.1924C162.607 87.4122 160.844 87.0384 160.365 88.5982C159.96 89.9114 161.329 90.5556 162.281 91.2827C164.855 93.2483 167.532 94.8259 170.961 94.4091C171.825 94.3039 172.766 94.449 173.028 93.2484C172.716 92.2211 171.651 92.3417 170.797 91.8229Z" fill="black"/>
<path d="M133.91 87.6273C132.332 87.3091 131.566 88.387 130.721 89.1508C129.209 90.5185 127.979 92.2062 125.881 92.8314C125.266 93.0147 124.816 93.5771 125.143 94.3386C125.42 94.981 125.897 95.3904 126.643 95.1896C129.293 94.4758 132.064 94.0942 134.191 92.0567C136.073 90.2547 136.097 89.4431 133.91 87.6273Z" fill="black"/>
<path fill-rule="evenodd" clip-rule="evenodd" d="M146.453 207.093L143.001 212L148.547 215.903L148.094 216.547L153.001 220L159.906 210.186L154.999 206.733L152 210.996L146.453 207.093Z" fill="#FF4444"/>
</svg>
