<svg width="48" height="48" viewBox="0 0 48 48" fill="none" xmlns="http://www.w3.org/2000/svg">
<g clip-path="url(#clip0_775_2362)">
<path d="M8 16H40M8 16V33.6004C8 35.8406 8 36.9602 8.43598 37.8158C8.81946 38.5684 9.43094 39.181 10.1836 39.5644C11.0384 40 12.158 40 14.3938 40H33.6062C35.842 40 36.96 40 37.8148 39.5644C38.5674 39.181 39.181 38.5684 39.5644 37.8158C40 36.961 40 35.843 40 33.6072V16M8 16V14.4004C8 12.1602 8 11.0392 8.43598 10.1836C8.81946 9.43094 9.43094 8.81946 10.1836 8.43598C11.0392 8 12.1602 8 14.4004 8H16M40 16V14.3938C40 12.158 40 11.0384 39.5644 10.1836C39.181 9.43094 38.5674 8.81946 37.8148 8.43598C36.9592 8 35.8406 8 33.6004 8H32M16 8H32M16 8V4M32 8V4M30 24L22 32L18 28" stroke="black" stroke-width="3" stroke-linecap="round" stroke-linejoin="round"/>
</g>
<defs>
<clipPath id="clip0_775_2362">
<rect width="48" height="48" fill="white"/>
</clipPath>
</defs>
</svg>
