<svg width="48" height="48" viewBox="0 0 48 48" fill="none" xmlns="http://www.w3.org/2000/svg">
<path d="M25.4577 6.8767C25.2707 6.875 25.0607 6.875 24.8206 6.875H16.0581C13.8645 6.875 12.7669 6.875 11.9291 7.3019C11.1921 7.67739 10.5934 8.27613 10.2179 9.01311C9.79102 9.85092 9.79102 10.9485 9.79102 13.1421V35.8587C9.79102 38.0523 9.79102 39.1485 10.2179 39.9863C10.5934 40.7232 11.1921 41.3231 11.9291 41.6985C12.7661 42.125 13.8624 42.125 16.0517 42.125H30.9471C33.1363 42.125 34.231 42.125 35.068 41.6985C35.8049 41.3231 36.4057 40.7232 36.7812 39.9863C37.2077 39.1493 37.2077 38.0546 37.2077 35.8654V19.2628C37.2077 19.0225 37.2077 18.8122 37.2059 18.625M25.4577 6.8767C26.017 6.8818 26.3709 6.90212 26.7087 6.98322C27.1084 7.07916 27.4902 7.2378 27.8406 7.45255C28.2358 7.6947 28.575 8.03398 29.252 8.71094L35.3727 14.8317C36.0501 15.5091 36.3869 15.8468 36.6292 16.2421C36.8438 16.5925 37.0026 16.9746 37.0986 17.3743C37.1797 17.7119 37.2004 18.0659 37.2059 18.625M25.4577 6.8767V12.3583C25.4577 14.5519 25.4577 15.6479 25.8846 16.4857C26.26 17.2227 26.8589 17.823 27.5958 18.1985C28.4328 18.625 29.5291 18.625 31.7183 18.625H37.2059M37.2059 18.625H37.2081" stroke="black" stroke-width="3" stroke-linecap="round" stroke-linejoin="round"/>
</svg>
