<svg width="169" height="251" viewBox="0 0 169 251" fill="none" xmlns="http://www.w3.org/2000/svg">
<path fill-rule="evenodd" clip-rule="evenodd" d="M152.754 247.321C151.64 249.014 149.449 248.753 148.508 247.442C137.796 249.939 126.813 248.955 115.952 248.343C85.3449 247.097 54.5654 251.002 24.0822 246.917C20.8485 246.27 17.0848 246.579 14.4389 244.335C10.207 239.374 11.1184 231.842 11.7925 225.799C17.1961 191.737 24.8785 157.363 28.7106 123.082C28.9247 119.817 27.5795 115.759 26.3736 112.69C26.0757 112.118 24.1931 111.559 23.2162 110.9C20.2181 108.747 20.7042 104.889 23.3033 102.625C31.7183 96.6916 43.4326 98.7651 52.3593 100.954C54.07 94.5266 55.993 90.2991 59.2502 89.8804C65.4497 89.0835 80.4884 86.6485 85.1208 89.8804C87.3369 91.4265 88.7593 96.8745 90.3545 99.5285C101.988 99.3218 125.6 83.7508 130.455 101.285C134.399 101.558 138.305 105.002 137.55 109.136C142.665 113.657 138.631 120.437 138.702 126.065C139.374 138.006 145.833 148.685 148.52 160.221C154.662 182.593 161.614 223.288 153.996 245.126C154.16 245.04 154.518 245.169 154.286 245.351C153.424 245.594 153.312 246.681 152.754 247.321Z" fill="black"/>
<path fill-rule="evenodd" clip-rule="evenodd" d="M99.0174 219.584C106.061 223.357 112.644 227.867 118.974 232.731C119.837 233.394 120.678 231.925 119.827 231.271C113.497 226.407 106.914 221.897 99.8703 218.124C98.9107 217.61 98.0581 219.07 99.0174 219.584ZM33.6712 222.992C35.8986 221.85 37.7991 220.289 39.3287 218.307C39.9936 217.445 38.5246 216.604 37.8693 217.453C36.5231 219.198 34.7691 220.532 32.8181 221.533C31.8488 222.03 32.705 223.488 33.6712 222.992ZM19.0003 241.631C20.4291 230.155 21.4227 216.303 21.4341 204.732C21.4351 203.642 19.745 203.644 19.744 204.732C19.7325 216.303 18.739 230.155 17.3102 241.631C17.1758 242.709 18.8676 242.696 19.0003 241.631ZM122.809 175.387C123.175 175.36 123.53 175.147 123.623 174.766C124.194 172.429 124.641 169.883 124.11 167.5C123.874 166.436 122.244 166.889 122.48 167.949C122.899 169.829 122.566 171.861 122.132 173.735C115.988 174.004 109.927 171.799 104.05 170.318C102.993 170.051 102.546 171.683 103.6 171.948C109.835 173.519 116.284 175.87 122.809 175.387ZM29.5846 170.48C31.7924 171.831 34.6916 170.894 36.8765 170C37.8714 169.593 37.4332 167.958 36.4274 168.369C34.7645 169.05 32.3341 170.052 30.5791 169.103C28.8274 168.155 28.7484 165.549 28.7353 163.828C28.7271 162.739 27.0372 162.74 27.0452 163.828C27.0629 166.169 27.3758 169.129 29.5846 170.48ZM44.3776 163.983C48.1994 179.304 50.7642 194.899 52.0212 210.641C52.2769 213.836 52.4564 217.028 52.5578 220.221C52.6592 221.054 52.7564 221.889 52.8473 222.724C53.1916 225.881 53.4557 229.089 53.4325 232.268C53.4219 233.695 53.3776 235.115 53.2804 236.537C53.4494 236.062 53.6057 235.584 53.7578 235.109C54.0684 234.134 54.2733 233.124 54.5902 232.156C54.8522 231.355 55.1902 230.588 55.505 229.812V229.81C55.41 226.634 55.6255 223.427 55.7353 220.266C55.8769 216.17 56.0522 212.078 56.1431 207.98C56.3247 199.784 56.2339 191.581 55.9381 183.389C55.3445 166.883 53.8445 150.455 52.3318 134.016C51.9114 129.444 51.4593 124.875 51.1466 120.295C50.8318 115.666 50.705 111.029 50.6691 106.388C50.667 106.054 51.174 105.965 51.267 106.289C51.3494 105.188 51.4952 104.088 51.7381 103.025C48.0938 105.35 44.2508 107.36 40.4839 109.474C38.5001 110.588 36.5247 111.72 34.4797 112.718C33.3557 113.267 32.2212 113.773 31.0635 114.25C29.8635 114.745 28.7163 115.425 27.3959 115.081C27.2818 115.051 27.174 115.009 27.0705 114.954C27.2205 115.239 27.3705 115.523 27.5142 115.81C28.0128 116.801 28.4881 117.797 28.9487 118.801C29.0712 118.891 29.179 119.016 29.2635 119.179C29.4874 119.616 29.705 120.058 29.9163 120.506C29.9585 120.466 30.0008 120.426 30.0431 120.386C30.2205 120.219 30.4656 120.47 30.3092 120.652C30.2374 120.734 30.1677 120.815 30.098 120.897C31.4754 123.862 32.5952 126.98 33.7487 130.023C35.1663 133.764 36.5099 137.533 37.7755 141.326C40.2705 148.789 42.4719 156.349 44.3776 163.983ZM0.505676 237.727C0.499344 237.712 0.492996 237.696 0.488785 237.681C0.127502 236.586 0.119064 235.314 0.0789185 234.166C0.00920105 232.124 0.0831451 230.078 0.266953 228.043C0.655685 223.759 1.49231 219.545 2.49161 215.366C4.47118 207.09 7.26836 199.037 8.78737 190.649C11.7684 174.183 11.0606 157.038 16.9106 141.155C19.3423 134.552 22.8155 128.205 27.5353 122.96C27.1909 121.911 26.855 120.861 26.5275 119.806C25.955 117.972 25.3698 116.078 25.017 114.189C25.0085 114.138 24.9979 114.085 24.9916 114.032C22.9825 113.166 21.155 111.532 20.8423 109.359C20.7071 108.421 20.8634 107.381 21.2691 106.474C20.4409 105.709 19.9085 104.716 20.0353 103.385C20.2719 100.878 23.1979 100.233 25.2346 99.7429C27.55 99.1871 29.9522 99.0328 32.3205 99.2949C33.5162 99.4259 34.6994 99.6457 35.855 99.9754C36.8585 100.261 37.9508 100.555 38.7557 101.244C38.8508 101.324 38.7726 101.48 38.6585 101.48C37.0296 101.474 35.4071 100.876 33.7613 100.797C32.0374 100.717 30.3177 100.859 28.6275 101.214C26.9754 101.561 25.3275 102.068 23.8254 102.852C23.4029 103.074 22.7838 103.224 23.2803 103.672C23.6437 104 24.3578 104.027 24.8247 104.076C25.8578 104.183 26.7493 104.788 26.8803 105.891C26.9965 106.865 26.4155 107.969 25.3803 108.189C25.3233 108.201 25.2705 108.216 25.224 108.235C25.1965 108.288 25.1543 108.332 25.1585 108.26C25.1585 108.26 25.1564 108.258 25.1564 108.26C25.131 108.415 25.1226 108.476 25.1226 108.487C25.1289 108.474 25.1395 108.421 25.1479 108.379C25.1416 108.417 25.1289 108.478 25.112 108.569C25.1353 108.47 25.1163 108.713 25.1353 108.751C25.6846 109.765 27.3092 110.051 28.2557 110.488C28.4395 110.572 28.5979 110.672 28.7331 110.784C28.9571 110.706 29.1853 110.627 29.4155 110.541C30.55 110.116 31.6824 109.704 32.8317 109.321C35.05 108.58 37.2958 107.918 39.5141 107.174C43.7141 105.766 47.7747 103.989 51.8965 102.378C52.0275 101.892 52.1796 101.417 52.3592 100.954C52.3951 100.857 52.5684 100.825 52.5874 100.954C52.6508 101.364 52.7015 101.776 52.7437 102.19C52.7606 102.228 52.7648 102.271 52.7564 102.311C52.9951 104.72 52.9317 107.187 53.0543 109.594C53.2064 112.595 53.631 115.575 53.7515 118.578V118.633C54.1951 121.197 54.5965 123.769 54.9599 126.35C55.3677 126.223 55.8346 126.248 56.312 126.504C59.6881 128.307 63.4824 129.311 67.3001 129.535C69.2226 129.647 71.1261 129.584 73.0381 129.362C74.2951 129.218 75.5331 128.956 76.7733 128.706C76.1205 125.969 75.4191 123.245 74.6268 120.548C73.974 118.331 73.2472 116.125 72.3493 113.992C71.443 111.839 70.3148 109.782 69.2648 107.694C68.781 106.728 69.3515 105.251 70.6085 105.352C70.9803 105.382 71.3522 105.405 71.7261 105.422C75.3641 105.595 79.1479 105.19 82.7395 104.828C86.8275 104.414 90.9705 103.985 95.0226 103.311C95.3226 103.262 95.4451 103.67 95.1493 103.769C93.2268 104.416 91.3275 105.147 89.3564 105.631C87.3282 106.132 85.2874 106.589 83.2296 106.946C81.2585 107.286 79.2789 107.571 77.293 107.812C75.9979 107.971 74.6881 108.051 73.3846 108.157C75.1402 110.964 76.3508 114.129 77.405 117.247C78.7592 121.25 79.7543 125.369 80.7282 129.48C82.8113 138.291 84.5289 147.191 85.8726 156.146C86.836 162.567 87.6155 169.013 88.2008 175.476C88.374 173.513 88.5853 171.556 88.824 169.601C89.6226 163.11 90.7888 156.662 92.3479 150.311C92.2085 150.065 92.143 149.772 92.1895 149.486C92.4705 147.741 93.2099 146.221 93.8585 144.602C94.5029 142.341 95.1979 140.094 95.9458 137.864C96.7951 134.827 97.7479 131.836 98.967 128.916C99.8986 126.69 100.961 124.521 102.144 122.419C103.558 119.479 105.111 116.603 106.816 113.853C106.904 113.597 107.048 113.358 107.253 113.157C107.563 112.667 107.878 112.183 108.199 111.703C108.409 111.39 109.009 111.581 108.85 111.978C108.776 112.164 108.702 112.35 108.626 112.534C115.57 110.797 122.38 113.453 128.994 115.415C130.663 115.911 132.349 116.359 134.061 116.683C135.406 116.936 136.974 117.245 138.316 116.966C139.213 116.78 139.611 116.372 139.173 115.412C138.721 114.419 137.487 113.766 136.416 113.327C136.013 113.24 135.616 113.085 135.233 112.853C134.342 112.312 133.951 111.183 134.371 110.222C134.754 109.353 135.869 108.605 136.856 109.002C136.997 109.059 137.137 109.114 137.276 109.169C137.291 109.148 137.308 109.118 137.323 109.076C137.464 108.689 137.525 109.152 137.464 108.599C137.363 107.694 136.406 106.872 135.751 106.354C134.122 105.063 131.768 104.107 129.666 104.596C129.508 104.631 129.349 104.676 129.193 104.731C127.028 105.481 125.973 102.362 127.704 101.199C127.809 101.129 127.942 101.041 128.088 100.937C128.809 100.436 129.863 99.5929 129.575 98.8322C129.22 97.8873 127.127 97.3441 126.335 97.0229C123.47 95.8604 120.375 95.201 117.286 95.0658C114.178 94.9305 111.03 95.2729 108.032 96.1117C106.562 96.522 105.051 97.1454 103.661 97.7755C102.413 98.3396 99.6958 99.0856 99.5226 100.667C99.4846 101.015 98.9881 101.134 98.8803 100.753C98.0289 97.7182 101.333 95.759 103.513 94.5057C104.944 93.6812 106.566 93.1678 108.136 92.6627C109.64 92.1766 111.176 91.8194 112.744 91.6036C116.109 91.1431 119.515 91.2023 122.853 91.849C125.893 92.4389 129.275 93.4447 131.732 95.4018C133.241 96.6023 133.923 98.5129 133.317 100.377C133.296 100.438 133.275 100.502 133.254 100.563C135.968 101.049 138.537 102.605 140.255 104.773C141.666 106.555 142.406 109.034 141.142 111.107C141.195 111.145 141.248 111.185 141.299 111.228C142.503 112.191 143.399 113.591 143.665 115.121C144.187 118.139 142.363 120.25 139.813 121.058C140.445 121.675 141.051 122.33 141.645 122.985C142.974 124.454 144.244 126.054 145.363 127.686C147.632 130.991 149.572 134.59 151.268 138.217C154.756 145.665 156.956 153.682 158.122 161.81C158.709 165.906 159.102 170.023 159.252 174.157C159.425 178.87 159.25 183.586 159.341 188.301C159.43 192.832 159.93 197.254 160.942 201.671C161.912 205.896 163.205 210.036 164.375 214.206C165.696 218.902 167.149 223.577 167.847 228.419C168.199 230.883 168.453 233.354 168.256 235.846C168.058 238.385 167.137 240.555 166.287 242.916C166.072 243.518 165.415 243.761 164.889 243.632C164.77 244.763 164.344 245.866 163.708 246.822C162.358 248.846 160.279 250.138 157.898 250.607C155.215 251.133 152.449 251.008 149.732 250.911C146.785 250.806 143.836 250.71 140.889 250.588C137.803 250.46 134.718 250.329 131.632 250.198C131.734 247.034 131.856 243.871 131.994 240.709C132.737 223.614 133.909 206.509 133.94 189.392C134 189.357 134.059 189.315 134.115 189.261C135.504 187.918 137.209 187.035 138.811 185.984C139.718 185.389 138.871 183.926 137.958 184.524C136.607 185.411 135.2 186.198 133.934 187.191C133.926 185.409 133.911 183.628 133.876 181.846C133.854 180.757 132.164 180.757 132.185 181.846C132.291 187.216 132.256 192.588 132.134 197.958C131.741 215.36 130.505 232.73 129.943 250.125C121.661 249.771 113.379 249.415 105.096 249.112C98.3585 248.867 91.6212 248.622 84.8839 248.377C83.4705 248.327 82.6761 247.316 82.5029 245.995C82.186 243.564 82.7817 241.052 84.1296 239.008C84.2691 238.797 84.4339 238.609 84.6177 238.448C84.586 236.992 84.5268 235.533 84.6092 234.077C84.7317 231.854 84.9155 229.63 85.0761 227.409C85.4015 222.96 85.6529 218.503 85.7522 214.043C85.955 205.124 85.8071 196.197 85.3022 187.291C84.2902 169.497 81.9346 151.818 78.0789 134.413C77.7979 133.145 77.5148 131.877 77.2212 130.611C74.2233 132.168 70.5768 132.728 67.3001 132.75C63.193 132.775 59.1768 131.83 55.467 130.112C55.4923 130.304 55.5177 130.494 55.5409 130.687C56.5761 138.929 57.4486 147.189 58.2092 155.459C59.7261 171.947 60.6557 188.502 60.5268 205.063C60.4909 209.651 60.3155 214.225 60.0979 218.807C59.8761 223.467 59.536 228.392 58.2388 232.887C58.0951 233.384 57.7761 233.669 57.4085 233.773C57.3895 234.428 57.3472 235.085 57.3008 235.732C57.1508 237.835 56.7219 242.204 55.805 244.11C54.9113 245.97 53.4219 247.445 51.5226 248.257C49.1099 249.286 46.5008 248.99 43.9529 248.825C32.874 248.102 21.8036 247.134 10.731 246.285C9.18878 246.166 7.64653 246.05 6.10638 245.93C4.73526 245.824 3.31766 245.731 2.10075 245.019C0.716949 244.209 -0.362625 240.234 0.114838 238.59C0.201462 238.289 0.332443 237.993 0.505676 237.727Z" fill="white"/>
<path fill-rule="evenodd" clip-rule="evenodd" d="M140.906 147.545L136 151L140.044 156.743L139.545 157.094L143 162L152.811 155.09L149.356 150.185L144.95 153.288L140.906 147.545Z" fill="#FF4444"/>
<path fill-rule="evenodd" clip-rule="evenodd" d="M34.5052 59.9346C34.5893 55.1935 34.6824 50.3575 35.3864 45.6625C36.0748 41.0724 37.9684 36.9234 41.2225 33.5903C48.1344 26.5103 58.1534 24.781 67.4794 23.1962L83.4242 20.4866C88.2887 19.6601 93.4783 18.3391 98.3931 19.5111C100.815 20.0887 102.872 21.4305 104.751 23.018C106.563 24.5482 108.511 26.1914 109.739 28.25C110.969 30.3116 111.392 32.7215 111.791 35.0532C112.242 37.6819 112.593 40.3313 112.842 42.9869C113.34 48.3075 113.408 53.6682 113.047 58.9998C112.871 61.5859 112.593 64.1645 112.236 66.7317C112.06 68.0047 111.86 69.2745 111.635 70.5399C111.569 70.9131 111.518 71.3262 111.45 71.7435C111.953 73.1755 112.239 74.6584 112.216 76.1351C112.148 80.4847 108.48 83.2231 104.783 84.6934C102.639 85.5459 100.398 86.1251 98.2919 87.0775C96.076 88.0792 94.5678 89.7031 93.0528 91.5556C90.1633 95.0887 86.9027 98.2642 83.1794 100.913C75.2855 106.531 65.2872 109.187 55.7092 107.171C53.4111 106.687 51.0927 105.936 49.027 104.804C46.846 103.609 45.206 101.877 43.8289 99.829C41.2718 96.0278 39.438 91.7473 38.0507 87.3916C36.6356 82.9484 35.6312 78.4972 35.0834 73.8642C34.5375 69.2462 34.4225 64.5812 34.5052 59.9346Z" fill="black"/>
<path fill-rule="evenodd" clip-rule="evenodd" d="M85.3867 3.97133C78.7884 3.06276 69.6812 6.01577 66.3952 11.9701C50.7068 8.26762 30.9197 8.14636 17.9893 20.4716C4.49686 35.0922 21.444 54.3694 32.6814 58.7157C31.8633 62.696 33.1389 88.1955 42.1654 99.5696C49.329 109.207 66.0112 113.655 73.7307 102.144L73.7909 102.049C74.6179 100.719 73.9057 100.762 73.0567 101.751C65.4977 108.405 55.2201 108.519 47.3002 101.496C32.4571 88.6602 33.9876 57.1872 41.0506 38.9796C61.1626 36.7684 82.6962 42.8706 96.5873 58.0259L95.648 63.6869C95.488 64.6513 95.3062 65.6149 95.1675 66.5828C95.0787 67.2029 95.0687 67.8196 95.4979 68.3216C96.915 69.9787 99.3034 67.4886 101.269 66.4981C101.849 66.4164 102.43 66.3849 103 66.4251C112.441 67.6424 110.581 85.9768 100.204 82.7631C99.3324 82.2194 98.5833 82.3853 98.2451 83.1743C95.7717 85.4422 94.1408 89.4871 90.0315 93.383C88.5816 94.8443 87.2622 96.067 85.6313 97.2393C84.6734 98.209 81.7829 99.1978 82.6992 100.857C84.432 104.633 94.6499 92.772 96.4565 89.4917C102.117 91.7292 108.389 90.9692 114.255 90.4223C145.2 88.8118 141.069 56.1578 115.704 35.5417C110.93 32.023 105.662 29.1525 100.186 26.9436C99.4383 26.642 99.7649 25.4132 100.523 25.7191C104.146 27.1809 107.678 28.9207 111.045 30.9345L111.051 29.7306C111.056 27.7028 111.024 25.5917 110.672 23.7389C110.496 22.4551 110.2 21.0839 109.745 20.0524C109.182 16.8898 100.363 6.0344 85.3867 3.97133ZM103.413 70.6343C102.935 70.1799 102.043 70.7217 101.618 70.7082C100.53 70.8572 99.4965 71.3171 98.6906 71.8847C98.1585 72.1831 97.7855 72.4633 97.4739 72.7211L97.4654 72.7188C97.4678 72.7188 97.4707 72.7211 97.4733 72.7217L97.4439 72.7416C96.9902 73.0643 95.3291 74.8821 96.3785 74.3933C96.4568 74.2915 96.5369 74.1937 96.6177 74.0978C96.6263 74.1109 96.6384 74.1238 96.6528 74.1363L96.5938 74.2239C95.7018 75.5671 97.2418 74.152 97.4788 73.7761C97.49 73.7852 97.5027 73.7914 97.5151 73.7979L97.2066 74.1738C97.1634 74.2272 97.1295 74.2698 97.1014 74.3058L97.0363 74.3687C96.005 75.3835 95.9728 76.2967 97.1709 74.7964C97.1238 74.8671 97.0859 74.942 97.0807 75.0085L97.0097 75.0991C96.0689 76.3126 96.8341 75.8816 97.3016 75.3634L97.3407 75.3188L97.3327 75.3309C96.8978 76.0015 97.7607 75.531 97.9131 75.1722L97.9196 75.156C98.0857 75.0203 98.1879 74.868 98.223 74.8296L98.2295 74.8231C99.0384 73.9935 100.211 73.2915 101.207 72.9725C101.351 72.945 101.497 72.923 101.645 72.9073C102.244 72.7736 102.849 72.6819 103.461 72.6324C103.536 72.6235 103.612 72.5685 103.669 72.4974C104.594 72.4661 104.308 72.0865 103.924 72.016L103.918 72.0149L103.994 72.0084C104.588 71.9504 104.993 71.7372 104.393 71.6063L104.317 71.5911C104.326 71.5765 104.334 71.5619 104.342 71.5473C104.856 71.4908 104.521 70.9905 104.235 71.1116C104.356 70.7185 103.807 70.9147 103.738 70.8563C103.686 70.7983 103.621 70.7471 103.584 70.7444C103.418 70.6275 103.498 70.6381 103.413 70.6343ZM100.267 64.2712L100.387 64.3417C100.485 64.3986 100.585 64.4365 100.686 64.4587C100.544 64.5193 100.403 64.5847 100.264 64.6545C100.267 64.5691 100.268 64.4839 100.268 64.3988L100.267 64.2712Z" fill="white"/>
<path fill-rule="evenodd" clip-rule="evenodd" d="M59.0597 89.981C60.4786 89.4007 61.7446 88.4327 62.6701 87.1962C62.9919 86.7664 63.0754 86.3124 63.0079 85.8973C62.932 85.4304 62.6565 85.0073 62.2808 84.7235C61.9039 84.4388 61.4325 84.2984 60.9767 84.37C60.5807 84.4322 60.1864 84.6496 59.8744 85.1004L59.8092 85.1906C59.259 85.9369 58.5419 86.5492 57.7249 86.9439C56.9374 87.3243 56.0567 87.5019 55.1453 87.3987C53.4094 87.2021 52.213 86.261 50.9414 84.9829C50.7837 84.8216 50.626 84.6552 50.4675 84.4861C50.3674 84.3328 50.2285 84.2343 50.0743 84.1826C49.9031 84.1252 49.7094 84.1285 49.532 84.1905C49.3608 84.2504 49.2079 84.3638 49.1053 84.5148C49.0078 84.6583 48.9525 84.8356 48.9705 85.0395C49.0869 86.364 49.7776 87.546 50.7587 88.4741C51.8483 89.505 53.2928 90.2181 54.6526 90.4682C56.1508 90.7437 57.6774 90.5463 59.0597 89.981ZM53.9459 69.5486C52.352 70.5199 49.9234 72.7847 51.638 75.1926C53.6564 77.3157 56.5623 74.8814 57.9943 73.7805C59.3221 72.9273 60.8139 75.1217 59.582 76.118C49.2344 83.7982 45.0352 69.8026 53.1397 68.4066C54.032 68.2528 54.3635 69.2482 53.9459 69.5486ZM72.4888 60.6145C72.3127 58.4231 68.9835 57.9255 68.6524 60.094C68.3558 62.0365 68.7049 63.821 69.5777 65.5699C70.4116 67.2407 72.5077 66.4612 72.6662 64.9398C72.8787 62.9003 72.5984 61.9777 72.4888 60.6145ZM47.1466 59.6444C46.6825 59.0349 46.0123 58.6189 45.2094 58.854C42.7008 59.5889 43.4402 63.1593 44.3212 64.8972C44.7999 65.841 46.3473 66.0803 47.0466 65.2493C48.1864 63.8942 48.7322 61.188 47.2832 59.8532C47.2439 59.7842 47.2003 59.7146 47.1466 59.6444ZM69.613 51.0255L69.2168 50.956C67.9909 50.7434 66.4667 50.5392 65.5995 51.5272C65.1396 52.0512 64.9813 53.025 65.5995 53.5265C66.6869 54.4089 67.8892 54.0669 69.1924 54.1416C70.2663 54.2034 71.2984 54.3816 72.3329 54.678C74.6024 55.3283 76.4516 56.5154 78.3899 57.8189C78.6442 57.9898 78.9038 57.6637 78.7824 57.4253C77.6636 55.2282 75.4952 53.4234 73.3233 52.3233C72.1641 51.7361 70.8955 51.249 69.613 51.0255ZM49.4334 50.0413L49.1301 50.1035C45.8295 50.7952 41.5413 52.1768 39.9783 55.427C39.9188 55.8865 39.9817 55.985 40.0329 56.0494L40.0499 56.0708C40.0921 56.1257 40.1257 56.2015 40.3244 56.2641C40.3795 56.2509 40.4352 56.2369 40.4915 56.2221C41.208 56.0339 41.7748 55.7746 42.3236 55.5055L42.9186 55.2117C43.6089 54.8723 44.3053 54.5454 45.0434 54.304C46.6184 53.7889 48.2385 53.4261 49.8837 53.2324C50.2403 53.1904 50.5836 53.0698 50.8545 52.863C51.1116 52.6667 51.3081 52.395 51.3976 52.0338C51.5137 51.5664 51.4803 51.2125 51.2302 50.7908C51.042 50.4741 50.7729 50.2546 50.4638 50.1285C50.1487 50 49.79 49.9697 49.4334 50.0413Z" fill="white"/>
<path fill-rule="evenodd" clip-rule="evenodd" d="M32.6755 73.7707C33.3738 72.8229 34.6291 71.5789 35.8988 71.6458C36.0613 71.6543 36.1222 71.8322 36.0246 71.9526C35.6093 72.4654 35.0419 72.8301 34.6257 73.3535C34.1333 73.9731 33.7778 74.7202 33.5466 75.4759C33.2108 76.5737 33.118 77.8162 33.4175 78.9325C33.9451 80.9002 35.6133 82.3425 37.4335 83.079C39.2351 83.808 41.4029 84.0571 43.1067 82.9889C45.6216 81.4119 47.7547 79.1387 50.9156 79.0938C51.655 79.0834 52.1761 79.4257 52.4865 79.9144C52.7983 79.4432 53.3129 79.1098 54.0338 79.1015C57.5773 79.0612 60.2222 81.5276 63.1965 83.0651C65.2065 84.1044 67.8073 83.7818 69.8809 83.0952C71.837 82.4477 73.9604 81.1475 74.6983 79.0944C75.1056 77.9606 75.0144 76.6368 74.5961 75.5191C74.3211 74.7841 73.8965 74.0741 73.3712 73.4965C72.8265 72.8974 72.1105 72.5208 71.5525 71.9528C71.4385 71.8367 71.5285 71.6562 71.6783 71.6458C74.048 71.4832 76.1878 74.344 76.6352 76.4195C77.0758 78.4634 76.4188 80.502 75.089 82.0617C72.3849 85.2326 67.3779 86.2785 63.4809 85.3466C60.3267 84.5927 57.331 82.8559 54.0338 83.1052C53.311 83.1599 52.7922 82.8553 52.4791 82.3934C52.1656 82.8687 51.6434 83.1795 50.9156 83.1084C47.8425 82.8074 45.0997 85.0077 42.1168 85.545C39.7418 85.9725 37.1764 85.3958 35.1413 84.1022C33.0142 82.75 31.5168 80.581 31.4182 77.9951C31.3615 76.5074 31.7933 74.9682 32.6755 73.7707Z" fill="white"/>
</svg>
