<svg width="257" height="355" viewBox="0 0 257 355" fill="none" xmlns="http://www.w3.org/2000/svg">
<path d="M21.4373 275.059C42.7762 271.039 64.711 269.408 86.2672 266.948C107.703 264.502 129.09 261.48 150.677 261" stroke="white" stroke-width="3" stroke-linecap="round"/>
<path d="M143.106 268.57C122.452 267.244 101.309 269.794 80.7395 271.394C56.7089 273.264 32.6832 274.894 9.00005 279.385" stroke="white" stroke-width="3" stroke-linecap="round"/>
<path d="M43.6079 292.904C57.0359 285.4 71.4976 281.471 86.3271 277.763" stroke="white" stroke-width="3" stroke-linecap="round"/>
<path fill-rule="evenodd" clip-rule="evenodd" d="M226.949 268.602C222.254 263.427 213.719 263.53 207.818 260.227C204.699 258.401 201.506 257.332 198.929 254.672C201.943 250.103 196.384 240.958 194.794 235.475C189.427 221.271 184.297 206.8 178.258 192.697C185.867 194.065 182.272 180.676 180.835 177.655C180.709 177.231 180.161 177.211 179.814 177.116C179.83 176.486 180.067 176.318 179.276 176.243C178.56 172.568 179.097 168.286 176.792 165.247C174.208 161.938 168.718 159.58 164.481 160.054C160.053 148.65 158.821 143.165 145.361 149.898C145.53 148.713 145.497 147.649 144.811 146.558C141.904 140.439 138.38 133.787 135.266 127.607C131.678 120.495 127.969 113.141 123.517 106.432C120.472 102.198 112.552 101.946 107.378 103.35C105.848 101.294 101.924 95.5701 98.093 97.4801C97.8345 95.6392 97.5775 93.7981 97.3252 91.9563C97.106 90.3553 97.0716 88.6901 96.2651 87.2441C95.4106 85.7124 93.9721 85.0262 92.3299 84.6026C87.3972 83.6276 81.6416 81.7926 76.8325 83.9641C72.7091 86.4945 74.1441 93.9122 72.5329 98.2405C69.0269 94.224 64.337 97.7886 63.8498 102.622C52.2755 108.969 41.1313 104.766 42.7044 123.864C43.8044 127.245 44.7773 130.423 44.8922 133.96L44.5285 134.044C43.4969 151.266 44.5328 169.463 47.6085 188.132C48.3721 195.539 46.5269 202.768 44.7423 209.758C43.4295 214.897 42.0748 220.211 41.7789 225.528C41.2731 229.989 40.0212 251.292 47.6821 243.323C50.9417 266.979 72.4853 267.393 90.8994 259.799C110.616 253.098 133.546 251.484 143.663 229.618C148.852 236.402 150.89 240.735 152.912 248.25C154.786 253.707 157.287 259.858 160.896 263.174C158.787 268.381 158.192 274.479 158.802 278.33C159.042 279.842 158.432 280.632 159.55 281.452C164.912 285.388 175.632 284.113 184.027 285.121C189.701 285.139 210.234 285.352 213.102 283.201C215.329 283.535 212.133 278.256 214.271 277.871C215.008 277.785 214.991 276.837 215.752 276.778C220.607 276.4 231.191 276.527 228.194 272.955L226.949 268.602Z" fill="#1A1A1A"/>
<path fill-rule="evenodd" clip-rule="evenodd" d="M226.43 274.237C222.965 275.445 219.278 275.684 215.709 276.43C215.788 276.115 215.847 275.794 215.885 275.471C219.556 274.56 223.438 273.863 226.838 272.194C226.972 272.583 227.085 272.98 227.16 273.385C227.17 273.439 227.238 274.05 227.312 273.927C227.221 274.08 226.588 274.187 226.43 274.237ZM207.306 267.247C200.565 265.923 193.469 264.947 187.865 260.632C187.871 260.604 187.877 260.575 187.883 260.547C188.875 260.129 189.929 259.369 191.002 259.921C194.156 259.42 197.327 257.902 199.255 255.287C199.411 255.3 199.563 255.327 199.712 255.365C204.878 262.083 214.142 262.337 221.322 265.711C224.215 266.945 229.766 270.546 223.345 271.436C220.853 272.135 218.334 272.735 215.798 273.249C215.095 269.193 210.825 267.907 207.306 267.247ZM213.128 277.136C212.057 279.049 209.817 280.029 207.691 280.118C206.118 280.1 204.685 279.726 203.09 280.042C190.831 281.09 178.521 280.053 166.303 278.951C155.4 278.274 162.57 269.416 160.896 263.174C162.514 263.903 164.302 264.36 166.118 264.633C169.157 270.635 175.136 268.229 179.14 264.678C180.822 264.414 182.91 264.418 184.153 263.128C184.242 263.184 184.334 263.229 184.427 263.266C185.444 262.486 186.363 261.688 187.451 261.048C192.147 267.122 200.584 267.596 207.519 269.307C211.704 269.895 215.408 272.608 213.128 277.136ZM213.601 282.778C210.304 284.224 206.658 284.495 203.089 284.645C191.359 285.078 179.585 284.531 167.955 282.938C165.197 282.56 159.914 282.378 159.254 279.064C162.017 281.881 166.306 281.722 169.97 282.083C181.956 282.924 194.308 284.396 206.206 282.345C208.822 282.75 211.507 281.842 213.472 280.18C213.51 281.046 213.555 281.912 213.601 282.778ZM136.797 181.349C137.962 176.546 139.281 171.786 140.535 167.001C144.142 168.47 148.035 168.689 151.979 168.647C152.076 168.682 152.178 168.71 152.287 168.729C152.476 168.744 152.629 168.707 152.745 168.636C157.999 168.541 163.316 168.101 168.14 169.653C170.006 170.253 171.799 171.151 173.487 172.485C175.321 173.85 176.877 175.579 178.022 177.557C178.379 178.167 178.609 178.819 179.112 179.295C179.332 179.991 179.568 180.68 179.758 181.387C180.362 184.167 181.077 187.086 180.324 189.918C179.854 191.654 178.308 190.496 177.311 189.962C175.692 189.108 174.172 188.086 172.656 187.064C167.964 183.64 162.635 180.894 156.67 181.07C150.194 180.974 143.16 180.725 136.797 181.349ZM134.246 181.674C134.007 182.609 133.774 183.545 133.547 184.482C131.839 184.403 128.195 184.17 126.643 183.583C127.164 183.536 127.645 183.203 127.701 182.568C127.724 182.287 127.784 182.019 127.823 181.743C128.348 178.777 128.736 175.769 129.638 172.876C130.494 169.834 131.59 166.845 132.33 163.773C134.186 163.423 137.427 165.374 138.88 166.153C137.091 171.244 135.583 176.425 134.252 181.652C134.215 181.656 134.178 181.661 134.142 181.667C134.176 181.669 134.212 181.672 134.246 181.674ZM123.185 182.7C113.516 183.289 103.871 185.124 94.1762 184.6C92.3407 184.518 90.5972 184.175 88.9486 183.617C84.1517 181.995 80.1547 178.556 77.0152 174.441C65.9172 161.54 53.8916 148.85 47.2464 132.948C43.5305 125.314 41.524 113.463 50.6386 108.852C54.6743 106.752 59.7958 106.217 63.0834 102.907C62.8586 104.469 62.8228 106.079 62.7836 107.505C62.7083 109.832 62.6479 112.238 63.2245 114.511C63.2297 114.53 63.2349 114.55 63.2411 114.569C62.9243 115.927 64.5791 116.968 66.0382 116.657C69.1407 116.201 70.2047 112.281 73.3085 111.781C74.4418 111.599 75.2054 112.192 76.0023 112.913C77.9316 114.659 79.831 116.448 82.0679 117.798C82.2274 117.894 82.4041 117.732 82.3004 117.567C80.9992 115.5 79.3149 113.736 77.6417 111.963C74.0876 107.599 70.3618 110.271 67.3402 113.565C66.741 114.123 66.1202 114.592 65.4223 114.507C65.4466 114.339 65.4354 114.15 65.3812 113.944C64.9005 112.123 64.9049 110.14 64.9331 108.271C65.0928 104.769 64.3656 100.319 67.4229 97.8322C68.7684 96.8371 70.505 96.5172 72.0272 97.269C71.8471 97.9332 71.627 98.6826 71.6653 99.3565C71.3581 99.1929 71.1747 99.2782 71.1769 99.7154C72.673 102.806 74.8352 105.549 76.735 108.403C78.2072 110.538 79.6857 112.671 81.187 114.786C81.6344 115.444 82.0305 116.15 82.7811 116.452C82.7834 116.458 82.7855 116.465 82.7877 116.471C83.4562 117.976 83.6642 119.657 84.2271 121.202C84.5722 122.146 84.9515 123.091 85.3476 124.028C85.7214 124.907 86.1097 125.78 86.5001 126.638C91.2574 137.743 95.8454 148.922 100.523 160.063C96.4311 158.555 94.0221 155.088 91.7928 151.516C85.9413 142.324 79.7586 132.265 73.4475 123.897C79.548 133.544 89.1472 156.722 98.1401 161.666C99.5025 162.342 100.953 162.799 102.447 163.118C103.113 163.585 103.755 163.624 104.158 163.428C106.842 163.833 109.611 163.914 112.227 164.131C116.763 164.51 121.3 164.882 125.838 165.25C127.373 165.373 128.927 165.6 130.465 165.484C130.542 165.478 130.616 165.466 130.683 165.448C127.793 169.728 126.178 175.282 125.494 180.385C124.402 180.213 123.345 181.484 123.185 182.7ZM85.2617 187.826C79.165 199.956 68.2978 208.357 59.7594 218.595C54.7258 225.393 50.9856 233.025 46.5134 240.185C46.3755 240.406 46.2361 240.628 46.0968 240.848C45.7521 241.398 45.255 242.017 44.9879 242.542C44.9804 242.558 44.9727 242.572 44.9659 242.584C44.0042 241.086 44.1706 238.996 43.9175 237.184C43.6495 234.058 43.6755 230.924 43.9104 227.799C44.3945 215.308 49.9302 203.559 49.9037 191.061C48.2329 177.972 45.9548 164.92 45.4403 151.692C45.1044 145.667 44.7883 139.637 44.6507 133.602C50.6969 148.45 64.8508 163.522 73.0349 173.279C76.3087 176.991 79.3378 181.107 83.6254 183.726C84.6609 184.352 85.7357 184.868 86.84 185.29C86.2247 186.071 85.7224 186.935 85.2617 187.826ZM102.358 124.887C103.355 124.489 105.597 123.938 106.684 123.016C107.555 125.033 108.474 127.028 109.428 129.006C107.671 128.716 105.865 129.178 104.143 129.584C101.899 130.113 99.6602 130.664 97.4242 131.227C95.376 131.743 93.3303 132.269 91.2865 132.802C90.2171 130.242 89.1426 127.685 88.0569 125.132C92.6393 126.599 97.8144 126.242 102.358 124.887ZM102.247 104.648C102.222 104.473 102.157 104.294 102.042 104.116C102.025 104.091 102.01 104.065 101.993 104.04C101.483 102.824 100.968 101.609 100.447 100.397C100.365 100.192 100.034 100.275 100.068 100.497C100.085 100.653 100.102 100.808 100.12 100.963C100.088 100.902 100.057 100.84 100.026 100.777C99.4105 99.5223 98.911 98.2133 98.5219 96.8688C102.504 97.1866 106.75 105.246 109.305 111.067C107.762 110.79 105.801 110.926 105.376 112.226C104.336 109.698 103.301 107.169 102.247 104.648ZM102.42 155.462C103.38 155.279 104.34 155.099 105.3 154.912C107.263 154.53 109.225 154.142 111.188 153.757C111.658 153.665 112.129 153.572 112.599 153.478C113.935 153.238 115.27 152.997 116.606 152.759C118.083 152.496 119.571 152.175 121.062 151.935C121.343 151.894 121.624 151.854 121.906 151.816C121.975 151.922 122.046 152.026 122.122 152.124C120.215 152.913 118.49 153.767 117.123 154.582C114.018 156.423 111.094 158.702 108.692 161.41C108.18 161.369 107.667 161.326 107.155 161.282C105.749 161.156 104.322 161.012 102.93 160.728C102.485 159.934 102.252 158.966 101.859 158.177C101.526 157.38 101.194 156.583 100.861 155.785C101.386 155.711 101.914 155.558 102.42 155.462ZM98.3163 149.112C98.3338 149.108 98.3512 149.104 98.3686 149.1C98.3707 149.099 98.373 149.099 98.3751 149.099C98.5904 149.065 98.8053 149.03 99.0201 148.993C99.4494 148.92 99.8779 148.841 100.305 148.757C101.161 148.588 102.013 148.4 102.862 148.2C104.563 147.798 106.253 147.351 107.946 146.919C108.944 146.665 109.94 146.429 110.938 146.21C113.279 145.761 115.631 145.349 117.985 145.024C118.961 146.722 119.948 148.414 120.941 150.1C121.034 150.258 121.127 150.43 121.222 150.609C117.749 150.972 114.309 151.73 110.881 152.364C108.959 152.719 107.037 153.071 105.116 153.43C104.155 153.609 103.196 153.794 102.236 153.977C101.595 154.099 100.897 154.157 100.266 154.359C100.068 153.886 99.871 153.413 99.6737 152.94C99.1583 151.715 98.6468 150.488 98.1345 149.261C98.1997 149.219 98.2611 149.17 98.3163 149.112ZM94.1569 139.701C93.3533 137.765 92.5493 135.829 91.7425 133.895C91.8456 133.867 91.9488 133.84 92.0518 133.813C92.4375 133.71 92.8234 133.608 93.2093 133.506C94.0595 133.281 94.91 133.058 95.761 132.837C96.4206 132.665 97.0805 132.495 97.7405 132.325C98.4735 132.171 99.207 132.02 99.9415 131.874C103.263 131.212 106.612 130.565 109.973 130.13C110.931 132.083 111.926 134.019 112.946 135.942C110.108 136.47 107.279 137.053 104.452 137.636C102.825 137.971 101.2 138.311 99.5751 138.656C98.7847 138.823 97.9947 138.992 97.2048 139.162C96.7661 139.257 96.3274 139.351 95.8887 139.447C95.6353 139.502 95.3115 139.63 95.0235 139.667C94.9825 139.642 94.9399 139.619 94.8949 139.595C94.6668 139.477 94.3602 139.54 94.1569 139.701ZM95.0351 141.31C96.893 140.847 98.7444 140.367 100.601 139.905C101.634 139.674 102.667 139.445 103.701 139.218C106.986 138.497 110.28 137.817 113.565 137.101C114.755 139.313 115.977 141.507 117.221 143.69C113.118 143.926 109.058 145.121 105.093 146.091C102.976 146.608 100.85 147.102 98.6975 147.45C98.3567 147.505 97.876 147.547 97.4767 147.688C96.6697 145.752 95.8648 143.815 95.0606 141.877C95.0457 141.69 95.0371 141.501 95.0351 141.31ZM131.765 163.982C131.639 164.135 131.517 164.292 131.396 164.453C131.393 164.407 131.389 164.362 131.382 164.317C131.384 164.315 131.387 164.313 131.388 164.312C131.497 164.176 131.623 164.066 131.765 163.982ZM122.14 106.879C127.577 116.483 132.479 126.444 137.666 136.205C139.353 139.528 141.022 142.86 142.628 146.225C143.215 147.33 143.539 148.611 144.564 149.41C144.607 149.443 144.653 149.472 144.701 149.496C143.539 150.161 142.502 150.869 141.681 151.557C142.263 152.893 142.927 154.193 143.681 155.434C143.951 155.877 143.305 156.372 143.034 155.927C142.076 154.35 141.254 152.688 140.559 150.975C139.869 150.252 139.095 149.622 138.152 149.286C136.362 148.877 134.176 148.929 131.856 149.287C131.811 149.225 131.753 149.167 131.685 149.114C130.822 148.468 130.371 147.328 129.866 146.394C128.396 143.67 127.084 140.857 125.937 137.981C124.806 135.132 123.958 132.178 122.798 129.34C122.573 128.846 121.763 126.425 121.312 126.62C121.328 126.675 121.343 126.729 121.358 126.785C121.332 126.772 121.304 126.768 121.278 126.773C121.841 132.871 124.191 138.792 126.728 144.339C127.471 146.2 128.84 147.858 129.448 149.753C127.871 150.116 126.276 150.589 124.74 151.126C124.702 151.002 124.654 150.879 124.6 150.757C124.557 150.582 124.486 150.449 124.394 150.353C124.135 149.892 123.813 149.451 123.564 149.037C123.051 148.182 122.54 147.327 122.034 146.467C119.272 141.764 116.619 136.993 114.194 132.107C111.216 126.187 108.628 120.097 106.1 113.982C107.345 114.462 109.437 112.937 111.166 115.616C111.552 116.297 112.276 116.728 113.068 116.403C113.762 116.116 114.203 115.213 113.858 114.505C113.807 114.388 113.753 114.274 113.694 114.162C111.861 110.36 110.271 106.421 107.874 102.925C112.902 102.811 118.822 102.44 122.14 106.879ZM176.616 167.492C177.296 169.464 177.284 171.628 177.423 173.704C175.138 171.345 172.375 169.431 169.281 168.313C168.926 167.035 167.964 166.002 167.428 164.785C166.506 163.088 165.712 161.336 164.973 159.559C169.842 159.958 174.887 162.825 176.616 167.492ZM161.329 185.136C164.014 193.61 167.62 201.748 170.561 210.131C170.734 210.623 169.982 210.934 169.809 210.441C166.868 202.058 163.262 193.92 160.577 185.446C160.42 184.95 161.171 184.639 161.329 185.136ZM170.372 264.978C171.681 264.999 172.983 264.997 174.294 264.973C171.852 266.367 169.417 266.402 167.086 264.762C168.191 264.889 169.297 264.954 170.372 264.978ZM228.706 270.734C228.591 270.398 228.372 270.199 228.117 270.108C227.26 262.885 211.758 262.422 206.579 258.396C204.287 257.17 202.448 254.904 199.885 254.286C201.006 251.976 200.293 249.27 199.688 246.904C198.473 242.603 196.176 237.911 195.399 235.256C190.34 221.736 185.377 208.17 179.893 194.814C179.784 194.559 179.576 194.054 179.326 193.497C179.744 193.545 180.137 193.529 180.496 193.437C185.643 191.611 183.133 181.081 181.411 177.365C181.221 176.925 180.875 176.675 180.493 176.585C180.511 176.343 180.437 176.097 180.239 175.878C180.133 175.76 179.983 175.685 179.826 175.656C179.212 172.004 179.642 167.943 177.289 164.828C174.658 161.428 169.088 159.035 164.882 159.339C164.015 157.249 163.22 155.129 162.373 153.033C161.457 150.843 160.251 148.516 158.161 147.229C155.431 145.351 150.262 146.667 146.097 148.748C146.195 147.582 145.525 146.621 145.061 145.597C143.583 142.542 142.074 139.502 140.543 136.474C135.134 126.296 130.407 115.638 124.027 106.028C121.481 102.818 117.216 101.757 113.269 101.918C111.413 101.961 109.455 102.131 107.631 102.577C107.558 102.471 107.484 102.367 107.408 102.263C105.567 99.83 101.885 95.331 98.4471 96.6069C97.7644 94.1609 97.4429 91.6075 97.4423 89.0757C97.4421 88.8958 97.1418 88.8553 97.0891 89.0254C95.3922 94.5663 96.628 100.973 100.107 105.59C100.359 105.909 100.667 106.052 100.969 106.067C102.071 111.23 103.849 116.24 105.881 121.121C105.671 121.156 105.473 121.225 105.313 121.321C101.029 123.515 96.1289 124.393 91.3412 124.014C89.9921 123.9 88.6731 123.686 87.3465 123.466C87.0008 122.658 86.6551 121.854 86.308 121.048C85.3701 118.482 84.9 115.963 83.0865 114.028C82.9754 113.882 82.8621 113.738 82.7525 113.594C81.229 111.496 79.6868 109.412 78.136 107.335C77.781 107.007 75.2079 103.195 73.2925 100.935C73.4937 100.904 73.6961 100.828 73.8866 100.7C74.9523 99.9948 74.7374 98.3576 74.8086 97.2327C75.0209 93.7384 75.3323 90.2263 75.104 86.7266C75.0927 86.5481 74.8117 86.5066 74.7521 86.6775C73.5825 89.9319 72.9144 93.3423 72.1674 96.712C72.1524 96.7793 72.1365 96.8481 72.1192 96.9183C70.8907 95.7132 68.9849 95.6261 67.4037 96.187C64.7745 97.2306 63.6771 99.6026 63.1972 102.205C55.846 106.891 46.08 104.243 42.5571 114.669C41.0582 120.075 41.8202 125.9 43.9545 131.797C42.629 150.637 43.8305 169.593 46.8969 188.216C48.1975 200.909 41.7711 212.857 41.0651 225.454C40.5533 230.448 40.4711 235.512 41.1749 240.49C41.3303 243.147 42.9774 246.895 46.236 245.451C46.6051 245.265 46.9289 245.009 47.22 244.713C51.2764 265.883 68.28 267.97 86.8338 261.941C87.6051 261.859 88.3394 261.588 89.1202 261.261C89.4987 261.096 89.8737 260.925 90.248 260.748C90.5328 260.642 90.8186 260.535 91.1041 260.424C91.317 260.353 91.5308 260.284 91.7442 260.213C96.7216 255.968 101.948 252.016 106.848 247.678C107.193 247.372 107.73 247.917 107.415 248.25C104.204 251.643 101.083 255.156 97.7047 258.39C108.101 255.396 118.927 254.347 128.288 248.764C134.861 244.872 140.647 237.987 143.773 230.945C143.846 231.042 143.917 231.139 143.988 231.236C143.73 230.717 143.472 230.199 143.215 229.679C138.666 220.454 134.421 211.076 129.573 202C129.326 201.538 130.081 201.233 130.325 201.689C131.684 204.234 132.998 206.803 134.282 209.386C138.879 218.63 143.131 228.045 147.94 237.184C147.967 237.237 147.981 237.287 147.985 237.335C148.971 239.102 149.825 240.921 150.494 242.81C151.19 244.788 152.378 249.05 153.473 252.625C154.409 255.569 155.252 259.014 157.637 261.068C157.635 261.073 157.633 261.078 157.631 261.083L157.632 261.083C157.575 261.236 157.522 261.388 157.471 261.538C157.638 261.667 157.839 261.741 158.027 261.83C158.038 261.7 158.049 261.57 158.063 261.438C158.64 261.915 159.266 262.33 159.929 262.693C159.87 267.839 155.365 273.375 158.668 278.346C157.765 281.399 161.153 283.372 163.775 283.654C167.836 284.417 171.983 284.854 176.094 285.249C184.198 285.741 209.662 288.117 215.072 283.144C214.875 282.25 215.626 279.173 214.304 279.293C214.817 278.646 215.218 277.914 215.494 277.14C219.271 277.869 223.255 276.947 226.899 276.054C229.898 275.749 229.429 272.856 228.706 270.734Z" fill="white"/>
<path fill-rule="evenodd" clip-rule="evenodd" d="M59.6302 137.547L58.654 142.451L65.2248 143.759L65.1583 144.093L70.0621 145.069L72.2096 134.281L67.3058 133.305L66.201 138.855L59.6302 137.547Z" fill="#FF4444"/>
<path fill-rule="evenodd" clip-rule="evenodd" d="M104.95 54.8113C102.985 50.0983 97.5162 48.6125 92.7869 48.8547C79.9332 49.1155 67.8846 57.7408 63.6684 69.8306C60.2354 79.0394 61.2193 88.1449 71.5122 91.8862C72.0767 92.1102 72.6672 92.3513 73.2658 92.5624C73.8117 92.9542 74.37 93.3264 74.9659 93.6231C80.6639 96.4133 87.3188 97.1014 93.5493 96.0023C102.785 94.6709 105.317 88.0228 106.35 79.7714C107.497 71.5419 107.62 62.7509 104.95 54.8113V54.8113Z" fill="#1A1A1A"/>
<path fill-rule="evenodd" clip-rule="evenodd" d="M116.723 100.071C116.13 98.8263 115.433 97.6344 114.769 96.4251C114.583 95.8043 114.433 95.1738 114.335 94.5315C113.98 92.2377 114.126 89.8618 114.335 87.5594C114.759 82.8805 115.249 78.2416 115.201 73.5359C115.113 65.1192 113.486 56.5572 108.746 49.4507C104.64 43.2947 98.3932 38.6179 90.9337 37.4994C88.7285 37.1685 86.494 37.112 84.2689 37.2544C83.99 37.245 83.7117 37.2366 83.4349 37.2295C80.3055 37.1499 77.1668 37.3057 74.0859 37.8884C68.9767 38.855 64.0569 40.9562 60.1276 44.3941C56.1716 47.8556 53.6114 52.3395 52.8034 57.5221C51.9628 62.9136 52.7868 68.5379 50.8264 73.7377C50.2473 75.2739 49.5326 76.7546 48.8617 78.2532C46.9307 81.0101 44.8421 84.0677 44.7318 87.5434C44.5965 91.8388 47.4787 95.098 50.1964 98.1004C52.6524 100.811 55.9941 104.561 54.2973 108.483C53.497 110.334 52.0322 111.825 51.0068 113.549C49.9439 115.339 49.1886 117.335 48.9263 119.402C48.4337 123.283 49.8007 127.095 52.7277 129.718C54.2523 131.083 56.092 131.883 58.0455 132.443C60.0447 133.013 61.9953 133.549 63.7355 134.726C64.5307 135.264 65.2727 135.869 65.983 136.512C66.6733 137.339 67.4514 138.096 68.3067 138.771C69.2482 139.514 70.7438 138.152 69.8525 137.251C69.7865 137.184 69.7221 137.119 69.6561 137.052C69.0043 136.395 68.3499 135.737 67.6719 135.107C65.5667 132.552 64.4684 129.242 64.9439 125.895C65.0671 125.025 65.2882 124.187 65.5929 123.385C65.7046 123.593 65.8239 123.799 65.9482 124C66.4316 124.783 67.0874 125.7 67.8707 126.456C67.9685 127.029 68.1266 127.589 68.3648 128.128C69.8409 131.465 73.5528 132.742 76.8741 133.683C77.1997 133.776 77.5207 133.864 77.8361 133.951C78.7034 134.192 79.4313 132.917 78.83 132.277C78.6723 132.108 78.518 131.936 78.3701 131.759C76.6078 129.666 75.5663 127.031 75.6298 124.269C75.6951 121.349 77.1038 118.765 78.5125 116.278C79.8955 113.833 81.3958 111.327 81.8005 108.503C82.2491 105.383 81.1285 102.467 79.5157 99.8465C78.0392 97.4485 76.2014 95.2972 74.5975 92.986C75.0964 93.3712 75.6077 93.7401 76.1309 94.0923C76.7193 94.4883 77.3305 94.9493 78.0004 95.1969C78.4958 95.3799 78.8908 94.7461 78.4739 94.4023C77.926 93.9506 77.257 93.6319 76.6623 93.2418C76.0915 92.8675 75.5334 92.4736 74.9863 92.0659C74.3126 91.5641 73.6648 91.0314 73.0353 90.478C72.4547 89.4141 71.9482 88.3106 71.5073 87.1815C70.9088 85.6535 70.3282 84.0206 70.1548 82.3814C69.9763 80.7001 70.7085 79.4165 71.7376 78.1456C72.1735 77.6074 72.6148 77.0743 73.0551 76.5404C74.0214 75.6345 74.9163 74.6454 75.7828 73.6622C77.3267 71.9102 78.803 70.0775 80.1979 68.2067C80.5721 67.7048 80.9421 67.1983 81.3061 66.6873C82.5912 65.0067 83.8 63.2683 84.9215 61.4858C86.1766 60.8479 87.3611 60.0629 88.4538 59.1759C88.0025 59.7582 87.5451 60.3347 87.0908 60.9147C86.0792 62.2075 85.0234 63.5111 83.8016 64.6139C83.6761 64.7281 83.7849 64.9239 83.9502 64.8702C85.6095 64.3222 87.1314 63.5634 88.5064 62.4842C89.9044 61.3861 91.0823 59.9835 92.1711 58.5878C92.8353 58.1857 93.4634 57.6961 94.0338 57.2203C94.0642 57.1952 94.0945 57.1688 94.1249 57.1436C93.7521 59.1412 93.1255 61.4286 91.3001 62.3503C91.2408 62.3803 91.2574 62.4822 91.3309 62.4691C92.9285 62.1762 94.1328 61.2971 95.0241 60.1228C95.7726 59.4343 96.4792 58.7155 97.1431 57.946C97.7863 57.2004 98.3854 56.4122 98.9469 55.6032C98.258 57.5077 97.4547 59.3859 96.6629 61.2426C96.6214 61.3411 96.7479 61.452 96.8351 61.3759C98.7825 59.6847 100.166 57.6422 101.214 55.2998C101.369 54.9549 101.514 54.6058 101.654 54.2548C101.581 54.7859 101.495 55.3153 101.398 55.8434C101.223 56.7993 101.052 57.7568 100.876 58.7122C100.781 59.2274 100.651 59.7355 100.501 60.2376C100.393 60.5969 100.24 60.9613 100.255 61.3388C100.257 61.3638 100.286 61.3767 100.307 61.3687C101.128 61.0535 101.798 59.9965 102.328 59.3276C102.623 58.955 102.893 58.5528 103.135 58.1339C103.462 60.3335 103.772 62.5355 103.997 64.7545C104.409 68.83 104.648 72.9256 104.811 77.0185C104.955 80.6367 105.2 84.4224 103.573 87.7839C102.314 90.3855 99.9959 92.3651 97.3531 93.512C97.1201 93.6142 96.8849 93.7086 96.6475 93.7966C92.7925 95.2241 88.7063 94.653 84.9635 93.213C83.8389 92.7804 83.1266 94.4199 84.2222 94.9227C88.3233 96.8063 93.2512 97.0107 97.4324 95.4215C97.9225 100.496 101.026 104.984 104.054 108.965C105.749 111.193 107.443 113.405 108.752 115.886C109.864 117.993 110.717 120.215 111.201 122.551C111.773 125.303 111.895 128.127 111.845 130.932C111.843 131.084 111.84 131.238 111.836 131.39C111.822 131.993 112.419 132.423 112.962 132.048C115.362 130.391 116.115 127.4 116.461 124.679C116.784 122.129 116.899 119.555 116.823 116.989C117.291 117.902 117.695 118.848 118.038 119.821C118.086 119.96 118.133 120.1 118.18 120.239C118.45 121.055 119.717 120.838 119.824 120.036C119.844 119.891 119.862 119.746 119.878 119.6C120.406 115.249 120.144 110.813 119.055 106.567C118.482 104.333 117.717 102.154 116.723 100.071" fill="white"/>
<path fill-rule="evenodd" clip-rule="evenodd" d="M100.464 81.7399C100.104 82.3631 99.3779 82.8961 98.5306 83.213C97.7231 83.5149 96.8025 83.6206 95.971 83.4127L95.8994 83.3937C95.2752 83.2177 94.6433 82.7845 94.3619 82.2856C94.2501 82.0872 94.1947 81.8784 94.229 81.6729C94.2599 81.488 94.3636 81.3085 94.5529 81.1419C94.6123 81.0896 94.699 81.0756 94.7838 81.0802C94.8889 81.0858 94.9964 81.122 95.0658 81.1802C95.4505 81.5037 95.9872 81.799 96.5695 81.7208C97.0188 81.6604 97.3639 81.4351 97.695 81.1878L97.9274 81.0117C98.1517 80.8423 98.3804 80.6809 98.6502 80.5867C99.133 80.418 99.759 80.5395 100.166 80.8174C100.343 80.9386 100.48 81.0899 100.533 81.2645C100.578 81.4111 100.561 81.5721 100.464 81.7399ZM96.6505 72.0917C97.7109 72.576 99.3874 73.804 98.5134 75.4384C97.4297 76.9183 95.445 75.621 94.4746 75.0433C93.5878 74.6123 92.8351 76.0964 93.6737 76.624C100.664 80.6267 102.179 71.5683 97.0606 71.3171C96.4971 71.2893 96.3691 71.936 96.6505 72.0917ZM84.3802 64.1488L84.6535 64.0352L84.9324 63.9206L85.1212 63.8442C86.418 63.3229 87.8581 62.8272 89.2066 62.8153C89.6984 62.811 90.1261 63.0385 90.2584 63.5443C90.37 63.9711 90.1622 64.5652 89.7003 64.7007C88.1704 65.1497 86.5614 65.2647 85.0253 65.7225C84.2603 65.9504 83.5052 66.2092 82.7451 66.4523C82.1672 66.6373 81.5605 66.7523 80.9748 66.9165L81.1144 66.9188C81.1632 66.9195 81.1613 67.0027 81.1136 67.0053C80.9144 67.0098 80.717 67.0311 80.5213 67.0694L80.4376 67.0869C80.3111 67.1212 80.2159 66.975 80.321 66.8818C80.9864 66.2923 81.5364 65.6746 82.3051 65.2057C82.97 64.8001 83.6624 64.4479 84.3802 64.1488ZM96.4915 61.8719C97.3918 60.6893 99.6342 60.8234 100.92 61.1541C101.654 61.343 102.363 61.609 102.982 62.0615L103.042 62.1061L103.135 62.1768C103.556 62.5013 104.036 62.96 104.043 63.5019C104.044 63.5846 104.012 63.6831 103.923 63.7108C103.442 63.8597 102.927 63.657 102.454 63.5553L102.141 63.4882C101.671 63.3885 101.198 63.296 100.72 63.2463C100.125 63.1847 99.5256 63.1807 98.9328 63.2619C98.3337 63.3441 97.7103 63.5953 97.1087 63.4249C96.4379 63.235 96.0116 62.5024 96.4915 61.8719ZM87.3602 71.6406C87.1309 71.9451 86.8025 72.1415 86.3466 72.1053C85.9904 72.077 85.2852 71.8053 84.6894 71.3261C84.2817 70.9983 83.9219 70.5702 83.7729 70.0411C83.7384 69.9182 83.6628 69.846 83.5703 69.8061C83.4973 69.7746 83.405 69.7657 83.3085 69.7878C83.2265 69.8066 83.1421 69.8479 83.079 69.8967C82.959 69.9895 82.9195 70.105 82.9188 70.1877C82.912 70.9857 83.308 71.7277 83.8563 72.3267C84.5963 73.1352 85.6022 73.6702 86.165 73.7549C87.1281 73.9 88.0834 73.5714 88.7254 72.826C89.2388 72.23 89.4506 71.51 89.6387 70.7734L89.6749 70.6307C89.717 70.4636 89.7588 70.2978 89.8045 70.1331C89.896 69.8033 89.8207 69.5372 89.6681 69.3415C89.4991 69.1247 89.2202 68.9919 88.9262 68.9768C88.6545 68.963 88.3762 69.0494 88.1719 69.2416C87.9993 69.4041 87.8735 69.6431 87.8594 69.9753C87.8365 70.5155 87.7065 71.1482 87.3944 71.5936L87.3602 71.6406ZM102.943 66.6014C102.712 66.5139 102.538 66.5004 102.307 66.6032C102.179 66.6601 102.057 66.7539 101.967 66.8709C101.878 66.9868 101.82 67.1244 101.809 67.2704C101.782 67.6308 101.633 67.9835 101.388 68.2317C101.18 68.4438 100.899 68.5772 100.568 68.5624C100.211 68.5466 99.85 68.3608 99.5873 68.1215C99.5142 68.0547 99.4515 67.9781 99.3904 67.9003L99.3538 67.8535C99.2174 67.6785 99.0857 67.5164 98.9126 67.3969C98.8469 67.3515 98.7533 67.3259 98.667 67.3366C98.6319 67.3409 98.5971 67.3511 98.5645 67.366C98.2601 67.7628 98.2264 68.0394 98.2706 68.3042C98.3169 68.5818 98.4606 68.851 98.6688 69.0929C99.1574 69.6604 100.003 70.0706 100.545 70.1201C101.287 70.1879 101.982 69.9102 102.507 69.4302C103.047 68.9363 103.405 68.2289 103.451 67.476C103.462 67.2947 103.424 67.1051 103.337 66.9475C103.252 66.7935 103.121 66.6687 102.943 66.6014Z" fill="white"/>
</svg>
