<svg width="48" height="48" viewBox="0 0 48 48" fill="none" xmlns="http://www.w3.org/2000/svg">
<path d="M10.7651 22.5C12.3778 22.5 13.833 21.6084 14.8282 20.3394C16.3745 18.3677 18.3234 16.7268 20.551 15.5404C21.9954 14.7713 23.2486 13.6286 23.8562 12.1093C24.2816 11.0462 24.5 9.91174 24.5 8.76676V7.5C24.5 6.67158 25.1716 6 26 6C28.4852 6 30.5 8.01472 30.5 10.5C30.5 12.8033 29.9808 14.9853 29.0532 16.9354C28.522 18.0521 29.2672 19.5 30.5038 19.5M30.5038 19.5H36.7554C38.8088 19.5 40.6466 20.888 40.864 22.9298C40.9538 23.7742 41 24.6316 41 25.5C41 31.1952 39.0162 36.4272 35.702 40.5424C34.9268 41.505 33.7284 42 32.4924 42H24.4604C23.4932 42 22.5322 41.844 21.6144 41.5382L15.3856 39.4618C14.4679 39.156 13.5068 39 12.5395 39H9.30842M30.5038 19.5H26M9.30842 39C9.47404 39.4092 9.65426 39.8108 9.84846 40.2044C10.2427 41.0034 9.6924 42 8.80134 42H6.98578C5.20836 42 3.55982 40.964 3.04112 39.264C2.36416 37.0452 2 34.6902 2 32.25C2 29.145 2.58962 26.1778 3.66298 23.4542C4.2731 21.906 5.83466 21 7.49872 21H9.60424C10.5481 21 11.0946 22.1118 10.6046 22.9186C8.95176 25.6396 8 28.8336 8 32.25C8 34.637 8.46464 36.9156 9.30842 39Z" stroke="black" stroke-width="3" stroke-linecap="round" stroke-linejoin="round"/>
</svg>
