<svg xmlns="http://www.w3.org/2000/svg" viewBox="0 0 425.47 230.92" width="97" height="31">
  <defs>
    <style>
      .cls-1 {
        fill: #ff2a2a;
      }
    </style>
  </defs>
  <g id="Layer_2" data-name="Layer 2">
    <g id="Layer_1-2" data-name="Layer 1">
      <path class="cls-1" d="M413.39,158.47,267,12.09a41.27,41.27,0,0,0-58.37,0h0a41.27,41.27,0,0,0,0,58.37L355,216.84a41.28,41.28,0,0,0,58.38,0h0A41.29,41.29,0,0,0,413.39,158.47Z" />
      <path class="cls-1" d="M88.68,14.09A41.28,41.28,0,1,0,30.3,72.46L68,110.18a20.68,20.68,0,0,1,2.61,2.6,22.52,22.52,0,0,1-17.18,37.08c-.5,0-1,0-1.49-.05a22,22,0,0,1-5.57-1.1,41.82,41.82,0,0,0-5.13-.33,41.27,41.27,0,1,0,40.65,34.08c-.06-.29-.11-.57-.16-.86a22.51,22.51,0,0,1,36.75-20.95,22.1,22.1,0,0,1,2.6,2.61l55.58,55.57a41.27,41.27,0,0,0,58.37-58.36Z" />
    </g>
  </g>
</svg>