<svg xmlns="http://www.w3.org/2000/svg" viewBox="0 0 749.06 271.19" width="97" height="31">
  <defs>
    <style>
      .cls-1 {
        fill: #ff2a2a;
      }

      .cls-2 {
        font-size: 70.56px;
        fill: #fff;
        font-family: Poppins-SemiBold, Poppins;
        font-weight: 600;
      }
    </style>
  </defs>
  <g id="Layer_2" data-name="Layer 2">
    <g id="Layer_1-2" data-name="Layer 1">
      <path class="cls-1" d="M413.39,178.6,267,32.22a41.27,41.27,0,0,0-58.37,0h0a41.27,41.27,0,0,0,0,58.37L355,237a41.28,41.28,0,0,0,58.38,0h0A41.29,41.29,0,0,0,413.39,178.6Z" />
      <path class="cls-1" d="M88.68,34.22A41.28,41.28,0,1,0,30.3,92.59L68,130.31a20.11,20.11,0,0,1,2.61,2.61A22.51,22.51,0,0,1,53.45,170c-.5,0-1,0-1.49-.05a21.85,21.85,0,0,1-5.56-1.1,42,42,0,0,0-5.14-.33,41.27,41.27,0,1,0,40.65,34.08c-.06-.29-.11-.57-.16-.86a22.51,22.51,0,0,1,36.75-20.95,22.1,22.1,0,0,1,2.6,2.61L176.68,239a41.27,41.27,0,1,0,58.37-58.35Z" />
      <text class="cls-2" transform="translate(509.1 60.01)">the <tspan x="0" y="84.67">techie </tspan>
        <tspan x="0" y="169.34">media</tspan>
      </text>
    </g>
  </g>
</svg>