<svg xmlns="http://www.w3.org/2000/svg" xmlns:xlink="http://www.w3.org/1999/xlink" width="150" zoomAndPan="magnify" viewBox="0 0 112.5 60" height="80" preserveAspectRatio="xMidYMid meet" version="1.0"><defs><g/></defs><g fill="#000000" fill-opacity="1"><g transform="translate(0.292969, 54.586797)"><g><path d="M 23.304688 0 L 23.304688 -39.089844 L 35.46875 -39.089844 L 35.46875 -48.792969 L 1.367188 -48.792969 L 1.367188 -39.089844 L 13.53125 -39.089844 L 13.53125 0 Z M 23.304688 0 "/></g></g></g><g fill="#000000" fill-opacity="1"><g transform="translate(25.14831, 54.828724)"><g><path d="M 17.546875 0 L 17.546875 -29.433594 L 26.707031 -29.433594 L 26.707031 -36.742188 L 1.027344 -36.742188 L 1.027344 -29.433594 L 10.1875 -29.433594 L 10.1875 0 Z M 17.546875 0 "/></g></g></g><g fill="#ffffff" fill-opacity="1"><g transform="translate(43.232768, 53.801424)"><g><path d="M 14.851562 -15 L 4.585938 -26.429688 L 2.914062 -26.429688 L 2.914062 0 L 8.191406 0 L 8.191406 -14.527344 L 14.851562 -7.535156 L 21.515625 -14.527344 L 21.480469 0 L 26.757812 0 L 26.757812 -26.429688 L 25.121094 -26.429688 Z M 14.851562 -15 "/></g></g></g><g fill="#ffffff" fill-opacity="1"><g transform="translate(70.599471, 54.1131)"><g><path d="M 8.660156 0 L 8.660156 -2.753906 L 4.292969 -2.753906 L 4.292969 -5.503906 L 7.910156 -5.503906 L 7.910156 -8.257812 L 4.292969 -8.257812 L 4.292969 -11.007812 L 8.429688 -11.007812 L 8.429688 -13.761719 L 1.539062 -13.761719 L 1.539062 0 Z M 8.660156 0 "/></g></g></g><g fill="#ffffff" fill-opacity="1"><g transform="translate(80.297526, 54.1131)"><g><path d="M 5.640625 -13.761719 L 1.539062 -13.761719 L 1.539062 0 L 5.640625 0 C 14.800781 0 14.800781 -13.761719 5.640625 -13.761719 Z M 5.640625 -11.007812 C 10.988281 -11.007812 10.988281 -2.753906 5.640625 -2.753906 L 4.292969 -2.753906 L 4.292969 -11.007812 Z M 5.640625 -11.007812 "/></g></g></g><g fill="#ffffff" fill-opacity="1"><g transform="translate(93.844011, 54.1131)"><g><path d="M 4.292969 0 L 4.292969 -13.761719 L 1.539062 -13.761719 L 1.539062 0 Z M 4.292969 0 "/></g></g></g><g fill="#ffffff" fill-opacity="1"><g transform="translate(99.693635, 54.1131)"><g><path d="M 0.308594 0 L 3.425781 0 L 3.964844 -1.480469 L 8.527344 -1.480469 L 9.082031 0 L 12.183594 0 L 6.390625 -14.261719 L 6.101562 -14.261719 Z M 4.964844 -4.0625 L 6.253906 -7.640625 L 7.503906 -4.0625 Z M 4.964844 -4.0625 "/></g></g></g></svg>