<svg xmlns="http://www.w3.org/2000/svg" xmlns:xlink="http://www.w3.org/1999/xlink" width="100" zoomAndPan="magnify" viewBox="0 0 75 37.5" height="50" preserveAspectRatio="xMidYMid meet" version="1.0"><defs><g/><clipPath id="id1"><path d="M 66 24 L 74.503906 24 L 74.503906 35 L 66 35 Z M 66 24 " clip-rule="nonzero"/></clipPath></defs><g fill="#ffffff" fill-opacity="1"><g transform="translate(0.685022, 34.027848)"><g><path d="M 15.332031 0 L 15.332031 -25.714844 L 23.332031 -25.714844 L 23.332031 -32.097656 L 0.898438 -32.097656 L 0.898438 -25.714844 L 8.902344 -25.714844 L 8.902344 0 Z M 15.332031 0 "/></g></g></g><g fill="#ffffff" fill-opacity="1"><g transform="translate(17.03615, 34.136692)"><g><path d="M 11.542969 0 L 11.542969 -19.363281 L 17.570312 -19.363281 L 17.570312 -24.171875 L 0.675781 -24.171875 L 0.675781 -19.363281 L 6.703125 -19.363281 L 6.703125 0 Z M 11.542969 0 "/></g></g></g><g fill="#ff0000" fill-opacity="1"><g transform="translate(28.932274, 34.309351)"><g><path d="M 9.773438 -9.867188 L 3.019531 -17.386719 L 1.917969 -17.386719 L 1.917969 0 L 5.390625 0 L 5.390625 -9.554688 L 9.773438 -4.957031 L 14.15625 -9.554688 L 14.132812 0 L 17.605469 0 L 17.605469 -17.386719 L 16.527344 -17.386719 Z M 9.773438 -9.867188 "/></g></g></g><g fill="#ff0000" fill-opacity="1"><g transform="translate(46.939247, 34.043292)"><g><path d="M 5.699219 0 L 5.699219 -1.8125 L 2.824219 -1.8125 L 2.824219 -3.621094 L 5.203125 -3.621094 L 5.203125 -5.433594 L 2.824219 -5.433594 L 2.824219 -7.242188 L 5.546875 -7.242188 L 5.546875 -9.054688 L 1.011719 -9.054688 L 1.011719 0 Z M 5.699219 0 "/></g></g></g><g fill="#ff0000" fill-opacity="1"><g transform="translate(53.320909, 34.043292)"><g><path d="M 3.710938 -9.054688 L 1.011719 -9.054688 L 1.011719 0 L 3.710938 0 C 9.738281 0 9.738281 -9.054688 3.710938 -9.054688 Z M 3.710938 -7.242188 C 7.230469 -7.242188 7.230469 -1.8125 3.710938 -1.8125 L 2.824219 -1.8125 L 2.824219 -7.242188 Z M 3.710938 -7.242188 "/></g></g></g><g fill="#ff0000" fill-opacity="1"><g transform="translate(62.234977, 34.043292)"><g><path d="M 2.824219 0 L 2.824219 -9.054688 L 1.011719 -9.054688 L 1.011719 0 Z M 2.824219 0 "/></g></g></g><g clip-path="url(#id1)"><g fill="#ff0000" fill-opacity="1"><g transform="translate(66.084233, 34.043292)"><g><path d="M 0.203125 0 L 2.253906 0 L 2.609375 -0.976562 L 5.609375 -0.976562 L 5.976562 0 L 8.015625 0 L 4.203125 -9.382812 L 4.015625 -9.382812 Z M 3.265625 -2.671875 L 4.113281 -5.027344 L 4.9375 -2.671875 Z M 3.265625 -2.671875 "/></g></g></g></g></svg>