<svg xmlns="http://www.w3.org/2000/svg" xmlns:xlink="http://www.w3.org/1999/xlink" width="100" zoomAndPan="magnify" viewBox="0 0 75 30.000001" height="40" preserveAspectRatio="xMidYMid meet" version="1.0"><defs><g/><clipPath id="id1"><path d="M 31 13 L 46 13 L 46 29.03125 L 31 29.03125 Z M 31 13 " clip-rule="nonzero"/></clipPath></defs><g fill="#ffffff" fill-opacity="1"><g transform="translate(4.167778, 28.86425)"><g><path d="M 13.855469 0 L 13.855469 -23.242188 L 21.089844 -23.242188 L 21.089844 -29.011719 L 0.8125 -29.011719 L 0.8125 -23.242188 L 8.046875 -23.242188 L 8.046875 0 Z M 13.855469 0 "/></g></g></g><g fill="#ffffff" fill-opacity="1"><g transform="translate(18.945794, 28.962618)"><g><path d="M 10.433594 0 L 10.433594 -17.5 L 15.878906 -17.5 L 15.878906 -21.84375 L 0.613281 -21.84375 L 0.613281 -17.5 L 6.058594 -17.5 L 6.058594 0 Z M 10.433594 0 "/></g></g></g><g clip-path="url(#id1)"><g fill="#ff0000" fill-opacity="1"><g transform="translate(29.697412, 29.118667)"><g><path d="M 8.832031 -8.917969 L 2.726562 -15.714844 L 1.730469 -15.714844 L 1.730469 0 L 4.871094 0 L 4.871094 -8.636719 L 8.832031 -4.480469 L 12.792969 -8.636719 L 12.773438 0 L 15.910156 0 L 15.910156 -15.714844 L 14.9375 -15.714844 Z M 8.832031 -8.917969 "/></g></g></g></g><g fill="#ff0000" fill-opacity="1"><g transform="translate(45.971969, 28.990455)"><g><path d="M 5.148438 0 L 5.148438 -1.636719 L 2.550781 -1.636719 L 2.550781 -3.273438 L 4.703125 -3.273438 L 4.703125 -4.910156 L 2.550781 -4.910156 L 2.550781 -6.546875 L 5.011719 -6.546875 L 5.011719 -8.183594 L 0.914062 -8.183594 L 0.914062 0 Z M 5.148438 0 "/></g></g></g><g fill="#ff0000" fill-opacity="1"><g transform="translate(51.739663, 28.990455)"><g><path d="M 3.351562 -8.183594 L 0.914062 -8.183594 L 0.914062 0 L 3.351562 0 C 8.800781 0 8.800781 -8.183594 3.351562 -8.183594 Z M 3.351562 -6.546875 C 6.535156 -6.546875 6.535156 -1.636719 3.351562 -1.636719 L 2.550781 -1.636719 L 2.550781 -6.546875 Z M 3.351562 -6.546875 "/></g></g></g><g fill="#ff0000" fill-opacity="1"><g transform="translate(59.796125, 28.990455)"><g><path d="M 2.550781 0 L 2.550781 -8.183594 L 0.914062 -8.183594 L 0.914062 0 Z M 2.550781 0 "/></g></g></g><g fill="#ff0000" fill-opacity="1"><g transform="translate(63.275051, 28.990455)"><g><path d="M 0.183594 0 L 2.035156 0 L 2.359375 -0.882812 L 5.070312 -0.882812 L 5.402344 0 L 7.242188 0 L 3.800781 -8.480469 L 3.628906 -8.480469 Z M 2.953125 -2.414062 L 3.71875 -4.542969 L 4.464844 -2.414062 Z M 2.953125 -2.414062 "/></g></g></g></svg>