<svg xmlns="http://www.w3.org/2000/svg" xmlns:xlink="http://www.w3.org/1999/xlink" width="400" zoomAndPan="magnify" viewBox="0 0 300 89.999999" height="120" preserveAspectRatio="xMidYMid meet" version="1.0"><defs><g/><clipPath id="id1"><path d="M 115.972656 3.738281 L 183.699219 3.738281 L 183.699219 71.464844 L 115.972656 71.464844 Z M 115.972656 3.738281 " clip-rule="nonzero"/></clipPath><clipPath id="id2"><path d="M 139 25 L 161 25 L 161 57.113281 L 139 57.113281 Z M 139 25 " clip-rule="nonzero"/></clipPath><clipPath id="id3"><path d="M 148 18.414062 L 151 18.414062 L 151 23 L 148 23 Z M 148 18.414062 " clip-rule="nonzero"/></clipPath><clipPath id="id4"><path d="M 132.402344 34 L 137 34 L 137 37 L 132.402344 37 Z M 132.402344 34 " clip-rule="nonzero"/></clipPath><clipPath id="id5"><path d="M 163.015625 34.246094 L 167.140625 34.246094 L 167.140625 36.882812 L 163.015625 36.882812 Z M 163.015625 34.246094 " clip-rule="nonzero"/></clipPath><clipPath id="id6"><path d="M 232.21875 3.738281 L 299.945312 3.738281 L 299.945312 71.464844 L 232.21875 71.464844 Z M 232.21875 3.738281 " clip-rule="nonzero"/></clipPath><clipPath id="id7"><path d="M 273 18.414062 L 282 18.414062 L 282 28 L 273 28 Z M 273 18.414062 " clip-rule="nonzero"/></clipPath><clipPath id="id8"><path d="M 247.519531 31 L 252 31 L 252 36 L 247.519531 36 Z M 247.519531 31 " clip-rule="nonzero"/></clipPath><clipPath id="id9"><path d="M 280 37 L 284.5625 37 L 284.5625 42 L 280 42 Z M 280 37 " clip-rule="nonzero"/></clipPath><clipPath id="id10"><path d="M 250 23 L 284 23 L 284 57.113281 L 250 57.113281 Z M 250 23 " clip-rule="nonzero"/></clipPath><clipPath id="id11"><path d="M 0 3.738281 L 67.726562 3.738281 L 67.726562 71.464844 L 0 71.464844 Z M 0 3.738281 " clip-rule="nonzero"/></clipPath><clipPath id="id12"><path d="M 17.972656 22 L 49 22 L 49 53.261719 L 17.972656 53.261719 Z M 17.972656 22 " clip-rule="nonzero"/></clipPath><clipPath id="id13"><path d="M 32 21.75 L 50 21.75 L 50 39 L 32 39 Z M 32 21.75 " clip-rule="nonzero"/></clipPath></defs><g clip-path="url(#id1)"><path fill="#ff0000" d="M 149.835938 71.464844 C 140.792969 71.464844 132.28125 67.945312 125.894531 61.542969 C 119.492188 55.15625 115.972656 46.640625 115.972656 37.601562 C 115.972656 28.558594 119.492188 20.046875 125.894531 13.65625 C 132.28125 7.253906 140.792969 3.738281 149.835938 3.738281 C 158.878906 3.738281 167.390625 7.253906 173.777344 13.65625 C 180.179688 20.058594 183.699219 28.558594 183.699219 37.601562 C 183.699219 46.640625 180.179688 55.15625 173.777344 61.542969 C 167.390625 67.945312 158.878906 71.464844 149.835938 71.464844 Z M 149.835938 5.765625 C 141.335938 5.765625 133.335938 9.082031 127.328125 15.09375 C 121.320312 21.101562 118.003906 29.101562 118.003906 37.601562 C 118.003906 46.101562 121.320312 54.097656 127.328125 60.109375 C 133.335938 66.117188 141.335938 69.433594 149.835938 69.433594 C 158.335938 69.433594 166.335938 66.117188 172.34375 60.109375 C 178.351562 54.097656 181.667969 46.101562 181.667969 37.601562 C 181.667969 29.101562 178.351562 21.101562 172.34375 15.09375 C 166.335938 9.082031 158.335938 5.765625 149.835938 5.765625 Z M 149.835938 5.765625 " fill-opacity="1" fill-rule="nonzero"/></g><g clip-path="url(#id2)"><path fill="#ffffff" d="M 156.65625 41.351562 C 155.402344 42.9375 154.515625 44.523438 153.867188 46.152344 L 153.0625 46.152344 L 153.0625 37.355469 C 153.0625 37.070312 152.984375 36.746094 152.820312 36.5 L 150.722656 33.203125 C 150.359375 32.589844 149.347656 32.589844 148.988281 33.203125 L 146.890625 36.5 C 146.6875 36.785156 146.605469 37.074219 146.605469 37.355469 L 146.605469 46.113281 L 145.800781 46.113281 C 145.152344 44.488281 144.265625 42.9375 143.015625 41.308594 C 141.804688 39.761719 141.160156 37.886719 141.160156 35.890625 C 141.160156 33.488281 142.128906 31.207031 143.863281 29.535156 C 145.601562 27.867188 147.898438 27.011719 150.277344 27.128906 C 154.714844 27.335938 158.347656 31.003906 158.550781 35.523438 C 158.628906 37.640625 157.945312 39.675781 156.65625 41.351562 Z M 149.835938 55.28125 C 148.464844 55.28125 147.371094 54.261719 147.210938 52.957031 L 152.496094 52.957031 C 152.296875 54.261719 151.207031 55.28125 149.835938 55.28125 Z M 147.976562 38.90625 L 149.191406 38.90625 L 149.191406 46.152344 L 147.976562 46.152344 Z M 150.519531 46.152344 L 150.519531 38.90625 L 151.730469 38.90625 L 151.730469 46.152344 Z M 149.390625 35.078125 L 150.320312 35.078125 L 151.691406 37.234375 C 151.730469 37.277344 151.730469 37.316406 151.730469 37.355469 L 151.730469 37.519531 L 147.976562 37.519531 L 147.976562 37.355469 C 147.976562 37.316406 147.976562 37.277344 148.019531 37.234375 Z M 153.425781 47.945312 L 153.425781 51.125 L 146.242188 51.125 L 146.242188 47.945312 Z M 150.320312 25.339844 C 147.414062 25.21875 144.671875 26.238281 142.570312 28.269531 C 140.476562 30.308594 139.347656 33 139.347656 35.929688 C 139.347656 38.335938 140.113281 40.617188 141.605469 42.488281 C 142.9375 44.203125 143.863281 45.832031 144.429688 47.542969 L 144.46875 52.0625 C 144.46875 52.550781 144.871094 52.957031 145.355469 52.957031 L 145.394531 52.957031 C 145.601562 55.28125 147.496094 57.113281 149.835938 57.113281 C 152.171875 57.113281 154.074219 55.28125 154.273438 52.957031 L 154.3125 52.957031 C 154.796875 52.957031 155.203125 52.550781 155.203125 52.0625 L 155.203125 47.660156 L 155.242188 47.5 C 155.808594 45.789062 156.734375 44.160156 158.0625 42.449219 C 159.640625 40.449219 160.40625 37.964844 160.324219 35.398438 C 160.082031 30.023438 155.683594 25.585938 150.320312 25.339844 " fill-opacity="1" fill-rule="nonzero"/></g><g clip-path="url(#id3)"><path fill="#ffffff" d="M 149.835938 22.324219 C 150.320312 22.324219 150.722656 21.917969 150.722656 21.429688 L 150.722656 19.3125 C 150.722656 18.824219 150.320312 18.414062 149.835938 18.414062 C 149.347656 18.414062 148.949219 18.824219 148.949219 19.3125 L 148.949219 21.429688 C 148.949219 21.917969 149.347656 22.324219 149.835938 22.324219 " fill-opacity="1" fill-rule="nonzero"/></g><path fill="#ffffff" d="M 141.886719 23.832031 C 142.046875 24.117188 142.371094 24.277344 142.652344 24.277344 C 142.8125 24.277344 142.976562 24.238281 143.097656 24.160156 C 143.542969 23.914062 143.660156 23.34375 143.417969 22.9375 L 142.371094 21.101562 C 142.128906 20.65625 141.5625 20.53125 141.160156 20.777344 C 140.71875 21.023438 140.59375 21.59375 140.839844 21.996094 L 141.886719 23.832031 " fill-opacity="1" fill-rule="nonzero"/><path fill="#ffffff" d="M 137.851562 27.867188 L 136.039062 26.804688 C 135.59375 26.558594 135.070312 26.683594 134.828125 27.128906 C 134.585938 27.582031 134.703125 28.109375 135.152344 28.355469 L 136.964844 29.410156 C 137.128906 29.496094 137.246094 29.535156 137.410156 29.535156 C 137.734375 29.535156 138.015625 29.375 138.175781 29.089844 C 138.417969 28.679688 138.296875 28.109375 137.851562 27.867188 " fill-opacity="1" fill-rule="nonzero"/><g clip-path="url(#id4)"><path fill="#ffffff" d="M 136.398438 35.890625 C 136.398438 35.398438 135.996094 34.996094 135.511719 34.996094 L 133.414062 34.996094 C 132.933594 34.996094 132.527344 35.402344 132.527344 35.890625 C 132.527344 36.378906 132.933594 36.789062 133.414062 36.789062 L 135.511719 36.789062 C 135.996094 36.824219 136.398438 36.421875 136.398438 35.890625 " fill-opacity="1" fill-rule="nonzero"/></g><path fill="#ffffff" d="M 136.964844 42.367188 L 135.152344 43.425781 C 134.703125 43.667969 134.585938 44.238281 134.828125 44.648438 C 134.988281 44.933594 135.308594 45.09375 135.59375 45.09375 C 135.757812 45.09375 135.917969 45.054688 136.039062 44.976562 L 137.851562 43.914062 C 138.296875 43.667969 138.417969 43.101562 138.175781 42.695312 C 137.933594 42.285156 137.410156 42.125 136.964844 42.367188 " fill-opacity="1" fill-rule="nonzero"/><path fill="#ffffff" d="M 164.523438 43.425781 L 162.703125 42.367188 C 162.261719 42.125 161.734375 42.242188 161.492188 42.695312 C 161.25 43.140625 161.414062 43.671875 161.816406 43.914062 L 163.632812 44.976562 C 163.792969 45.054688 163.914062 45.09375 164.074219 45.09375 C 164.398438 45.09375 164.679688 44.933594 164.839844 44.648438 C 165.085938 44.238281 164.921875 43.667969 164.523438 43.425781 " fill-opacity="1" fill-rule="nonzero"/><g clip-path="url(#id5)"><path fill="#ffffff" d="M 166.253906 34.996094 L 164.15625 34.996094 C 163.675781 34.996094 163.269531 35.398438 163.269531 35.890625 C 163.269531 36.378906 163.675781 36.789062 164.15625 36.789062 L 166.253906 36.789062 C 166.738281 36.789062 167.140625 36.378906 167.140625 35.890625 C 167.140625 35.398438 166.738281 34.996094 166.253906 34.996094 " fill-opacity="1" fill-rule="nonzero"/></g><path fill="#ffffff" d="M 162.261719 29.578125 C 162.421875 29.578125 162.582031 29.535156 162.703125 29.453125 L 164.523438 28.394531 C 164.964844 28.152344 165.085938 27.582031 164.839844 27.171875 C 164.601562 26.726562 164.035156 26.601562 163.632812 26.84375 L 161.816406 27.90625 C 161.375 28.152344 161.25 28.722656 161.492188 29.125 C 161.65625 29.410156 161.9375 29.578125 162.261719 29.578125 " fill-opacity="1" fill-rule="nonzero"/><path fill="#ffffff" d="M 156.574219 24.160156 C 156.734375 24.238281 156.855469 24.277344 157.015625 24.277344 C 157.339844 24.277344 157.621094 24.117188 157.785156 23.832031 L 158.832031 21.996094 C 159.074219 21.550781 158.914062 21.023438 158.507812 20.777344 C 158.0625 20.53125 157.539062 20.65625 157.296875 21.101562 L 156.25 22.9375 C 155.96875 23.34375 156.128906 23.914062 156.574219 24.160156 " fill-opacity="1" fill-rule="nonzero"/><g clip-path="url(#id6)"><path fill="#ff0000" d="M 266.082031 71.464844 C 257.039062 71.464844 248.527344 67.945312 242.140625 61.542969 C 235.738281 55.15625 232.21875 46.640625 232.21875 37.601562 C 232.21875 28.558594 235.738281 20.046875 242.140625 13.65625 C 248.527344 7.253906 257.039062 3.738281 266.082031 3.738281 C 275.125 3.738281 283.636719 7.253906 290.023438 13.65625 C 296.425781 20.058594 299.945312 28.558594 299.945312 37.601562 C 299.945312 46.640625 296.425781 55.15625 290.023438 61.542969 C 283.636719 67.945312 275.125 71.464844 266.082031 71.464844 Z M 266.082031 5.765625 C 257.582031 5.765625 249.582031 9.082031 243.574219 15.09375 C 237.566406 21.101562 234.25 29.101562 234.25 37.601562 C 234.25 46.101562 237.566406 54.097656 243.574219 60.109375 C 249.582031 66.117188 257.582031 69.433594 266.082031 69.433594 C 274.582031 69.433594 282.582031 66.117188 288.589844 60.109375 C 294.601562 54.097656 297.914062 46.101562 297.914062 37.601562 C 297.914062 29.101562 294.601562 21.101562 288.589844 15.09375 C 282.582031 9.082031 274.582031 5.765625 266.082031 5.765625 Z M 266.082031 5.765625 " fill-opacity="1" fill-rule="nonzero"/></g><path fill="#ffffff" d="M 266.039062 37.28125 L 265.082031 37.28125 C 264.640625 37.28125 264.285156 36.917969 264.285156 36.472656 L 263.011719 36.472656 C 263.011719 37.574219 263.855469 38.46875 264.925781 38.550781 L 264.925781 39.699219 L 266.199219 39.699219 L 266.199219 38.550781 C 267.265625 38.46875 268.113281 37.574219 268.113281 36.472656 L 268.113281 35.988281 C 268.113281 34.832031 267.183594 33.894531 266.039062 33.894531 L 265.082031 33.894531 C 264.640625 33.894531 264.285156 33.535156 264.285156 33.085938 L 264.285156 32.605469 C 264.285156 32.15625 264.640625 31.796875 265.082031 31.796875 L 266.039062 31.796875 C 266.480469 31.796875 266.839844 32.15625 266.839844 32.605469 L 268.113281 32.605469 C 268.113281 31.503906 267.265625 30.609375 266.199219 30.527344 L 266.199219 29.378906 L 264.925781 29.378906 L 264.925781 30.527344 C 263.855469 30.609375 263.011719 31.503906 263.011719 32.605469 L 263.011719 33.085938 C 263.011719 34.246094 263.941406 35.183594 265.082031 35.183594 L 266.039062 35.183594 C 266.480469 35.183594 266.839844 35.542969 266.839844 35.988281 L 266.839844 36.472656 C 266.839844 36.917969 266.480469 37.28125 266.039062 37.28125 " fill-opacity="1" fill-rule="nonzero"/><g clip-path="url(#id7)"><path fill="#ffffff" d="M 277.527344 26.15625 C 275.765625 26.15625 274.335938 24.707031 274.335938 22.929688 C 274.335938 21.152344 275.765625 19.703125 277.527344 19.703125 C 279.285156 19.703125 280.71875 21.152344 280.71875 22.929688 C 280.71875 24.707031 279.285156 26.15625 277.527344 26.15625 Z M 277.527344 18.414062 C 275.066406 18.414062 273.058594 20.441406 273.058594 22.929688 C 273.058594 25.417969 275.066406 27.445312 277.527344 27.445312 C 279.988281 27.445312 281.996094 25.417969 281.996094 22.929688 C 281.996094 20.441406 279.988281 18.414062 277.527344 18.414062 " fill-opacity="1" fill-rule="nonzero"/></g><path fill="#ffffff" d="M 278.164062 20.996094 L 276.890625 20.996094 L 276.890625 22.285156 L 275.613281 22.285156 L 275.613281 23.574219 L 276.890625 23.574219 L 276.890625 24.863281 L 278.164062 24.863281 L 278.164062 23.574219 L 279.441406 23.574219 L 279.441406 22.285156 L 278.164062 22.285156 L 278.164062 20.996094 " fill-opacity="1" fill-rule="nonzero"/><g clip-path="url(#id8)"><path fill="#ffffff" d="M 250.085938 35.828125 L 250.085938 34.539062 L 251.363281 34.539062 L 251.363281 33.25 L 250.085938 33.25 L 250.085938 31.960938 L 248.8125 31.960938 L 248.8125 33.25 L 247.535156 33.25 L 247.535156 34.539062 L 248.8125 34.539062 L 248.8125 35.828125 L 250.085938 35.828125 " fill-opacity="1" fill-rule="nonzero"/></g><g clip-path="url(#id9)"><path fill="#ffffff" d="M 283.269531 37.765625 L 281.996094 37.765625 L 281.996094 39.054688 L 280.71875 39.054688 L 280.71875 40.34375 L 281.996094 40.34375 L 281.996094 41.632812 L 283.269531 41.632812 L 283.269531 40.34375 L 284.546875 40.34375 L 284.546875 39.054688 L 283.269531 39.054688 L 283.269531 37.765625 " fill-opacity="1" fill-rule="nonzero"/></g><path fill="#ffffff" d="M 251.363281 39.054688 L 252.640625 39.054688 L 252.640625 37.765625 L 251.363281 37.765625 L 251.363281 39.054688 " fill-opacity="1" fill-rule="nonzero"/><path fill="#ffffff" d="M 282.632812 32.605469 L 281.355469 32.605469 L 281.355469 33.894531 L 282.632812 33.894531 L 282.632812 32.605469 " fill-opacity="1" fill-rule="nonzero"/><path fill="#ffffff" d="M 278.164062 40.34375 L 276.890625 40.34375 L 276.890625 41.632812 L 278.164062 41.632812 L 278.164062 40.34375 " fill-opacity="1" fill-rule="nonzero"/><path fill="#ffffff" d="M 250.085938 29.378906 L 251.363281 29.378906 L 251.363281 28.089844 L 250.085938 28.089844 L 250.085938 29.378906 " fill-opacity="1" fill-rule="nonzero"/><g clip-path="url(#id10)"><path fill="#ffffff" d="M 281.835938 48.683594 C 282.050781 48.628906 282.269531 48.753906 282.335938 48.960938 C 282.410156 49.179688 282.292969 49.421875 282.070312 49.5 L 265.355469 55.796875 L 259.800781 54.546875 C 259.75 54.539062 259.707031 54.53125 259.660156 54.53125 L 256.46875 54.53125 L 256.46875 48.082031 L 259.660156 48.082031 C 259.828125 48.082031 259.992188 48.015625 260.109375 47.894531 L 262.609375 45.371094 L 265.757812 43.460938 C 266.308594 43.085938 266.824219 43.035156 267.066406 43.339844 C 267.25 43.5625 267.265625 43.976562 266.894531 44.375 L 263.101562 47.304688 C 262.925781 47.441406 262.832031 47.65625 262.851562 47.875 C 262.871094 48.097656 263.003906 48.296875 263.203125 48.394531 L 269.582031 51.617188 C 269.71875 51.6875 269.878906 51.703125 270.023438 51.664062 Z M 255.191406 55.824219 L 252.003906 55.824219 L 252.003906 46.792969 L 255.191406 46.792969 Z M 255.992188 34.539062 C 255.992188 29.203125 260.28125 24.863281 265.5625 24.863281 C 270.84375 24.863281 275.132812 29.203125 275.132812 34.539062 C 275.132812 38.792969 272.386719 42.496094 268.460938 43.753906 C 268.46875 43.285156 268.320312 42.847656 268.054688 42.523438 C 267.492188 41.824219 266.34375 41.515625 265.074219 42.371094 L 262.75 43.78125 C 258.757812 42.539062 255.992188 38.785156 255.992188 34.539062 Z M 269.230469 49.75 C 269.292969 49.75 269.351562 49.742188 269.410156 49.726562 L 279.355469 46.816406 C 279.527344 46.765625 279.710938 46.800781 279.855469 46.910156 C 279.996094 47.019531 280.078125 47.1875 280.078125 47.367188 C 280.078125 47.632812 279.914062 47.84375 279.660156 47.902344 L 279.660156 47.90625 L 269.945312 50.359375 L 268.742188 49.75 Z M 275.730469 44.742188 C 275.871094 44.597656 276.035156 44.589844 276.125 44.597656 C 276.207031 44.605469 276.371094 44.648438 276.484375 44.816406 C 276.613281 45.011719 276.585938 45.277344 276.421875 45.441406 L 275.183594 46.695312 L 273.230469 47.265625 Z M 280.625 45.882812 C 280.15625 45.523438 279.570312 45.414062 279.003906 45.578125 L 277.59375 45.988281 C 277.925781 45.410156 277.921875 44.675781 277.542969 44.101562 C 277.25 43.652344 276.78125 43.371094 276.25 43.3125 C 275.726562 43.265625 275.203125 43.449219 274.828125 43.832031 L 270.691406 48.007812 L 269.140625 48.460938 L 266.191406 48.460938 L 264.6875 47.703125 L 267.703125 45.371094 C 267.726562 45.355469 267.75 45.335938 267.769531 45.316406 C 267.785156 45.296875 267.796875 45.277344 267.816406 45.257812 C 272.808594 44.195312 276.410156 39.722656 276.410156 34.539062 C 276.410156 28.492188 271.542969 23.574219 265.5625 23.574219 C 259.578125 23.574219 254.714844 28.492188 254.714844 34.539062 C 254.714844 39.023438 257.445312 43.03125 261.476562 44.691406 L 259.394531 46.792969 L 256.46875 46.792969 L 256.46875 45.503906 L 250.726562 45.503906 L 250.726562 57.113281 L 256.46875 57.113281 L 256.46875 55.824219 L 259.589844 55.824219 L 265.261719 57.097656 C 265.3125 57.109375 265.355469 57.113281 265.402344 57.113281 C 265.476562 57.113281 265.554688 57.101562 265.625 57.074219 L 282.507812 50.710938 C 283.371094 50.402344 283.839844 49.433594 283.546875 48.554688 C 283.269531 47.707031 282.378906 47.214844 281.527344 47.429688 L 281.347656 47.476562 C 281.347656 47.441406 281.355469 47.40625 281.355469 47.367188 C 281.355469 46.777344 281.089844 46.238281 280.625 45.882812 " fill-opacity="1" fill-rule="nonzero"/></g><g clip-path="url(#id11)"><path fill="#ff0000" d="M 33.863281 71.464844 C 24.824219 71.464844 16.308594 67.945312 9.921875 61.542969 C 3.519531 55.15625 0 46.640625 0 37.601562 C 0 28.558594 3.519531 20.046875 9.921875 13.65625 C 16.308594 7.253906 24.824219 3.738281 33.863281 3.738281 C 42.90625 3.738281 51.417969 7.253906 57.804688 13.65625 C 64.207031 20.058594 67.726562 28.558594 67.726562 37.601562 C 67.726562 46.640625 64.207031 55.15625 57.804688 61.542969 C 51.417969 67.945312 42.90625 71.464844 33.863281 71.464844 Z M 33.863281 5.765625 C 25.363281 5.765625 17.363281 9.082031 11.355469 15.09375 C 5.347656 21.101562 2.03125 29.101562 2.03125 37.601562 C 2.03125 46.101562 5.347656 54.097656 11.355469 60.109375 C 17.363281 66.117188 25.363281 69.433594 33.863281 69.433594 C 42.363281 69.433594 50.363281 66.117188 56.371094 60.109375 C 62.382812 54.097656 65.695312 46.101562 65.695312 37.601562 C 65.695312 29.101562 62.382812 21.101562 56.371094 15.09375 C 50.363281 9.082031 42.363281 5.765625 33.863281 5.765625 Z M 33.863281 5.765625 " fill-opacity="1" fill-rule="nonzero"/></g><path fill="#ffffff" d="M 33.371094 33.707031 C 33.847656 33.707031 34.234375 33.324219 34.234375 32.855469 C 34.234375 32.386719 33.847656 32.003906 33.371094 32.003906 C 29.976562 32.003906 27.21875 34.722656 27.21875 38.0625 C 27.21875 41.40625 29.976562 44.121094 33.371094 44.121094 C 36.761719 44.121094 39.519531 41.40625 39.519531 38.0625 C 39.519531 37.59375 39.132812 37.210938 38.65625 37.210938 C 38.179688 37.210938 37.792969 37.59375 37.792969 38.0625 C 37.792969 40.464844 35.808594 42.417969 33.371094 42.417969 C 30.933594 42.417969 28.949219 40.464844 28.949219 38.0625 C 28.949219 35.660156 30.933594 33.707031 33.371094 33.707031 " fill-opacity="1" fill-rule="nonzero"/><path fill="#ffffff" d="M 33.371094 27.632812 C 27.53125 27.632812 22.785156 32.3125 22.785156 38.0625 C 22.785156 43.8125 27.53125 48.492188 33.371094 48.492188 C 39.207031 48.492188 43.957031 43.8125 43.957031 38.0625 C 43.957031 37.59375 43.566406 37.210938 43.089844 37.210938 C 42.613281 37.210938 42.226562 37.59375 42.226562 38.0625 C 42.226562 42.875 38.253906 46.789062 33.371094 46.789062 C 28.484375 46.789062 24.511719 42.875 24.511719 38.0625 C 24.511719 33.25 28.484375 29.335938 33.371094 29.335938 C 33.847656 29.335938 34.234375 28.957031 34.234375 28.484375 C 34.234375 28.015625 33.847656 27.632812 33.371094 27.632812 " fill-opacity="1" fill-rule="nonzero"/><g clip-path="url(#id12)"><path fill="#ffffff" d="M 47.90625 37.210938 C 47.429688 37.210938 47.042969 37.59375 47.042969 38.0625 C 47.042969 45.488281 40.910156 51.535156 33.371094 51.535156 C 25.832031 51.535156 19.699219 45.488281 19.699219 38.0625 C 19.699219 30.636719 25.832031 24.59375 33.371094 24.59375 C 33.847656 24.59375 34.234375 24.210938 34.234375 23.742188 C 34.234375 23.273438 33.847656 22.890625 33.371094 22.890625 C 24.878906 22.890625 17.96875 29.695312 17.96875 38.0625 C 17.96875 46.429688 24.878906 53.234375 33.371094 53.234375 C 41.863281 53.234375 48.769531 46.429688 48.769531 38.0625 C 48.769531 37.59375 48.382812 37.210938 47.90625 37.210938 " fill-opacity="1" fill-rule="nonzero"/></g><g clip-path="url(#id13)"><path fill="#ffffff" d="M 44.613281 30.671875 L 42.679688 30.214844 L 45.480469 27.457031 L 47.410156 27.910156 Z M 40.992188 27.105469 L 43.792969 24.347656 L 44.234375 26.15625 L 41.433594 28.914062 Z M 49.949219 27.207031 C 49.863281 26.910156 49.621094 26.679688 49.316406 26.609375 L 45.925781 25.808594 L 45.117188 22.46875 C 45.042969 22.167969 44.8125 21.933594 44.511719 21.847656 C 44.207031 21.765625 43.886719 21.847656 43.664062 22.066406 L 39.429688 26.238281 C 39.214844 26.449219 39.128906 26.75 39.199219 27.039062 L 39.996094 30.328125 L 32.757812 37.460938 C 32.421875 37.792969 32.421875 38.332031 32.757812 38.664062 C 32.925781 38.832031 33.148438 38.914062 33.371094 38.914062 C 33.589844 38.914062 33.8125 38.832031 33.980469 38.664062 L 41.144531 31.605469 L 44.679688 32.4375 C 44.746094 32.453125 44.816406 32.460938 44.882812 32.460938 C 45.109375 32.460938 45.328125 32.375 45.492188 32.210938 L 49.726562 28.039062 C 49.949219 27.820312 50.035156 27.503906 49.949219 27.207031 " fill-opacity="1" fill-rule="nonzero"/></g><g fill="#ffffff" fill-opacity="1"><g transform="translate(13.720377, 83.712684)"><g><path d="M 0.078125 0 L 1.523438 0 L 1.921875 -1.027344 L 4.285156 -1.027344 L 4.683594 0 L 6.128906 0 L 3.765625 -5.949219 L 2.441406 -5.949219 Z M 2.269531 -2.089844 L 3.101562 -4.265625 L 3.945312 -2.089844 Z M 2.269531 -2.089844 "/></g></g></g><g fill="#ffffff" fill-opacity="1"><g transform="translate(19.924811, 83.712684)"><g><path d="M 0.714844 0 L 2.058594 0 L 2.058594 -3.648438 L 4.683594 0 L 5.832031 0 L 5.832031 -5.949219 L 4.488281 -5.949219 L 4.488281 -2.328125 L 1.863281 -5.949219 L 0.714844 -5.949219 Z M 0.714844 0 "/></g></g></g><g fill="#ffffff" fill-opacity="1"><g transform="translate(26.469217, 83.712684)"><g><path d="M 0.078125 0 L 1.523438 0 L 1.921875 -1.027344 L 4.285156 -1.027344 L 4.683594 0 L 6.128906 0 L 3.765625 -5.949219 L 2.441406 -5.949219 Z M 2.269531 -2.089844 L 3.101562 -4.265625 L 3.945312 -2.089844 Z M 2.269531 -2.089844 "/></g></g></g><g fill="#ffffff" fill-opacity="1"><g transform="translate(32.673652, 83.712684)"><g><path d="M 0.714844 0 L 4.667969 0 L 4.667969 -1.265625 L 2.066406 -1.265625 L 2.066406 -5.949219 L 0.714844 -5.949219 Z M 0.714844 0 "/></g></g></g><g fill="#ffffff" fill-opacity="1"><g transform="translate(37.569207, 83.712684)"><g><path d="M 2.269531 0 L 3.621094 0 L 3.621094 -2.101562 L 5.804688 -5.949219 L 4.265625 -5.949219 L 3.535156 -4.574219 L 2.949219 -3.492188 L 2.355469 -4.574219 L 1.613281 -5.949219 L 0.078125 -5.949219 L 2.269531 -2.082031 Z M 2.269531 0 "/></g></g></g><g fill="#ffffff" fill-opacity="1"><g transform="translate(43.450669, 83.712684)"><g><path d="M 2.789062 0.117188 C 4.199219 0.117188 5.066406 -0.550781 5.066406 -1.675781 C 5.066406 -2.617188 4.445312 -3.179688 2.964844 -3.527344 C 2.058594 -3.738281 1.742188 -3.96875 1.742188 -4.335938 C 1.742188 -4.726562 2.089844 -4.964844 2.660156 -4.964844 C 3.28125 -4.964844 3.65625 -4.640625 3.65625 -4.105469 L 4.957031 -4.105469 C 4.957031 -5.304688 4.054688 -6.070312 2.644531 -6.070312 C 1.273438 -6.070312 0.425781 -5.398438 0.425781 -4.308594 C 0.425781 -3.339844 1.078125 -2.761719 2.472656 -2.464844 C 3.316406 -2.285156 3.699219 -2.039062 3.699219 -1.625 C 3.699219 -1.222656 3.339844 -0.996094 2.78125 -0.996094 C 2.125 -0.996094 1.699219 -1.324219 1.699219 -1.894531 L 0.375 -1.894531 C 0.375 -0.664062 1.292969 0.117188 2.789062 0.117188 Z M 2.789062 0.117188 "/></g></g></g><g fill="#ffffff" fill-opacity="1"><g transform="translate(48.898669, 83.712684)"><g><path d="M 0.714844 0 L 4.71875 0 L 4.71875 -1.148438 L 2.058594 -1.148438 L 2.058594 -2.449219 L 4.394531 -2.449219 L 4.394531 -3.578125 L 2.058594 -3.578125 L 2.058594 -4.8125 L 4.625 -4.8125 L 4.625 -5.949219 L 0.714844 -5.949219 Z M 0.714844 0 "/></g></g></g><g fill="#ffffff" fill-opacity="1"><g transform="translate(130.549464, 83.712684)"><g><path d="M 0.714844 0 L 2.066406 0 L 2.066406 -2.046875 L 4.226562 -2.046875 L 4.226562 -3.238281 L 2.066406 -3.238281 L 2.066406 -4.726562 L 4.445312 -4.726562 L 4.445312 -5.949219 L 0.714844 -5.949219 Z M 0.714844 0 "/></g></g></g><g fill="#ffffff" fill-opacity="1"><g transform="translate(135.368529, 83.712684)"><g><path d="M 0.714844 0 L 2.066406 0 L 2.066406 -5.949219 L 0.714844 -5.949219 Z M 0.714844 0 "/></g></g></g><g fill="#ffffff" fill-opacity="1"><g transform="translate(138.147773, 83.712684)"><g><path d="M 0.714844 0 L 2.058594 0 L 2.058594 -3.648438 L 4.683594 0 L 5.832031 0 L 5.832031 -5.949219 L 4.488281 -5.949219 L 4.488281 -2.328125 L 1.863281 -5.949219 L 0.714844 -5.949219 Z M 0.714844 0 "/></g></g></g><g fill="#ffffff" fill-opacity="1"><g transform="translate(144.692179, 83.712684)"><g><path d="M 0.078125 0 L 1.523438 0 L 1.921875 -1.027344 L 4.285156 -1.027344 L 4.683594 0 L 6.128906 0 L 3.765625 -5.949219 L 2.441406 -5.949219 Z M 2.269531 -2.089844 L 3.101562 -4.265625 L 3.945312 -2.089844 Z M 2.269531 -2.089844 "/></g></g></g><g fill="#ffffff" fill-opacity="1"><g transform="translate(150.896614, 83.712684)"><g><path d="M 0.714844 0 L 4.667969 0 L 4.667969 -1.265625 L 2.066406 -1.265625 L 2.066406 -5.949219 L 0.714844 -5.949219 Z M 0.714844 0 "/></g></g></g><g fill="#ffffff" fill-opacity="1"><g transform="translate(155.792169, 83.712684)"><g><path d="M 0.714844 0 L 2.066406 0 L 2.066406 -5.949219 L 0.714844 -5.949219 Z M 0.714844 0 "/></g></g></g><g fill="#ffffff" fill-opacity="1"><g transform="translate(158.571414, 83.712684)"><g><path d="M 2.789062 0.117188 C 4.199219 0.117188 5.066406 -0.550781 5.066406 -1.675781 C 5.066406 -2.617188 4.445312 -3.179688 2.964844 -3.527344 C 2.058594 -3.738281 1.742188 -3.96875 1.742188 -4.335938 C 1.742188 -4.726562 2.089844 -4.964844 2.660156 -4.964844 C 3.28125 -4.964844 3.65625 -4.640625 3.65625 -4.105469 L 4.957031 -4.105469 C 4.957031 -5.304688 4.054688 -6.070312 2.644531 -6.070312 C 1.273438 -6.070312 0.425781 -5.398438 0.425781 -4.308594 C 0.425781 -3.339844 1.078125 -2.761719 2.472656 -2.464844 C 3.316406 -2.285156 3.699219 -2.039062 3.699219 -1.625 C 3.699219 -1.222656 3.339844 -0.996094 2.78125 -0.996094 C 2.125 -0.996094 1.699219 -1.324219 1.699219 -1.894531 L 0.375 -1.894531 C 0.375 -0.664062 1.292969 0.117188 2.789062 0.117188 Z M 2.789062 0.117188 "/></g></g></g><g fill="#ffffff" fill-opacity="1"><g transform="translate(164.019414, 83.712684)"><g><path d="M 0.714844 0 L 4.71875 0 L 4.71875 -1.148438 L 2.058594 -1.148438 L 2.058594 -2.449219 L 4.394531 -2.449219 L 4.394531 -3.578125 L 2.058594 -3.578125 L 2.058594 -4.8125 L 4.625 -4.8125 L 4.625 -5.949219 L 0.714844 -5.949219 Z M 0.714844 0 "/></g></g></g><g fill="#ffffff" fill-opacity="1"><g transform="translate(240.229471, 83.712684)"><g><path d="M 0.714844 0 L 4.71875 0 L 4.71875 -1.148438 L 2.058594 -1.148438 L 2.058594 -2.449219 L 4.394531 -2.449219 L 4.394531 -3.578125 L 2.058594 -3.578125 L 2.058594 -4.8125 L 4.625 -4.8125 L 4.625 -5.949219 L 0.714844 -5.949219 Z M 0.714844 0 "/></g></g></g><g fill="#ffffff" fill-opacity="1"><g transform="translate(245.380002, 83.712684)"><g><path d="M 0.230469 0 L 1.820312 0 L 2.636719 -1.257812 L 3.136719 -2.015625 L 3.628906 -1.257812 L 4.445312 0 L 6.035156 0 L 4.011719 -3.050781 L 5.933594 -5.949219 L 4.394531 -5.949219 L 3.128906 -4.019531 L 2.585938 -4.84375 L 1.871094 -5.949219 L 0.324219 -5.949219 L 2.253906 -3.042969 Z M 0.230469 0 "/></g></g></g><g fill="#ffffff" fill-opacity="1"><g transform="translate(251.643928, 83.712684)"><g><path d="M 0.714844 0 L 4.71875 0 L 4.71875 -1.148438 L 2.058594 -1.148438 L 2.058594 -2.449219 L 4.394531 -2.449219 L 4.394531 -3.578125 L 2.058594 -3.578125 L 2.058594 -4.8125 L 4.625 -4.8125 L 4.625 -5.949219 L 0.714844 -5.949219 Z M 0.714844 0 "/></g></g></g><g fill="#ffffff" fill-opacity="1"><g transform="translate(256.79446, 83.712684)"><g><path d="M 3.441406 0.117188 C 5.007812 0.117188 6.222656 -0.832031 6.519531 -2.277344 L 5.125 -2.277344 C 4.878906 -1.597656 4.25 -1.164062 3.46875 -1.164062 C 2.457031 -1.164062 1.742188 -1.902344 1.742188 -2.976562 C 1.742188 -4.046875 2.464844 -4.785156 3.476562 -4.785156 C 4.234375 -4.785156 4.855469 -4.378906 5.082031 -3.722656 L 6.476562 -3.722656 C 6.136719 -5.152344 4.945312 -6.070312 3.433594 -6.070312 C 1.632812 -6.070312 0.367188 -4.792969 0.367188 -2.976562 C 0.367188 -1.15625 1.632812 0.117188 3.441406 0.117188 Z M 3.441406 0.117188 "/></g></g></g><g fill="#ffffff" fill-opacity="1"><g transform="translate(263.653334, 83.712684)"><g><path d="M 3.144531 0.117188 C 4.691406 0.117188 5.636719 -0.851562 5.636719 -2.449219 L 5.636719 -5.949219 L 4.285156 -5.949219 L 4.285156 -2.542969 C 4.285156 -1.632812 3.902344 -1.164062 3.144531 -1.164062 C 2.386719 -1.164062 2.007812 -1.632812 2.007812 -2.542969 L 2.007812 -5.949219 L 0.65625 -5.949219 L 0.65625 -2.449219 C 0.65625 -0.851562 1.597656 0.117188 3.144531 0.117188 Z M 3.144531 0.117188 "/></g></g></g><g fill="#ffffff" fill-opacity="1"><g transform="translate(269.942763, 83.712684)"><g><path d="M 2.140625 0 L 3.492188 0 L 3.492188 -4.683594 L 5.378906 -4.683594 L 5.378906 -5.949219 L 0.253906 -5.949219 L 0.253906 -4.683594 L 2.140625 -4.683594 Z M 2.140625 0 "/></g></g></g><g fill="#ffffff" fill-opacity="1"><g transform="translate(275.577754, 83.712684)"><g><path d="M 0.714844 0 L 2.066406 0 L 2.066406 -5.949219 L 0.714844 -5.949219 Z M 0.714844 0 "/></g></g></g><g fill="#ffffff" fill-opacity="1"><g transform="translate(278.356998, 83.712684)"><g><path d="M 3.535156 0.117188 C 5.398438 0.117188 6.714844 -1.15625 6.714844 -2.976562 C 6.714844 -4.792969 5.398438 -6.070312 3.535156 -6.070312 C 1.675781 -6.070312 0.367188 -4.792969 0.367188 -2.976562 C 0.367188 -1.15625 1.675781 0.117188 3.535156 0.117188 Z M 1.742188 -2.976562 C 1.742188 -4.046875 2.480469 -4.785156 3.535156 -4.785156 C 4.597656 -4.785156 5.328125 -4.046875 5.328125 -2.976562 C 5.328125 -1.902344 4.597656 -1.164062 3.535156 -1.164062 C 2.480469 -1.164062 1.742188 -1.902344 1.742188 -2.976562 Z M 1.742188 -2.976562 "/></g></g></g><g fill="#ffffff" fill-opacity="1"><g transform="translate(285.43685, 83.712684)"><g><path d="M 0.714844 0 L 2.058594 0 L 2.058594 -3.648438 L 4.683594 0 L 5.832031 0 L 5.832031 -5.949219 L 4.488281 -5.949219 L 4.488281 -2.328125 L 1.863281 -5.949219 L 0.714844 -5.949219 Z M 0.714844 0 "/></g></g></g><path stroke-linecap="round" transform="matrix(0.750704, -0.000000000000000107, 0.000000000000000107, 0.75, 72.944887, 39.502313)" fill="none" stroke-linejoin="miter" d="M 0.500098 0.00212407 L 49.209599 0.00212407 " stroke="#ffffff" stroke-width="1" stroke-opacity="1" stroke-miterlimit="4"/><path stroke-linecap="round" transform="matrix(0.750704, -0.000000000000000107, 0.000000000000000107, 0.75, 110.449661, 39.502313)" fill="none" stroke-linejoin="round" d="M -2.498246 -1.497876 L -0.500121 0.00212407 L -2.498246 1.502124 " stroke="#ffffff" stroke-width="1" stroke-opacity="1" stroke-miterlimit="4"/><path stroke-linecap="round" transform="matrix(0.750704, -0.000000000000000107, 0.000000000000000107, 0.75, 189.148424, 39.502313)" fill="none" stroke-linejoin="miter" d="M 0.499549 0.00212407 L 49.209051 0.00212407 " stroke="#ffffff" stroke-width="1" stroke-opacity="1" stroke-miterlimit="4"/><path stroke-linecap="round" transform="matrix(0.750704, -0.000000000000000107, 0.000000000000000107, 0.75, 226.653199, 39.502313)" fill="none" stroke-linejoin="round" d="M -2.498795 -1.497876 L -0.50067 0.00212407 L -2.498795 1.502124 " stroke="#ffffff" stroke-width="1" stroke-opacity="1" stroke-miterlimit="4"/></svg>