<svg xmlns="http://www.w3.org/2000/svg" xmlns:xlink="http://www.w3.org/1999/xlink" width="300" zoomAndPan="magnify" viewBox="0 0 224.87999 225" height="300" preserveAspectRatio="xMidYMid meet" version="1.0"><defs><g/><clipPath id="id1"><path d="M 94 138 L 121 138 L 121 177.71875 L 94 177.71875 Z M 94 138 " clip-rule="nonzero"/></clipPath><clipPath id="id2"><path d="M 106 130.496094 L 109 130.496094 L 109 136 L 106 136 Z M 106 130.496094 " clip-rule="nonzero"/></clipPath><clipPath id="id3"><path d="M 86.246094 150 L 92 150 L 92 153 L 86.246094 153 Z M 86.246094 150 " clip-rule="nonzero"/></clipPath><clipPath id="id4"><path d="M 124 150 L 128.859375 150 L 128.859375 153 L 124 153 Z M 124 150 " clip-rule="nonzero"/></clipPath><clipPath id="id5"><path d="M 183 18.054688 L 195 18.054688 L 195 30 L 183 30 Z M 183 18.054688 " clip-rule="nonzero"/></clipPath><clipPath id="id6"><path d="M 151.75 34 L 157 34 L 157 40 L 151.75 40 Z M 151.75 34 " clip-rule="nonzero"/></clipPath><clipPath id="id7"><path d="M 192 41 L 197.476562 41 L 197.476562 47 L 192 47 Z M 192 41 " clip-rule="nonzero"/></clipPath><clipPath id="id8"><path d="M 155 24 L 197 24 L 197 65.28125 L 155 65.28125 Z M 155 24 " clip-rule="nonzero"/></clipPath><clipPath id="id9"><path d="M 26.667969 23 L 65 23 L 65 61.121094 L 26.667969 61.121094 Z M 26.667969 23 " clip-rule="nonzero"/></clipPath><clipPath id="id10"><path d="M 44 22.144531 L 65.644531 22.144531 L 65.644531 44 L 44 44 Z M 44 22.144531 " clip-rule="nonzero"/></clipPath><clipPath id="id11"><path d="M 132.988281 0.0585938 L 216.023438 0.0585938 L 216.023438 83.09375 L 132.988281 83.09375 Z M 132.988281 0.0585938 " clip-rule="nonzero"/></clipPath><clipPath id="id12"><path d="M 66.101562 112.5 L 149.132812 112.5 L 149.132812 195.53125 L 66.101562 195.53125 Z M 66.101562 112.5 " clip-rule="nonzero"/></clipPath><clipPath id="id13"><path d="M 4.632812 0.0585938 L 87.664062 0.0585938 L 87.664062 83.09375 L 4.632812 83.09375 Z M 4.632812 0.0585938 " clip-rule="nonzero"/></clipPath></defs><g clip-path="url(#id1)"><path fill="#ffffff" d="M 115.996094 158.484375 C 114.460938 160.421875 113.371094 162.359375 112.578125 164.347656 L 111.589844 164.347656 L 111.589844 153.609375 C 111.589844 153.261719 111.492188 152.867188 111.292969 152.566406 L 108.71875 148.539062 C 108.273438 147.792969 107.035156 147.792969 106.589844 148.539062 L 104.015625 152.566406 C 103.769531 152.914062 103.667969 153.265625 103.667969 153.609375 L 103.667969 164.296875 L 102.679688 164.296875 C 101.886719 162.3125 100.796875 160.421875 99.265625 158.433594 C 97.78125 156.542969 96.988281 154.257812 96.988281 151.824219 C 96.988281 148.886719 98.175781 146.105469 100.304688 144.066406 C 102.433594 142.027344 105.253906 140.984375 108.171875 141.132812 C 113.617188 141.382812 118.070312 145.855469 118.320312 151.375 C 118.417969 153.957031 117.578125 156.441406 115.996094 158.484375 Z M 107.632812 175.484375 C 105.949219 175.484375 104.609375 174.238281 104.414062 172.648438 L 110.894531 172.648438 C 110.648438 174.238281 109.3125 175.484375 107.632812 175.484375 Z M 105.351562 155.5 L 106.835938 155.5 L 106.835938 164.347656 L 105.351562 164.347656 Z M 108.46875 164.347656 L 108.46875 155.5 L 109.957031 155.5 L 109.957031 164.347656 Z M 107.085938 150.828125 L 108.222656 150.828125 L 109.90625 153.460938 C 109.957031 153.511719 109.957031 153.5625 109.957031 153.609375 L 109.957031 153.808594 L 105.351562 153.808594 L 105.351562 153.609375 C 105.351562 153.5625 105.351562 153.511719 105.402344 153.460938 Z M 112.035156 166.535156 L 112.035156 170.414062 L 103.222656 170.414062 L 103.222656 166.535156 Z M 108.222656 138.949219 C 104.660156 138.796875 101.292969 140.042969 98.71875 142.523438 C 96.148438 145.007812 94.761719 148.292969 94.761719 151.867188 C 94.761719 154.804688 95.703125 157.585938 97.535156 159.871094 C 99.164062 161.964844 100.304688 163.953125 101 166.039062 L 101.046875 171.558594 C 101.046875 172.152344 101.539062 172.648438 102.132812 172.648438 L 102.183594 172.648438 C 102.433594 175.484375 104.757812 177.71875 107.632812 177.71875 C 110.5 177.71875 112.828125 175.484375 113.074219 172.648438 L 113.125 172.648438 C 113.71875 172.648438 114.214844 172.152344 114.214844 171.558594 L 114.214844 166.1875 L 114.261719 165.988281 C 114.957031 163.902344 116.09375 161.914062 117.722656 159.824219 C 119.65625 157.386719 120.597656 154.355469 120.496094 151.222656 C 120.199219 144.660156 114.804688 139.246094 108.222656 138.949219 " fill-opacity="1" fill-rule="nonzero"/></g><g clip-path="url(#id2)"><path fill="#ffffff" d="M 107.632812 135.265625 C 108.222656 135.265625 108.71875 134.773438 108.71875 134.171875 L 108.71875 131.589844 C 108.71875 130.992188 108.222656 130.496094 107.632812 130.496094 C 107.035156 130.496094 106.542969 130.992188 106.542969 131.589844 L 106.542969 134.171875 C 106.542969 134.773438 107.035156 135.265625 107.632812 135.265625 " fill-opacity="1" fill-rule="nonzero"/></g><path fill="#ffffff" d="M 97.878906 137.105469 C 98.078125 137.453125 98.472656 137.652344 98.820312 137.652344 C 99.015625 137.652344 99.214844 137.601562 99.367188 137.503906 C 99.910156 137.207031 100.054688 136.511719 99.757812 136.011719 L 98.472656 133.773438 C 98.175781 133.230469 97.484375 133.078125 96.988281 133.378906 C 96.445312 133.675781 96.292969 134.375 96.59375 134.867188 L 97.878906 137.105469 " fill-opacity="1" fill-rule="nonzero"/><path fill="#ffffff" d="M 92.929688 142.027344 L 90.703125 140.734375 C 90.15625 140.4375 89.515625 140.585938 89.21875 141.132812 C 88.921875 141.679688 89.070312 142.328125 89.617188 142.625 L 91.839844 143.914062 C 92.039062 144.015625 92.1875 144.066406 92.386719 144.066406 C 92.785156 144.066406 93.128906 143.871094 93.328125 143.519531 C 93.621094 143.023438 93.476562 142.328125 92.929688 142.027344 " fill-opacity="1" fill-rule="nonzero"/><g clip-path="url(#id3)"><path fill="#ffffff" d="M 91.148438 151.824219 C 91.148438 151.222656 90.65625 150.726562 90.058594 150.726562 L 87.488281 150.726562 C 86.894531 150.726562 86.398438 151.226562 86.398438 151.824219 C 86.398438 152.417969 86.894531 152.917969 87.488281 152.917969 L 90.058594 152.917969 C 90.65625 152.964844 91.148438 152.46875 91.148438 151.824219 " fill-opacity="1" fill-rule="nonzero"/></g><path fill="#ffffff" d="M 91.839844 159.726562 L 89.617188 161.015625 C 89.070312 161.316406 88.921875 162.011719 89.21875 162.507812 C 89.414062 162.855469 89.8125 163.054688 90.15625 163.054688 C 90.359375 163.054688 90.554688 163.003906 90.703125 162.90625 L 92.929688 161.613281 C 93.476562 161.316406 93.621094 160.621094 93.328125 160.125 C 93.03125 159.625 92.386719 159.429688 91.839844 159.726562 " fill-opacity="1" fill-rule="nonzero"/><path fill="#ffffff" d="M 125.648438 161.015625 L 123.417969 159.726562 C 122.875 159.429688 122.226562 159.574219 121.929688 160.125 C 121.636719 160.667969 121.835938 161.320312 122.328125 161.613281 L 124.558594 162.90625 C 124.753906 163.003906 124.902344 163.054688 125.101562 163.054688 C 125.496094 163.054688 125.84375 162.855469 126.039062 162.507812 C 126.339844 162.011719 126.140625 161.316406 125.648438 161.015625 " fill-opacity="1" fill-rule="nonzero"/><g clip-path="url(#id4)"><path fill="#ffffff" d="M 127.769531 150.726562 L 125.199219 150.726562 C 124.605469 150.726562 124.109375 151.222656 124.109375 151.824219 C 124.109375 152.417969 124.605469 152.917969 125.199219 152.917969 L 127.769531 152.917969 C 128.367188 152.917969 128.859375 152.417969 128.859375 151.824219 C 128.859375 151.222656 128.367188 150.726562 127.769531 150.726562 " fill-opacity="1" fill-rule="nonzero"/></g><path fill="#ffffff" d="M 122.875 144.117188 C 123.070312 144.117188 123.265625 144.066406 123.417969 143.964844 L 125.648438 142.675781 C 126.1875 142.375 126.339844 141.679688 126.039062 141.183594 C 125.742188 140.636719 125.050781 140.484375 124.558594 140.785156 L 122.328125 142.078125 C 121.785156 142.375 121.636719 143.074219 121.929688 143.566406 C 122.132812 143.914062 122.476562 144.117188 122.875 144.117188 " fill-opacity="1" fill-rule="nonzero"/><path fill="#ffffff" d="M 115.894531 137.503906 C 116.09375 137.601562 116.242188 137.652344 116.4375 137.652344 C 116.835938 137.652344 117.179688 137.453125 117.382812 137.105469 L 118.667969 134.867188 C 118.964844 134.324219 118.765625 133.675781 118.269531 133.378906 C 117.722656 133.078125 117.082031 133.230469 116.785156 133.773438 L 115.5 136.011719 C 115.152344 136.511719 115.347656 137.207031 115.894531 137.503906 " fill-opacity="1" fill-rule="nonzero"/><path fill="#ffffff" d="M 174.613281 41.078125 L 173.433594 41.078125 C 172.886719 41.078125 172.449219 40.636719 172.449219 40.09375 L 170.871094 40.09375 C 170.871094 41.4375 171.917969 42.527344 173.234375 42.628906 L 173.234375 44.027344 L 174.8125 44.027344 L 174.8125 42.628906 C 176.128906 42.527344 177.171875 41.4375 177.171875 40.09375 L 177.171875 39.503906 C 177.171875 38.09375 176.027344 36.945312 174.613281 36.945312 L 173.433594 36.945312 C 172.886719 36.945312 172.449219 36.503906 172.449219 35.960938 L 172.449219 35.371094 C 172.449219 34.828125 172.886719 34.386719 173.433594 34.386719 L 174.613281 34.386719 C 175.160156 34.386719 175.597656 34.828125 175.597656 35.371094 L 177.171875 35.371094 C 177.171875 34.027344 176.128906 32.9375 174.8125 32.835938 L 174.8125 31.433594 L 173.234375 31.433594 L 173.234375 32.835938 C 171.917969 32.9375 170.871094 34.027344 170.871094 35.371094 L 170.871094 35.960938 C 170.871094 37.371094 172.019531 38.519531 173.433594 38.519531 L 174.613281 38.519531 C 175.160156 38.519531 175.597656 38.957031 175.597656 39.503906 L 175.597656 40.09375 C 175.597656 40.636719 175.160156 41.078125 174.613281 41.078125 " fill-opacity="1" fill-rule="nonzero"/><g clip-path="url(#id5)"><path fill="#ffffff" d="M 188.792969 27.5 C 186.621094 27.5 184.855469 25.734375 184.855469 23.566406 C 184.855469 21.394531 186.621094 19.628906 188.792969 19.628906 C 190.964844 19.628906 192.730469 21.394531 192.730469 23.566406 C 192.730469 25.734375 190.964844 27.5 188.792969 27.5 Z M 188.792969 18.054688 C 185.753906 18.054688 183.277344 20.527344 183.277344 23.566406 C 183.277344 26.601562 185.753906 29.074219 188.792969 29.074219 C 191.832031 29.074219 194.308594 26.601562 194.308594 23.566406 C 194.308594 20.527344 191.832031 18.054688 188.792969 18.054688 " fill-opacity="1" fill-rule="nonzero"/></g><path fill="#ffffff" d="M 189.582031 21.203125 L 188.003906 21.203125 L 188.003906 22.777344 L 186.429688 22.777344 L 186.429688 24.351562 L 188.003906 24.351562 L 188.003906 25.925781 L 189.582031 25.925781 L 189.582031 24.351562 L 191.15625 24.351562 L 191.15625 22.777344 L 189.582031 22.777344 L 189.582031 21.203125 " fill-opacity="1" fill-rule="nonzero"/><g clip-path="url(#id6)"><path fill="#ffffff" d="M 154.917969 39.304688 L 154.917969 37.730469 L 156.496094 37.730469 L 156.496094 36.15625 L 154.917969 36.15625 L 154.917969 34.582031 L 153.34375 34.582031 L 153.34375 36.15625 L 151.769531 36.15625 L 151.769531 37.730469 L 153.34375 37.730469 L 153.34375 39.304688 L 154.917969 39.304688 " fill-opacity="1" fill-rule="nonzero"/></g><g clip-path="url(#id7)"><path fill="#ffffff" d="M 195.882812 41.667969 L 194.308594 41.667969 L 194.308594 43.242188 L 192.730469 43.242188 L 192.730469 44.816406 L 194.308594 44.816406 L 194.308594 46.390625 L 195.882812 46.390625 L 195.882812 44.816406 L 197.457031 44.816406 L 197.457031 43.242188 L 195.882812 43.242188 L 195.882812 41.667969 " fill-opacity="1" fill-rule="nonzero"/></g><path fill="#ffffff" d="M 156.496094 43.242188 L 158.070312 43.242188 L 158.070312 41.667969 L 156.496094 41.667969 L 156.496094 43.242188 " fill-opacity="1" fill-rule="nonzero"/><path fill="#ffffff" d="M 195.09375 35.371094 L 193.519531 35.371094 L 193.519531 36.945312 L 195.09375 36.945312 L 195.09375 35.371094 " fill-opacity="1" fill-rule="nonzero"/><path fill="#ffffff" d="M 189.582031 44.816406 L 188.003906 44.816406 L 188.003906 46.390625 L 189.582031 46.390625 L 189.582031 44.816406 " fill-opacity="1" fill-rule="nonzero"/><path fill="#ffffff" d="M 154.917969 31.433594 L 156.496094 31.433594 L 156.496094 29.863281 L 154.917969 29.863281 L 154.917969 31.433594 " fill-opacity="1" fill-rule="nonzero"/><g clip-path="url(#id8)"><path fill="#ffffff" d="M 194.109375 54.992188 C 194.375 54.925781 194.644531 55.078125 194.730469 55.332031 C 194.820312 55.597656 194.675781 55.894531 194.402344 55.988281 L 173.765625 63.675781 L 166.910156 62.148438 C 166.851562 62.136719 166.792969 62.132812 166.734375 62.132812 L 162.796875 62.132812 L 162.796875 54.261719 L 166.734375 54.261719 C 166.945312 54.261719 167.144531 54.179688 167.292969 54.03125 L 170.375 50.949219 L 174.261719 48.617188 C 174.945312 48.164062 175.582031 48.101562 175.882812 48.472656 C 176.105469 48.742188 176.128906 49.25 175.667969 49.734375 L 170.984375 53.3125 C 170.765625 53.476562 170.652344 53.742188 170.679688 54.007812 C 170.703125 54.277344 170.867188 54.519531 171.109375 54.640625 L 178.984375 58.574219 C 179.15625 58.660156 179.347656 58.679688 179.53125 58.632812 Z M 161.222656 63.707031 L 157.28125 63.707031 L 157.28125 52.6875 L 161.222656 52.6875 Z M 162.207031 37.730469 C 162.207031 31.21875 167.503906 25.925781 174.023438 25.925781 C 180.539062 25.925781 185.839844 31.21875 185.839844 37.730469 C 185.839844 42.921875 182.449219 47.441406 177.601562 48.976562 C 177.609375 48.402344 177.425781 47.871094 177.101562 47.476562 C 176.40625 46.625 174.984375 46.246094 173.417969 47.289062 L 170.546875 49.007812 C 165.625 47.496094 162.207031 42.914062 162.207031 37.730469 Z M 178.550781 56.296875 C 178.625 56.296875 178.699219 56.285156 178.769531 56.265625 L 191.050781 52.714844 C 191.265625 52.652344 191.488281 52.695312 191.667969 52.828125 C 191.84375 52.960938 191.945312 53.167969 191.945312 53.386719 C 191.945312 53.710938 191.742188 53.96875 191.425781 54.039062 L 191.425781 54.042969 L 179.433594 57.039062 L 177.949219 56.296875 Z M 186.574219 50.183594 C 186.75 50.003906 186.953125 50 187.0625 50.007812 C 187.164062 50.019531 187.367188 50.066406 187.503906 50.273438 C 187.664062 50.511719 187.632812 50.835938 187.429688 51.039062 L 185.902344 52.566406 L 183.492188 53.261719 Z M 192.613281 51.574219 C 192.039062 51.136719 191.3125 51 190.617188 51.203125 L 188.875 51.707031 C 189.285156 51 189.28125 50.105469 188.816406 49.402344 C 188.453125 48.855469 187.871094 48.507812 187.214844 48.441406 C 186.570312 48.382812 185.921875 48.605469 185.460938 49.070312 L 180.355469 54.167969 L 178.441406 54.722656 L 174.796875 54.722656 L 172.941406 53.796875 L 176.667969 50.949219 C 176.695312 50.929688 176.722656 50.90625 176.746094 50.882812 C 176.769531 50.859375 176.78125 50.835938 176.804688 50.8125 C 182.96875 49.515625 187.414062 44.058594 187.414062 37.730469 C 187.414062 30.351562 181.40625 24.351562 174.023438 24.351562 C 166.636719 24.351562 160.632812 30.351562 160.632812 37.730469 C 160.632812 43.203125 164 48.09375 168.980469 50.121094 L 166.410156 52.6875 L 162.796875 52.6875 L 162.796875 51.113281 L 155.707031 51.113281 L 155.707031 65.28125 L 162.796875 65.28125 L 162.796875 63.707031 L 166.648438 63.707031 L 173.652344 65.261719 C 173.710938 65.273438 173.765625 65.28125 173.824219 65.28125 C 173.917969 65.28125 174.011719 65.265625 174.101562 65.230469 L 194.941406 57.46875 C 196.007812 57.089844 196.585938 55.910156 196.222656 54.835938 C 195.882812 53.800781 194.78125 53.199219 193.730469 53.464844 L 193.507812 53.519531 C 193.511719 53.476562 193.519531 53.433594 193.519531 53.386719 C 193.519531 52.664062 193.191406 52.007812 192.613281 51.574219 " fill-opacity="1" fill-rule="nonzero"/></g><path fill="#ffffff" d="M 45.382812 36.933594 C 45.964844 36.933594 46.433594 36.460938 46.433594 35.878906 C 46.433594 35.296875 45.964844 34.824219 45.382812 34.824219 C 41.261719 34.824219 37.90625 38.1875 37.90625 42.324219 C 37.90625 46.457031 41.261719 49.820312 45.382812 49.820312 C 49.507812 49.820312 52.859375 46.457031 52.859375 42.324219 C 52.859375 41.742188 52.390625 41.269531 51.808594 41.269531 C 51.230469 41.269531 50.757812 41.742188 50.757812 42.324219 C 50.757812 45.296875 48.347656 47.714844 45.382812 47.714844 C 42.417969 47.714844 40.007812 45.296875 40.007812 42.324219 C 40.007812 39.351562 42.417969 36.933594 45.382812 36.933594 " fill-opacity="1" fill-rule="nonzero"/><path fill="#ffffff" d="M 45.382812 29.417969 C 38.285156 29.417969 32.515625 35.207031 32.515625 42.324219 C 32.515625 49.4375 38.285156 55.226562 45.382812 55.226562 C 52.480469 55.226562 58.253906 49.4375 58.253906 42.324219 C 58.253906 41.742188 57.78125 41.269531 57.203125 41.269531 C 56.621094 41.269531 56.152344 41.742188 56.152344 42.324219 C 56.152344 48.277344 51.320312 53.121094 45.382812 53.121094 C 39.445312 53.121094 34.617188 48.277344 34.617188 42.324219 C 34.617188 36.371094 39.445312 31.527344 45.382812 31.527344 C 45.964844 31.527344 46.433594 31.054688 46.433594 30.472656 C 46.433594 29.890625 45.964844 29.417969 45.382812 29.417969 " fill-opacity="1" fill-rule="nonzero"/><g clip-path="url(#id9)"><path fill="#ffffff" d="M 63.054688 41.269531 C 62.476562 41.269531 62.003906 41.742188 62.003906 42.324219 C 62.003906 51.511719 54.546875 58.988281 45.382812 58.988281 C 36.21875 58.988281 28.761719 51.511719 28.761719 42.324219 C 28.761719 33.132812 36.21875 25.65625 45.382812 25.65625 C 45.964844 25.65625 46.433594 25.1875 46.433594 24.605469 C 46.433594 24.023438 45.964844 23.550781 45.382812 23.550781 C 35.058594 23.550781 26.660156 31.972656 26.660156 42.324219 C 26.660156 52.675781 35.058594 61.097656 45.382812 61.097656 C 55.707031 61.097656 64.105469 52.675781 64.105469 42.324219 C 64.105469 41.742188 63.632812 41.269531 63.054688 41.269531 " fill-opacity="1" fill-rule="nonzero"/></g><g clip-path="url(#id10)"><path fill="#ffffff" d="M 59.050781 33.175781 L 56.699219 32.613281 L 60.105469 29.199219 L 62.453125 29.761719 Z M 54.652344 28.765625 L 58.054688 25.351562 L 58.589844 27.589844 L 55.183594 31.003906 Z M 65.539062 28.890625 C 65.433594 28.523438 65.140625 28.238281 64.769531 28.152344 L 60.648438 27.164062 L 59.664062 23.03125 C 59.578125 22.660156 59.292969 22.363281 58.929688 22.261719 C 58.558594 22.160156 58.167969 22.261719 57.898438 22.527344 L 52.75 27.691406 C 52.488281 27.953125 52.386719 28.328125 52.46875 28.683594 L 53.441406 32.753906 L 44.640625 41.578125 C 44.230469 41.988281 44.230469 42.65625 44.640625 43.066406 C 44.84375 43.273438 45.113281 43.378906 45.382812 43.378906 C 45.652344 43.378906 45.921875 43.273438 46.125 43.066406 L 54.835938 34.335938 L 59.132812 35.363281 C 59.214844 35.382812 59.296875 35.394531 59.378906 35.394531 C 59.652344 35.394531 59.921875 35.285156 60.121094 35.082031 L 65.269531 29.921875 C 65.539062 29.652344 65.640625 29.257812 65.539062 28.890625 " fill-opacity="1" fill-rule="nonzero"/></g><g clip-path="url(#id11)"><path fill="#ff0000" d="M 174.507812 83.09375 C 163.421875 83.09375 152.984375 78.777344 145.152344 70.929688 C 137.304688 63.097656 132.988281 52.660156 132.988281 41.574219 C 132.988281 30.492188 137.304688 20.054688 145.152344 12.222656 C 152.984375 4.375 163.421875 0.0585938 174.507812 0.0585938 C 185.589844 0.0585938 196.027344 4.375 203.859375 12.222656 C 211.707031 20.070312 216.023438 30.492188 216.023438 41.574219 C 216.023438 52.660156 211.707031 63.097656 203.859375 70.929688 C 196.027344 78.777344 185.589844 83.09375 174.507812 83.09375 Z M 174.507812 2.550781 C 164.085938 2.550781 154.277344 6.613281 146.910156 13.980469 C 139.542969 21.347656 135.480469 31.15625 135.480469 41.574219 C 135.480469 51.996094 139.542969 61.804688 146.910156 69.171875 C 154.277344 76.539062 164.085938 80.601562 174.507812 80.601562 C 184.925781 80.601562 194.734375 76.539062 202.101562 69.171875 C 209.46875 61.804688 213.535156 51.996094 213.535156 41.574219 C 213.535156 31.15625 209.46875 21.347656 202.101562 13.980469 C 194.734375 6.613281 184.925781 2.550781 174.507812 2.550781 Z M 174.507812 2.550781 " fill-opacity="1" fill-rule="nonzero"/></g><g clip-path="url(#id12)"><path fill="#ff0000" d="M 107.617188 195.53125 C 96.53125 195.53125 86.09375 191.21875 78.261719 183.371094 C 70.414062 175.539062 66.101562 165.101562 66.101562 154.015625 C 66.101562 142.933594 70.414062 132.496094 78.261719 124.664062 C 86.09375 116.8125 96.53125 112.5 107.617188 112.5 C 118.699219 112.5 129.136719 116.8125 136.96875 124.664062 C 144.816406 132.511719 149.132812 142.933594 149.132812 154.015625 C 149.132812 165.101562 144.816406 175.539062 136.96875 183.371094 C 129.136719 191.21875 118.699219 195.53125 107.617188 195.53125 Z M 107.617188 114.988281 C 97.195312 114.988281 87.390625 119.054688 80.023438 126.421875 C 72.65625 133.789062 68.589844 143.59375 68.589844 154.015625 C 68.589844 164.4375 72.65625 174.242188 80.023438 181.609375 C 87.390625 188.976562 97.195312 193.042969 107.617188 193.042969 C 118.035156 193.042969 127.84375 188.976562 135.210938 181.609375 C 142.578125 174.242188 146.644531 164.4375 146.644531 154.015625 C 146.644531 143.59375 142.578125 133.789062 135.210938 126.421875 C 127.84375 119.054688 118.035156 114.988281 107.617188 114.988281 Z M 107.617188 114.988281 " fill-opacity="1" fill-rule="nonzero"/></g><g clip-path="url(#id13)"><path fill="#ff0000" d="M 46.148438 83.09375 C 35.0625 83.09375 24.625 78.777344 16.792969 70.929688 C 8.945312 63.097656 4.632812 52.660156 4.632812 41.574219 C 4.632812 30.492188 8.945312 20.054688 16.792969 12.222656 C 24.625 4.375 35.0625 0.0585938 46.148438 0.0585938 C 57.230469 0.0585938 67.667969 4.375 75.5 12.222656 C 83.347656 20.070312 87.664062 30.492188 87.664062 41.574219 C 87.664062 52.660156 83.347656 63.097656 75.5 70.929688 C 67.667969 78.777344 57.230469 83.09375 46.148438 83.09375 Z M 46.148438 2.550781 C 35.726562 2.550781 25.921875 6.613281 18.554688 13.980469 C 11.1875 21.347656 7.121094 31.15625 7.121094 41.574219 C 7.121094 51.996094 11.1875 61.804688 18.554688 69.171875 C 25.921875 76.539062 35.726562 80.601562 46.148438 80.601562 C 56.566406 80.601562 66.375 76.539062 73.742188 69.171875 C 81.109375 61.804688 85.175781 51.996094 85.175781 41.574219 C 85.175781 31.15625 81.109375 21.347656 73.742188 13.980469 C 66.375 6.613281 56.566406 2.550781 46.148438 2.550781 Z M 46.148438 2.550781 " fill-opacity="1" fill-rule="nonzero"/></g><g fill="#ffffff" fill-opacity="1"><g transform="translate(22.476286, 96.981296)"><g><path d="M 0.0898438 0 L 1.789062 0 L 2.257812 -1.210938 L 5.035156 -1.210938 L 5.503906 0 L 7.203125 0 L 4.425781 -6.996094 L 2.867188 -6.996094 Z M 2.667969 -2.457031 L 3.648438 -5.015625 L 4.636719 -2.457031 Z M 2.667969 -2.457031 "/></g></g></g><g fill="#ffffff" fill-opacity="1"><g transform="translate(29.769512, 96.981296)"><g><path d="M 0.839844 0 L 2.417969 0 L 2.417969 -4.285156 L 5.503906 0 L 6.855469 0 L 6.855469 -6.996094 L 5.277344 -6.996094 L 5.277344 -2.738281 L 2.1875 -6.996094 L 0.839844 -6.996094 Z M 0.839844 0 "/></g></g></g><g fill="#ffffff" fill-opacity="1"><g transform="translate(37.462371, 96.981296)"><g><path d="M 0.0898438 0 L 1.789062 0 L 2.257812 -1.210938 L 5.035156 -1.210938 L 5.503906 0 L 7.203125 0 L 4.425781 -6.996094 L 2.867188 -6.996094 Z M 2.667969 -2.457031 L 3.648438 -5.015625 L 4.636719 -2.457031 Z M 2.667969 -2.457031 "/></g></g></g><g fill="#ffffff" fill-opacity="1"><g transform="translate(44.755598, 96.981296)"><g><path d="M 0.839844 0 L 5.484375 0 L 5.484375 -1.488281 L 2.429688 -1.488281 L 2.429688 -6.996094 L 0.839844 -6.996094 Z M 0.839844 0 "/></g></g></g><g fill="#ffffff" fill-opacity="1"><g transform="translate(50.510255, 96.981296)"><g><path d="M 2.667969 0 L 4.257812 0 L 4.257812 -2.46875 L 6.824219 -6.996094 L 5.015625 -6.996094 L 4.15625 -5.375 L 3.46875 -4.105469 L 2.769531 -5.375 L 1.898438 -6.996094 L 0.0898438 -6.996094 L 2.667969 -2.449219 Z M 2.667969 0 "/></g></g></g><g fill="#ffffff" fill-opacity="1"><g transform="translate(57.423832, 96.981296)"><g><path d="M 3.277344 0.140625 C 4.9375 0.140625 5.957031 -0.648438 5.957031 -1.96875 C 5.957031 -3.078125 5.226562 -3.738281 3.488281 -4.148438 C 2.417969 -4.398438 2.046875 -4.667969 2.046875 -5.097656 C 2.046875 -5.554688 2.457031 -5.835938 3.128906 -5.835938 C 3.855469 -5.835938 4.296875 -5.457031 4.296875 -4.828125 L 5.824219 -4.828125 C 5.824219 -6.234375 4.765625 -7.132812 3.109375 -7.132812 C 1.5 -7.132812 0.5 -6.34375 0.5 -5.066406 C 0.5 -3.925781 1.269531 -3.246094 2.90625 -2.898438 C 3.898438 -2.6875 4.347656 -2.398438 4.347656 -1.910156 C 4.347656 -1.4375 3.925781 -1.167969 3.265625 -1.167969 C 2.496094 -1.167969 2 -1.558594 2 -2.226562 L 0.441406 -2.226562 C 0.441406 -0.78125 1.519531 0.140625 3.277344 0.140625 Z M 3.277344 0.140625 "/></g></g></g><g fill="#ffffff" fill-opacity="1"><g transform="translate(63.827881, 96.981296)"><g><path d="M 0.839844 0 L 5.546875 0 L 5.546875 -1.347656 L 2.417969 -1.347656 L 2.417969 -2.878906 L 5.164062 -2.878906 L 5.164062 -4.207031 L 2.417969 -4.207031 L 2.417969 -5.65625 L 5.4375 -5.65625 L 5.4375 -6.996094 L 0.839844 -6.996094 Z M 0.839844 0 "/></g></g></g><g fill="#ffffff" fill-opacity="1"><g transform="translate(82.860667, 212.839241)"><g><path d="M 0.839844 0 L 2.429688 0 L 2.429688 -2.40625 L 4.964844 -2.40625 L 4.964844 -3.808594 L 2.429688 -3.808594 L 2.429688 -5.554688 L 5.226562 -5.554688 L 5.226562 -6.996094 L 0.839844 -6.996094 Z M 0.839844 0 "/></g></g></g><g fill="#ffffff" fill-opacity="1"><g transform="translate(88.52541, 212.839241)"><g><path d="M 0.839844 0 L 2.429688 0 L 2.429688 -6.996094 L 0.839844 -6.996094 Z M 0.839844 0 "/></g></g></g><g fill="#ffffff" fill-opacity="1"><g transform="translate(91.792374, 212.839241)"><g><path d="M 0.839844 0 L 2.417969 0 L 2.417969 -4.285156 L 5.503906 0 L 6.855469 0 L 6.855469 -6.996094 L 5.277344 -6.996094 L 5.277344 -2.738281 L 2.1875 -6.996094 L 0.839844 -6.996094 Z M 0.839844 0 "/></g></g></g><g fill="#ffffff" fill-opacity="1"><g transform="translate(99.485233, 212.839241)"><g><path d="M 0.0898438 0 L 1.789062 0 L 2.257812 -1.210938 L 5.035156 -1.210938 L 5.503906 0 L 7.203125 0 L 4.425781 -6.996094 L 2.867188 -6.996094 Z M 2.667969 -2.457031 L 3.648438 -5.015625 L 4.636719 -2.457031 Z M 2.667969 -2.457031 "/></g></g></g><g fill="#ffffff" fill-opacity="1"><g transform="translate(106.778459, 212.839241)"><g><path d="M 0.839844 0 L 5.484375 0 L 5.484375 -1.488281 L 2.429688 -1.488281 L 2.429688 -6.996094 L 0.839844 -6.996094 Z M 0.839844 0 "/></g></g></g><g fill="#ffffff" fill-opacity="1"><g transform="translate(112.533117, 212.839241)"><g><path d="M 0.839844 0 L 2.429688 0 L 2.429688 -6.996094 L 0.839844 -6.996094 Z M 0.839844 0 "/></g></g></g><g fill="#ffffff" fill-opacity="1"><g transform="translate(115.80008, 212.839241)"><g><path d="M 3.277344 0.140625 C 4.9375 0.140625 5.957031 -0.648438 5.957031 -1.96875 C 5.957031 -3.078125 5.226562 -3.738281 3.488281 -4.148438 C 2.417969 -4.398438 2.046875 -4.667969 2.046875 -5.097656 C 2.046875 -5.554688 2.457031 -5.835938 3.128906 -5.835938 C 3.855469 -5.835938 4.296875 -5.457031 4.296875 -4.828125 L 5.824219 -4.828125 C 5.824219 -6.234375 4.765625 -7.132812 3.109375 -7.132812 C 1.5 -7.132812 0.5 -6.34375 0.5 -5.066406 C 0.5 -3.925781 1.269531 -3.246094 2.90625 -2.898438 C 3.898438 -2.6875 4.347656 -2.398438 4.347656 -1.910156 C 4.347656 -1.4375 3.925781 -1.167969 3.265625 -1.167969 C 2.496094 -1.167969 2 -1.558594 2 -2.226562 L 0.441406 -2.226562 C 0.441406 -0.78125 1.519531 0.140625 3.277344 0.140625 Z M 3.277344 0.140625 "/></g></g></g><g fill="#ffffff" fill-opacity="1"><g transform="translate(122.204129, 212.839241)"><g><path d="M 0.839844 0 L 5.546875 0 L 5.546875 -1.347656 L 2.417969 -1.347656 L 2.417969 -2.878906 L 5.164062 -2.878906 L 5.164062 -4.207031 L 2.417969 -4.207031 L 2.417969 -5.65625 L 5.4375 -5.65625 L 5.4375 -6.996094 L 0.839844 -6.996094 Z M 0.839844 0 "/></g></g></g><g fill="#ffffff" fill-opacity="1"><g transform="translate(146.196568, 96.981296)"><g><path d="M 0.839844 0 L 5.546875 0 L 5.546875 -1.347656 L 2.417969 -1.347656 L 2.417969 -2.878906 L 5.164062 -2.878906 L 5.164062 -4.207031 L 2.417969 -4.207031 L 2.417969 -5.65625 L 5.4375 -5.65625 L 5.4375 -6.996094 L 0.839844 -6.996094 Z M 0.839844 0 "/></g></g></g><g fill="#ffffff" fill-opacity="1"><g transform="translate(152.250946, 96.981296)"><g><path d="M 0.269531 0 L 2.136719 0 L 3.097656 -1.480469 L 3.6875 -2.367188 L 4.265625 -1.480469 L 5.226562 0 L 7.09375 0 L 4.714844 -3.585938 L 6.972656 -6.996094 L 5.164062 -6.996094 L 3.675781 -4.726562 L 3.039062 -5.695312 L 2.199219 -6.996094 L 0.378906 -6.996094 L 2.648438 -3.578125 Z M 0.269531 0 "/></g></g></g><g fill="#ffffff" fill-opacity="1"><g transform="translate(159.614105, 96.981296)"><g><path d="M 0.839844 0 L 5.546875 0 L 5.546875 -1.347656 L 2.417969 -1.347656 L 2.417969 -2.878906 L 5.164062 -2.878906 L 5.164062 -4.207031 L 2.417969 -4.207031 L 2.417969 -5.65625 L 5.4375 -5.65625 L 5.4375 -6.996094 L 0.839844 -6.996094 Z M 0.839844 0 "/></g></g></g><g fill="#ffffff" fill-opacity="1"><g transform="translate(165.668483, 96.981296)"><g><path d="M 4.046875 0.140625 C 5.886719 0.140625 7.3125 -0.980469 7.664062 -2.679688 L 6.023438 -2.679688 C 5.734375 -1.878906 4.996094 -1.367188 4.078125 -1.367188 C 2.886719 -1.367188 2.046875 -2.238281 2.046875 -3.496094 C 2.046875 -4.757812 2.898438 -5.625 4.085938 -5.625 C 4.976562 -5.625 5.707031 -5.144531 5.976562 -4.375 L 7.613281 -4.375 C 7.214844 -6.054688 5.816406 -7.132812 4.035156 -7.132812 C 1.917969 -7.132812 0.429688 -5.636719 0.429688 -3.496094 C 0.429688 -1.359375 1.917969 0.140625 4.046875 0.140625 Z M 4.046875 0.140625 "/></g></g></g><g fill="#ffffff" fill-opacity="1"><g transform="translate(173.730995, 96.981296)"><g><path d="M 3.695312 0.140625 C 5.515625 0.140625 6.625 -1 6.625 -2.878906 L 6.625 -6.996094 L 5.035156 -6.996094 L 5.035156 -2.988281 C 5.035156 -1.917969 4.585938 -1.367188 3.695312 -1.367188 C 2.808594 -1.367188 2.359375 -1.917969 2.359375 -2.988281 L 2.359375 -6.996094 L 0.769531 -6.996094 L 0.769531 -2.878906 C 0.769531 -1 1.878906 0.140625 3.695312 0.140625 Z M 3.695312 0.140625 "/></g></g></g><g fill="#ffffff" fill-opacity="1"><g transform="translate(181.124132, 96.981296)"><g><path d="M 2.519531 0 L 4.105469 0 L 4.105469 -5.503906 L 6.324219 -5.503906 L 6.324219 -6.996094 L 0.300781 -6.996094 L 0.300781 -5.503906 L 2.519531 -5.503906 Z M 2.519531 0 "/></g></g></g><g fill="#ffffff" fill-opacity="1"><g transform="translate(187.747985, 96.981296)"><g><path d="M 0.839844 0 L 2.429688 0 L 2.429688 -6.996094 L 0.839844 -6.996094 Z M 0.839844 0 "/></g></g></g><g fill="#ffffff" fill-opacity="1"><g transform="translate(191.014949, 96.981296)"><g><path d="M 4.15625 0.140625 C 6.34375 0.140625 7.894531 -1.359375 7.894531 -3.496094 C 7.894531 -5.636719 6.34375 -7.132812 4.15625 -7.132812 C 1.96875 -7.132812 0.429688 -5.636719 0.429688 -3.496094 C 0.429688 -1.359375 1.96875 0.140625 4.15625 0.140625 Z M 2.046875 -3.496094 C 2.046875 -4.757812 2.917969 -5.625 4.15625 -5.625 C 5.40625 -5.625 6.265625 -4.757812 6.265625 -3.496094 C 6.265625 -2.238281 5.40625 -1.367188 4.15625 -1.367188 C 2.917969 -1.367188 2.046875 -2.238281 2.046875 -3.496094 Z M 2.046875 -3.496094 "/></g></g></g><g fill="#ffffff" fill-opacity="1"><g transform="translate(199.337217, 96.981296)"><g><path d="M 0.839844 0 L 2.417969 0 L 2.417969 -4.285156 L 5.503906 0 L 6.855469 0 L 6.855469 -6.996094 L 5.277344 -6.996094 L 5.277344 -2.738281 L 2.1875 -6.996094 L 0.839844 -6.996094 Z M 0.839844 0 "/></g></g></g></svg>