<svg xmlns="http://www.w3.org/2000/svg" width="59.576" height="59.579" viewBox="0 0 59.576 59.579"><defs><style>.a{fill:#ff0000;}</style></defs><g transform="translate(-176 -3610.471)"><g transform="translate(176 3610.471)"><path class="a" d="M173.967,112a3.969,3.969,0,0,0-3.42,5.987l-2.041,2.041-1.78-1.78-1.4,1.4,1.78,1.78-1.574,1.574-1.78-1.78-1.4,1.4,1.78,1.78-.787.787,1.4,1.4,7.211-7.211A3.971,3.971,0,1,0,173.967,112Zm0,5.957a1.986,1.986,0,1,1,1.986-1.986A1.986,1.986,0,0,1,173.967,117.957Z" transform="translate(-144.179 -100.081)"></path><path class="a" d="M71.594,29.874a3.959,3.959,0,0,0-1.045.141l-4.129-7.226a3.972,3.972,0,1,0-6.189-.828l-3.854,3.854A16.876,16.876,0,1,0,37.125,51.728L30.8,63.739a3.953,3.953,0,0,0-2.339.159L23,56.253a3.97,3.97,0,1,0-1.615,1.155l5.461,7.645a3.972,3.972,0,1,0,5.711-.389l6.511-12.37a16.909,16.909,0,0,0,6.015.261l1.789,3.578a.993.993,0,0,0,1.332.444l1.1-.549L58.791,75a.992.992,0,0,0,1.332.444l3.972-1.986a.993.993,0,0,0,.444-1.332l-9.485-18.97,1.1-.549a.993.993,0,0,0,.444-1.332L54.8,47.686a16.849,16.849,0,0,0,2.682-20.171l4.151-4.151a3.959,3.959,0,0,0,3.061.411L68.825,31a3.969,3.969,0,1,0,2.769-1.128ZM17.977,53.7a1.986,1.986,0,1,1,1.986,1.986A1.986,1.986,0,0,1,17.977,53.7ZM29.892,69.59A1.986,1.986,0,1,1,31.877,67.6,1.986,1.986,0,0,1,29.892,69.59ZM47.106,52.153a16.84,16.84,0,0,0,6.163-3.091l1.106,2.212-6.167,3.084ZM62.318,72.124l-2.2,1.1L51.082,55.14l2.2-1.1ZM42.8,50.724A14.894,14.894,0,1,1,57.693,35.831,14.894,14.894,0,0,1,42.8,50.724Zm18.865-30.78A1.986,1.986,0,1,1,63.65,21.93,1.986,1.986,0,0,1,61.665,19.944Zm9.929,15.886a1.986,1.986,0,1,1,1.986-1.986A1.986,1.986,0,0,1,71.594,35.831Z" transform="translate(-15.99 -15.969)"></path><path class="a" d="M140.908,72a12.908,12.908,0,1,0,12.908,12.908A12.908,12.908,0,0,0,140.908,72Zm0,23.83A10.922,10.922,0,1,1,151.83,84.908,10.922,10.922,0,0,1,140.908,95.83Z" transform="translate(-114.098 -65.046)"></path></g></g></svg>
