<svg xmlns="http://www.w3.org/2000/svg" width="63.387" height="55.475" viewBox="0 0 63.387 55.475"><defs><style>.a{fill:#ff0000;}</style></defs><g transform="translate(-1239.307 -4266.269)"><g transform="translate(1239.307 4262.274)"><path class="a" d="M60.415,3.994H2.971A2.975,2.975,0,0,0,0,6.965V58.471a.99.99,0,0,0,.99.99H8.875c.014,0,.025.008.039.008h7.925c.014,0,.025-.007.039-.008H27.692c.014,0,.025.008.039.008h7.925c.014,0,.025-.007.039-.008H46.509c.014,0,.025.008.039.008h7.925c.014,0,.025-.007.039-.008H62.4a.99.99,0,0,0,.99-.99V6.965a2.975,2.975,0,0,0-2.971-2.971ZM47.538,57.48V54.519h5.944V57.48Zm1.982-4.942a.99.99,0,1,1,1.981,0Zm4.953,0h-.991a2.971,2.971,0,0,0-5.942,0h-.991a.99.99,0,0,0-.99.99V57.48h-1.98V48.575H57.443V57.48h-1.98V53.529A.99.99,0,0,0,54.473,52.538Zm3.961-5.944H42.587a.99.99,0,0,0-.99.99v9.9h-.989v-9.9a.99.99,0,0,0-.99-.99H23.77a.99.99,0,0,0-.99.99v9.9H21.79v-9.9a.99.99,0,0,0-.99-.99H4.953a.99.99,0,0,0-.99.99v9.9H1.981V9.936H61.406V57.48H59.424v-9.9A.99.99,0,0,0,58.434,46.594ZM28.721,57.48V54.519h5.944V57.48ZM30.7,52.538a.99.99,0,0,1,1.981,0Zm4.953,0h-.991a2.971,2.971,0,1,0-5.942,0h-.991a.99.99,0,0,0-.99.99V57.48H24.76V48.575H38.626V57.48h-1.98V53.529A.99.99,0,0,0,35.656,52.538ZM9.9,57.48V54.519h5.944V57.48Zm1.981-4.942a.99.99,0,1,1,1.981,0Zm4.954,0h-.992a2.971,2.971,0,1,0-5.942,0h-.99a.99.99,0,0,0-.99.99V57.48H5.943V48.575H19.809V57.48h-1.98V53.529A.99.99,0,0,0,16.839,52.538ZM2.971,5.975h1.01a1,1,0,1,0,.011,0H6.952a1,1,0,1,0,.011,0H9.926a1,1,0,1,0,.011,0H60.415a.991.991,0,0,1,.99.99v.99H1.981v-.99a.991.991,0,0,1,.99-.99Z" transform="translate(0 0)"></path><path class="a" d="M39.655,11.994H4.991a.99.99,0,0,0-.99.99v30.7a.99.99,0,0,0,.99.99H39.655a.99.99,0,0,0,.99-.99v-30.7a.99.99,0,0,0-.99-.99Zm-.99,30.7H5.982V13.975H38.665Z" transform="translate(-0.038 -0.077)"></path><path class="a" d="M42.99,22.979H58.836a.99.99,0,1,0,0-1.981H42.99a.99.99,0,0,0,0,1.981Z" transform="translate(-0.403 -0.163)"></path><path class="a" d="M42.99,19.979H58.836a.99.99,0,1,0,0-1.981H42.99a.99.99,0,0,0,0,1.981Z" transform="translate(-0.403 -0.134)"></path><path class="a" d="M42.99,25.979H50.9A.99.99,0,0,0,50.9,24H42.99a.99.99,0,0,0,0,1.981Z" transform="translate(-0.403 -0.192)"></path><path class="a" d="M42.99,30.977H50.9A.99.99,0,0,0,50.9,29H42.99a.99.99,0,0,0,0,1.981Z" transform="translate(-0.403 -0.24)"></path><path class="a" d="M59.827,34.984a.99.99,0,0,0-.99-.99H42.99a.99.99,0,0,0-.99.99v2.971a.99.99,0,0,0,.99.99H58.837a.99.99,0,0,0,.99-.99Zm-1.981,1.981H43.981v-.99H57.847Z" transform="translate(-0.403 -0.288)"></path><path class="a" d="M55.971,28.988a.99.99,0,0,0-.99-.99h-.989A.3.3,0,0,0,53.96,28a.941.941,0,0,0-.186.038.976.976,0,0,0-.2.052c-.009,0-.02,0-.029.008a.878.878,0,0,0-.111.087.916.916,0,0,0-.168.132.973.973,0,0,0-.1.155,1.018,1.018,0,0,0-.092.163,1,1,0,0,0-.043.21.929.929,0,0,0-.028.139c0,.011.006.02.006.03a.965.965,0,0,0,.04.194.91.91,0,0,0,.051.188.261.261,0,0,0,.008.03l.359.719a.974.974,0,0,0-.464.817.99.99,0,0,0,.99.99h.994a.982.982,0,0,0,.409-.1c.009,0,.019,0,.027-.007a.966.966,0,0,0,.112-.087.944.944,0,0,0,.167-.132.973.973,0,0,0,.1-.155,1.067,1.067,0,0,0,.093-.164,1.042,1.042,0,0,0,.042-.209.929.929,0,0,0,.028-.139c0-.011-.006-.02-.006-.03a3.171,3.171,0,0,0-.091-.383c0-.009,0-.02-.008-.029l-.359-.719a.97.97,0,0,0,.465-.817Z" transform="translate(-0.508 -0.23)"></path><path class="a" d="M10.99,40.754H33.769a.99.99,0,0,0,.99-.99V22.927a.99.99,0,0,0-.99-.99H30.8v0s0-.006,0-.01a5.929,5.929,0,0,0-8.421-5.394,5.93,5.93,0,0,0-8.422,5.394v.012H10.99a.99.99,0,0,0-.99.99V39.764a.99.99,0,0,0,.99.99Zm21.788-1.981H29.807V23.917h2.971ZM28.821,21.919s0,0,0,.007v.012H25.848v-.012s0-.009,0-.013a5.912,5.912,0,0,0-1.479-3.9,3.867,3.867,0,0,1,.494-.051,3.965,3.965,0,0,1,3.961,3.956Zm-7.922.006a3.942,3.942,0,0,1,1.484-3.066,3.943,3.943,0,0,1,1.483,3.066s0,.006,0,.01v0H20.9s0-.008,0-.012Zm-1-3.962a3.7,3.7,0,0,1,.494.051A5.913,5.913,0,0,0,18.919,21.9c0,.009,0,.017,0,.025v.012H15.942v-.012A3.966,3.966,0,0,1,19.9,17.963Zm-7.922,5.954H27.826V38.773H11.981Z" transform="translate(-0.096 -0.115)"></path></g></g></svg>
