<svg xmlns="http://www.w3.org/2000/svg" width="73.066" height="74.284" viewBox="0 0 73.066 74.284"><defs><style>.a{fill:#ff0000;}</style></defs><g transform="translate(-718 -4893.358)"><g transform="translate(716 4892.358)"><path class="a" d="M44.622,58.791H42.187V46.857a1.218,1.218,0,0,0-2.436,0V58.791H8.089V34.436H18.221a1.218,1.218,0,1,0,0-2.436H6.871a1.218,1.218,0,0,0-1.218,1.218V58.791H3.218A1.218,1.218,0,0,0,2,60.009v2.436a6.089,6.089,0,0,0,6.089,6.089H39.751a6.089,6.089,0,0,0,6.089-6.089V60.009A1.218,1.218,0,0,0,44.622,58.791ZM43.4,62.444A3.653,3.653,0,0,1,39.751,66.1H37.315V64.88a1.218,1.218,0,1,0-2.436,0V66.1H12.96V64.88a1.218,1.218,0,1,0-2.436,0V66.1H8.089a3.653,3.653,0,0,1-3.653-3.653V61.227H43.4Z" transform="translate(0 6.751)"></path><path class="a" d="M55.089,8.436h2.436a1.218,1.218,0,0,0,0-2.436H55.089a3.653,3.653,0,0,0-3.653,3.653v1.218H50.218a1.218,1.218,0,1,0,0,2.436h1.218V16.96a1.218,1.218,0,0,0,2.436,0V13.307h1.218a1.218,1.218,0,1,0,0-2.436H53.871V9.653A1.218,1.218,0,0,1,55.089,8.436Z" transform="translate(10.235 1.089)"></path><path class="a" d="M62.267,2H47.653A3.653,3.653,0,0,0,44,5.653V8.089a1.218,1.218,0,0,0,2.436,0V5.653a1.218,1.218,0,0,1,1.218-1.218H62.267a1.218,1.218,0,0,1,1.218,1.218V20.267a1.218,1.218,0,0,1-1.218,1.218H47.653a1.218,1.218,0,0,1-1.218-1.218V12.96a1.218,1.218,0,1,0-2.436,0v7.307a3.653,3.653,0,0,0,3.653,3.653H62.267a3.653,3.653,0,0,0,3.653-3.653V5.653A3.653,3.653,0,0,0,62.267,2Z" transform="translate(9.146 0.218)"></path><path class="a" d="M49,42.871A4.871,4.871,0,1,0,53.871,38,4.871,4.871,0,0,0,49,42.871Zm7.307,0a2.436,2.436,0,1,1-2.436-2.436A2.436,2.436,0,0,1,56.307,42.871Z" transform="translate(10.235 8.058)"></path><path class="a" d="M62.267,33H47.653A3.653,3.653,0,0,0,44,36.653V51.267a3.653,3.653,0,0,0,3.653,3.653H62.267a3.653,3.653,0,0,0,3.653-3.653V48.831a1.218,1.218,0,0,0-2.436,0v2.436a1.218,1.218,0,0,1-1.218,1.218H47.653a1.218,1.218,0,0,1-1.218-1.218V36.653a1.218,1.218,0,0,1,1.218-1.218H62.267a1.218,1.218,0,0,1,1.218,1.218V43.96a1.218,1.218,0,0,0,2.436,0V36.653A3.653,3.653,0,0,0,62.267,33Z" transform="translate(9.146 6.969)"></path><path class="a" d="M24.572,15.559a1.211,1.211,0,0,0,1.193.049l7.307-3.653a1.218,1.218,0,0,0,0-2.168L25.766,6.133A1.218,1.218,0,0,0,24,7.217v7.307A1.218,1.218,0,0,0,24.572,15.559ZM26.436,9.19,29.8,10.87l-3.361,1.681Z" transform="translate(4.791 1.09)"></path><path class="a" d="M28.96,22.92A10.96,10.96,0,1,0,18,11.96,10.96,10.96,0,0,0,28.96,22.92Zm0-19.484a8.524,8.524,0,1,1-8.524,8.524A8.524,8.524,0,0,1,28.96,3.436Z" transform="translate(3.484)"></path><path class="a" d="M37.218,24.307a1.218,1.218,0,0,0,.974-.487l3.653-4.871A1.218,1.218,0,1,0,39.9,17.487l-3.653,4.871a1.218,1.218,0,0,0,.974,1.948Z" transform="translate(7.404 3.484)"></path><path class="a" d="M39.244,27.6a1.218,1.218,0,0,0,1.7.244l4.871-3.653a1.218,1.218,0,1,0-1.461-1.948L39.487,25.9a1.218,1.218,0,0,0-.244,1.7Z" transform="translate(8.058 4.573)"></path><path class="a" d="M50.547,28.979a1.218,1.218,0,0,0-1.461-.974L43,29.223a1.224,1.224,0,0,0,.244,2.436h.244l6.089-1.218a1.218,1.218,0,0,0,.974-1.461Z" transform="translate(8.688 5.875)"></path><path class="a" d="M3.218,32.92H17.831A1.218,1.218,0,0,0,19.049,31.7V12.218A1.218,1.218,0,0,0,17.831,11H3.218A1.218,1.218,0,0,0,2,12.218V31.7A1.218,1.218,0,0,0,3.218,32.92ZM4.436,13.436H16.613V30.484H4.436Z" transform="translate(0 2.178)"></path><path class="a" d="M11.653,15H9.218a1.218,1.218,0,0,0,0,2.436h2.436a1.218,1.218,0,0,0,0-2.436Z" transform="translate(1.307 3.049)"></path><path class="a" d="M12.089,19H7.218a1.218,1.218,0,0,0,0,2.436h4.871a1.218,1.218,0,0,0,0-2.436Z" transform="translate(0.871 3.92)"></path><path class="a" d="M12.089,23H7.218a1.218,1.218,0,1,0,0,2.436h4.871a1.218,1.218,0,1,0,0-2.436Z" transform="translate(0.871 4.791)"></path><path class="a" d="M42.019,29.941A1.222,1.222,0,0,0,39.9,31.158l5.37,9.292L25.786,47.757H25.6l-3.166,1.827L20.33,50.8a2.432,2.432,0,0,1-3.325-.889L14.57,45.7a2.436,2.436,0,0,1,.913-3.215L19.7,40.048l3.044,5.273A1.222,1.222,0,1,0,24.86,44.1l-3.142-5.431L37,26.068l.5.865a1.222,1.222,0,0,0,2.119-1.218L38.4,23.608a1.234,1.234,0,0,0-1.839-.329L19.514,37.333l-5.188,3a4.871,4.871,0,0,0-2.241,5.517l-1.218.694a3.65,3.65,0,0,0,1.827,6.82,3.726,3.726,0,0,0,1.827-.487l1.218-.694a4.725,4.725,0,0,0,2.131,1.266,4.615,4.615,0,0,0,1.279.17,4.8,4.8,0,0,0,2.436-.658l1.059-.609,2.436,4.226A3.65,3.65,0,1,0,31.4,52.92l-2.216-3.86L47.45,42.2a1.221,1.221,0,0,0,.633-1.741ZM13.255,50.752a1.217,1.217,0,1,1-1.218-2.107l1.059-.609,1.218,2.107Zm16.026,3.41a1.217,1.217,0,0,1-2.107,1.218l-2.436-4.226L26.76,50h.1Z" transform="translate(1.532 4.792)"></path></g></g></svg>
