<svg xmlns="http://www.w3.org/2000/svg" width="58.593" height="58.593" viewBox="0 0 58.593 58.593"><defs><style>.a{fill:#ff0000;}</style></defs><g transform="translate(-741.726 -5524.247)"><g transform="translate(741.726 5524.247)"><path class="a" d="M5.283,5.283a1.008,1.008,0,0,0-.205.322A1.01,1.01,0,0,0,5.283,6.67.981.981,0,0,0,6.67,5.283,1.022,1.022,0,0,0,5.283,5.283Z" transform="translate(-2.07 -2.071)"></path><path class="a" d="M8.605,5.078a.911.911,0,0,0-.322.205.99.99,0,0,0,0,1.387.977.977,0,0,0,1.67-.693,1.027,1.027,0,0,0-.283-.693A.993.993,0,0,0,8.605,5.078Z" transform="translate(-2.141 -2.07)"></path><path class="a" d="M11.605,5.078a1.008,1.008,0,0,0-.322.205.99.99,0,0,0,0,1.387,1.128,1.128,0,0,0,.322.205.977.977,0,0,0,.371.078.967.967,0,0,0,.977-.977,1.027,1.027,0,0,0-.283-.693A1.013,1.013,0,0,0,11.605,5.078Z" transform="translate(-2.211 -2.071)"></path><rect class="a" width="14" height="2" transform="translate(12.274 16.753)"></rect><rect class="a" width="14" height="2" transform="translate(12.274 22.753)"></rect><rect class="a" width="19" height="2" transform="translate(12.274 27.753)"></rect><rect class="a" width="13" height="2" transform="translate(12.274 33.753)"></rect><rect class="a" width="8" height="2" transform="translate(12.274 39.753)"></rect><rect class="a" width="7" height="2" transform="translate(12.274 45.753)"></rect><path class="a" d="M56.853,13.719a3.711,3.711,0,0,0-2.644,1.1L50.827,18.2V4.93A2.93,2.93,0,0,0,47.9,2H4.93A2.93,2.93,0,0,0,2,4.93V57.663a2.93,2.93,0,0,0,2.93,2.93H47.9a2.93,2.93,0,0,0,2.93-2.93V28.771L59.5,20.1a3.738,3.738,0,0,0-2.643-6.383ZM3.953,4.93a.977.977,0,0,1,.977-.977H47.9a.977.977,0,0,1,.977.977v2.93H3.953ZM48.874,57.663a.977.977,0,0,1-.977.977H4.93a.977.977,0,0,1-.977-.977V9.812H48.874V20.15l-5.859,5.859V23.08L32.677,12.742H9.812V55.71h33.2V36.583l5.859-5.859ZM25.56,43.464l-2.644,7.931,7.931-2.644,2.807-2.807,7.408-7.408v15.22h-29.3V14.7H31.3v9.765h9.765v3.5l-12.7,12.7Zm2.807-.045,2.525,2.525-1.1,1.1L26,48.307l1.263-3.788Zm4.883-27.343,6.432,6.432H33.249Zm-.977,28.488-2.525-2.525L52.78,19.006l2.525,2.525ZM58.116,18.72l-1.43,1.43-2.525-2.525,1.43-1.43a1.786,1.786,0,1,1,2.526,2.526Z" transform="translate(-2 -2)"></path></g></g></svg>
