<svg width="31" height="31" viewBox="0 0 31 31" fill="none" xmlns="http://www.w3.org/2000/svg">
<path opacity="0.1" fill-rule="evenodd" clip-rule="evenodd" d="M0.399414 15.5635C0.399414 7.14113 7.22707 0.313477 15.6494 0.313477C24.0718 0.313477 30.8994 7.14113 30.8994 15.5635C30.8994 23.9858 24.0718 30.8135 15.6494 30.8135C7.22707 30.8135 0.399414 23.9858 0.399414 15.5635Z" fill="#414141"/>
<path d="M11.8441 12.2029C12.642 12.2029 13.2888 11.5561 13.2888 10.7582C13.2888 9.9603 12.642 9.31348 11.8441 9.31348C11.0462 9.31348 10.3994 9.9603 10.3994 10.7582C10.3994 11.5561 11.0462 12.2029 11.8441 12.2029Z" fill="white"/>
<path d="M14.6531 13.2977V21.3129H17.1418V17.3492C17.1418 16.3033 17.3385 15.2904 18.6353 15.2904C19.9143 15.2904 19.9302 16.4862 19.9302 17.4153V21.3136H22.4201V16.9181C22.4201 14.7589 21.9553 13.0996 19.4317 13.0996C18.22 13.0996 17.4079 13.7645 17.0757 14.3938H17.0421V13.2977H14.6531ZM10.5977 13.2977H13.0902V21.3129H10.5977V13.2977Z" fill="white"/>
</svg>
