<svg width="31" height="31" viewBox="0 0 31 31" fill="none" xmlns="http://www.w3.org/2000/svg">
<path opacity="0.1" fill-rule="evenodd" clip-rule="evenodd" d="M0.0078125 15.5596C0.0078125 7.13723 6.83547 0.30957 15.2578 0.30957C23.6802 0.30957 30.5078 7.13723 30.5078 15.5596C30.5078 23.9819 23.6802 30.8096 15.2578 30.8096C6.83547 30.8096 0.0078125 23.9819 0.0078125 15.5596Z" fill="#414141"/>
<path fill-rule="evenodd" clip-rule="evenodd" d="M15.2591 7.42627C13.0502 7.42627 12.773 7.43593 11.9054 7.47541C11.0395 7.51506 10.4485 7.65214 9.93137 7.85327C9.39643 8.06102 8.94265 8.33891 8.49057 8.79116C8.03815 9.24324 7.76025 9.69702 7.55184 10.2318C7.35019 10.7491 7.21294 11.3403 7.17397 12.2058C7.13517 13.0734 7.125 13.3508 7.125 15.5597C7.125 17.7686 7.13483 18.045 7.17414 18.9125C7.21396 19.7784 7.35104 20.3694 7.552 20.8866C7.75992 21.4215 8.03781 21.8753 8.49006 22.3274C8.94197 22.7798 9.39575 23.0584 9.93035 23.2661C10.4478 23.4672 11.039 23.6043 11.9047 23.644C12.7723 23.6834 13.0493 23.6931 15.2581 23.6931C17.4672 23.6931 17.7435 23.6834 18.6111 23.644C19.477 23.6043 20.0687 23.4672 20.5861 23.2661C21.1209 23.0584 21.574 22.7798 22.0259 22.3274C22.4784 21.8753 22.7562 21.4215 22.9647 20.8867C23.1646 20.3694 23.3019 19.7782 23.3425 18.9127C23.3815 18.0451 23.3917 17.7686 23.3917 15.5597C23.3917 13.3508 23.3815 13.0736 23.3425 12.206C23.3019 11.3401 23.1646 10.7491 22.9647 10.232C22.7562 9.69702 22.4784 9.24324 22.0259 8.79116C21.5735 8.33874 21.1211 8.06085 20.5856 7.85327C20.0671 7.65214 19.4758 7.51506 18.6099 7.47541C17.7423 7.43593 17.4661 7.42627 15.2566 7.42627H15.2591ZM14.5294 8.89196C14.746 8.89162 14.9876 8.89196 15.2591 8.89196C17.4307 8.89196 17.6881 8.89975 18.5456 8.93872C19.3386 8.97499 19.769 9.10749 20.0557 9.21882C20.4353 9.36624 20.7059 9.54246 20.9904 9.82713C21.2751 10.1118 21.4513 10.3829 21.5991 10.7625C21.7104 11.0488 21.8431 11.4792 21.8792 12.2722C21.9181 13.1296 21.9266 13.3872 21.9266 15.5578C21.9266 17.7284 21.9181 17.986 21.8792 18.8434C21.8429 19.6364 21.7104 20.0668 21.5991 20.3531C21.4516 20.7327 21.2751 21.003 20.9904 21.2875C20.7057 21.5721 20.4355 21.7484 20.0557 21.8958C19.7694 22.0076 19.3386 22.1398 18.5456 22.176C17.6882 22.215 17.4307 22.2235 15.2591 22.2235C13.0873 22.2235 12.8299 22.215 11.9725 22.176C11.1795 22.1394 10.7491 22.0069 10.4622 21.8956C10.0826 21.7482 9.81153 21.572 9.52687 21.2873C9.2422 21.0026 9.06597 20.7322 8.91821 20.3525C8.80689 20.0661 8.67421 19.6357 8.63812 18.8427C8.59915 17.9853 8.59135 17.7277 8.59135 15.5558C8.59135 13.3838 8.59915 13.1276 8.63812 12.2702C8.67438 11.4772 8.80689 11.0468 8.91821 10.7601C9.06563 10.3805 9.2422 10.1094 9.52687 9.82476C9.81153 9.54009 10.0826 9.36386 10.4622 9.21611C10.7489 9.10427 11.1795 8.9721 11.9725 8.93567C12.7228 8.90178 13.0136 8.89162 14.5294 8.88992V8.89196ZM19.6006 10.2424C19.0618 10.2424 18.6246 10.6791 18.6246 11.2181C18.6246 11.757 19.0618 12.1941 19.6006 12.1941C20.1395 12.1941 20.5766 11.757 20.5766 11.2181C20.5766 10.6793 20.1395 10.2424 19.6006 10.2424ZM15.2591 11.3828C12.9524 11.3828 11.0823 13.253 11.0823 15.5597C11.0823 17.8663 12.9524 19.7357 15.2591 19.7357C17.5658 19.7357 19.4353 17.8663 19.4353 15.5597C19.4353 13.253 17.5658 11.3828 15.2591 11.3828ZM15.2591 12.8485C16.7563 12.8485 17.9702 14.0623 17.9702 15.5597C17.9702 17.0569 16.7563 18.2708 15.2591 18.2708C13.7617 18.2708 12.5479 17.0569 12.5479 15.5597C12.5479 14.0623 13.7617 12.8485 15.2591 12.8485Z" fill="white"/>
</svg>
