<svg width="32" height="31" viewBox="0 0 32 31" fill="none" xmlns="http://www.w3.org/2000/svg">
<path opacity="0.1" fill-rule="evenodd" clip-rule="evenodd" d="M0.507812 15.5596C0.507812 7.13723 7.33547 0.30957 15.7578 0.30957C24.1802 0.30957 31.0078 7.13723 31.0078 15.5596C31.0078 23.9819 24.1802 30.8096 15.7578 30.8096C7.33547 30.8096 0.507812 23.9819 0.507812 15.5596Z" fill="#414141"/>
<path fill-rule="evenodd" clip-rule="evenodd" d="M22.1135 10.3173C22.8134 10.5094 23.3647 11.0753 23.5517 11.794C23.8917 13.0964 23.8917 15.8141 23.8917 15.8141C23.8917 15.8141 23.8917 18.5317 23.5517 19.8342C23.3647 20.5529 22.8134 21.1188 22.1135 21.311C20.8451 21.6599 15.7583 21.6599 15.7583 21.6599C15.7583 21.6599 10.6716 21.6599 9.40306 21.311C8.70313 21.1188 8.15191 20.5529 7.96484 19.8342C7.625 18.5317 7.625 15.8141 7.625 15.8141C7.625 15.8141 7.625 13.0964 7.96484 11.794C8.15191 11.0753 8.70313 10.5094 9.40306 10.3173C10.6716 9.96826 15.7583 9.96826 15.7583 9.96826C15.7583 9.96826 20.8451 9.96826 22.1135 10.3173ZM14.2333 13.5265V18.6099L18.3 16.0683L14.2333 13.5265Z" fill="white"/>
</svg>
