<svg width="32" height="31" viewBox="0 0 32 31" fill="none" xmlns="http://www.w3.org/2000/svg">
<path opacity="0.1" fill-rule="evenodd" clip-rule="evenodd" d="M0.899414 15.5635C0.899414 7.14113 7.72707 0.313477 16.1494 0.313477C24.5718 0.313477 31.3994 7.14113 31.3994 15.5635C31.3994 23.9858 24.5718 30.8135 16.1494 30.8135C7.72707 30.8135 0.899414 23.9858 0.899414 15.5635Z" fill="#414141"/>
<path d="M16.9434 21.3135V15.8486H18.787L19.061 13.7089H16.9434V12.3461C16.9434 11.7286 17.1154 11.3059 18.0016 11.3059H19.1244V9.39827C18.5781 9.33972 18.0289 9.31145 17.4795 9.31359C15.8499 9.31359 14.731 10.3084 14.731 12.1347V13.7049H12.8994V15.8446H14.735V21.3135H16.9434Z" fill="white"/>
</svg>
